<svg xmlns="http://www.w3.org/2000/svg" xmlns:xlink="http://www.w3.org/1999/xlink" width="1000" zoomAndPan="magnify" viewBox="0 0 750 749.999995" height="1000" preserveAspectRatio="xMidYMid meet" version="1.0"><defs><g/><clipPath id="5920664bbe"><path d="M 0.898438 0.941406 L 749.058594 0.941406 L 749.058594 749.101562 L 0.898438 749.101562 Z M 0.898438 0.941406 " clip-rule="nonzero"/></clipPath><clipPath id="b90e4fab13"><path d="M 0 0.0390625 L 749.960938 0.0390625 L 749.960938 750 L 0 750 Z M 0 0.0390625 " clip-rule="nonzero"/></clipPath><clipPath id="f20e86f383"><path d="M 141.3125 719.816406 L 608.859375 719.816406 L 608.859375 750 L 141.3125 750 Z M 141.3125 719.816406 " clip-rule="nonzero"/></clipPath><clipPath id="355956a758"><path d="M 141.371094 719.816406 L 608.535156 719.816406 L 608.535156 749.816406 L 141.371094 749.816406 Z M 141.371094 719.816406 " clip-rule="nonzero"/></clipPath><clipPath id="d0c59db62d"><path d="M 322.546875 680.984375 L 424.710938 680.984375 L 424.710938 750 L 322.546875 750 Z M 322.546875 680.984375 " clip-rule="nonzero"/></clipPath><clipPath id="f83d64b92e"><path d="M 322.546875 680.984375 L 424.539062 680.984375 L 424.539062 749.980469 L 322.546875 749.980469 Z M 322.546875 680.984375 " clip-rule="nonzero"/></clipPath><clipPath id="536aa79ced"><path d="M 64.59375 0 L 532.144531 0 L 532.144531 28.726562 L 64.59375 28.726562 Z M 64.59375 0 " clip-rule="nonzero"/></clipPath><clipPath id="3d968b02b1"><path d="M 64.632812 0 L 531.820312 0 L 531.820312 28.5 L 64.632812 28.5 Z M 64.632812 0 " clip-rule="nonzero"/></clipPath></defs><rect x="-75" width="900" fill="#ffffff" y="-74.999999" height="899.999994" fill-opacity="1"/><rect x="-75" width="900" fill="#000000" y="-74.999999" height="899.999994" fill-opacity="1"/><g clip-path="url(#5920664bbe)"><path fill="#ffbf3f" d="M 141.296875 723.964844 L 608.707031 723.964844 L 608.707031 708.679688 L 542.945312 708.679688 L 542.945312 693.886719 L 608.59375 693.886719 L 593.472656 678.765625 L 156.441406 678.765625 L 141.296875 693.886719 L 206.945312 693.886719 L 206.945312 708.679688 L 141.296875 708.679688 Z M 64.175781 0.0390625 L 646.941406 0.0390625 L 646.941406 25.164062 L 653.113281 25.164062 L 653.113281 0.0390625 L 672.675781 0.0390625 L 672.675781 25.164062 L 678.84375 25.164062 L 678.84375 0.0390625 L 698.40625 0.0390625 L 698.40625 25.164062 L 704.574219 25.164062 L 704.574219 0.0390625 L 724.160156 0.0390625 L 724.160156 25.164062 L 730.328125 25.164062 L 730.328125 0.0390625 L 749.890625 0.0390625 L 749.890625 749.929688 L 622.355469 749.929688 L 622.355469 693.628906 L 595.714844 666.988281 L 154.246094 666.988281 L 127.578125 693.628906 L 127.578125 749.929688 L 0 749.929688 L 0 66.832031 L 62.28125 66.832031 L 62.28125 0.0390625 Z M 3.691406 49.5625 L 46.953125 49.5625 L 46.953125 3.707031 Z M 48.726562 53.136719 L 50.527344 53.136719 L 50.527344 0.0390625 L 0 0.0390625 L 0 53.136719 Z M 141.296875 736.820312 L 141.296875 748.035156 L 608.707031 748.035156 L 608.707031 736.820312 Z M 158.917969 3.824219 L 158.917969 28.949219 L 746.128906 28.949219 L 746.128906 746.144531 L 626.144531 746.144531 L 626.144531 692.0625 L 597.28125 663.203125 L 152.632812 663.203125 L 123.863281 692.0625 L 123.863281 746.144531 L 3.785156 746.144531 L 3.785156 70.617188 L 66.070312 70.617188 L 66.070312 3.824219 Z M 335.71875 694.402344 L 341.746094 697.882812 L 341.746094 704.894531 L 335.71875 708.378906 L 329.6875 704.894531 L 329.6875 697.882812 Z M 519.128906 686.710938 L 531.820312 694.027344 L 531.820312 708.679688 L 519.128906 716.019531 L 506.441406 708.679688 L 506.441406 694.144531 L 519.128906 686.828125 Z M 395.5 695.757812 L 400.359375 698.5625 L 400.359375 704.171875 L 395.5 706.976562 L 390.636719 704.171875 L 390.636719 698.5625 Z M 486.246094 689.121094 L 496.859375 695.242188 L 496.859375 707.488281 L 486.246094 713.613281 L 475.660156 707.488281 L 475.660156 695.242188 Z M 458.695312 691.128906 L 467.550781 696.246094 L 467.550781 706.484375 L 458.695312 711.578125 L 449.835938 706.484375 L 449.835938 696.246094 Z M 434.949219 692.859375 L 442.289062 697.113281 L 442.289062 705.597656 L 434.949219 709.847656 L 427.679688 705.597656 L 427.679688 697.113281 L 435.042969 692.859375 Z M 414.101562 694.402344 L 420.132812 697.882812 L 420.132812 704.894531 L 414.101562 708.378906 L 408.050781 704.894531 L 408.050781 697.882812 Z M 230.667969 686.710938 L 243.355469 694.027344 L 243.355469 708.679688 L 230.667969 716.019531 L 217.976562 708.679688 L 217.976562 694.144531 L 230.667969 686.828125 Z M 374.910156 695.757812 L 379.746094 698.5625 L 379.746094 704.171875 L 374.910156 706.976562 L 370.050781 704.171875 L 370.050781 698.5625 Z M 354.296875 695.757812 L 359.160156 698.5625 L 359.160156 704.171875 L 354.296875 706.976562 L 349.4375 704.171875 L 349.4375 698.5625 Z M 263.550781 689.121094 L 274.160156 695.242188 L 274.160156 707.488281 L 263.550781 713.613281 L 252.9375 707.488281 L 252.9375 695.242188 Z M 291.125 691.128906 L 299.984375 696.246094 L 299.984375 706.484375 L 291.125 711.578125 L 282.269531 706.484375 L 282.269531 696.246094 Z M 314.871094 692.859375 L 322.210938 697.113281 L 322.210938 705.597656 L 314.871094 709.847656 L 307.507812 705.597656 L 307.507812 697.113281 Z M 314.871094 692.859375 " fill-opacity="1" fill-rule="evenodd"/></g><g clip-path="url(#b90e4fab13)"><path stroke-linecap="butt" transform="matrix(0.74996, 0, 0, 0.74996, 0.00000265, 0.039622)" fill="none" stroke-linejoin="miter" d="M -0.00000353352 -0.000746076 L -0.00000353352 1000.000019 L 1000.000762 1000.000019 L 1000.000762 -0.000746076 L -0.00000353352 -0.000746076 " stroke="#ffbf3f" stroke-width="18.00095" stroke-opacity="1" stroke-miterlimit="4"/></g><g clip-path="url(#f20e86f383)"><path fill="#ffbf3f" d="M 141.3125 719.816406 L 608.898438 719.816406 L 608.898438 750 L 141.3125 750 Z M 141.3125 719.816406 " fill-opacity="1" fill-rule="nonzero"/></g><g clip-path="url(#355956a758)"><path stroke-linecap="butt" transform="matrix(0.74996, 0, 0, 0.74996, 141.369634, 719.817825)" fill="none" stroke-linejoin="miter" d="M 0.00194622 -0.00189166 L 623.264051 -0.00189166 L 623.264051 40.23461 L 0.00194622 40.23461 Z M 0.00194622 -0.00189166 " stroke="#ffbf3f" stroke-width="18.00095" stroke-opacity="1" stroke-miterlimit="4"/></g><g clip-path="url(#d0c59db62d)"><path fill="#ffbf3f" d="M 322.546875 680.984375 L 424.722656 680.984375 L 424.722656 750 L 322.546875 750 Z M 322.546875 680.984375 " fill-opacity="1" fill-rule="nonzero"/></g><g clip-path="url(#f83d64b92e)"><path stroke-linecap="butt" transform="matrix(0.74996, 0, 0, 0.74996, 322.548328, 680.983163)" fill="none" stroke-linejoin="miter" d="M -0.00193708 0.00161633 L 136.213582 0.00161633 L 136.213582 92.016887 L -0.00193708 92.016887 Z M -0.00193708 0.00161633 " stroke="#ffbf3f" stroke-width="18.00095" stroke-opacity="1" stroke-miterlimit="4"/></g><g clip-path="url(#536aa79ced)"><path fill="#ffbf3f" d="M 64.59375 0 L 532.183594 0 L 532.183594 28.726562 L 64.59375 28.726562 Z M 64.59375 0 " fill-opacity="1" fill-rule="nonzero"/></g><g clip-path="url(#3d968b02b1)"><path stroke-linecap="butt" transform="matrix(0.74996, 0, 0, 0.74996, 64.632993, 0.00002)" fill="none" stroke-linejoin="miter" d="M -0.000240813 -0.0000266681 L 623.319099 -0.0000266681 L 623.319099 38.298869 L -0.000240813 38.298869 Z M -0.000240813 -0.0000266681 " stroke="#ffbf3f" stroke-width="18.00095" stroke-opacity="1" stroke-miterlimit="4"/></g><g fill="#ffffff" fill-opacity="1"><g transform="translate(330.479814, 730.216428)"><g><path d="M 12.671875 -42.234375 C 12.546875 -42.273438 12.585938 -42.316406 12.796875 -42.359375 C 13.085938 -42.398438 13.976562 -42.421875 15.46875 -42.421875 C 16.957031 -42.421875 18.929688 -42.421875 21.390625 -42.421875 L 30.8125 -42.421875 L 31.25 -41.171875 C 31.457031 -40.285156 31.832031 -38.960938 32.375 -37.203125 C 32.707031 -36.117188 32.976562 -35.195312 33.1875 -34.4375 C 33.40625 -33.6875 33.554688 -33.101562 33.640625 -32.6875 C 33.679688 -32.4375 33.992188 -31.351562 34.578125 -29.4375 C 35.160156 -27.550781 35.597656 -26.039062 35.890625 -24.90625 C 36.347656 -23.363281 36.785156 -21.859375 37.203125 -20.390625 C 37.628906 -18.929688 38.050781 -17.53125 38.46875 -16.1875 C 38.550781 -15.894531 38.65625 -15.53125 38.78125 -15.09375 C 38.90625 -14.65625 39.070312 -14.140625 39.28125 -13.546875 C 39.445312 -12.960938 39.570312 -12.492188 39.65625 -12.140625 C 39.738281 -11.785156 39.800781 -11.546875 39.84375 -11.421875 C 39.882812 -11.335938 39.9375 -11.148438 40 -10.859375 C 40.0625 -10.566406 40.175781 -10.1875 40.34375 -9.71875 C 40.675781 -8.757812 40.863281 -8.09375 40.90625 -7.71875 C 40.945312 -7.59375 41.007812 -7.363281 41.09375 -7.03125 C 41.1875 -6.695312 41.285156 -6.347656 41.390625 -5.984375 C 41.492188 -5.628906 41.597656 -5.304688 41.703125 -5.015625 C 41.804688 -4.722656 41.859375 -4.535156 41.859375 -4.453125 C 41.898438 -4.410156 42.046875 -3.929688 42.296875 -3.015625 C 42.335938 -2.847656 42.429688 -2.5 42.578125 -1.96875 C 42.722656 -1.445312 42.878906 -0.925781 43.046875 -0.40625 C 43.210938 0.113281 43.359375 0.59375 43.484375 1.03125 C 43.609375 1.46875 43.691406 1.707031 43.734375 1.75 C 43.734375 1.925781 43.796875 2.222656 43.921875 2.640625 C 44.046875 3.054688 44.148438 3.328125 44.234375 3.453125 C 44.273438 3.703125 44.316406 3.921875 44.359375 4.109375 C 44.398438 4.296875 44.441406 4.453125 44.484375 4.578125 C 44.523438 4.617188 44.460938 4.660156 44.296875 4.703125 C 44.128906 4.742188 43.550781 4.765625 42.5625 4.765625 C 41.582031 4.765625 40.28125 4.765625 38.65625 4.765625 L 32.1875 4.765625 L 31.9375 4.015625 C 31.851562 3.804688 31.769531 3.546875 31.6875 3.234375 C 31.601562 2.921875 31.519531 2.554688 31.4375 2.140625 C 31.4375 2.054688 31.394531 1.863281 31.3125 1.5625 C 31.226562 1.269531 31.125 0.894531 31 0.4375 C 30.832031 -0.0195312 30.695312 -0.445312 30.59375 -0.84375 C 30.488281 -1.238281 30.394531 -1.601562 30.3125 -1.9375 L 29.5625 -4.953125 L 15.375 -4.953125 L 15.25 -4.515625 C 14.875 -3.179688 14.53125 -1.90625 14.21875 -0.6875 C 13.90625 0.519531 13.617188 1.648438 13.359375 2.703125 L 12.796875 4.765625 L 6.40625 4.765625 C 4.726562 4.722656 3.394531 4.691406 2.40625 4.671875 C 1.425781 4.648438 0.9375 4.617188 0.9375 4.578125 C 2.15625 0.773438 3.304688 -3.035156 4.390625 -6.859375 C 5.484375 -10.691406 6.550781 -14.554688 7.59375 -18.453125 C 7.59375 -18.535156 7.675781 -18.859375 7.84375 -19.421875 C 8.007812 -19.984375 8.132812 -20.429688 8.21875 -20.765625 C 8.425781 -21.398438 8.613281 -22.03125 8.78125 -22.65625 C 8.945312 -23.28125 9.113281 -23.925781 9.28125 -24.59375 C 9.445312 -25.175781 9.625 -25.820312 9.8125 -26.53125 C 10.007812 -27.25 10.234375 -28.023438 10.484375 -28.859375 C 10.523438 -28.984375 10.585938 -29.222656 10.671875 -29.578125 C 10.753906 -29.941406 10.847656 -30.320312 10.953125 -30.71875 C 11.054688 -31.113281 11.160156 -31.488281 11.265625 -31.84375 C 11.367188 -32.195312 11.421875 -32.414062 11.421875 -32.5 C 11.503906 -32.707031 11.585938 -32.957031 11.671875 -33.25 C 11.753906 -33.550781 11.859375 -33.910156 11.984375 -34.328125 C 12.191406 -35.160156 12.316406 -35.640625 12.359375 -35.765625 C 12.441406 -35.972656 12.535156 -36.328125 12.640625 -36.828125 C 12.742188 -37.335938 12.898438 -37.96875 13.109375 -38.71875 C 13.441406 -39.71875 13.609375 -40.34375 13.609375 -40.59375 C 13.609375 -41.351562 13.296875 -41.898438 12.671875 -42.234375 Z M 23.28125 -28.734375 C 22.78125 -30.742188 22.488281 -31.75 22.40625 -31.75 C 22.320312 -31.5 22.132812 -30.703125 21.84375 -29.359375 C 21.757812 -29.023438 21.648438 -28.578125 21.515625 -28.015625 C 21.390625 -27.453125 21.222656 -26.753906 21.015625 -25.921875 C 20.929688 -25.671875 20.785156 -25.082031 20.578125 -24.15625 C 20.367188 -23.238281 20.140625 -22.273438 19.890625 -21.265625 C 19.554688 -20.097656 19.222656 -18.820312 18.890625 -17.4375 C 18.472656 -15.769531 18.265625 -14.875 18.265625 -14.75 C 18.265625 -14.664062 19.707031 -14.625 22.59375 -14.625 L 26.921875 -14.625 L 26.796875 -15.25 C 26.460938 -16.582031 26 -18.367188 25.40625 -20.609375 C 24.820312 -22.847656 24.113281 -25.554688 23.28125 -28.734375 Z M 23.28125 -28.734375 "/></g></g></g><g fill="#ffffff" fill-opacity="1"><g transform="translate(375.974671, 730.216428)"><g><path d="M 20.078125 -42.359375 C 20.117188 -42.398438 21.644531 -42.421875 24.65625 -42.421875 L 29.171875 -42.421875 L 29.171875 4.765625 L 16.9375 4.765625 L 16.9375 -30.375 L 11.734375 -30.375 L 11.734375 -33.578125 C 11.734375 -36.128906 11.753906 -37.507812 11.796875 -37.71875 L 11.796875 -38.71875 L 12.609375 -38.84375 C 14.367188 -39.050781 16.066406 -39.613281 17.703125 -40.53125 C 18.078125 -40.78125 18.554688 -41.113281 19.140625 -41.53125 C 19.722656 -41.957031 20.035156 -42.234375 20.078125 -42.359375 Z M 20.078125 -42.359375 "/></g></g></g><g fill="#ffffff" fill-opacity="1"><g transform="translate(233.246464, 285.018689)"><g><path d="M 12.5 -74.53125 L 32.234375 -74.53125 L 32.234375 -73.796875 C 32.296875 -73.171875 32.296875 -72.226562 32.234375 -70.96875 C 32.234375 -69.707031 32.300781 -69.054688 32.4375 -69.015625 C 32.582031 -68.984375 34.125 -68.96875 37.0625 -68.96875 L 41.46875 -69.078125 L 41.46875 -37.90625 L 41.890625 -37.90625 C 42.171875 -37.90625 42.59375 -37.90625 43.15625 -37.90625 L 44.09375 -38 L 44.09375 -25.40625 L 41.46875 -25.40625 L 41.46875 -1.578125 C 41.46875 -1.429688 41.429688 -1.082031 41.359375 -0.53125 C 41.015625 2.0625 39.863281 4.375 37.90625 6.40625 C 35.664062 8.71875 33.070312 10.148438 30.125 10.703125 C 29.425781 10.847656 27.992188 10.953125 25.828125 11.015625 C 23.585938 11.085938 22.429688 11.085938 22.359375 11.015625 C 22.285156 10.953125 22.25 8.75 22.25 4.40625 L 22.25 -2.09375 L 23.09375 -2.203125 C 23.726562 -2.273438 24.21875 -2.378906 24.5625 -2.515625 C 26.03125 -3.003906 27.117188 -4.054688 27.828125 -5.671875 C 28.242188 -6.367188 28.484375 -7.132812 28.546875 -7.96875 C 28.617188 -8.8125 28.65625 -11.6875 28.65625 -16.59375 L 28.65625 -25.296875 L 28.34375 -25.40625 C 28.0625 -25.40625 26.519531 -25.40625 23.71875 -25.40625 L 19.3125 -25.296875 L 19.3125 -24.875 C 19.3125 -24.664062 19.3125 -21.414062 19.3125 -15.125 C 19.3125 -8.40625 19.3125 -4.660156 19.3125 -3.890625 C 19.382812 -2.140625 19.316406 -0.703125 19.109375 0.421875 C 18.828125 1.472656 18.507812 2.414062 18.15625 3.25 C 16.625 6.613281 14.070312 8.957031 10.5 10.28125 C 9.375 10.769531 7.800781 11.015625 5.78125 11.015625 L 3.78125 11.015625 L 3.78125 4.625 C 3.78125 0.28125 3.816406 -2.097656 3.890625 -2.515625 L 3.890625 -3.15625 L 4.203125 -3.15625 C 4.828125 -3.15625 5.398438 -3.429688 5.921875 -3.984375 C 6.453125 -4.546875 6.785156 -5.144531 6.921875 -5.78125 C 6.992188 -6.195312 7.03125 -9.554688 7.03125 -15.859375 L 7.03125 -25.40625 L 3.78125 -25.40625 L 3.671875 -31.921875 L 3.671875 -38.3125 L 5.25 -38.3125 L 7.03125 -38.421875 L 6.921875 -53.859375 L 6.921875 -69.078125 L 11.4375 -69.1875 L 15.859375 -69.1875 L 15.859375 -70.03125 C 15.785156 -72.269531 14.875 -73.703125 13.125 -74.328125 Z M 28.5625 -46.921875 L 28.5625 -55.328125 L 24.046875 -55.4375 L 19.421875 -55.4375 L 19.421875 -53.234375 C 19.347656 -51.828125 19.3125 -48.988281 19.3125 -44.71875 L 19.3125 -38.3125 L 24.046875 -38.3125 L 28.5625 -38.421875 Z M 21.203125 -52.078125 C 21.273438 -52.078125 21.625 -52.078125 22.25 -52.078125 C 22.601562 -52.078125 23.445312 -52.078125 24.78125 -52.078125 L 26.25 -52.078125 L 26.25 -41.359375 L 21.421875 -41.359375 L 21.3125 -41.578125 C 21.3125 -41.710938 21.3125 -43.390625 21.3125 -46.609375 C 21.3125 -49.828125 21.273438 -51.539062 21.203125 -51.75 L 21 -52.078125 Z M 58.890625 -74.4375 C 59.453125 -74.5 62.320312 -74.53125 67.5 -74.53125 L 75.0625 -74.53125 L 75.0625 -65.9375 L 76.328125 -66.03125 C 77.367188 -66.101562 80.238281 -66.101562 84.9375 -66.03125 L 89.34375 -65.9375 L 89.34375 -52.59375 L 43.46875 -52.59375 L 43.46875 -65.9375 L 51.4375 -65.9375 C 56.6875 -65.9375 59.363281 -65.96875 59.46875 -66.03125 C 59.570312 -66.101562 59.609375 -67.257812 59.578125 -69.5 C 59.546875 -71.738281 59.457031 -73 59.3125 -73.28125 C 59.03125 -73.84375 58.644531 -74.191406 58.15625 -74.328125 C 58.019531 -74.328125 58.09375 -74.363281 58.375 -74.4375 C 58.507812 -74.4375 58.679688 -74.4375 58.890625 -74.4375 Z M 46.09375 -47.453125 C 46.15625 -47.523438 48.914062 -47.5625 54.375 -47.5625 L 62.671875 -47.453125 L 62.671875 -45.359375 C 62.671875 -43.890625 62.671875 -43.117188 62.671875 -43.046875 L 62.78125 -43.359375 C 63.132812 -44.054688 63.625 -44.722656 64.25 -45.359375 C 64.945312 -45.984375 65.859375 -46.503906 66.984375 -46.921875 C 67.816406 -47.203125 68.632812 -47.359375 69.4375 -47.390625 C 70.25 -47.429688 73.035156 -47.453125 77.796875 -47.453125 L 86.40625 -47.453125 L 86.40625 -7.453125 L 86.609375 -6.71875 C 86.890625 -6.226562 87.328125 -5.769531 87.921875 -5.34375 C 88.515625 -4.925781 89.128906 -4.648438 89.765625 -4.515625 C 90.046875 -4.515625 90.289062 -4.476562 90.5 -4.40625 L 90.921875 -4.40625 L 90.921875 9.453125 L 90.59375 9.453125 C 89.125 9.453125 87.445312 9.519531 85.5625 9.65625 C 85.28125 9.65625 84.507812 9.691406 83.25 9.765625 C 81.007812 9.835938 79.15625 9.488281 77.6875 8.71875 C 74.820312 7.25 72.929688 5.113281 72.015625 2.3125 C 71.734375 1.613281 71.554688 1.019531 71.484375 0.53125 C 71.421875 0.0390625 71.390625 -5.835938 71.390625 -17.109375 L 71.390625 -34.015625 L 67.078125 -34.125 C 64.210938 -34.125 62.742188 -34.085938 62.671875 -34.015625 C 62.671875 -34.015625 62.671875 -29.375 62.671875 -20.09375 C 62.671875 -10.820312 62.640625 -5.875 62.578125 -5.25 C 62.148438 -1.46875 60.535156 1.925781 57.734375 4.9375 C 55.148438 7.738281 52.109375 9.519531 48.609375 10.28125 C 46.367188 10.707031 44.582031 10.816406 43.25 10.609375 L 42.9375 10.609375 L 42.9375 5.25 C 42.9375 1.394531 42.9375 -0.84375 42.9375 -1.46875 L 42.9375 -2.734375 L 43.15625 -2.828125 C 43.914062 -2.898438 44.472656 -3.078125 44.828125 -3.359375 C 45.734375 -3.921875 46.363281 -4.550781 46.71875 -5.25 C 47.070312 -6.019531 47.316406 -6.820312 47.453125 -7.65625 C 47.523438 -8.15625 47.539062 -14.578125 47.5 -26.921875 C 47.46875 -39.273438 47.414062 -45.59375 47.34375 -45.875 C 47.132812 -46.4375 46.785156 -46.894531 46.296875 -47.25 C 46.015625 -47.3125 45.945312 -47.378906 46.09375 -47.453125 Z M 21.625 -22.578125 C 21.625 -22.640625 22.304688 -22.671875 23.671875 -22.671875 C 25.035156 -22.671875 25.859375 -22.640625 26.140625 -22.578125 L 26.34375 -22.578125 L 26.34375 -15.21875 C 26.28125 -9.96875 26.25 -7.273438 26.25 -7.140625 L 26.25 -6.296875 L 21.515625 -6.296875 L 21.515625 -14.390625 C 21.515625 -19.847656 21.550781 -22.578125 21.625 -22.578125 Z M 21.625 -22.578125 "/></g></g></g><g fill="#ffffff" fill-opacity="1"><g transform="translate(327.730919, 285.018689)"><g><path d="M 35.0625 -74.4375 C 36.25 -74.4375 39.015625 -74.46875 43.359375 -74.53125 L 49.03125 -74.53125 L 48.921875 -73.796875 C 48.847656 -72.609375 48.601562 -71.316406 48.1875 -69.921875 L 48.1875 -69.296875 L 55.328125 -69.296875 C 56.378906 -69.296875 63.164062 -69.296875 75.6875 -69.296875 L 88.8125 -69.296875 L 88.8125 -56.6875 L 44.09375 -56.6875 L 43.671875 -55.953125 C 42.972656 -54.835938 42.171875 -53.71875 41.265625 -52.59375 L 40.734375 -52.078125 L 45.25 -52.078125 L 45.25 -49.234375 C 45.175781 -47.421875 45.15625 -46.492188 45.1875 -46.453125 C 45.226562 -46.421875 45.285156 -46.578125 45.359375 -46.921875 C 45.984375 -48.253906 46.957031 -49.410156 48.28125 -50.390625 C 49.613281 -51.367188 51.085938 -51.960938 52.703125 -52.171875 C 53.265625 -52.171875 58.929688 -52.171875 69.703125 -52.171875 L 85.984375 -52.171875 L 85.984375 -32.859375 L 87.03125 -32.859375 C 87.238281 -32.859375 87.601562 -32.859375 88.125 -32.859375 C 88.65625 -32.859375 89.023438 -32.859375 89.234375 -32.859375 L 90.1875 -32.859375 L 90.1875 -21 L 89.65625 -21 C 88.75 -21 88.015625 -21 87.453125 -21 C 86.398438 -21 85.835938 -20.960938 85.765625 -20.890625 C 85.703125 -20.816406 85.671875 -19.660156 85.671875 -17.421875 L 85.5625 -14.171875 L 88.8125 -14.171875 L 88.8125 -2.421875 L 86.921875 -2.421875 L 85.03125 -2.3125 L 85.03125 -0.734375 C 85.03125 0.804688 84.894531 1.992188 84.625 2.828125 C 83.988281 4.578125 83.054688 6.082031 81.828125 7.34375 C 80.609375 8.601562 79.191406 9.515625 77.578125 10.078125 C 76.671875 10.359375 75.78125 10.53125 74.90625 10.59375 C 74.03125 10.664062 71.144531 10.703125 66.25 10.703125 C 60.4375 10.703125 57.25 10.671875 56.6875 10.609375 L 55.953125 10.609375 L 55.953125 -0.203125 L 69.078125 -0.203125 L 69.703125 -0.53125 C 69.984375 -0.738281 70.265625 -0.984375 70.546875 -1.265625 C 71.109375 -1.890625 71.316406 -2.238281 71.171875 -2.3125 C 71.171875 -2.3125 64.3125 -2.3125 50.59375 -2.3125 C 36.882812 -2.3125 30.03125 -2.34375 30.03125 -2.40625 C 30.03125 -2.476562 30.03125 -2.796875 30.03125 -3.359375 C 30.164062 -5.390625 30.269531 -8.117188 30.34375 -11.546875 C 30.414062 -14.484375 30.519531 -16.335938 30.65625 -17.109375 C 30.726562 -17.804688 30.765625 -18.613281 30.765625 -19.53125 L 30.765625 -21 L 26.453125 -21 L 26.453125 -26.671875 C 26.453125 -30.441406 26.453125 -32.398438 26.453125 -32.546875 L 26.453125 -32.859375 L 31.1875 -32.859375 L 31.1875 -33.390625 C 31.394531 -38.359375 31.671875 -42.101562 32.015625 -44.625 C 32.085938 -45.175781 32.125 -45.453125 32.125 -45.453125 C 32.125 -45.523438 31.703125 -45.351562 30.859375 -44.9375 C 28.554688 -43.957031 27.367188 -43.46875 27.296875 -43.46875 C 27.222656 -43.46875 27.1875 -44.375 27.1875 -46.1875 C 27.257812 -47.9375 27.296875 -50.457031 27.296875 -53.75 L 27.296875 -58.578125 L 28.234375 -59.21875 C 30.203125 -60.6875 31.78125 -62.570312 32.96875 -64.875 C 34.289062 -67.601562 34.921875 -69.84375 34.859375 -71.59375 C 34.785156 -72.019531 34.660156 -72.425781 34.484375 -72.8125 C 34.304688 -73.195312 34.078125 -73.507812 33.796875 -73.75 C 33.523438 -74 33.25 -74.15625 32.96875 -74.21875 C 32.757812 -74.289062 32.773438 -74.34375 33.015625 -74.375 C 33.265625 -74.414062 33.945312 -74.4375 35.0625 -74.4375 Z M 52.28125 -40.3125 C 52.28125 -40.3125 51.71875 -40.3125 50.59375 -40.3125 C 49.476562 -40.3125 48.328125 -40.3125 47.140625 -40.3125 C 45.953125 -40.3125 45.285156 -40.3125 45.140625 -40.3125 C 45.003906 -40.3125 44.914062 -40.1875 44.875 -39.9375 C 44.84375 -39.695312 44.789062 -38.945312 44.71875 -37.6875 C 44.71875 -37.195312 44.6875 -36.113281 44.625 -34.4375 L 44.515625 -33.0625 L 52.28125 -33.0625 Z M 71.703125 -36.640625 L 71.59375 -40.3125 L 67.921875 -40.3125 C 65.472656 -40.382812 64.210938 -40.398438 64.140625 -40.359375 C 64.078125 -40.328125 64.046875 -39.050781 64.046875 -36.53125 L 64.046875 -32.859375 L 67.1875 -32.859375 C 69.289062 -32.859375 70.550781 -32.859375 70.96875 -32.859375 L 71.703125 -32.96875 Z M 52.078125 -17.75 L 52.078125 -21.203125 L 48.1875 -21.203125 L 44.09375 -21.3125 L 44.09375 -20.265625 C 44.019531 -19.421875 43.914062 -18.265625 43.78125 -16.796875 C 43.707031 -15.191406 43.6875 -14.351562 43.71875 -14.28125 C 43.757812 -14.207031 45.179688 -14.171875 47.984375 -14.171875 L 52.078125 -14.171875 Z M 71.703125 -17.75 L 71.59375 -21.203125 L 67.921875 -21.203125 L 64.140625 -21.3125 L 64.140625 -14.0625 L 65.71875 -14.171875 C 66.90625 -14.171875 68.164062 -14.171875 69.5 -14.171875 L 71.703125 -14.171875 Z M 12.390625 -70.546875 C 13.085938 -70.546875 13.941406 -70.546875 14.953125 -70.546875 C 15.972656 -70.546875 16.847656 -70.5625 17.578125 -70.59375 C 18.316406 -70.632812 19.050781 -70.65625 19.78125 -70.65625 C 20.519531 -70.65625 21.097656 -70.65625 21.515625 -70.65625 L 24.5625 -70.65625 L 24.5625 -64.140625 L 24.46875 -57.53125 L 7.765625 -57.53125 L 7.765625 -63.3125 C 7.765625 -64.21875 7.765625 -65.175781 7.765625 -66.1875 C 7.765625 -67.207031 7.765625 -67.976562 7.765625 -68.5 C 7.765625 -69.03125 7.765625 -69.296875 7.765625 -69.296875 C 7.765625 -69.640625 7.453125 -69.953125 6.828125 -70.234375 L 6.40625 -70.4375 C 6.476562 -70.507812 8.472656 -70.546875 12.390625 -70.546875 Z M 6.1875 -47.5625 L 15.125 -47.5625 L 24.140625 -47.453125 L 24.140625 -41.046875 C 24.140625 -36.773438 24.125 -34.601562 24.09375 -34.53125 C 24.0625 -34.46875 21.347656 -34.4375 15.953125 -34.4375 L 7.765625 -34.546875 L 7.765625 -40.3125 C 7.765625 -44.226562 7.695312 -46.257812 7.5625 -46.40625 C 7.351562 -46.894531 7.035156 -47.242188 6.609375 -47.453125 Z M 7.765625 -27.1875 C 7.765625 -27.257812 8.460938 -27.296875 9.859375 -27.296875 C 11.265625 -27.296875 13.296875 -27.296875 15.953125 -27.296875 L 24.140625 -27.296875 L 24.140625 -24.140625 C 24.140625 -22.117188 24.207031 -21.109375 24.34375 -21.109375 C 24.488281 -21.109375 24.53125 -19.8125 24.46875 -17.21875 C 24.46875 -13.507812 24.394531 -11.375 24.25 -10.8125 C 24.25 -10.675781 24.210938 -10.363281 24.140625 -9.875 C 23.648438 -6.300781 22.390625 -3.046875 20.359375 -0.109375 C 18.398438 2.691406 15.707031 5.109375 12.28125 7.140625 C 12.207031 7.210938 11.992188 7.351562 11.640625 7.5625 C 11.296875 7.769531 11.054688 7.910156 10.921875 7.984375 C 8.960938 9.097656 7.035156 9.9375 5.140625 10.5 C 4.796875 10.632812 4.550781 10.738281 4.40625 10.8125 L 4.203125 8.296875 C 4.203125 7.378906 4.203125 5.769531 4.203125 3.46875 L 4.203125 -3.984375 L 6.40625 -6.1875 C 7.800781 -7.664062 8.640625 -8.578125 8.921875 -8.921875 C 9.828125 -10.109375 10.421875 -11.613281 10.703125 -13.4375 C 10.773438 -14.070312 10.8125 -16.03125 10.8125 -19.3125 L 10.8125 -24.25 L 10.609375 -24.78125 C 10.253906 -25.550781 9.550781 -26.210938 8.5 -26.765625 C 8.082031 -26.984375 7.835938 -27.125 7.765625 -27.1875 Z M 7.765625 -27.1875 "/></g></g></g><g fill="#ffffff" fill-opacity="1"><g transform="translate(422.215374, 285.018689)"><g><path d="M 28.34375 -70.859375 C 68.03125 -70.929688 87.941406 -70.898438 88.078125 -70.765625 C 88.078125 -70.765625 88.09375 -68.660156 88.125 -64.453125 C 88.164062 -60.253906 88.164062 -58.082031 88.125 -57.9375 C 88.09375 -57.800781 82.65625 -57.734375 71.8125 -57.734375 L 55.53125 -57.734375 L 55.53125 -38.53125 L 70.859375 -38.421875 L 86.1875 -38.421875 L 86.1875 -24.875 L 71.078125 -24.875 C 60.992188 -24.8125 55.914062 -24.796875 55.84375 -24.828125 C 55.78125 -24.859375 55.710938 -24.84375 55.640625 -24.78125 C 55.640625 -24.707031 55.617188 -21.570312 55.578125 -15.375 C 55.546875 -9.1875 55.566406 -5.914062 55.640625 -5.5625 C 55.640625 -5.5625 60.644531 -5.5625 70.65625 -5.5625 L 89.65625 -5.5625 L 89.65625 7.984375 L 4.9375 7.984375 L 4.9375 1.15625 C 4.9375 -1.988281 4.9375 -3.894531 4.9375 -4.5625 C 4.9375 -5.226562 5.003906 -5.597656 5.140625 -5.671875 C 5.210938 -5.671875 6.085938 -5.632812 7.765625 -5.5625 C 8.890625 -5.5625 14.539062 -5.5625 24.71875 -5.5625 C 34.90625 -5.5625 40.015625 -5.578125 40.046875 -5.609375 C 40.085938 -5.648438 40.109375 -8.835938 40.109375 -15.171875 C 40.109375 -21.503906 40.070312 -24.707031 40 -24.78125 C 40 -24.78125 34.851562 -24.78125 24.5625 -24.78125 L 9.234375 -24.78125 L 9.234375 -38.421875 L 40.109375 -38.421875 L 40.109375 -57.640625 L 26.140625 -57.734375 C 17.046875 -57.734375 11.867188 -57.734375 10.609375 -57.734375 C 9.691406 -57.734375 8.742188 -57.734375 7.765625 -57.734375 L 6.515625 -57.734375 L 6.515625 -70.859375 Z M 28.34375 -70.859375 "/></g></g></g><g fill="#ffffff" fill-opacity="1"><g transform="translate(316.492069, 406.512268)"><g><path d="M 35.59375 -53.125 L 37.484375 -53.015625 C 41.679688 -52.804688 45.441406 -51.929688 48.765625 -50.390625 C 52.085938 -48.847656 54.921875 -46.78125 57.265625 -44.1875 C 59.609375 -41.601562 61.425781 -38.597656 62.71875 -35.171875 C 64.019531 -31.742188 64.773438 -28 64.984375 -23.9375 C 65.265625 -17.425781 64.109375 -11.507812 61.515625 -6.1875 C 57.878906 1.15625 51.894531 5.769531 43.5625 7.65625 C 41.039062 8.363281 38.734375 8.71875 36.640625 8.71875 L 35.796875 8.71875 L 35.6875 5.5625 C 35.757812 4.445312 35.796875 3.3125 35.796875 2.15625 C 35.796875 1 35.796875 -0.242188 35.796875 -1.578125 C 35.796875 -4.234375 35.867188 -5.5625 36.015625 -5.5625 C 37.128906 -5.5625 38.421875 -6.085938 39.890625 -7.140625 C 42.554688 -8.679688 44.269531 -12.039062 45.03125 -17.21875 C 45.101562 -17.78125 45.15625 -18.5 45.1875 -19.375 C 45.226562 -20.25 45.210938 -21.28125 45.140625 -22.46875 C 45.066406 -23.726562 44.992188 -24.773438 44.921875 -25.609375 C 44.859375 -26.453125 44.757812 -27.15625 44.625 -27.71875 C 44.195312 -30.300781 43.40625 -32.554688 42.25 -34.484375 C 41.101562 -36.410156 39.09375 -37.617188 36.21875 -38.109375 L 35.59375 -38.21875 Z M 29.1875 -52.90625 C 29.53125 -52.976562 29.929688 -53.015625 30.390625 -53.015625 C 30.847656 -53.015625 31.359375 -53.050781 31.921875 -53.125 L 33.28125 -53.125 L 33.28125 -46.71875 C 33.28125 -44.6875 33.28125 -43.039062 33.28125 -41.78125 C 33.28125 -40.519531 33.242188 -39.644531 33.171875 -39.15625 L 33.171875 -38.21875 L 32.015625 -37.90625 C 28.734375 -37.34375 26.492188 -35.238281 25.296875 -31.59375 C 24.742188 -29.988281 24.394531 -28.148438 24.25 -26.078125 C 24.113281 -24.015625 24.113281 -21.757812 24.25 -19.3125 C 24.394531 -17.988281 24.570312 -16.644531 24.78125 -15.28125 C 24.988281 -13.914062 25.367188 -12.617188 25.921875 -11.390625 C 26.484375 -10.160156 27.21875 -9.109375 28.125 -8.234375 C 29.039062 -7.359375 30.234375 -6.710938 31.703125 -6.296875 L 33.0625 -5.984375 L 33.171875 1.265625 L 33.171875 8.5 L 31.1875 8.5 C 25.582031 8.5 20.503906 6.960938 15.953125 3.890625 C 9.441406 -0.523438 5.628906 -7.738281 4.515625 -17.75 C 3.535156 -25.863281 4.796875 -33 8.296875 -39.15625 C 10.390625 -42.9375 13.289062 -46.050781 17 -48.5 C 20.71875 -50.945312 24.78125 -52.414062 29.1875 -52.90625 Z M 29.1875 -52.90625 "/></g></g></g><g fill="#ffffff" fill-opacity="1"><g transform="translate(385.780666, 406.512268)"><g><path d="M 45.140625 -53.4375 L 46.1875 -53.4375 L 46.09375 -44.625 L 46.09375 -33.8125 L 44.40625 -33.90625 C 40.769531 -34.113281 37.65625 -33.554688 35.0625 -32.234375 C 33.59375 -31.460938 32.28125 -30.097656 31.125 -28.140625 C 29.96875 -26.179688 29.179688 -23.90625 28.765625 -21.3125 C 28.554688 -20.257812 28.453125 -15.113281 28.453125 -5.875 L 28.453125 7.984375 L 7.34375 7.984375 L 7.34375 -21.3125 C 7.34375 -31.175781 7.328125 -38.488281 7.296875 -43.25 C 7.265625 -48.007812 7.175781 -50.460938 7.03125 -50.609375 C 6.6875 -51.367188 6.195312 -51.890625 5.5625 -52.171875 C 5.488281 -52.242188 5.523438 -52.316406 5.671875 -52.390625 C 6.015625 -52.453125 7.113281 -52.484375 8.96875 -52.484375 C 10.832031 -52.484375 13.441406 -52.484375 16.796875 -52.484375 L 28.453125 -52.484375 L 28.453125 -42.203125 L 29.1875 -43.671875 C 30.519531 -46.816406 32.671875 -49.226562 35.640625 -50.90625 C 38.617188 -52.59375 41.785156 -53.4375 45.140625 -53.4375 Z M 45.140625 -53.4375 "/></g></g></g><g fill="#ffffff" fill-opacity="1"><g transform="translate(185.893498, 528.005847)"><g><path d="M 37.171875 -74.21875 C 36.953125 -74.289062 37.085938 -74.363281 37.578125 -74.4375 C 38.421875 -74.5 41.257812 -74.53125 46.09375 -74.53125 L 55.640625 -74.53125 L 55.859375 -72.859375 C 56.128906 -68.378906 56.226562 -63.21875 56.15625 -57.375 C 56.09375 -51.53125 55.882812 -46.960938 55.53125 -43.671875 C 55.46875 -42.410156 55.46875 -41.410156 55.53125 -40.671875 C 55.601562 -39.941406 55.882812 -38.773438 56.375 -37.171875 C 59.25 -28.273438 64.078125 -20.925781 70.859375 -15.125 C 75.617188 -10.988281 81.253906 -7.800781 87.765625 -5.5625 L 89.859375 -4.9375 L 89.859375 10.703125 L 88.5 10.390625 C 84.09375 9.617188 79.648438 8.21875 75.171875 6.1875 C 68.242188 3.039062 62.117188 -1.15625 56.796875 -6.40625 C 53.296875 -9.976562 50.53125 -13.546875 48.5 -17.109375 C 48.21875 -17.597656 48.039062 -17.84375 47.96875 -17.84375 C 47.90625 -17.84375 47.695312 -17.5625 47.34375 -17 C 45.800781 -14.488281 43.578125 -11.691406 40.671875 -8.609375 C 37.773438 -5.523438 34.71875 -2.863281 31.5 -0.625 C 28.207031 1.675781 24.375 3.820312 20 5.8125 C 15.625 7.8125 11.335938 9.335938 7.140625 10.390625 C 5.804688 10.742188 5.109375 10.921875 5.046875 10.921875 C 4.898438 10.921875 4.828125 8.222656 4.828125 2.828125 L 4.828125 -5.25 L 6.828125 -5.875 C 14.378906 -8.675781 20.691406 -12.242188 25.765625 -16.578125 C 30.847656 -20.921875 34.398438 -25.789062 36.421875 -31.1875 C 37.679688 -34.539062 38.644531 -39.488281 39.3125 -46.03125 C 39.976562 -52.582031 40.242188 -59.351562 40.109375 -66.34375 C 39.960938 -69.632812 39.820312 -71.523438 39.6875 -72.015625 C 39.539062 -72.441406 39.207031 -72.878906 38.6875 -73.328125 C 38.164062 -73.785156 37.660156 -74.082031 37.171875 -74.21875 Z M 9.140625 -62.25 C 8.992188 -62.320312 9.0625 -62.394531 9.34375 -62.46875 C 9.90625 -62.539062 12.707031 -62.578125 17.75 -62.578125 L 26.984375 -62.578125 L 27.09375 -61.625 C 27.09375 -61.132812 27.226562 -59.835938 27.5 -57.734375 C 28.625 -48.921875 29.289062 -43.8125 29.5 -42.40625 C 29.78125 -40.445312 29.957031 -39.082031 30.03125 -38.3125 C 30.09375 -38.039062 30.210938 -37.289062 30.390625 -36.0625 C 30.566406 -34.832031 30.691406 -34.007812 30.765625 -33.59375 C 30.898438 -32.40625 30.96875 -31.671875 30.96875 -31.390625 C 30.96875 -31.253906 28.269531 -31.1875 22.875 -31.1875 C 17.488281 -31.1875 14.796875 -31.21875 14.796875 -31.28125 C 14.796875 -31.351562 14.238281 -36.078125 13.125 -45.453125 C 12.976562 -46.160156 12.835938 -47.457031 12.703125 -49.34375 C 12.703125 -49.414062 12.457031 -51.164062 11.96875 -54.59375 C 11.550781 -58.375 11.234375 -60.40625 11.015625 -60.6875 C 10.742188 -61.3125 10.117188 -61.832031 9.140625 -62.25 Z M 69.609375 -62.25 C 69.535156 -62.320312 69.550781 -62.375 69.65625 -62.40625 C 69.757812 -62.445312 70.144531 -62.484375 70.8125 -62.515625 C 71.476562 -62.554688 72.316406 -62.578125 73.328125 -62.578125 C 74.347656 -62.578125 75.835938 -62.578125 77.796875 -62.578125 L 86.40625 -62.578125 L 86.296875 -62.046875 C 86.222656 -61.347656 86.117188 -60.507812 85.984375 -59.53125 C 85.140625 -51.476562 83.316406 -43.007812 80.515625 -34.125 L 79.578125 -31.28125 L 71.59375 -31.28125 C 66.34375 -31.28125 63.71875 -31.28125 63.71875 -31.28125 C 63.71875 -31.351562 63.753906 -31.507812 63.828125 -31.75 C 63.898438 -32 64.019531 -32.382812 64.1875 -32.90625 C 64.363281 -33.4375 64.523438 -33.910156 64.671875 -34.328125 C 65.441406 -36.492188 65.863281 -37.820312 65.9375 -38.3125 C 66.976562 -42.164062 67.640625 -44.757812 67.921875 -46.09375 C 69.671875 -53.789062 70.546875 -58.582031 70.546875 -60.46875 C 70.546875 -61.3125 70.234375 -61.90625 69.609375 -62.25 Z M 69.609375 -62.25 "/></g></g></g><g fill="#ffffff" fill-opacity="1"><g transform="translate(280.377953, 528.005847)"><g><path d="M 71.390625 -73.796875 C 71.109375 -74.015625 70.96875 -74.140625 70.96875 -74.171875 C 70.96875 -74.203125 73.734375 -74.21875 79.265625 -74.21875 L 87.5625 -74.21875 L 87.5625 -73.90625 C 87.5625 -73.769531 87.523438 -73.351562 87.453125 -72.65625 C 87.171875 -69.21875 86.332031 -66.066406 84.9375 -63.203125 C 83.675781 -60.679688 81.734375 -58.210938 79.109375 -55.796875 C 76.484375 -53.378906 73.59375 -51.507812 70.4375 -50.1875 C 67.570312 -48.988281 63.757812 -47.972656 59 -47.140625 C 58.300781 -47.066406 57.914062 -47.03125 57.84375 -47.03125 C 57.769531 -47.03125 57.734375 -49.203125 57.734375 -53.546875 L 57.734375 -60.15625 L 58.0625 -60.265625 C 58.195312 -60.328125 58.472656 -60.359375 58.890625 -60.359375 C 59.378906 -60.503906 59.695312 -60.613281 59.84375 -60.6875 C 59.914062 -60.6875 60.300781 -60.820312 61 -61.09375 C 63.375 -61.800781 65.578125 -62.785156 67.609375 -64.046875 C 69.921875 -65.515625 71.460938 -66.910156 72.234375 -68.234375 C 72.929688 -69.492188 73.207031 -70.546875 73.0625 -71.390625 C 72.851562 -72.503906 72.296875 -73.304688 71.390625 -73.796875 Z M 44.203125 -71.703125 C 50.710938 -71.703125 54.070312 -71.703125 54.28125 -71.703125 C 54.488281 -71.703125 54.644531 -71.703125 54.75 -71.703125 C 54.851562 -71.703125 54.90625 -68.078125 54.90625 -60.828125 C 54.90625 -53.585938 54.835938 -49.722656 54.703125 -49.234375 C 54.421875 -48.046875 53.753906 -47 52.703125 -46.09375 C 51.929688 -45.320312 51.125 -44.796875 50.28125 -44.515625 C 49.375 -44.304688 48.1875 -44.203125 46.71875 -44.203125 L 36.75 -44.203125 L 36.75 -41.578125 L 56.375 -41.578125 L 56.375 -32.125 L 54.28125 -32.125 C 53.019531 -32.195312 44.410156 -32.234375 28.453125 -32.234375 L 4.71875 -32.234375 L 4.71875 -41.578125 L 23.828125 -41.578125 L 23.828125 -44.203125 L 23.09375 -44.203125 C 22.957031 -44.203125 22.535156 -44.203125 21.828125 -44.203125 C 21.128906 -44.203125 20.082031 -44.203125 18.6875 -44.203125 C 17.289062 -44.203125 16.066406 -44.203125 15.015625 -44.203125 L 7.65625 -44.203125 L 7.65625 -57.109375 L 7.5625 -69.921875 L 7.34375 -70.34375 C 7.132812 -70.832031 6.75 -71.179688 6.1875 -71.390625 L 5.984375 -71.59375 C 6.054688 -71.59375 8.539062 -71.628906 13.4375 -71.703125 L 20.890625 -71.703125 L 20.890625 -67.921875 C 20.816406 -65.398438 20.796875 -64.140625 20.828125 -64.140625 C 20.867188 -64.140625 20.960938 -64.351562 21.109375 -64.78125 C 21.171875 -65.476562 21.414062 -66.242188 21.84375 -67.078125 C 22.113281 -67.785156 22.566406 -68.488281 23.203125 -69.1875 C 24.316406 -70.300781 25.578125 -71.035156 26.984375 -71.390625 C 27.679688 -71.523438 33.421875 -71.628906 44.203125 -71.703125 Z M 42.203125 -62.984375 L 20.890625 -62.984375 L 20.78125 -62.359375 C 20.78125 -61.941406 20.78125 -61.554688 20.78125 -61.203125 L 20.890625 -60.578125 L 38.640625 -60.578125 L 38.640625 -57.953125 C 38.640625 -56.203125 38.601562 -55.328125 38.53125 -55.328125 C 38.457031 -55.328125 35.515625 -55.328125 29.703125 -55.328125 L 20.78125 -55.21875 L 20.78125 -52.8125 L 40.53125 -52.8125 L 41.046875 -53.015625 C 41.253906 -53.160156 41.460938 -53.40625 41.671875 -53.75 C 41.953125 -54.101562 42.109375 -54.523438 42.140625 -55.015625 C 42.179688 -55.503906 42.203125 -56.867188 42.203125 -59.109375 Z M 71.8125 -48.078125 C 71.601562 -48.148438 71.640625 -48.1875 71.921875 -48.1875 L 80.109375 -48.296875 L 88.921875 -48.296875 L 88.8125 -47.453125 C 88.675781 -45.773438 88.535156 -44.410156 88.390625 -43.359375 C 88.179688 -42.796875 88.078125 -42.375 88.078125 -42.09375 C 87.304688 -38.664062 85.835938 -35.585938 83.671875 -32.859375 C 83.253906 -32.367188 82.484375 -31.5625 81.359375 -30.4375 C 80.242188 -29.320312 79.441406 -28.585938 78.953125 -28.234375 C 76.710938 -26.421875 74.226562 -24.882812 71.5 -23.625 C 69.539062 -22.78125 67.332031 -22.113281 64.875 -21.625 C 62.84375 -21.0625 60.921875 -20.710938 59.109375 -20.578125 L 57.84375 -20.46875 L 57.84375 -33.484375 L 58.15625 -33.59375 C 58.925781 -33.800781 60.363281 -34.253906 62.46875 -34.953125 C 64.007812 -35.515625 65.476562 -36.320312 66.875 -37.375 C 71.21875 -40.238281 73.390625 -43.035156 73.390625 -45.765625 C 73.390625 -46.328125 73.351562 -46.75 73.28125 -47.03125 C 72.925781 -47.519531 72.4375 -47.867188 71.8125 -48.078125 Z M 20.265625 -30.234375 L 20.265625 -27.09375 C 20.328125 -25.0625 20.359375 -23.660156 20.359375 -22.890625 L 20.359375 -22.046875 L 20.359375 -22.890625 C 20.578125 -23.941406 20.894531 -24.847656 21.3125 -25.609375 C 22.644531 -28.335938 24.78125 -29.84375 27.71875 -30.125 C 28.132812 -30.195312 32.539062 -30.234375 40.9375 -30.234375 L 53.4375 -30.234375 L 53.4375 -13.546875 L 53.234375 -12.703125 C 52.953125 -11.648438 52.53125 -10.84375 51.96875 -10.28125 C 51.476562 -9.789062 50.847656 -9.441406 50.078125 -9.234375 C 49.796875 -9.097656 47.453125 -9.03125 43.046875 -9.03125 L 36.421875 -8.921875 L 36.421875 -3.5625 C 36.492188 1.1875 36.390625 4.054688 36.109375 5.046875 C 35.617188 6.648438 34.726562 8.007812 33.4375 9.125 C 32.144531 10.25 30.765625 10.914062 29.296875 11.125 C 28.941406 11.195312 27.015625 11.234375 23.515625 11.234375 L 18.484375 11.234375 L 18.484375 5.671875 C 18.484375 1.960938 18.484375 0.109375 18.484375 0.109375 C 18.546875 0.109375 18.820312 0.140625 19.3125 0.203125 C 20.289062 0.628906 20.992188 0.769531 21.421875 0.625 C 22.398438 0.28125 23.0625 -0.3125 23.40625 -1.15625 C 23.476562 -1.507812 23.515625 -2.910156 23.515625 -5.359375 L 23.515625 -8.921875 L 15.640625 -9.03125 L 7.765625 -9.03125 L 7.765625 -17.953125 C 7.835938 -23.691406 7.875 -27.015625 7.875 -27.921875 C 7.875 -28.484375 7.785156 -28.9375 7.609375 -29.28125 C 7.429688 -29.632812 7.21875 -29.863281 6.96875 -29.96875 C 6.726562 -30.070312 6.609375 -30.140625 6.609375 -30.171875 C 6.609375 -30.210938 8.882812 -30.234375 13.4375 -30.234375 Z M 30.765625 -21.625 C 23.828125 -21.625 20.359375 -21.625 20.359375 -21.625 C 20.296875 -21.34375 20.28125 -20.484375 20.3125 -19.046875 C 20.34375 -17.617188 20.359375 -16.90625 20.359375 -16.90625 C 20.359375 -16.90625 23.507812 -16.90625 29.8125 -16.90625 L 39.265625 -16.90625 L 39.6875 -17.109375 C 40.382812 -17.460938 40.835938 -17.953125 41.046875 -18.578125 C 41.117188 -18.859375 41.15625 -19.421875 41.15625 -20.265625 L 41.265625 -21.625 Z M 72.328125 -21.625 C 72.265625 -21.625 72.300781 -21.625 72.4375 -21.625 C 72.582031 -21.625 72.984375 -21.625 73.640625 -21.625 C 74.304688 -21.625 75.179688 -21.625 76.265625 -21.625 C 77.347656 -21.625 78.90625 -21.625 80.9375 -21.625 L 89.765625 -21.625 L 89.859375 -21.421875 C 89.859375 -21.140625 89.84375 -20.347656 89.8125 -19.046875 C 89.78125 -17.753906 89.726562 -16.96875 89.65625 -16.6875 C 89.582031 -16.269531 89.515625 -15.882812 89.453125 -15.53125 C 89.378906 -14.488281 89.0625 -13.195312 88.5 -11.65625 C 86.75 -6.050781 83.109375 -1.359375 77.578125 2.421875 C 73.097656 5.421875 67.847656 7.550781 61.828125 8.8125 C 60.921875 9.03125 59.628906 9.242188 57.953125 9.453125 C 56.273438 9.660156 55.398438 9.726562 55.328125 9.65625 C 55.328125 9.65625 55.328125 7.453125 55.328125 3.046875 L 55.328125 -3.5625 L 55.640625 -3.671875 C 60.753906 -5.003906 65.0625 -7 68.5625 -9.65625 C 70.03125 -10.707031 71.148438 -11.722656 71.921875 -12.703125 C 72.617188 -13.546875 73.316406 -14.597656 74.015625 -15.859375 C 74.710938 -17.117188 75.097656 -18.0625 75.171875 -18.6875 C 75.171875 -19.101562 74.890625 -19.59375 74.328125 -20.15625 C 73.484375 -21.0625 72.890625 -21.515625 72.546875 -21.515625 C 72.472656 -21.515625 72.398438 -21.550781 72.328125 -21.625 Z M 8.609375 -7.453125 L 19.109375 -7.453125 L 19 -7.03125 C 18.71875 -3.394531 18.226562 -0.597656 17.53125 1.359375 C 16.90625 2.765625 16.453125 3.609375 16.171875 3.890625 C 16.097656 3.953125 15.992188 4.085938 15.859375 4.296875 C 15.015625 5.554688 13.785156 6.675781 12.171875 7.65625 C 11.054688 8.425781 9.972656 8.988281 8.921875 9.34375 C 8.359375 9.476562 7.585938 9.546875 6.609375 9.546875 L 5.140625 9.546875 L 5.140625 -0.203125 L 5.25 -0.3125 C 5.875 -0.59375 6.328125 -0.800781 6.609375 -0.9375 C 6.960938 -1.289062 7.3125 -1.710938 7.65625 -2.203125 C 8.363281 -3.253906 8.785156 -4.515625 8.921875 -5.984375 C 8.992188 -6.472656 8.957031 -6.859375 8.8125 -7.140625 Z M 39.46875 -7.34375 C 39.539062 -7.414062 41.289062 -7.453125 44.71875 -7.453125 L 49.765625 -7.453125 L 49.765625 -6.515625 C 49.898438 -5.316406 50.25 -4.210938 50.8125 -3.203125 C 51.375 -2.191406 52.109375 -1.332031 53.015625 -0.625 L 53.4375 -0.203125 L 53.4375 4.828125 C 53.4375 8.253906 53.4375 9.96875 53.4375 9.96875 C 53.363281 10.039062 52.816406 10.003906 51.796875 9.859375 C 50.785156 9.722656 50.070312 9.617188 49.65625 9.546875 C 47.0625 8.847656 45.101562 7.726562 43.78125 6.1875 C 43.289062 5.5625 42.765625 4.757812 42.203125 3.78125 C 41.640625 2.800781 41.164062 1.769531 40.78125 0.6875 C 40.394531 -0.394531 40.0625 -1.5 39.78125 -2.625 C 39.570312 -3.601562 39.429688 -4.632812 39.359375 -5.71875 C 39.296875 -6.800781 39.332031 -7.34375 39.46875 -7.34375 Z M 39.46875 -7.34375 "/></g></g></g><g fill="#ffffff" fill-opacity="1"><g transform="translate(374.862408, 528.005847)"><g><path d="M 7.65625 -72.859375 C 7.800781 -72.859375 20.472656 -72.859375 45.671875 -72.859375 C 66.390625 -72.859375 79.300781 -72.859375 84.40625 -72.859375 L 85.5625 -72.859375 L 85.5625 -30.234375 L 85.359375 -29.5 C 84.722656 -27.46875 83.601562 -25.820312 82 -24.5625 C 80.875 -23.789062 79.539062 -23.195312 78 -22.78125 C 77.4375 -22.707031 73.796875 -22.65625 67.078125 -22.625 C 60.359375 -22.59375 57 -22.609375 57 -22.671875 C 57 -22.742188 57 -24.878906 57 -29.078125 L 57 -35.28125 L 62.671875 -35.375 C 66.378906 -35.375 68.375 -35.410156 68.65625 -35.484375 C 69.425781 -35.691406 70.054688 -36.054688 70.546875 -36.578125 C 71.035156 -37.109375 71.316406 -37.757812 71.390625 -38.53125 C 71.460938 -38.875 71.5 -42.476562 71.5 -49.34375 L 71.5 -59.625 L 51.015625 -59.625 L 51.015625 -59.3125 C 51.015625 -58.894531 50.835938 -57.953125 50.484375 -56.484375 C 50.140625 -55.015625 49.828125 -54 49.546875 -53.4375 C 48.710938 -50.988281 47.910156 -49.03125 47.140625 -47.5625 C 46.859375 -47.070312 46.695312 -46.753906 46.65625 -46.609375 C 46.625 -46.472656 46.644531 -46.40625 46.71875 -46.40625 C 46.851562 -46.40625 47.238281 -46.332031 47.875 -46.1875 C 47.945312 -46.1875 49.238281 -45.941406 51.75 -45.453125 L 54.59375 -44.9375 L 54.484375 -40.734375 C 54.484375 -39.679688 54.484375 -38.71875 54.484375 -37.84375 C 54.484375 -36.96875 54.484375 -36.195312 54.484375 -35.53125 C 54.484375 -34.875 54.460938 -34.316406 54.421875 -33.859375 C 54.390625 -33.398438 54.359375 -33.066406 54.328125 -32.859375 C 54.296875 -32.648438 54.28125 -32.546875 54.28125 -32.546875 C 54.207031 -32.617188 53.71875 -32.722656 52.8125 -32.859375 C 51.832031 -33.066406 49.941406 -33.414062 47.140625 -33.90625 L 45.984375 -34.015625 C 44.023438 -34.296875 41.644531 -34.785156 38.84375 -35.484375 C 37.789062 -35.765625 37.234375 -35.90625 37.171875 -35.90625 C 37.171875 -35.832031 36.816406 -35.550781 36.109375 -35.0625 C 32.546875 -32.40625 28.835938 -30.203125 24.984375 -28.453125 C 23.515625 -27.816406 22.046875 -27.289062 20.578125 -26.875 C 19.035156 -26.457031 17.632812 -26.035156 16.375 -25.609375 C 14.695312 -25.054688 13.539062 -24.707031 12.90625 -24.5625 C 12.695312 -24.5625 12.453125 -24.507812 12.171875 -24.40625 C 11.898438 -24.300781 11.726562 -24.25 11.65625 -24.25 C 11.507812 -24.175781 10.945312 -24.035156 9.96875 -23.828125 C 8.78125 -23.617188 7.628906 -23.375 6.515625 -23.09375 C 6.160156 -22.957031 5.984375 -22.921875 5.984375 -22.984375 C 5.984375 -23.054688 5.960938 -25.398438 5.921875 -30.015625 C 5.890625 -34.640625 5.910156 -36.953125 5.984375 -36.953125 C 6.054688 -36.953125 6.582031 -37.023438 7.5625 -37.171875 C 11.894531 -37.722656 15.742188 -38.734375 19.109375 -40.203125 C 21.066406 -41.117188 22.359375 -41.785156 22.984375 -42.203125 C 23.128906 -42.273438 23.128906 -42.34375 22.984375 -42.40625 C 22.429688 -42.6875 21.207031 -43.671875 19.3125 -45.359375 C 17.007812 -47.316406 15.191406 -49.3125 13.859375 -51.34375 C 13.367188 -52.039062 12.773438 -53.125 12.078125 -54.59375 C 11.796875 -55.15625 11.476562 -55.710938 11.125 -56.265625 C 10.707031 -56.753906 10.5 -57.015625 10.5 -57.046875 C 10.5 -57.085938 12.984375 -57.109375 17.953125 -57.109375 L 25.515625 -57.109375 L 26.34375 -56.375 C 27.332031 -55.394531 28.488281 -54.378906 29.8125 -53.328125 C 31.632812 -52.003906 32.613281 -51.34375 32.75 -51.34375 C 32.820312 -51.34375 33.066406 -51.640625 33.484375 -52.234375 C 33.910156 -52.828125 34.367188 -53.507812 34.859375 -54.28125 C 35.347656 -55.050781 35.765625 -55.679688 36.109375 -56.171875 C 37.304688 -58.203125 37.90625 -59.351562 37.90625 -59.625 C 37.90625 -59.625 34.769531 -59.625 28.5 -59.625 C 22.238281 -59.625 19.109375 -59.640625 19.109375 -59.671875 C 19.109375 -59.710938 17.148438 -59.734375 13.234375 -59.734375 L 7.453125 -59.734375 L 7.34375 -66.25 L 7.34375 -72.859375 Z M 24.5625 -20.15625 C 24.28125 -20.363281 24.15625 -20.503906 24.1875 -20.578125 C 24.226562 -20.648438 26.695312 -20.6875 31.59375 -20.6875 L 38.953125 -20.578125 L 38.953125 -14.171875 C 38.953125 -8.785156 39.054688 -5.878906 39.265625 -5.453125 C 39.753906 -4.410156 40.421875 -3.675781 41.265625 -3.25 C 41.890625 -2.96875 42.691406 -2.863281 43.671875 -2.9375 C 43.816406 -2.9375 44.21875 -2.9375 44.875 -2.9375 C 45.539062 -2.9375 46.085938 -2.9375 46.515625 -2.9375 C 48.609375 -3.082031 50.773438 -3.222656 53.015625 -3.359375 C 55.179688 -3.492188 58.613281 -3.671875 63.3125 -3.890625 C 65.195312 -3.890625 66.140625 -3.90625 66.140625 -3.9375 C 66.140625 -3.96875 66.140625 -6.398438 66.140625 -11.234375 C 66.140625 -15.992188 66.101562 -18.476562 66.03125 -18.6875 C 65.6875 -19.457031 65.128906 -19.945312 64.359375 -20.15625 L 71.59375 -20.265625 L 79.15625 -20.265625 L 79.15625 -12.90625 C 79.15625 -7.875 79.15625 -5.285156 79.15625 -5.140625 L 79.15625 -4.828125 L 80.3125 -4.828125 C 81.289062 -4.898438 83.320312 -5.039062 86.40625 -5.25 C 86.539062 -5.25 87.132812 -5.285156 88.1875 -5.359375 L 89.125 -5.453125 L 89.125 8.1875 L 86.5 8.1875 C 84.820312 8.1875 82.722656 8.222656 80.203125 8.296875 C 78.035156 8.367188 75.625 8.4375 72.96875 8.5 C 68.769531 8.644531 66.039062 8.71875 64.78125 8.71875 C 61.769531 8.851562 59.5625 8.921875 58.15625 8.921875 C 57.382812 8.992188 55.742188 9.066406 53.234375 9.140625 C 46.859375 9.273438 41.882812 9.34375 38.3125 9.34375 L 33.8125 9.34375 L 32.859375 9.140625 C 31.742188 8.785156 30.691406 8.257812 29.703125 7.5625 C 27.535156 5.945312 26.171875 3.8125 25.609375 1.15625 C 25.546875 0.875 25.492188 -2.585938 25.453125 -9.234375 C 25.421875 -15.890625 25.335938 -19.320312 25.203125 -19.53125 C 25.054688 -19.8125 24.84375 -20.019531 24.5625 -20.15625 Z M 44.09375 -15.21875 L 44.09375 -20.6875 L 59.3125 -20.6875 L 59.3125 -15.4375 C 59.3125 -12 59.273438 -10.242188 59.203125 -10.171875 C 59.140625 -10.109375 56.585938 -10.078125 51.546875 -10.078125 L 44.09375 -9.96875 Z M 5.453125 -19.53125 L 20.265625 -19.53125 L 20.265625 7.65625 L 7.140625 7.65625 L 7.03125 -5.140625 L 7.03125 -17.953125 L 6.828125 -18.375 C 6.546875 -18.789062 6.226562 -19.101562 5.875 -19.3125 Z M 5.453125 -19.53125 "/></g></g></g><g fill="#ffffff" fill-opacity="1"><g transform="translate(469.451845, 528.005847)"><g><path d="M 36.53125 -73.59375 C 36.25 -73.664062 38.945312 -73.703125 44.625 -73.703125 L 53.125 -73.703125 L 53.125 -66.5625 L 69.078125 -66.5625 L 69.078125 -63.09375 C 69.078125 -60.71875 69.113281 -59.53125 69.1875 -59.53125 C 69.394531 -59.53125 69.9375 -60.628906 70.8125 -62.828125 C 71.6875 -65.035156 72.191406 -66.59375 72.328125 -67.5 L 72.4375 -68.234375 L 79.78125 -68.234375 C 84.6875 -68.234375 87.140625 -68.195312 87.140625 -68.125 C 87.140625 -68.0625 87.035156 -67.503906 86.828125 -66.453125 C 85.628906 -61.347656 83.421875 -56.378906 80.203125 -51.546875 C 79.085938 -49.867188 78.53125 -49.007812 78.53125 -48.96875 C 78.53125 -48.9375 80.523438 -48.921875 84.515625 -48.921875 L 90.5 -48.921875 L 90.390625 -42.625 C 90.390625 -38.488281 90.351562 -36.390625 90.28125 -36.328125 C 90.28125 -36.328125 86.046875 -36.328125 77.578125 -36.328125 L 64.984375 -36.328125 L 62.46875 -34.75 C 60.851562 -33.625 59.90625 -32.992188 59.625 -32.859375 C 59.5625 -32.785156 59.6875 -32.75 60 -32.75 C 60.3125 -32.75 60.957031 -32.734375 61.9375 -32.703125 C 62.914062 -32.671875 64.101562 -32.65625 65.5 -32.65625 C 66.90625 -32.65625 68.832031 -32.65625 71.28125 -32.65625 L 83.25 -32.65625 L 83.25 -28.140625 C 83.25 -11.691406 83.25 -2.242188 83.25 0.203125 C 83.25 2.660156 83.144531 4.203125 82.9375 4.828125 C 82.445312 6.441406 81.570312 7.769531 80.3125 8.8125 C 79.894531 9.164062 79.226562 9.550781 78.3125 9.96875 L 76.84375 10.609375 L 45.359375 10.703125 L 13.859375 10.703125 L 13.859375 -3.15625 C 13.859375 -12.457031 13.753906 -17.109375 13.546875 -17.109375 C 13.335938 -17.109375 12.707031 -17.039062 11.65625 -16.90625 C 10.601562 -16.695312 9.269531 -16.484375 7.65625 -16.265625 C 7.164062 -16.203125 6.222656 -16.097656 4.828125 -15.953125 L 4.296875 -15.859375 L 4.296875 -30.125 L 4.828125 -30.234375 C 5.242188 -30.304688 6.296875 -30.378906 7.984375 -30.453125 C 18.203125 -30.867188 27.578125 -32.335938 36.109375 -34.859375 C 38.554688 -35.484375 39.78125 -35.867188 39.78125 -36.015625 C 39.78125 -36.222656 34.394531 -36.328125 23.625 -36.328125 L 6.296875 -36.328125 L 6.296875 -48.921875 L 38 -48.921875 L 38 -53.4375 L 11.65625 -53.4375 L 11.65625 -66.5625 L 38 -66.5625 L 38 -68.875 C 38 -70.476562 37.96875 -71.492188 37.90625 -71.921875 C 37.625 -72.753906 37.164062 -73.3125 36.53125 -73.59375 Z M 65.515625 -53.328125 C 65.515625 -53.398438 63.484375 -53.4375 59.421875 -53.4375 L 53.125 -53.4375 L 53.125 -48.921875 L 61.625 -48.921875 L 62.671875 -49.96875 C 63.234375 -50.53125 63.847656 -51.210938 64.515625 -52.015625 C 65.179688 -52.828125 65.515625 -53.265625 65.515625 -53.328125 Z M 69.078125 -20.6875 L 29.078125 -20.6875 L 29.078125 -15.4375 L 65.296875 -15.4375 L 65.296875 -4.71875 L 58.0625 -4.71875 C 45.875 -4.71875 39.78125 -4.71875 39.78125 -4.71875 L 29.078125 -4.71875 L 29.078125 -0.734375 L 47.5625 -0.734375 C 59.875 -0.734375 66.242188 -0.769531 66.671875 -0.84375 C 67.160156 -0.976562 67.613281 -1.222656 68.03125 -1.578125 C 68.59375 -1.992188 68.90625 -2.601562 68.96875 -3.40625 C 69.039062 -4.21875 69.078125 -7.035156 69.078125 -11.859375 Z M 69.078125 -20.6875 "/></g></g></g></svg>