<svg xmlns="http://www.w3.org/2000/svg" xmlns:xlink="http://www.w3.org/1999/xlink" width="1000" zoomAndPan="magnify" viewBox="0 0 750 749.999995" height="1000" preserveAspectRatio="xMidYMid meet" version="1.0"><defs><g/><clipPath id="070edd8ce9"><path d="M 0.898438 0.941406 L 749.058594 0.941406 L 749.058594 749.101562 L 0.898438 749.101562 Z M 0.898438 0.941406 " clip-rule="nonzero"/></clipPath><clipPath id="d6bac5fa6c"><path d="M 0 0.0390625 L 749.960938 0.0390625 L 749.960938 750 L 0 750 Z M 0 0.0390625 " clip-rule="nonzero"/></clipPath><clipPath id="5355069fef"><path d="M 141.3125 719.816406 L 608.859375 719.816406 L 608.859375 750 L 141.3125 750 Z M 141.3125 719.816406 " clip-rule="nonzero"/></clipPath><clipPath id="42c4bf67a0"><path d="M 141.371094 719.816406 L 608.535156 719.816406 L 608.535156 749.816406 L 141.371094 749.816406 Z M 141.371094 719.816406 " clip-rule="nonzero"/></clipPath><clipPath id="029ecf90b1"><path d="M 322.546875 680.984375 L 424.710938 680.984375 L 424.710938 750 L 322.546875 750 Z M 322.546875 680.984375 " clip-rule="nonzero"/></clipPath><clipPath id="4ad784a128"><path d="M 322.546875 680.984375 L 424.539062 680.984375 L 424.539062 749.980469 L 322.546875 749.980469 Z M 322.546875 680.984375 " clip-rule="nonzero"/></clipPath><clipPath id="e4e9d1574d"><path d="M 64.59375 0 L 532.144531 0 L 532.144531 28.726562 L 64.59375 28.726562 Z M 64.59375 0 " clip-rule="nonzero"/></clipPath><clipPath id="237703e5ff"><path d="M 64.632812 0 L 531.820312 0 L 531.820312 28.5 L 64.632812 28.5 Z M 64.632812 0 " clip-rule="nonzero"/></clipPath></defs><rect x="-75" width="900" fill="#ffffff" y="-74.999999" height="899.999994" fill-opacity="1"/><rect x="-75" width="900" fill="#000000" y="-74.999999" height="899.999994" fill-opacity="1"/><g clip-path="url(#070edd8ce9)"><path fill="#ffbf3f" d="M 141.296875 723.964844 L 608.707031 723.964844 L 608.707031 708.679688 L 542.945312 708.679688 L 542.945312 693.886719 L 608.59375 693.886719 L 593.472656 678.765625 L 156.441406 678.765625 L 141.296875 693.886719 L 206.945312 693.886719 L 206.945312 708.679688 L 141.296875 708.679688 Z M 64.175781 0.0390625 L 646.941406 0.0390625 L 646.941406 25.164062 L 653.113281 25.164062 L 653.113281 0.0390625 L 672.675781 0.0390625 L 672.675781 25.164062 L 678.84375 25.164062 L 678.84375 0.0390625 L 698.40625 0.0390625 L 698.40625 25.164062 L 704.574219 25.164062 L 704.574219 0.0390625 L 724.160156 0.0390625 L 724.160156 25.164062 L 730.328125 25.164062 L 730.328125 0.0390625 L 749.890625 0.0390625 L 749.890625 749.929688 L 622.355469 749.929688 L 622.355469 693.628906 L 595.714844 666.988281 L 154.246094 666.988281 L 127.578125 693.628906 L 127.578125 749.929688 L 0 749.929688 L 0 66.832031 L 62.28125 66.832031 L 62.28125 0.0390625 Z M 3.691406 49.5625 L 46.953125 49.5625 L 46.953125 3.707031 Z M 48.726562 53.136719 L 50.527344 53.136719 L 50.527344 0.0390625 L 0 0.0390625 L 0 53.136719 Z M 141.296875 736.820312 L 141.296875 748.035156 L 608.707031 748.035156 L 608.707031 736.820312 Z M 158.917969 3.824219 L 158.917969 28.949219 L 746.128906 28.949219 L 746.128906 746.144531 L 626.144531 746.144531 L 626.144531 692.0625 L 597.28125 663.203125 L 152.632812 663.203125 L 123.863281 692.0625 L 123.863281 746.144531 L 3.785156 746.144531 L 3.785156 70.617188 L 66.070312 70.617188 L 66.070312 3.824219 Z M 335.71875 694.402344 L 341.746094 697.882812 L 341.746094 704.894531 L 335.71875 708.378906 L 329.6875 704.894531 L 329.6875 697.882812 Z M 519.128906 686.710938 L 531.820312 694.027344 L 531.820312 708.679688 L 519.128906 716.019531 L 506.441406 708.679688 L 506.441406 694.144531 L 519.128906 686.828125 Z M 395.5 695.757812 L 400.359375 698.5625 L 400.359375 704.171875 L 395.5 706.976562 L 390.636719 704.171875 L 390.636719 698.5625 Z M 486.246094 689.121094 L 496.859375 695.242188 L 496.859375 707.488281 L 486.246094 713.613281 L 475.660156 707.488281 L 475.660156 695.242188 Z M 458.695312 691.128906 L 467.550781 696.246094 L 467.550781 706.484375 L 458.695312 711.578125 L 449.835938 706.484375 L 449.835938 696.246094 Z M 434.949219 692.859375 L 442.289062 697.113281 L 442.289062 705.597656 L 434.949219 709.847656 L 427.679688 705.597656 L 427.679688 697.113281 L 435.042969 692.859375 Z M 414.101562 694.402344 L 420.132812 697.882812 L 420.132812 704.894531 L 414.101562 708.378906 L 408.050781 704.894531 L 408.050781 697.882812 Z M 230.667969 686.710938 L 243.355469 694.027344 L 243.355469 708.679688 L 230.667969 716.019531 L 217.976562 708.679688 L 217.976562 694.144531 L 230.667969 686.828125 Z M 374.910156 695.757812 L 379.746094 698.5625 L 379.746094 704.171875 L 374.910156 706.976562 L 370.050781 704.171875 L 370.050781 698.5625 Z M 354.296875 695.757812 L 359.160156 698.5625 L 359.160156 704.171875 L 354.296875 706.976562 L 349.4375 704.171875 L 349.4375 698.5625 Z M 263.550781 689.121094 L 274.160156 695.242188 L 274.160156 707.488281 L 263.550781 713.613281 L 252.9375 707.488281 L 252.9375 695.242188 Z M 291.125 691.128906 L 299.984375 696.246094 L 299.984375 706.484375 L 291.125 711.578125 L 282.269531 706.484375 L 282.269531 696.246094 Z M 314.871094 692.859375 L 322.210938 697.113281 L 322.210938 705.597656 L 314.871094 709.847656 L 307.507812 705.597656 L 307.507812 697.113281 Z M 314.871094 692.859375 " fill-opacity="1" fill-rule="evenodd"/></g><g clip-path="url(#d6bac5fa6c)"><path stroke-linecap="butt" transform="matrix(0.74996, 0, 0, 0.74996, 0.00000265, 0.0396294)" fill="none" stroke-linejoin="miter" d="M -0.00000353352 -0.000755871 L -0.00000353352 1000.00001 L 1000.000762 1000.00001 L 1000.000762 -0.000755871 L -0.00000353352 -0.000755871 " stroke="#ffbf3f" stroke-width="18.00095" stroke-opacity="1" stroke-miterlimit="4"/></g><g clip-path="url(#5355069fef)"><path fill="#ffbf3f" d="M 141.3125 719.816406 L 608.898438 719.816406 L 608.898438 750 L 141.3125 750 Z M 141.3125 719.816406 " fill-opacity="1" fill-rule="nonzero"/></g><g clip-path="url(#42c4bf67a0)"><path stroke-linecap="butt" transform="matrix(0.74996, 0, 0, 0.74996, 141.369634, 719.817753)" fill="none" stroke-linejoin="miter" d="M 0.00194622 -0.00179566 L 623.264051 -0.00179566 L 623.264051 40.234706 L 0.00194622 40.234706 Z M 0.00194622 -0.00179566 " stroke="#ffbf3f" stroke-width="18.00095" stroke-opacity="1" stroke-miterlimit="4"/></g><g clip-path="url(#029ecf90b1)"><path fill="#ffbf3f" d="M 322.546875 680.984375 L 424.722656 680.984375 L 424.722656 750 L 322.546875 750 Z M 322.546875 680.984375 " fill-opacity="1" fill-rule="nonzero"/></g><g clip-path="url(#4ad784a128)"><path stroke-linecap="butt" transform="matrix(0.74996, 0, 0, 0.74996, 322.548328, 680.983115)" fill="none" stroke-linejoin="miter" d="M -0.00193708 0.00168034 L 136.213582 0.00168034 L 136.213582 92.016951 L -0.00193708 92.016951 Z M -0.00193708 0.00168034 " stroke="#ffbf3f" stroke-width="18.00095" stroke-opacity="1" stroke-miterlimit="4"/></g><g clip-path="url(#e4e9d1574d)"><path fill="#ffbf3f" d="M 64.59375 0 L 532.183594 0 L 532.183594 28.726562 L 64.59375 28.726562 Z M 64.59375 0 " fill-opacity="1" fill-rule="nonzero"/></g><g clip-path="url(#237703e5ff)"><path stroke-linecap="butt" transform="matrix(0.74996, 0, 0, 0.74996, 64.632993, 0.00002)" fill="none" stroke-linejoin="miter" d="M -0.000240813 -0.0000266681 L 623.319099 -0.0000266681 L 623.319099 38.298869 L -0.000240813 38.298869 Z M -0.000240813 -0.0000266681 " stroke="#ffbf3f" stroke-width="18.00095" stroke-opacity="1" stroke-miterlimit="4"/></g><g fill="#ffffff" fill-opacity="1"><g transform="translate(330.479814, 730.216356)"><g><path d="M 12.671875 -42.234375 C 12.546875 -42.273438 12.585938 -42.316406 12.796875 -42.359375 C 13.085938 -42.398438 13.976562 -42.421875 15.46875 -42.421875 C 16.957031 -42.421875 18.929688 -42.421875 21.390625 -42.421875 L 30.8125 -42.421875 L 31.25 -41.171875 C 31.457031 -40.285156 31.832031 -38.960938 32.375 -37.203125 C 32.707031 -36.117188 32.976562 -35.195312 33.1875 -34.4375 C 33.40625 -33.6875 33.554688 -33.101562 33.640625 -32.6875 C 33.679688 -32.4375 33.992188 -31.351562 34.578125 -29.4375 C 35.160156 -27.550781 35.597656 -26.039062 35.890625 -24.90625 C 36.347656 -23.363281 36.785156 -21.859375 37.203125 -20.390625 C 37.628906 -18.929688 38.050781 -17.53125 38.46875 -16.1875 C 38.550781 -15.894531 38.65625 -15.53125 38.78125 -15.09375 C 38.90625 -14.65625 39.070312 -14.140625 39.28125 -13.546875 C 39.445312 -12.960938 39.570312 -12.492188 39.65625 -12.140625 C 39.738281 -11.785156 39.800781 -11.546875 39.84375 -11.421875 C 39.882812 -11.335938 39.9375 -11.148438 40 -10.859375 C 40.0625 -10.566406 40.175781 -10.1875 40.34375 -9.71875 C 40.675781 -8.757812 40.863281 -8.09375 40.90625 -7.71875 C 40.945312 -7.59375 41.007812 -7.363281 41.09375 -7.03125 C 41.1875 -6.695312 41.285156 -6.347656 41.390625 -5.984375 C 41.492188 -5.628906 41.597656 -5.304688 41.703125 -5.015625 C 41.804688 -4.722656 41.859375 -4.535156 41.859375 -4.453125 C 41.898438 -4.410156 42.046875 -3.929688 42.296875 -3.015625 C 42.335938 -2.847656 42.429688 -2.5 42.578125 -1.96875 C 42.722656 -1.445312 42.878906 -0.925781 43.046875 -0.40625 C 43.210938 0.113281 43.359375 0.59375 43.484375 1.03125 C 43.609375 1.46875 43.691406 1.707031 43.734375 1.75 C 43.734375 1.925781 43.796875 2.222656 43.921875 2.640625 C 44.046875 3.054688 44.148438 3.328125 44.234375 3.453125 C 44.273438 3.703125 44.316406 3.921875 44.359375 4.109375 C 44.398438 4.296875 44.441406 4.453125 44.484375 4.578125 C 44.523438 4.617188 44.460938 4.660156 44.296875 4.703125 C 44.128906 4.742188 43.550781 4.765625 42.5625 4.765625 C 41.582031 4.765625 40.28125 4.765625 38.65625 4.765625 L 32.1875 4.765625 L 31.9375 4.015625 C 31.851562 3.804688 31.769531 3.546875 31.6875 3.234375 C 31.601562 2.921875 31.519531 2.554688 31.4375 2.140625 C 31.4375 2.054688 31.394531 1.863281 31.3125 1.5625 C 31.226562 1.269531 31.125 0.894531 31 0.4375 C 30.832031 -0.0195312 30.695312 -0.445312 30.59375 -0.84375 C 30.488281 -1.238281 30.394531 -1.601562 30.3125 -1.9375 L 29.5625 -4.953125 L 15.375 -4.953125 L 15.25 -4.515625 C 14.875 -3.179688 14.53125 -1.90625 14.21875 -0.6875 C 13.90625 0.519531 13.617188 1.648438 13.359375 2.703125 L 12.796875 4.765625 L 6.40625 4.765625 C 4.726562 4.722656 3.394531 4.691406 2.40625 4.671875 C 1.425781 4.648438 0.9375 4.617188 0.9375 4.578125 C 2.15625 0.773438 3.304688 -3.035156 4.390625 -6.859375 C 5.484375 -10.691406 6.550781 -14.554688 7.59375 -18.453125 C 7.59375 -18.535156 7.675781 -18.859375 7.84375 -19.421875 C 8.007812 -19.984375 8.132812 -20.429688 8.21875 -20.765625 C 8.425781 -21.398438 8.613281 -22.03125 8.78125 -22.65625 C 8.945312 -23.28125 9.113281 -23.925781 9.28125 -24.59375 C 9.445312 -25.175781 9.625 -25.820312 9.8125 -26.53125 C 10.007812 -27.25 10.234375 -28.023438 10.484375 -28.859375 C 10.523438 -28.984375 10.585938 -29.222656 10.671875 -29.578125 C 10.753906 -29.941406 10.847656 -30.320312 10.953125 -30.71875 C 11.054688 -31.113281 11.160156 -31.488281 11.265625 -31.84375 C 11.367188 -32.195312 11.421875 -32.414062 11.421875 -32.5 C 11.503906 -32.707031 11.585938 -32.957031 11.671875 -33.25 C 11.753906 -33.550781 11.859375 -33.910156 11.984375 -34.328125 C 12.191406 -35.160156 12.316406 -35.640625 12.359375 -35.765625 C 12.441406 -35.972656 12.535156 -36.328125 12.640625 -36.828125 C 12.742188 -37.335938 12.898438 -37.96875 13.109375 -38.71875 C 13.441406 -39.71875 13.609375 -40.34375 13.609375 -40.59375 C 13.609375 -41.351562 13.296875 -41.898438 12.671875 -42.234375 Z M 23.28125 -28.734375 C 22.78125 -30.742188 22.488281 -31.75 22.40625 -31.75 C 22.320312 -31.5 22.132812 -30.703125 21.84375 -29.359375 C 21.757812 -29.023438 21.648438 -28.578125 21.515625 -28.015625 C 21.390625 -27.453125 21.222656 -26.753906 21.015625 -25.921875 C 20.929688 -25.671875 20.785156 -25.082031 20.578125 -24.15625 C 20.367188 -23.238281 20.140625 -22.273438 19.890625 -21.265625 C 19.554688 -20.097656 19.222656 -18.820312 18.890625 -17.4375 C 18.472656 -15.769531 18.265625 -14.875 18.265625 -14.75 C 18.265625 -14.664062 19.707031 -14.625 22.59375 -14.625 L 26.921875 -14.625 L 26.796875 -15.25 C 26.460938 -16.582031 26 -18.367188 25.40625 -20.609375 C 24.820312 -22.847656 24.113281 -25.554688 23.28125 -28.734375 Z M 23.28125 -28.734375 "/></g></g></g><g fill="#ffffff" fill-opacity="1"><g transform="translate(375.974671, 730.216356)"><g><path d="M 20.828125 -42.796875 C 24.890625 -42.796875 28.289062 -41.863281 31.03125 -40 C 33.769531 -38.132812 35.597656 -35.21875 36.515625 -31.25 C 36.554688 -30.914062 36.585938 -30.503906 36.609375 -30.015625 C 36.628906 -29.535156 36.640625 -28.960938 36.640625 -28.296875 C 36.640625 -27.253906 36.484375 -26.226562 36.171875 -25.21875 C 35.859375 -24.21875 35.453125 -23.265625 34.953125 -22.359375 C 34.453125 -21.460938 33.882812 -20.617188 33.25 -19.828125 C 32.625 -19.035156 31.976562 -18.328125 31.3125 -17.703125 C 29.96875 -16.484375 28.910156 -15.519531 28.140625 -14.8125 C 27.367188 -14.101562 26.773438 -13.578125 26.359375 -13.234375 C 23.554688 -10.804688 21.796875 -9.238281 21.078125 -8.53125 C 19.953125 -7.488281 19.097656 -6.359375 18.515625 -5.140625 L 18.328125 -4.828125 L 28.109375 -4.828125 C 34.390625 -4.828125 37.53125 -4.785156 37.53125 -4.703125 C 37.488281 -4.367188 37.445312 -3.972656 37.40625 -3.515625 C 37.320312 -3.140625 37.242188 -2.65625 37.171875 -2.0625 C 37.109375 -1.476562 37.015625 -0.789062 36.890625 0 C 36.679688 1.550781 36.523438 2.710938 36.421875 3.484375 C 36.316406 4.253906 36.265625 4.660156 36.265625 4.703125 C 36.265625 4.742188 30.867188 4.765625 20.078125 4.765625 L 3.828125 4.765625 L 3.828125 1.875 C 3.828125 0.125 3.929688 -1.332031 4.140625 -2.5 C 4.347656 -3.675781 4.679688 -4.734375 5.140625 -5.671875 C 5.597656 -6.617188 6.210938 -7.519531 6.984375 -8.375 C 7.765625 -9.226562 8.722656 -10.222656 9.859375 -11.359375 C 11.859375 -13.367188 13.925781 -15.3125 16.0625 -17.1875 C 17.53125 -18.53125 18.804688 -19.710938 19.890625 -20.734375 C 20.972656 -21.765625 21.851562 -22.632812 22.53125 -23.34375 C 23.195312 -24.050781 23.75 -24.695312 24.1875 -25.28125 C 24.625 -25.875 24.945312 -26.378906 25.15625 -26.796875 C 25.414062 -27.335938 25.546875 -28.035156 25.546875 -28.890625 C 25.546875 -29.753906 25.4375 -30.457031 25.21875 -31 C 24.175781 -32.925781 22.546875 -33.890625 20.328125 -33.890625 C 19.617188 -33.890625 18.945312 -33.769531 18.3125 -33.53125 C 17.6875 -33.300781 17.164062 -32.957031 16.75 -32.5 C 15.664062 -31.457031 15.0625 -29.867188 14.9375 -27.734375 L 14.875 -26.796875 L 14.4375 -26.734375 L 3.515625 -26.734375 L 3.578125 -27.484375 C 3.785156 -29.910156 4.347656 -32.070312 5.265625 -33.96875 C 6.191406 -35.875 7.40625 -37.472656 8.90625 -38.765625 C 10.414062 -40.066406 12.179688 -41.0625 14.203125 -41.75 C 16.234375 -42.445312 18.441406 -42.796875 20.828125 -42.796875 Z M 20.828125 -42.796875 "/></g></g></g><g fill="#ffffff" fill-opacity="1"><g transform="translate(233.244526, 284.998887)"><g><path d="M 29.390625 -73.90625 C 29.390625 -73.90625 29.632812 -73.90625 30.125 -73.90625 C 30.476562 -73.90625 33.453125 -73.867188 39.046875 -73.796875 L 47.25 -73.796875 L 47.25 -61.625 L 47.34375 -49.34375 L 52.171875 -49.34375 C 53.710938 -49.34375 60.75 -49.34375 73.28125 -49.34375 L 89.453125 -49.34375 L 89.453125 -35.59375 L 47.25 -35.59375 L 47.25 -20.78125 C 47.3125 -10.84375 47.445312 -5.703125 47.65625 -5.359375 C 48.21875 -4.378906 49.0625 -3.644531 50.1875 -3.15625 C 50.601562 -3.007812 51.28125 -2.953125 52.21875 -2.984375 C 53.164062 -3.023438 56.367188 -3.328125 61.828125 -3.890625 C 79.328125 -5.421875 88.425781 -6.1875 89.125 -6.1875 L 89.65625 -6.1875 L 89.65625 0.734375 C 89.65625 5.285156 89.585938 7.59375 89.453125 7.65625 C 89.378906 7.65625 87.382812 7.796875 83.46875 8.078125 C 81.4375 8.222656 74.925781 8.609375 63.9375 9.234375 C 49.3125 10.078125 41.125 10.320312 39.375 9.96875 C 37.625 9.476562 35.976562 8.460938 34.4375 6.921875 C 33.457031 5.941406 32.753906 5.035156 32.328125 4.203125 C 31.773438 3.078125 31.445312 1.585938 31.34375 -0.265625 C 31.238281 -2.117188 31.1875 -7.945312 31.1875 -17.75 L 31.1875 -35.59375 L 4.828125 -35.59375 L 4.828125 -49.34375 L 6.921875 -49.34375 C 8.328125 -49.34375 12.703125 -49.34375 20.046875 -49.34375 L 31.1875 -49.34375 L 31.1875 -60.578125 C 31.1875 -60.785156 31.1875 -61.132812 31.1875 -61.625 C 31.1875 -67.226562 31.128906 -70.519531 31.015625 -71.5 C 30.910156 -72.476562 30.582031 -73.109375 30.03125 -73.390625 C 29.957031 -73.453125 29.921875 -73.484375 29.921875 -73.484375 Z M 29.390625 -73.90625 "/></g></g></g><g fill="#ffffff" fill-opacity="1"><g transform="translate(327.728981, 284.998887)"><g><path d="M 16.90625 -74.859375 L 19 -74.859375 C 20.332031 -74.859375 21.015625 -74.820312 21.046875 -74.75 C 21.085938 -74.675781 22.960938 -74.640625 26.671875 -74.640625 L 32.328125 -74.640625 L 32.328125 -69.5 L 46.515625 -69.5 L 46.515625 -58.375 L 5.78125 -58.375 L 5.671875 -60.359375 C 5.671875 -61.410156 5.671875 -63.269531 5.671875 -65.9375 L 5.671875 -69.5 L 10.1875 -69.5 C 10.8125 -69.5 11.628906 -69.5 12.640625 -69.5 C 13.660156 -69.5 14.503906 -69.5 15.171875 -69.5 C 15.835938 -69.5 16.378906 -69.5 16.796875 -69.5 L 18.796875 -69.5 L 18.796875 -71.171875 C 18.796875 -72.296875 18.691406 -73.035156 18.484375 -73.390625 C 18.203125 -73.941406 17.78125 -74.394531 17.21875 -74.75 Z M 54.171875 -74.53125 L 63.9375 -74.53125 L 63.9375 -69.5 L 64.875 -69.5 C 69.070312 -69.5 73.304688 -69.5 77.578125 -69.5 L 89.453125 -69.5 L 89.453125 -59.3125 L 86.296875 -59.3125 C 84.265625 -59.3125 83.25 -59.273438 83.25 -59.203125 C 83.25 -59.140625 80.097656 -59.109375 73.796875 -59.109375 C 67.503906 -59.109375 64.285156 -59.085938 64.140625 -59.046875 C 64.003906 -59.015625 63.9375 -58.507812 63.9375 -57.53125 L 63.9375 -55.953125 L 88.296875 -55.953125 L 88.296875 -31.921875 L 63.9375 -31.921875 L 63.9375 -29.8125 L 87.453125 -29.8125 L 87.453125 -26.03125 L 87.5625 -22.25 L 63.9375 -22.25 L 63.9375 -19.953125 L 75.0625 -19.953125 C 82.476562 -20.015625 86.328125 -20.046875 86.609375 -20.046875 L 87.03125 -20.046875 L 87.03125 -17 C 87.03125 -14.695312 87.03125 -13.472656 87.03125 -13.328125 L 87.03125 -12.703125 L 75.59375 -12.703125 C 67.894531 -12.773438 64.023438 -12.773438 63.984375 -12.703125 C 63.953125 -12.628906 63.9375 -12.242188 63.9375 -11.546875 L 64.046875 -10.390625 L 75.6875 -10.390625 L 87.34375 -10.5 L 87.453125 -6.828125 L 87.453125 -3.25 L 75.6875 -3.25 C 67.851562 -3.25 63.9375 -3.25 63.9375 -3.25 C 63.9375 -2.96875 64.25 -2.476562 64.875 -1.78125 C 65.363281 -1.15625 66.066406 -0.769531 66.984375 -0.625 C 67.609375 -0.488281 70.828125 -0.523438 76.640625 -0.734375 C 79.859375 -0.867188 83.144531 -1.007812 86.5 -1.15625 C 88.8125 -1.363281 89.96875 -1.46875 89.96875 -1.46875 C 90.113281 -1.46875 90.164062 0.398438 90.125 4.140625 C 90.09375 7.890625 90.039062 9.78125 89.96875 9.8125 C 89.894531 9.851562 84.644531 9.976562 74.21875 10.1875 C 69.945312 10.25 67.359375 10.316406 66.453125 10.390625 C 65.472656 10.390625 63.929688 10.390625 61.828125 10.390625 C 59.378906 10.460938 57.597656 10.320312 56.484375 9.96875 C 54.171875 9.34375 52.457031 8.117188 51.34375 6.296875 C 50.707031 5.316406 50.320312 4.335938 50.1875 3.359375 C 49.90625 2.242188 49.742188 0.425781 49.703125 -2.09375 C 49.671875 -4.613281 49.65625 -11.546875 49.65625 -22.890625 L 49.546875 -41.359375 L 74.4375 -41.359375 L 74.4375 -46.09375 L 67.40625 -46.09375 C 62.570312 -46.019531 59.628906 -45.945312 58.578125 -45.875 C 57.460938 -45.875 55.835938 -45.851562 53.703125 -45.8125 C 51.566406 -45.78125 50.359375 -45.800781 50.078125 -45.875 C 49.722656 -45.945312 49.546875 -46 49.546875 -46.03125 C 49.546875 -46.070312 49.546875 -50.570312 49.546875 -59.53125 C 49.546875 -68.488281 49.515625 -73.109375 49.453125 -73.390625 C 49.234375 -73.804688 48.847656 -74.15625 48.296875 -74.4375 Z M 6.71875 -56.484375 L 21.84375 -56.484375 L 21.84375 -49.65625 L 23.625 -49.65625 C 25.507812 -49.65625 26.835938 -49.65625 27.609375 -49.65625 L 29.921875 -49.65625 L 29.921875 -54.90625 L 29.609375 -55.109375 C 29.253906 -55.671875 28.796875 -56.023438 28.234375 -56.171875 L 28.03125 -56.375 C 28.101562 -56.375 30.691406 -56.375 35.796875 -56.375 L 43.25 -56.375 L 43.25 -55.859375 C 43.320312 -55.503906 43.359375 -54.378906 43.359375 -52.484375 L 43.25 -49.65625 L 47.25 -49.65625 L 47.25 -44.71875 C 47.25 -41.5 47.25 -39.679688 47.25 -39.265625 L 47.25 -38.734375 L 36.53125 -38.84375 C 31.144531 -38.84375 24.007812 -38.84375 15.125 -38.84375 L 4.296875 -38.84375 L 4.296875 -49.453125 L 5.5625 -49.453125 C 6.257812 -49.453125 6.957031 -49.453125 7.65625 -49.453125 L 8.609375 -49.546875 L 8.609375 -52.171875 C 8.609375 -53.859375 8.539062 -54.804688 8.40625 -55.015625 C 8.125 -55.503906 7.703125 -55.890625 7.140625 -56.171875 Z M 12.078125 -36.53125 C 14.660156 -36.53125 16.335938 -36.566406 17.109375 -36.640625 L 19.734375 -36.640625 L 19.734375 -32.328125 L 19.84375 -28.5625 L 19.953125 -28.65625 C 20.160156 -29.851562 20.507812 -30.867188 21 -31.703125 C 22.675781 -34.359375 24.914062 -35.929688 27.71875 -36.421875 C 28.0625 -36.492188 31.050781 -36.546875 36.6875 -36.578125 C 42.320312 -36.617188 45.28125 -36.601562 45.5625 -36.53125 L 45.765625 -36.53125 L 45.765625 -17.953125 C 45.765625 -13.960938 45.765625 -10.53125 45.765625 -7.65625 C 45.765625 -4.789062 45.765625 -2.601562 45.765625 -1.09375 C 45.765625 0.40625 45.734375 1.222656 45.671875 1.359375 C 45.316406 3.953125 44.160156 6.226562 42.203125 8.1875 C 40.660156 9.65625 38.804688 10.632812 36.640625 11.125 C 36.003906 11.195312 33.832031 11.234375 30.125 11.234375 L 24.5625 11.234375 L 24.5625 -0.84375 L 26.453125 -0.9375 C 27.859375 -0.9375 28.910156 -1.113281 29.609375 -1.46875 C 30.722656 -2.03125 31.523438 -2.941406 32.015625 -4.203125 C 32.160156 -4.617188 32.234375 -8.328125 32.234375 -15.328125 L 32.234375 -25.828125 L 19.734375 -25.828125 L 19.734375 -22.984375 L 24.671875 -22.890625 L 29.609375 -22.890625 L 29.609375 -15.859375 L 19.734375 -15.859375 L 19.734375 -13.234375 L 22.46875 -13.234375 C 25.40625 -13.234375 27.050781 -13.234375 27.40625 -13.234375 L 29.609375 -13.234375 L 29.609375 -5.453125 L 19.734375 -5.453125 L 19.734375 11.234375 L 6.40625 11.234375 L 6.40625 -12.078125 C 6.40625 -27.546875 6.351562 -35.382812 6.25 -35.59375 C 6.144531 -35.800781 5.953125 -35.972656 5.671875 -36.109375 L 5.046875 -36.421875 L 7.25 -36.421875 C 8.289062 -36.421875 9.898438 -36.457031 12.078125 -36.53125 Z M 12.078125 -36.53125 "/></g></g></g><g fill="#ffffff" fill-opacity="1"><g transform="translate(422.213436, 284.998887)"><g><path d="M 55.21875 -73.90625 L 54.59375 -74.53125 L 70.546875 -74.53125 L 70.546875 -63.625 L 87.5625 -63.625 L 87.5625 -49.96875 L 79.046875 -49.96875 L 70.546875 -49.875 L 70.546875 -39.265625 L 88.5 -39.265625 L 88.390625 -32.328125 L 88.390625 -25.515625 L 80.421875 -25.515625 C 79.160156 -25.515625 77.828125 -25.515625 76.421875 -25.515625 C 75.023438 -25.515625 73.867188 -25.515625 72.953125 -25.515625 C 72.046875 -25.515625 71.5625 -25.515625 71.5 -25.515625 L 70.546875 -25.515625 L 70.546875 11.34375 L 55.953125 11.34375 L 55.953125 -25.515625 L 47.453125 -25.515625 C 41.921875 -25.515625 39.03125 -25.515625 38.78125 -25.515625 C 38.539062 -25.515625 38.109375 -25.515625 37.484375 -25.515625 L 36.53125 -25.609375 L 36.53125 -39.265625 L 55.75 -39.265625 L 55.859375 -39.6875 C 55.921875 -39.894531 55.921875 -41.675781 55.859375 -45.03125 L 55.859375 -49.875 L 52.484375 -49.96875 L 49.125 -49.96875 L 48.390625 -48.921875 C 46.296875 -46.191406 43.742188 -43.953125 40.734375 -42.203125 C 38.628906 -41.015625 37.265625 -40.421875 36.640625 -40.421875 C 36.566406 -40.421875 36.53125 -42.941406 36.53125 -47.984375 L 36.53125 -55.640625 L 37.0625 -55.953125 C 38.601562 -57.078125 39.648438 -59.25 40.203125 -62.46875 C 40.273438 -63.445312 40.328125 -64.738281 40.359375 -66.34375 C 40.398438 -67.957031 40.382812 -69.007812 40.3125 -69.5 C 40.175781 -69.851562 39.863281 -70.289062 39.375 -70.8125 C 38.882812 -71.332031 38.53125 -71.59375 38.3125 -71.59375 C 38.101562 -71.59375 38 -71.628906 38 -71.703125 C 37.9375 -71.773438 38.847656 -71.8125 40.734375 -71.8125 C 42.617188 -71.8125 44.75 -71.8125 47.125 -71.8125 C 49.507812 -71.8125 51.265625 -71.8125 52.390625 -71.8125 L 53.546875 -71.8125 L 53.546875 -63.625 L 55.953125 -63.625 L 55.859375 -68.5625 L 55.859375 -73.484375 Z M 4.9375 -70.859375 C 5.007812 -70.929688 10.046875 -70.96875 20.046875 -70.96875 L 35.0625 -70.96875 L 35.0625 -70.234375 C 35.132812 -68.617188 35.171875 -66.148438 35.171875 -62.828125 C 35.171875 -59.503906 35.132812 -57.773438 35.0625 -57.640625 C 35.0625 -57.429688 34.90625 -57.289062 34.59375 -57.21875 C 34.28125 -57.144531 33.210938 -57.109375 31.390625 -57.109375 L 27.71875 -57.109375 L 27.71875 -40.421875 L 33.59375 -40.421875 L 33.59375 -26.671875 L 27.71875 -26.671875 L 27.71875 -7.765625 L 28.96875 -7.984375 C 29.113281 -7.984375 30.097656 -8.050781 31.921875 -8.1875 L 33.59375 -8.296875 L 33.59375 5.140625 L 32.546875 5.25 C 31.847656 5.382812 29.675781 5.59375 26.03125 5.875 C 18.332031 6.507812 12.382812 7.035156 8.1875 7.453125 C 5.664062 7.660156 4.367188 7.726562 4.296875 7.65625 C 4.234375 7.59375 4.21875 5.375 4.25 1 C 4.28125 -3.375 4.296875 -5.597656 4.296875 -5.671875 C 4.367188 -5.671875 5.523438 -5.738281 7.765625 -5.875 C 10.003906 -6.082031 11.367188 -6.257812 11.859375 -6.40625 L 12.390625 -6.515625 L 12.390625 -26.671875 L 8.609375 -26.765625 L 4.9375 -26.765625 L 4.828125 -33.59375 L 4.828125 -40.421875 L 12.390625 -40.421875 L 12.390625 -57.109375 L 11.65625 -57.21875 C 10.882812 -57.21875 9.832031 -57.253906 8.5 -57.328125 C 8.007812 -57.328125 7.394531 -57.328125 6.65625 -57.328125 C 5.925781 -57.328125 5.523438 -57.328125 5.453125 -57.328125 L 4.828125 -57.328125 L 4.828125 -64.046875 C 4.828125 -68.585938 4.863281 -70.859375 4.9375 -70.859375 Z M 39.578125 -23.71875 L 54.0625 -23.71875 L 54.171875 -22.15625 C 54.378906 -20.40625 54.304688 -18.164062 53.953125 -15.4375 C 53.609375 -12.707031 53.117188 -10.394531 52.484375 -8.5 C 51.503906 -5.5625 50.175781 -2.9375 48.5 -0.625 C 47.382812 0.976562 45.96875 2.515625 44.25 3.984375 C 42.53125 5.453125 40.867188 6.609375 39.265625 7.453125 C 37.097656 8.578125 35.769531 9.140625 35.28125 9.140625 C 35.132812 9.140625 35.0625 6.929688 35.0625 2.515625 C 35.0625 -1.890625 35.097656 -4.617188 35.171875 -5.671875 C 35.242188 -6.160156 35.332031 -6.472656 35.4375 -6.609375 C 35.539062 -6.753906 35.734375 -6.96875 36.015625 -7.25 C 38.597656 -8.78125 40.414062 -12.03125 41.46875 -17 C 41.882812 -18.894531 41.988281 -20.3125 41.78125 -21.25 C 41.570312 -22.195312 41.082031 -22.882812 40.3125 -23.3125 Z M 72.4375 -23.71875 L 84.625 -23.71875 L 84.625 -21.84375 C 84.625 -18.6875 84.832031 -15.882812 85.25 -13.4375 C 85.875 -10.570312 87.203125 -8.296875 89.234375 -6.609375 C 89.867188 -6.117188 90.21875 -5.875 90.28125 -5.875 C 90.351562 -5.875 90.390625 -3.285156 90.390625 1.890625 C 90.390625 7.066406 90.351562 9.65625 90.28125 9.65625 C 90 9.65625 89.242188 9.425781 88.015625 8.96875 C 86.796875 8.519531 85.875 8.117188 85.25 7.765625 C 78.382812 4.054688 74.253906 -2.554688 72.859375 -12.078125 C 72.296875 -15.578125 72.117188 -18.796875 72.328125 -21.734375 Z M 72.4375 -23.71875 "/></g></g></g><g fill="#ffffff" fill-opacity="1"><g transform="translate(316.490127, 406.492465)"><g><path d="M 35.59375 -53.125 L 37.484375 -53.015625 C 41.679688 -52.804688 45.441406 -51.929688 48.765625 -50.390625 C 52.085938 -48.847656 54.921875 -46.78125 57.265625 -44.1875 C 59.609375 -41.601562 61.425781 -38.597656 62.71875 -35.171875 C 64.019531 -31.742188 64.773438 -28 64.984375 -23.9375 C 65.265625 -17.425781 64.109375 -11.507812 61.515625 -6.1875 C 57.878906 1.15625 51.894531 5.769531 43.5625 7.65625 C 41.039062 8.363281 38.734375 8.71875 36.640625 8.71875 L 35.796875 8.71875 L 35.6875 5.5625 C 35.757812 4.445312 35.796875 3.3125 35.796875 2.15625 C 35.796875 1 35.796875 -0.242188 35.796875 -1.578125 C 35.796875 -4.234375 35.867188 -5.5625 36.015625 -5.5625 C 37.128906 -5.5625 38.421875 -6.085938 39.890625 -7.140625 C 42.554688 -8.679688 44.269531 -12.039062 45.03125 -17.21875 C 45.101562 -17.78125 45.15625 -18.5 45.1875 -19.375 C 45.226562 -20.25 45.210938 -21.28125 45.140625 -22.46875 C 45.066406 -23.726562 44.992188 -24.773438 44.921875 -25.609375 C 44.859375 -26.453125 44.757812 -27.15625 44.625 -27.71875 C 44.195312 -30.300781 43.40625 -32.554688 42.25 -34.484375 C 41.101562 -36.410156 39.09375 -37.617188 36.21875 -38.109375 L 35.59375 -38.21875 Z M 29.1875 -52.90625 C 29.53125 -52.976562 29.929688 -53.015625 30.390625 -53.015625 C 30.847656 -53.015625 31.359375 -53.050781 31.921875 -53.125 L 33.28125 -53.125 L 33.28125 -46.71875 C 33.28125 -44.6875 33.28125 -43.039062 33.28125 -41.78125 C 33.28125 -40.519531 33.242188 -39.644531 33.171875 -39.15625 L 33.171875 -38.21875 L 32.015625 -37.90625 C 28.734375 -37.34375 26.492188 -35.238281 25.296875 -31.59375 C 24.742188 -29.988281 24.394531 -28.148438 24.25 -26.078125 C 24.113281 -24.015625 24.113281 -21.757812 24.25 -19.3125 C 24.394531 -17.988281 24.570312 -16.644531 24.78125 -15.28125 C 24.988281 -13.914062 25.367188 -12.617188 25.921875 -11.390625 C 26.484375 -10.160156 27.21875 -9.109375 28.125 -8.234375 C 29.039062 -7.359375 30.234375 -6.710938 31.703125 -6.296875 L 33.0625 -5.984375 L 33.171875 1.265625 L 33.171875 8.5 L 31.1875 8.5 C 25.582031 8.5 20.503906 6.960938 15.953125 3.890625 C 9.441406 -0.523438 5.628906 -7.738281 4.515625 -17.75 C 3.535156 -25.863281 4.796875 -33 8.296875 -39.15625 C 10.390625 -42.9375 13.289062 -46.050781 17 -48.5 C 20.71875 -50.945312 24.78125 -52.414062 29.1875 -52.90625 Z M 29.1875 -52.90625 "/></g></g></g><g fill="#ffffff" fill-opacity="1"><g transform="translate(385.778724, 406.492465)"><g><path d="M 45.140625 -53.4375 L 46.1875 -53.4375 L 46.09375 -44.625 L 46.09375 -33.8125 L 44.40625 -33.90625 C 40.769531 -34.113281 37.65625 -33.554688 35.0625 -32.234375 C 33.59375 -31.460938 32.28125 -30.097656 31.125 -28.140625 C 29.96875 -26.179688 29.179688 -23.90625 28.765625 -21.3125 C 28.554688 -20.257812 28.453125 -15.113281 28.453125 -5.875 L 28.453125 7.984375 L 7.34375 7.984375 L 7.34375 -21.3125 C 7.34375 -31.175781 7.328125 -38.488281 7.296875 -43.25 C 7.265625 -48.007812 7.175781 -50.460938 7.03125 -50.609375 C 6.6875 -51.367188 6.195312 -51.890625 5.5625 -52.171875 C 5.488281 -52.242188 5.523438 -52.316406 5.671875 -52.390625 C 6.015625 -52.453125 7.113281 -52.484375 8.96875 -52.484375 C 10.832031 -52.484375 13.441406 -52.484375 16.796875 -52.484375 L 28.453125 -52.484375 L 28.453125 -42.203125 L 29.1875 -43.671875 C 30.519531 -46.816406 32.671875 -49.226562 35.640625 -50.90625 C 38.617188 -52.59375 41.785156 -53.4375 45.140625 -53.4375 Z M 45.140625 -53.4375 "/></g></g></g><g fill="#ffffff" fill-opacity="1"><g transform="translate(233.244526, 527.986044)"><g><path d="M 39.46875 -73.90625 C 40.519531 -73.976562 41.117188 -74.015625 41.265625 -74.015625 C 41.398438 -73.941406 43.566406 -73.90625 47.765625 -73.90625 L 54.0625 -73.90625 L 54.0625 -70.234375 L 87.453125 -70.234375 L 87.453125 -56.0625 L 84.515625 -56.0625 L 84.515625 -51.75 L 72.125 -51.75 L 72.015625 -50.609375 L 72.015625 -49.34375 L 88.390625 -49.34375 L 88.390625 -42.828125 L 72.125 -42.828125 L 72.125 -39.15625 L 75.6875 -39.15625 L 75.6875 -39.6875 C 75.6875 -40.382812 75.375 -40.875 74.75 -41.15625 C 74.601562 -41.289062 74.671875 -41.359375 74.953125 -41.359375 C 75.378906 -41.359375 77.234375 -41.359375 80.515625 -41.359375 L 86.71875 -41.359375 L 86.71875 -32.859375 L 45.359375 -32.859375 L 45.359375 -41.359375 L 56.484375 -41.359375 L 56.484375 -40.3125 C 56.484375 -39.6875 56.5 -39.316406 56.53125 -39.203125 C 56.570312 -39.097656 56.695312 -39.082031 56.90625 -39.15625 C 57.1875 -39.226562 57.675781 -39.265625 58.375 -39.265625 L 59.421875 -39.265625 L 59.421875 -41.046875 L 59.3125 -42.828125 L 53.125 -42.9375 C 48.5 -42.9375 45.941406 -42.9375 45.453125 -42.9375 L 44.09375 -42.9375 L 44.09375 -54.375 L 45.875 -56.171875 C 47.132812 -57.359375 47.972656 -58.40625 48.390625 -59.3125 L 49.03125 -60.578125 L 53.640625 -60.578125 C 56.796875 -60.648438 58.476562 -60.613281 58.6875 -60.46875 C 58.894531 -60.332031 58.789062 -59.738281 58.375 -58.6875 L 58.265625 -58.265625 L 73.796875 -58.265625 L 73.796875 -61.515625 L 21.203125 -61.515625 L 21.203125 -58.265625 L 43.15625 -58.265625 L 43.15625 -51.75 L 42.515625 -51.75 C 42.304688 -51.75 40.628906 -51.75 37.484375 -51.75 C 34.679688 -51.75 33.242188 -51.71875 33.171875 -51.65625 C 33.097656 -51.582031 33.03125 -51.09375 32.96875 -50.1875 L 32.96875 -48.921875 L 42.40625 -48.921875 L 42.40625 -42.734375 L 32.96875 -42.734375 L 32.859375 -41.671875 C 32.859375 -41.609375 32.859375 -41.503906 32.859375 -41.359375 C 32.785156 -40.660156 32.925781 -40.257812 33.28125 -40.15625 C 33.632812 -40.050781 34.929688 -40 37.171875 -40 C 37.660156 -40 38.007812 -40 38.21875 -40 L 43.5625 -40 L 43.5625 -32.859375 L 7.03125 -32.859375 L 7.03125 -40 L 19.953125 -40 L 19.953125 -42.734375 L 9.234375 -42.734375 L 9.234375 -48.921875 L 19.953125 -48.921875 L 19.953125 -51.75 L 8.8125 -51.75 L 8.71875 -53.859375 L 8.71875 -56.171875 L 7.984375 -56.171875 C 7.492188 -56.234375 7.175781 -56.40625 7.03125 -56.6875 C 7.03125 -57.113281 7.03125 -58.65625 7.03125 -61.3125 C 7.03125 -65.375 7.007812 -67.679688 6.96875 -68.234375 C 6.9375 -68.796875 6.75 -69.285156 6.40625 -69.703125 L 5.78125 -70.234375 L 21.203125 -70.234375 L 21.203125 -67.296875 L 21.3125 -64.875 C 21.382812 -64.945312 21.421875 -65.019531 21.421875 -65.09375 C 21.972656 -66.90625 23.019531 -68.304688 24.5625 -69.296875 C 25.332031 -69.710938 26.15625 -69.972656 27.03125 -70.078125 C 27.90625 -70.179688 29.988281 -70.234375 33.28125 -70.234375 L 39.265625 -70.234375 L 39.265625 -71.59375 C 39.265625 -72.4375 39.125 -73 38.84375 -73.28125 C 38.5625 -73.5625 38.351562 -73.734375 38.21875 -73.796875 Z M 59.421875 -50.609375 L 59.3125 -51.75 L 53.96875 -51.75 L 53.015625 -50.921875 C 52.597656 -50.566406 52.109375 -50.21875 51.546875 -49.875 L 51.015625 -49.453125 L 55.21875 -49.34375 L 59.421875 -49.34375 Z M 10.703125 -16.265625 L 10.703125 -31.078125 L 25.71875 -31.078125 L 25.609375 -28.5625 C 25.609375 -26.875 25.644531 -25.960938 25.71875 -25.828125 L 25.828125 -26.25 C 25.828125 -26.875 26.175781 -27.660156 26.875 -28.609375 C 27.570312 -29.554688 28.378906 -30.203125 29.296875 -30.546875 L 30.125 -30.96875 L 57 -31.078125 L 83.78125 -31.078125 L 83.671875 -18.0625 C 83.671875 -17.632812 83.671875 -17.035156 83.671875 -16.265625 C 83.671875 -10.179688 83.617188 -6.5625 83.515625 -5.40625 C 83.410156 -4.25 83.039062 -3.390625 82.40625 -2.828125 C 82.269531 -2.765625 82.203125 -2.695312 82.203125 -2.625 C 82.066406 -2.625 81.960938 -2.585938 81.890625 -2.515625 C 81.328125 -1.960938 79.800781 -1.648438 77.3125 -1.578125 C 74.832031 -1.503906 66.3125 -1.46875 51.75 -1.46875 C 48.957031 -1.46875 46.71875 -1.46875 45.03125 -1.46875 L 10.703125 -1.46875 Z M 68.140625 -24.359375 C 68.140625 -24.359375 67.210938 -24.359375 65.359375 -24.359375 C 63.503906 -24.359375 60.789062 -24.359375 57.21875 -24.359375 C 53.644531 -24.359375 50.144531 -24.359375 46.71875 -24.359375 L 25.609375 -24.359375 L 25.609375 -22.984375 L 45.5625 -22.984375 L 65.40625 -22.890625 L 65.515625 -20.046875 L 65.609375 -17.109375 L 25.515625 -17.109375 L 25.515625 -16.375 L 25.609375 -15.75 L 45.5625 -15.640625 L 65.609375 -15.640625 L 65.515625 -13.015625 L 65.40625 -10.28125 L 46.515625 -10.28125 C 43.566406 -10.28125 40.410156 -10.28125 37.046875 -10.28125 C 33.691406 -10.28125 31.15625 -10.28125 29.4375 -10.28125 C 27.726562 -10.28125 26.804688 -10.28125 26.671875 -10.28125 L 25.609375 -10.1875 L 25.609375 -8.8125 L 68.453125 -8.8125 L 68.453125 -16.59375 C 68.453125 -21.769531 68.347656 -24.359375 68.140625 -24.359375 Z M 53.125 -0.109375 L 67.5 -0.109375 L 68.34375 0.3125 C 68.832031 0.664062 69.566406 0.945312 70.546875 1.15625 C 72.160156 1.570312 73.5625 1.816406 74.75 1.890625 C 75.9375 1.960938 78.351562 2 82 2 L 88.921875 2 L 88.921875 10.609375 L 86.40625 10.609375 C 84.582031 10.742188 81.710938 10.8125 77.796875 10.8125 C 73.734375 10.8125 70.828125 10.707031 69.078125 10.5 C 62.710938 9.445312 58.164062 7.554688 55.4375 4.828125 C 54.175781 3.492188 53.441406 2.09375 53.234375 0.625 Z M 24.046875 0.625 C 24.953125 0.414062 28.066406 0.273438 33.390625 0.203125 L 41.359375 0.203125 L 41.265625 0.9375 C 41.117188 2.34375 40.34375 3.707031 38.9375 5.03125 C 37.539062 6.363281 35.832031 7.414062 33.8125 8.1875 C 30.800781 9.238281 26.84375 10.039062 21.9375 10.59375 C 17.039062 11.15625 12.25 11.296875 7.5625 11.015625 L 5.5625 10.921875 L 5.5625 1.359375 L 12.171875 1.359375 C 18.128906 1.429688 22.085938 1.1875 24.046875 0.625 Z M 24.046875 0.625 "/></g></g></g><g fill="#ffffff" fill-opacity="1"><g transform="translate(327.728981, 527.986044)"><g><path d="M 5.5625 -65.296875 L 5.5625 -72.328125 L 89.65625 -72.328125 L 89.65625 -58.375 L 82.09375 -58.375 L 82.09375 -30.34375 C 82.09375 -29.289062 82.09375 -27.75 82.09375 -25.71875 C 82.09375 -13.1875 82.039062 -5.765625 81.9375 -3.453125 C 81.832031 -1.148438 81.535156 0.5625 81.046875 1.6875 C 80.910156 1.820312 80.84375 1.925781 80.84375 2 C 79.226562 5.425781 76.425781 7.734375 72.4375 8.921875 C 71.59375 9.203125 67.742188 9.378906 60.890625 9.453125 L 50.5 9.546875 L 50.5 -4.515625 L 56.90625 -4.515625 C 61.03125 -4.515625 63.300781 -4.65625 63.71875 -4.9375 C 64.5625 -5.28125 65.191406 -5.941406 65.609375 -6.921875 C 65.828125 -7.347656 65.953125 -8.734375 65.984375 -11.078125 C 66.015625 -13.421875 66.03125 -20.75 66.03125 -33.0625 L 66.03125 -58.375 L 5.5625 -58.375 Z M 9.875 -52.59375 C 9.65625 -52.664062 9.722656 -52.738281 10.078125 -52.8125 C 10.640625 -52.875 13.195312 -52.90625 17.75 -52.90625 L 26.140625 -52.90625 L 26.140625 -48.8125 L 26.03125 -44.625 L 26.5625 -46.09375 C 27.125 -47.84375 28.085938 -49.273438 29.453125 -50.390625 C 30.816406 -51.515625 32.335938 -52.25 34.015625 -52.59375 C 34.785156 -52.664062 38.632812 -52.703125 45.5625 -52.703125 L 55.859375 -52.703125 L 55.859375 -30.96875 C 55.859375 -16.6875 55.820312 -9.128906 55.75 -8.296875 L 55.640625 -7.140625 L 11.4375 -7.140625 L 11.4375 -29.078125 L 11.34375 -51.234375 L 10.8125 -51.75 C 10.457031 -52.101562 10.144531 -52.382812 9.875 -52.59375 Z M 41.671875 -30.03125 L 41.671875 -39.46875 L 33.90625 -39.46875 C 28.726562 -39.46875 26.140625 -39.46875 26.140625 -39.46875 C 26.140625 -39.40625 26.140625 -36.257812 26.140625 -30.03125 L 26.03125 -20.578125 L 33.8125 -20.578125 L 41.578125 -20.6875 Z M 41.671875 -30.03125 "/></g></g></g><g fill="#ffffff" fill-opacity="1"><g transform="translate(422.213436, 527.986044)"><g><path d="M 21.203125 -74.75 C 21.347656 -74.75 23.691406 -74.75 28.234375 -74.75 C 32.785156 -74.75 35.625 -74.75 36.75 -74.75 C 36.882812 -74.75 36.953125 -74.082031 36.953125 -72.75 L 36.953125 -70.765625 L 58.265625 -70.765625 L 58.265625 -71.5 C 58.265625 -72.332031 58.070312 -73.0625 57.6875 -73.6875 C 57.300781 -74.320312 56.796875 -74.640625 56.171875 -74.640625 L 63.9375 -74.75 L 71.921875 -74.75 L 72.015625 -72.859375 C 72.085938 -71.597656 72.125 -70.929688 72.125 -70.859375 C 72.195312 -70.796875 75.207031 -70.765625 81.15625 -70.765625 L 90.078125 -70.765625 L 90.078125 -59.21875 L 72.328125 -59.21875 L 72.234375 -58.796875 C 72.160156 -58.515625 72.160156 -58.128906 72.234375 -57.640625 L 72.234375 -56.6875 L 86.1875 -56.6875 L 86.1875 -50.078125 C 86.1875 -45.597656 86.171875 -43.21875 86.140625 -42.9375 C 86.109375 -42.65625 86.054688 -41.34375 85.984375 -39 C 85.910156 -36.65625 85.835938 -35.378906 85.765625 -35.171875 C 85.703125 -34.890625 85.671875 -34.503906 85.671875 -34.015625 L 85.671875 -33.390625 L 48.296875 -33.390625 C 23.378906 -33.390625 10.460938 -33.421875 9.546875 -33.484375 L 8.1875 -33.59375 L 8.078125 -34.75 C 8.078125 -35.519531 8.078125 -39.054688 8.078125 -45.359375 C 8.078125 -51.796875 8.007812 -55.15625 7.875 -55.4375 C 7.726562 -55.925781 7.445312 -56.3125 7.03125 -56.59375 C 6.894531 -56.65625 6.929688 -56.6875 7.140625 -56.6875 C 7.421875 -56.6875 8.539062 -56.6875 10.5 -56.6875 C 13.226562 -56.6875 15.289062 -56.6875 16.6875 -56.6875 C 18.582031 -56.757812 20.019531 -56.796875 21 -56.796875 L 22.78125 -56.796875 L 22.78125 -59.109375 L 15.328125 -59.109375 C 10.492188 -59.109375 7.90625 -59.144531 7.5625 -59.21875 C 7.28125 -59.21875 6.789062 -59.21875 6.09375 -59.21875 L 5.140625 -59.21875 L 5.140625 -70.765625 L 12.390625 -70.765625 C 16.585938 -70.765625 19.492188 -70.765625 21.109375 -70.765625 L 22.78125 -70.765625 L 22.78125 -71.703125 C 22.78125 -72.753906 22.535156 -73.523438 22.046875 -74.015625 C 21.835938 -74.359375 21.59375 -74.566406 21.3125 -74.640625 L 20.890625 -74.640625 Z M 55.21875 -59.109375 C 53.75 -59.109375 50.179688 -59.109375 44.515625 -59.109375 L 36.84375 -59.109375 L 36.953125 -57.953125 L 36.953125 -56.6875 L 58.15625 -56.6875 L 58.15625 -59.109375 Z M 23.203125 -55.4375 C 23.054688 -55.5 22.914062 -55.640625 22.78125 -55.859375 L 22.671875 -56.265625 L 22.671875 -55.859375 C 22.671875 -55.359375 22.671875 -54.757812 22.671875 -54.0625 C 22.671875 -53.363281 22.671875 -52.769531 22.671875 -52.28125 C 22.671875 -51.789062 22.671875 -51.582031 22.671875 -51.65625 C 22.742188 -51.65625 23.023438 -52.109375 23.515625 -53.015625 C 23.929688 -53.992188 24.210938 -54.554688 24.359375 -54.703125 C 24.492188 -54.765625 24.421875 -54.832031 24.140625 -54.90625 L 23.828125 -55.015625 C 23.546875 -55.148438 23.335938 -55.289062 23.203125 -55.4375 Z M 71.921875 -44.9375 L 71.921875 -47.765625 L 68.140625 -47.875 C 65.617188 -47.875 64.359375 -47.851562 64.359375 -47.8125 C 64.359375 -47.78125 64.359375 -46.820312 64.359375 -44.9375 L 64.359375 -42.09375 L 71.921875 -42.09375 Z M 30.03125 -47.765625 L 22.46875 -47.765625 L 22.359375 -47.34375 C 22.359375 -47.207031 22.359375 -46.628906 22.359375 -45.609375 C 22.359375 -44.597656 22.359375 -43.671875 22.359375 -42.828125 L 22.359375 -42.09375 L 29.8125 -42.09375 L 29.8125 -42.515625 C 29.8125 -42.796875 29.847656 -43.742188 29.921875 -45.359375 Z M 51.015625 -44.9375 L 51.015625 -47.765625 L 43.890625 -47.765625 L 43.890625 -42.09375 L 51.015625 -42.09375 Z M 23.203125 -55.015625 C 23.273438 -55.015625 23.34375 -55.015625 23.40625 -55.015625 L 23.203125 -55.109375 Z M 5.359375 -31.5 C 6.054688 -31.5 8.710938 -31.5 13.328125 -31.5 L 19.953125 -31.5 L 20.046875 -31.078125 C 20.117188 -30.660156 20.191406 -29.644531 20.265625 -28.03125 L 20.265625 -25.515625 L 20.46875 -26.140625 C 20.675781 -26.835938 20.992188 -27.535156 21.421875 -28.234375 C 21.554688 -28.304688 21.726562 -28.519531 21.9375 -28.875 C 23.40625 -30.414062 25.191406 -31.289062 27.296875 -31.5 C 27.859375 -31.5625 38.285156 -31.59375 58.578125 -31.59375 L 88.8125 -31.5 L 88.8125 -16.265625 L 79.46875 -16.265625 L 79.375 -14.703125 C 79.375 -13.578125 79.335938 -12.84375 79.265625 -12.5 C 79.054688 -11.65625 78.671875 -10.640625 78.109375 -9.453125 C 77.128906 -7.554688 75.832031 -5.804688 74.21875 -4.203125 C 71.84375 -1.816406 68.832031 0.28125 65.1875 2.09375 C 61.90625 3.84375 57.988281 5.347656 53.4375 6.609375 C 51.40625 7.242188 49.023438 7.875 46.296875 8.5 C 41.328125 9.550781 36.425781 10.253906 31.59375 10.609375 C 31.457031 10.609375 31.210938 10.625 30.859375 10.65625 C 30.515625 10.6875 30.097656 10.738281 29.609375 10.8125 C 29.117188 10.882812 28.734375 10.921875 28.453125 10.921875 C 23.335938 11.335938 17.5625 11.546875 11.125 11.546875 L 5.875 11.546875 L 5.875 11.125 C 5.875 11.050781 5.875 10.910156 5.875 10.703125 C 5.875 10.492188 5.875 10.210938 5.875 9.859375 C 5.875 9.515625 5.875 9.128906 5.875 8.703125 C 5.875 8.285156 5.875 7.816406 5.875 7.296875 C 5.875 6.773438 5.875 6.234375 5.875 5.671875 L 5.875 0.84375 L 10.703125 0.84375 C 14.140625 0.769531 16.171875 0.695312 16.796875 0.625 C 16.796875 0.625 17.285156 0.609375 18.265625 0.578125 C 19.242188 0.546875 19.976562 0.53125 20.46875 0.53125 C 22.007812 0.457031 23.832031 0.316406 25.9375 0.109375 C 29.082031 -0.0351562 30.65625 -0.125 30.65625 -0.15625 C 30.65625 -0.1875 30.375 -0.519531 29.8125 -1.15625 C 28.832031 -2.269531 28.03125 -3.425781 27.40625 -4.625 C 26.488281 -6.019531 26.03125 -7 26.03125 -7.5625 C 26.03125 -7.5625 25.859375 -7.523438 25.515625 -7.453125 C 23.066406 -6.753906 20.894531 -6.195312 19 -5.78125 C 15.925781 -5.144531 13.019531 -4.6875 10.28125 -4.40625 C 9.65625 -4.332031 9.097656 -4.257812 8.609375 -4.1875 C 8.117188 -4.125 7.835938 -4.109375 7.765625 -4.140625 C 7.691406 -4.179688 7.65625 -5.953125 7.65625 -9.453125 L 7.65625 -14.703125 L 7.875 -14.796875 C 7.945312 -14.796875 8.367188 -14.832031 9.140625 -14.90625 C 14.316406 -15.113281 18.164062 -15.640625 20.6875 -16.484375 C 22.21875 -17.046875 23.226562 -17.394531 23.71875 -17.53125 C 23.863281 -17.675781 24.320312 -17.851562 25.09375 -18.0625 C 27.675781 -19.175781 29.460938 -20.222656 30.453125 -21.203125 C 30.660156 -21.347656 30.832031 -21.453125 30.96875 -21.515625 C 31.25 -21.660156 31.175781 -21.75 30.75 -21.78125 C 30.332031 -21.820312 28.617188 -21.84375 25.609375 -21.84375 L 19.953125 -21.84375 L 19.953125 -20.578125 C 19.953125 -19.597656 19.953125 -18.6875 19.953125 -17.84375 L 19.953125 -16.59375 L 13.328125 -16.59375 C 12.421875 -16.59375 11.375 -16.570312 10.1875 -16.53125 C 9 -16.5 8.101562 -16.484375 7.5 -16.484375 C 6.90625 -16.484375 6.578125 -16.484375 6.515625 -16.484375 C 6.160156 -16.484375 5.945312 -16.550781 5.875 -16.6875 C 5.875 -16.832031 5.875 -19.039062 5.875 -23.3125 L 5.875 -29.703125 L 5.671875 -30.234375 C 5.460938 -30.648438 5.195312 -30.945312 4.875 -31.125 C 4.5625 -31.300781 4.367188 -31.390625 4.296875 -31.390625 Z M 74.640625 -20.78125 L 74.640625 -21.9375 L 60.6875 -21.9375 C 51.507812 -21.9375 46.796875 -21.898438 46.546875 -21.828125 C 46.304688 -21.765625 46.046875 -21.734375 45.765625 -21.734375 C 45.554688 -21.734375 45.382812 -21.660156 45.25 -21.515625 C 45.101562 -21.453125 44.941406 -21.28125 44.765625 -21 C 44.597656 -20.71875 44.476562 -20.453125 44.40625 -20.203125 C 44.332031 -19.960938 44.296875 -19.804688 44.296875 -19.734375 C 44.296875 -19.734375 53.46875 -19.734375 71.8125 -19.734375 L 74.640625 -19.734375 Z M 37.90625 -10.5 C 35.03125 -10.570312 33.453125 -10.535156 33.171875 -10.390625 C 32.890625 -10.316406 32.539062 -10.175781 32.125 -9.96875 C 31.5625 -9.6875 31.140625 -9.515625 30.859375 -9.453125 C 30.648438 -9.304688 30.546875 -9.203125 30.546875 -9.140625 C 31.035156 -8.992188 34.328125 -8.921875 40.421875 -8.921875 C 41.535156 -8.921875 42.164062 -8.851562 42.3125 -8.71875 C 42.375 -8.570312 42.40625 -8.5 42.40625 -8.5 C 42.40625 -8.007812 42.6875 -7.238281 43.25 -6.1875 C 43.457031 -5.84375 43.753906 -5.457031 44.140625 -5.03125 C 44.523438 -4.613281 44.910156 -4.25 45.296875 -3.9375 C 45.679688 -3.625 45.976562 -3.46875 46.1875 -3.46875 C 46.46875 -3.46875 48.742188 -4.203125 53.015625 -5.671875 C 55.742188 -6.722656 57.945312 -7.738281 59.625 -8.71875 C 61.03125 -9.625 61.800781 -10.144531 61.9375 -10.28125 C 61.9375 -10.351562 61.832031 -10.390625 61.625 -10.390625 C 61.414062 -10.390625 60.875 -10.390625 60 -10.390625 C 59.125 -10.390625 58.019531 -10.390625 56.6875 -10.390625 C 55.363281 -10.390625 53.40625 -10.390625 50.8125 -10.390625 C 43.320312 -10.390625 39.019531 -10.425781 37.90625 -10.5 Z M 37.90625 -10.5 "/></g></g></g></svg>