<svg xmlns="http://www.w3.org/2000/svg" xmlns:xlink="http://www.w3.org/1999/xlink" width="1000" zoomAndPan="magnify" viewBox="0 0 750 749.999995" height="1000" preserveAspectRatio="xMidYMid meet" version="1.0"><defs><g/><clipPath id="8653e25e0f"><path d="M 0.898438 0.941406 L 749.058594 0.941406 L 749.058594 749.101562 L 0.898438 749.101562 Z M 0.898438 0.941406 " clip-rule="nonzero"/></clipPath><clipPath id="4c35f80af3"><path d="M 0 0.0390625 L 749.960938 0.0390625 L 749.960938 750 L 0 750 Z M 0 0.0390625 " clip-rule="nonzero"/></clipPath><clipPath id="c875b5aa39"><path d="M 141.3125 719.816406 L 608.859375 719.816406 L 608.859375 750 L 141.3125 750 Z M 141.3125 719.816406 " clip-rule="nonzero"/></clipPath><clipPath id="34e690c07d"><path d="M 141.371094 719.816406 L 608.535156 719.816406 L 608.535156 749.816406 L 141.371094 749.816406 Z M 141.371094 719.816406 " clip-rule="nonzero"/></clipPath><clipPath id="9ca1f32816"><path d="M 322.546875 680.984375 L 424.710938 680.984375 L 424.710938 750 L 322.546875 750 Z M 322.546875 680.984375 " clip-rule="nonzero"/></clipPath><clipPath id="3f905c1746"><path d="M 322.546875 680.984375 L 424.539062 680.984375 L 424.539062 749.980469 L 322.546875 749.980469 Z M 322.546875 680.984375 " clip-rule="nonzero"/></clipPath><clipPath id="468c737815"><path d="M 64.59375 0 L 532.144531 0 L 532.144531 28.726562 L 64.59375 28.726562 Z M 64.59375 0 " clip-rule="nonzero"/></clipPath><clipPath id="e9bc0ae647"><path d="M 64.632812 0 L 531.820312 0 L 531.820312 28.5 L 64.632812 28.5 Z M 64.632812 0 " clip-rule="nonzero"/></clipPath></defs><rect x="-75" width="900" fill="#ffffff" y="-74.999999" height="899.999994" fill-opacity="1"/><rect x="-75" width="900" fill="#000000" y="-74.999999" height="899.999994" fill-opacity="1"/><g fill="#ffffff" fill-opacity="1"><g transform="translate(233.18983, 345.767515)"><g><path d="M 37.90625 -73.90625 L 55.953125 -73.90625 L 55.953125 -68.65625 L 88.921875 -68.65625 L 88.921875 -57.640625 L 88.8125 -46.515625 L 84.828125 -46.40625 L 80.9375 -46.296875 L 80.9375 -39.046875 C 80.9375 -34.296875 80.867188 -31.675781 80.734375 -31.1875 C 80.523438 -29.925781 79.84375 -28.75 78.6875 -27.65625 C 77.53125 -26.570312 76.21875 -25.890625 74.75 -25.609375 C 74.113281 -25.546875 70.265625 -25.515625 63.203125 -25.515625 L 52.703125 -25.515625 L 52.703125 -21.625 L 63.828125 -21.515625 C 77.128906 -21.515625 83.988281 -21.484375 84.40625 -21.421875 C 84.613281 -21.421875 84.71875 -16.066406 84.71875 -5.359375 L 84.71875 10.703125 L 11.4375 10.703125 L 11.4375 -4.296875 C 11.4375 -4.796875 11.4375 -5.5 11.4375 -6.40625 C 11.4375 -13.332031 11.382812 -17.390625 11.28125 -18.578125 C 11.175781 -19.765625 10.914062 -20.535156 10.5 -20.890625 C 10.425781 -20.960938 10.351562 -21 10.28125 -21 L 9.765625 -21.625 L 26.765625 -21.625 L 26.765625 -13.859375 L 27.1875 -15.015625 C 27.539062 -16.484375 28.3125 -17.773438 29.5 -18.890625 C 31.175781 -20.640625 33.3125 -21.550781 35.90625 -21.625 L 36.953125 -21.625 L 36.953125 -25.515625 L 15.125 -25.515625 L 15.125 -46.09375 L 7.25 -46.09375 L 7.25 -56.59375 C 7.175781 -61.769531 7.117188 -64.828125 7.078125 -65.765625 C 7.046875 -66.710938 6.925781 -67.328125 6.71875 -67.609375 C 6.507812 -67.960938 6.226562 -68.207031 5.875 -68.34375 L 7.25 -68.5625 C 8.363281 -68.625 10.601562 -68.65625 13.96875 -68.65625 L 22.46875 -68.65625 L 22.46875 -65.1875 L 22.671875 -62.359375 C 23.160156 -64.460938 24.351562 -66.144531 26.25 -67.40625 C 27.15625 -67.957031 28.023438 -68.300781 28.859375 -68.4375 C 29.703125 -68.582031 31.664062 -68.65625 34.75 -68.65625 L 40.3125 -68.65625 L 40.3125 -70.125 C 40.3125 -71.875 39.785156 -73.03125 38.734375 -73.59375 Z M 73.796875 -54.484375 L 73.796875 -56.265625 L 22.46875 -56.265625 L 22.46875 -52.8125 L 28.65625 -52.8125 L 28.65625 -45.140625 L 28.96875 -46.296875 C 29.1875 -47.066406 29.429688 -47.734375 29.703125 -48.296875 C 29.984375 -48.847656 30.472656 -49.472656 31.171875 -50.171875 C 31.878906 -50.878906 32.476562 -51.375 32.96875 -51.65625 C 34.019531 -52.207031 35.363281 -52.535156 37 -52.640625 C 38.644531 -52.753906 44.613281 -52.8125 54.90625 -52.8125 L 73.796875 -52.8125 Z M 66.671875 -41.359375 C 66.242188 -41.359375 59.835938 -41.359375 47.453125 -41.359375 L 28.65625 -41.46875 L 28.65625 -36.109375 L 46.921875 -36.109375 C 56.023438 -36.179688 61.363281 -36.234375 62.9375 -36.265625 C 64.507812 -36.304688 65.4375 -36.429688 65.71875 -36.640625 C 66.488281 -37.203125 66.910156 -38.21875 66.984375 -39.6875 C 66.984375 -40.457031 66.960938 -40.925781 66.921875 -41.09375 C 66.890625 -41.269531 66.804688 -41.359375 66.671875 -41.359375 Z M 63.9375 -8.8125 C 59.59375 -8.8125 52.414062 -8.847656 42.40625 -8.921875 L 26.765625 -9.03125 L 26.765625 -2 L 69.703125 -2 L 69.703125 -8.8125 Z M 63.9375 -8.8125 "/></g></g></g><g fill="#ffffff" fill-opacity="1"><g transform="translate(327.674284, 345.767515)"><g><path d="M 55.53125 -74.53125 L 60.046875 -74.53125 C 63.335938 -74.46875 65.648438 -74.4375 66.984375 -74.4375 L 69.5 -74.4375 L 69.609375 -73.28125 C 69.609375 -72.644531 69.640625 -71.769531 69.703125 -70.65625 L 69.703125 -68.96875 L 88.078125 -68.96875 L 88.078125 -64.671875 C 88.078125 -61.941406 88.078125 -60.050781 88.078125 -59 L 88.078125 -57.640625 L 80.625 -57.640625 C 75.582031 -57.640625 73.0625 -57.640625 73.0625 -57.640625 C 73.0625 -57.640625 73.238281 -57.5 73.59375 -57.21875 C 73.664062 -57.144531 73.804688 -57.054688 74.015625 -56.953125 C 74.222656 -56.847656 74.414062 -56.742188 74.59375 -56.640625 C 74.769531 -56.535156 74.925781 -56.410156 75.0625 -56.265625 C 77.445312 -54.660156 80.351562 -53.539062 83.78125 -52.90625 C 84.476562 -52.84375 85.457031 -52.8125 86.71875 -52.8125 L 88.609375 -52.8125 L 88.609375 -47.25 C 88.609375 -43.675781 88.609375 -41.890625 88.609375 -41.890625 C 88.609375 -41.890625 88.015625 -41.957031 86.828125 -42.09375 C 82.554688 -42.582031 78.566406 -43.457031 74.859375 -44.71875 C 70.515625 -46.1875 67.429688 -47.972656 65.609375 -50.078125 L 64.984375 -50.609375 L 64.25 -49.875 C 62.78125 -48.539062 60.992188 -47.347656 58.890625 -46.296875 C 56.097656 -44.898438 52.21875 -43.742188 47.25 -42.828125 C 45.632812 -42.546875 44.40625 -42.375 43.5625 -42.3125 C 42.726562 -42.164062 41.925781 -42.023438 41.15625 -41.890625 C 40.101562 -41.679688 39.539062 -41.578125 39.46875 -41.578125 L 39.15625 -41.578125 L 39.15625 -52.59375 L 39.78125 -52.703125 C 39.925781 -52.703125 40.140625 -52.71875 40.421875 -52.75 C 40.703125 -52.789062 40.875 -52.8125 40.9375 -52.8125 C 42.550781 -52.875 44.476562 -53.1875 46.71875 -53.75 C 49.3125 -54.3125 50.988281 -54.765625 51.75 -55.109375 C 53.289062 -55.816406 54.410156 -56.414062 55.109375 -56.90625 C 55.535156 -57.320312 55.75 -57.566406 55.75 -57.640625 C 55.75 -57.640625 53.019531 -57.640625 47.5625 -57.640625 L 39.46875 -57.640625 L 39.46875 -68.96875 L 48.5 -68.96875 C 54.519531 -68.96875 57.53125 -68.984375 57.53125 -69.015625 C 57.53125 -69.054688 57.507812 -69.582031 57.46875 -70.59375 C 57.4375 -71.613281 57.390625 -72.265625 57.328125 -72.546875 C 57.109375 -73.035156 56.6875 -73.5625 56.0625 -74.125 Z M 17.84375 -74.4375 C 18.40625 -74.4375 19.382812 -74.4375 20.78125 -74.4375 L 26.03125 -74.4375 L 26.03125 -40.625 L 26.140625 -6.921875 L 27.609375 -6.828125 L 29.078125 -6.828125 L 29.078125 -65.296875 L 28.875 -65.71875 C 28.59375 -66.207031 28.171875 -66.59375 27.609375 -66.875 L 27.296875 -67.078125 L 28.5625 -67.078125 C 29.394531 -67.078125 31.144531 -67.078125 33.8125 -67.078125 L 37.578125 -67.078125 L 37.578125 -64.5625 C 37.578125 -39.226562 37.578125 -21.207031 37.578125 -10.5 L 37.578125 6.609375 L 30.234375 6.609375 C 25.828125 6.609375 20.71875 6.609375 14.90625 6.609375 L 6.921875 6.71875 L 6.921875 -29.296875 C 6.921875 -53.085938 6.890625 -65.085938 6.828125 -65.296875 C 6.753906 -65.648438 6.5625 -65.96875 6.25 -66.25 C 5.9375 -66.53125 5.671875 -66.738281 5.453125 -66.875 L 4.9375 -66.984375 L 5.984375 -67.078125 C 6.679688 -67.078125 8.394531 -67.078125 11.125 -67.078125 L 15.328125 -67.078125 L 15.328125 -6.828125 L 17.53125 -6.828125 L 17.53125 -39.265625 C 17.53125 -60.816406 17.460938 -71.804688 17.328125 -72.234375 C 17.179688 -73.210938 16.691406 -73.875 15.859375 -74.21875 Z M 41.265625 -41.15625 C 41.328125 -41.15625 42.09375 -41.15625 43.5625 -41.15625 C 45.03125 -41.15625 45.890625 -41.117188 46.140625 -41.046875 C 46.390625 -40.972656 47.003906 -40.9375 47.984375 -40.9375 C 48.816406 -41.007812 56.023438 -41.046875 69.609375 -41.046875 L 89.546875 -41.15625 L 89.546875 -29.8125 L 87.453125 -29.8125 L 87.453125 -14.171875 C 87.453125 -5.703125 87.429688 -0.753906 87.390625 0.671875 C 87.359375 2.109375 87.203125 3.210938 86.921875 3.984375 C 86.503906 5.453125 85.734375 6.765625 84.609375 7.921875 C 83.492188 9.078125 82.238281 9.9375 80.84375 10.5 C 79.925781 10.84375 79.082031 11.050781 78.3125 11.125 C 77.539062 11.195312 74.707031 11.234375 69.8125 11.234375 L 61.203125 11.234375 L 61.203125 5.671875 L 61.09375 0.203125 L 65.40625 0.3125 C 68.269531 0.3125 69.914062 0.273438 70.34375 0.203125 C 71.8125 -0.0664062 72.859375 -0.972656 73.484375 -2.515625 L 73.796875 -3.15625 L 73.796875 -29.921875 L 39.15625 -29.921875 L 39.15625 -40.9375 L 40.109375 -41.046875 C 40.660156 -41.117188 41.046875 -41.15625 41.265625 -41.15625 Z M 40.421875 -27.609375 C 40.703125 -27.609375 42.695312 -27.609375 46.40625 -27.609375 L 51.859375 -27.609375 L 51.859375 -20.359375 L 52.171875 -21.109375 C 52.660156 -22.578125 53.429688 -23.800781 54.484375 -24.78125 C 55.535156 -25.894531 56.691406 -26.695312 57.953125 -27.1875 C 58.578125 -27.394531 59.253906 -27.535156 59.984375 -27.609375 C 60.722656 -27.679688 62.566406 -27.71875 65.515625 -27.71875 L 70.96875 -27.71875 L 70.96875 -27.40625 C 71.039062 -27.257812 71.078125 -23.023438 71.078125 -14.703125 L 71.078125 -2.203125 L 56.484375 -2.203125 C 46.609375 -2.273438 41.617188 -2.328125 41.515625 -2.359375 C 41.410156 -2.398438 41.359375 -6.335938 41.359375 -14.171875 C 41.359375 -22.015625 41.359375 -26.039062 41.359375 -26.25 C 41.222656 -26.8125 40.910156 -27.195312 40.421875 -27.40625 L 40.109375 -27.609375 Z M 60.78125 -14.484375 L 60.78125 -17.421875 L 51.859375 -17.421875 L 51.859375 -11.65625 L 60.78125 -11.65625 Z M 60.78125 -14.484375 "/></g></g></g><g fill="#ffffff" fill-opacity="1"><g transform="translate(422.263722, 345.767515)"><g><path d="M 49.765625 -74.53125 L 57.328125 -74.53125 C 62.296875 -74.53125 64.78125 -74.460938 64.78125 -74.328125 C 64.78125 -72.503906 64.425781 -70.6875 63.71875 -68.875 C 63.164062 -67.46875 62.644531 -66.378906 62.15625 -65.609375 L 61.9375 -65.296875 L 62.25 -65.296875 C 62.394531 -65.160156 63.640625 -65.09375 65.984375 -65.09375 C 68.328125 -65.09375 70.234375 -65.125 71.703125 -65.1875 L 73.90625 -65.296875 L 73.90625 -66.140625 C 74.050781 -67.535156 74.050781 -68.476562 73.90625 -68.96875 C 73.5625 -69.53125 73.109375 -69.914062 72.546875 -70.125 L 72.125 -70.34375 L 74.53125 -70.34375 C 80.269531 -70.195312 83.769531 -70.125 85.03125 -70.125 L 86.921875 -70.125 L 86.921875 -53.75 L 79.78125 -53.75 L 79.890625 -51.65625 C 79.890625 -50.25 79.992188 -49.375 80.203125 -49.03125 C 80.484375 -48.332031 80.941406 -47.804688 81.578125 -47.453125 C 81.785156 -47.316406 82.304688 -47.28125 83.140625 -47.34375 C 84.472656 -47.34375 86.332031 -47.445312 88.71875 -47.65625 C 89.269531 -47.726562 89.582031 -47.726562 89.65625 -47.65625 C 89.726562 -47.59375 89.765625 -45.546875 89.765625 -41.515625 C 89.765625 -37.492188 89.726562 -35.445312 89.65625 -35.375 C 89.519531 -35.375 87 -35.375 82.09375 -35.375 L 74.640625 -35.375 L 73.90625 -35.59375 C 72.851562 -35.875 71.941406 -36.289062 71.171875 -36.84375 C 70.335938 -37.40625 69.601562 -38.140625 68.96875 -39.046875 C 68.414062 -39.816406 67.925781 -40.726562 67.5 -41.78125 C 67.21875 -42.832031 67.078125 -45.003906 67.078125 -48.296875 C 67.078125 -51.160156 67.046875 -52.769531 66.984375 -53.125 L 66.984375 -53.75 L 62.15625 -53.75 L 62.15625 -53.234375 C 62.15625 -52.390625 62.015625 -51.195312 61.734375 -49.65625 C 61.171875 -47 60.15625 -44.617188 58.6875 -42.515625 C 55.394531 -37.898438 50.8125 -34.785156 44.9375 -33.171875 C 43.25 -32.753906 42.269531 -32.613281 42 -32.75 C 41.925781 -32.820312 41.890625 -35.097656 41.890625 -39.578125 L 41.890625 -46.40625 L 42.515625 -46.40625 C 45.035156 -46.96875 46.859375 -47.945312 47.984375 -49.34375 C 48.742188 -50.394531 49.234375 -51.476562 49.453125 -52.59375 C 49.515625 -53.082031 49.546875 -53.378906 49.546875 -53.484375 C 49.546875 -53.585938 49.476562 -53.640625 49.34375 -53.640625 C 49.195312 -53.640625 48.003906 -53.640625 45.765625 -53.640625 L 42.734375 -53.640625 L 42.734375 -56.375 C 42.734375 -58.894531 42.695312 -60.785156 42.625 -62.046875 C 42.625 -64.078125 42.640625 -65.144531 42.671875 -65.25 C 42.710938 -65.351562 43.046875 -65.421875 43.671875 -65.453125 C 44.304688 -65.492188 44.65625 -65.546875 44.71875 -65.609375 C 44.789062 -65.679688 45.109375 -65.734375 45.671875 -65.765625 C 46.234375 -65.804688 46.722656 -65.929688 47.140625 -66.140625 C 48.046875 -66.554688 48.9375 -67.5 49.8125 -68.96875 C 50.6875 -70.4375 51.054688 -71.628906 50.921875 -72.546875 C 50.847656 -73.316406 50.566406 -73.875 50.078125 -74.21875 Z M 8.296875 -72.234375 C 10.878906 -72.234375 13.921875 -72.234375 17.421875 -72.234375 L 17.75 -72.234375 L 17.75 -68.765625 C 17.75 -68.273438 17.75 -67.679688 17.75 -66.984375 C 17.75 -66.285156 17.75 -65.671875 17.75 -65.140625 C 17.75 -64.617188 17.75 -64.285156 17.75 -64.140625 L 17.75 -62.984375 L 17.953125 -63.71875 C 18.085938 -65.332031 18.753906 -66.875 19.953125 -68.34375 C 20.722656 -69.46875 21.597656 -70.34375 22.578125 -70.96875 C 23.410156 -71.457031 24.210938 -71.773438 24.984375 -71.921875 C 25.335938 -71.984375 27.894531 -72.015625 32.65625 -72.015625 L 39.890625 -72.015625 L 39.890625 -60.6875 L 35.6875 -60.78125 L 31.5 -60.78125 L 31.5 -57.109375 L 32.75 -57.109375 C 33.726562 -57.109375 34.953125 -57.109375 36.421875 -57.109375 L 38.84375 -57.21875 L 38.953125 -52.59375 L 38.953125 -47.984375 L 31.5 -47.984375 L 31.5 -42.828125 L 38.84375 -42.828125 L 38.84375 -33.703125 L 31.5 -33.703125 L 31.5 -29.078125 L 36.21875 -29.078125 C 38.738281 -29.078125 40.3125 -29.078125 40.9375 -29.078125 C 41.007812 -29.078125 41.046875 -23.898438 41.046875 -13.546875 L 41.046875 1.890625 L 40.84375 2.828125 C 40.488281 4.441406 39.890625 5.738281 39.046875 6.71875 C 38.210938 7.84375 36.988281 8.785156 35.375 9.546875 C 33.28125 10.597656 30.203125 11.125 26.140625 11.125 L 23.3125 11.125 L 23.3125 7.03125 L 19.3125 7.03125 L 19.3125 -3.78125 C 19.3125 -11.34375 19.207031 -15.332031 19 -15.75 C 19 -15.75 18.960938 -15.816406 18.890625 -15.953125 C 18.679688 -16.160156 18.4375 -16.375 18.15625 -16.59375 L 17.640625 -17 L 20.578125 -17 C 22.535156 -17 23.515625 -16.96875 23.515625 -16.90625 C 23.515625 -16.414062 23.582031 -15.710938 23.71875 -14.796875 C 23.789062 -14.023438 23.828125 -11.539062 23.828125 -7.34375 L 23.828125 -1.046875 L 24.359375 -1.046875 C 24.773438 -1.046875 25.332031 -1.046875 26.03125 -1.046875 C 27.082031 -1.117188 27.890625 -1.4375 28.453125 -2 C 28.523438 -2.0625 28.644531 -2.210938 28.8125 -2.453125 C 28.988281 -2.703125 29.128906 -2.914062 29.234375 -3.09375 C 29.335938 -3.269531 29.390625 -3.425781 29.390625 -3.5625 C 29.390625 -3.5625 28.691406 -3.5625 27.296875 -3.5625 L 25.296875 -3.5625 L 25.203125 -3.984375 C 25.203125 -4.335938 25.203125 -6.300781 25.203125 -9.875 C 25.203125 -12.8125 25.164062 -14.539062 25.09375 -15.0625 C 25.019531 -15.59375 24.878906 -15.992188 24.671875 -16.265625 C 24.460938 -16.484375 24.21875 -16.660156 23.9375 -16.796875 L 23.625 -17 L 28.96875 -17 L 28.96875 -19.421875 L 5.984375 -19.421875 L 6.09375 -45.140625 L 6.09375 -70.96875 L 5.875 -71.28125 C 5.664062 -71.632812 5.421875 -71.847656 5.140625 -71.921875 L 4.71875 -72.125 Z M 21.84375 -60.578125 C 21.769531 -60.648438 21.066406 -60.6875 19.734375 -60.6875 L 17.75 -60.6875 L 17.75 -59.53125 C 17.75 -58.476562 17.75 -57.878906 17.75 -57.734375 C 17.75 -57.460938 17.75 -57.289062 17.75 -57.21875 C 17.8125 -57.144531 18.507812 -57.109375 19.84375 -57.109375 C 21.175781 -57.109375 21.859375 -57.144531 21.890625 -57.21875 C 21.921875 -57.289062 21.9375 -57.867188 21.9375 -58.953125 C 21.9375 -60.035156 21.90625 -60.578125 21.84375 -60.578125 Z M 21.625 -47.875 C 20.570312 -47.875 19.695312 -47.875 19 -47.875 L 17.75 -47.875 L 17.75 -42.828125 L 21.734375 -42.828125 L 21.734375 -43.359375 C 21.660156 -43.640625 21.660156 -43.707031 21.734375 -43.5625 C 21.804688 -43.5625 21.84375 -43.703125 21.84375 -43.984375 L 21.84375 -44.515625 L 21.734375 -44.40625 C 21.660156 -44.125 21.660156 -44.226562 21.734375 -44.71875 C 21.734375 -44.789062 21.75 -45.070312 21.78125 -45.5625 C 21.820312 -46.050781 21.84375 -46.398438 21.84375 -46.609375 L 21.84375 -47.875 Z M 21.9375 -33.703125 L 17.75 -33.703125 L 17.75 -29.078125 L 21.9375 -29.078125 L 21.9375 -29.5 C 21.9375 -29.78125 21.9375 -30.550781 21.9375 -31.8125 Z M 60.78125 -36.015625 C 65.050781 -36.015625 67.222656 -36.015625 67.296875 -36.015625 C 67.296875 -36.015625 67.085938 -35.101562 66.671875 -33.28125 C 66.453125 -32.4375 66.34375 -31.945312 66.34375 -31.8125 L 68.03125 -31.703125 C 68.9375 -31.628906 71.875 -31.59375 76.84375 -31.59375 C 83.914062 -31.59375 87.453125 -31.578125 87.453125 -31.546875 C 87.453125 -31.515625 87.488281 -29.535156 87.5625 -25.609375 L 87.5625 -19.734375 L 87.34375 -19.3125 C 87.207031 -19.03125 87.066406 -18.539062 86.921875 -17.84375 C 85.941406 -14.414062 84.265625 -11.128906 81.890625 -7.984375 C 80.972656 -6.785156 80.132812 -5.804688 79.375 -5.046875 L 78.84375 -4.515625 L 79.375 -4.40625 C 80.207031 -4.0625 81.21875 -3.78125 82.40625 -3.5625 C 82.476562 -3.5625 82.601562 -3.546875 82.78125 -3.515625 C 82.957031 -3.484375 83.113281 -3.445312 83.25 -3.40625 C 83.394531 -3.375 83.535156 -3.359375 83.671875 -3.359375 C 84.085938 -3.222656 84.960938 -3.046875 86.296875 -2.828125 C 86.296875 -2.828125 86.992188 -2.722656 88.390625 -2.515625 C 89.441406 -2.378906 89.984375 -2.273438 90.015625 -2.203125 C 90.054688 -2.128906 90.078125 0.0351562 90.078125 4.296875 L 90.078125 10.8125 L 89.546875 10.703125 C 85.554688 10.148438 82.476562 9.628906 80.3125 9.140625 C 76.113281 8.085938 72.160156 6.722656 68.453125 5.046875 L 66.34375 4.09375 L 64.78125 4.625 C 62.75 5.53125 60.925781 6.265625 59.3125 6.828125 C 54.207031 8.503906 48.992188 9.65625 43.671875 10.28125 C 42.828125 10.425781 42.40625 10.460938 42.40625 10.390625 C 42.34375 10.316406 42.3125 7.972656 42.3125 3.359375 L 42.3125 -3.5625 L 42.9375 -3.5625 C 43.425781 -3.632812 44.160156 -3.707031 45.140625 -3.78125 C 46.546875 -3.78125 48.050781 -3.882812 49.65625 -4.09375 C 52.457031 -4.582031 53.925781 -4.863281 54.0625 -4.9375 C 54.0625 -5.007812 54.0625 -5.078125 54.0625 -5.140625 C 54.0625 -5.210938 53.992188 -5.285156 53.859375 -5.359375 C 52.523438 -7.109375 51.085938 -9.414062 49.546875 -12.28125 C 49.128906 -13.125 48.898438 -13.546875 48.859375 -13.546875 C 48.828125 -13.546875 48.601562 -13.472656 48.1875 -13.328125 C 46.363281 -12.421875 44.71875 -11.789062 43.25 -11.4375 L 42.9375 -11.4375 L 42.9375 -18.0625 L 42.828125 -24.5625 L 42.734375 -24.875 L 42.515625 -25.296875 L 42.9375 -25.296875 C 43.632812 -25.296875 44.628906 -25.609375 45.921875 -26.234375 C 47.222656 -26.867188 48.363281 -27.609375 49.34375 -28.453125 C 51.582031 -30.335938 53.226562 -32.71875 54.28125 -35.59375 L 54.484375 -36.015625 Z M 73.796875 -20.046875 C 73.796875 -20.117188 71.273438 -20.15625 66.234375 -20.15625 C 61.203125 -20.15625 58.6875 -20.117188 58.6875 -20.046875 C 58.6875 -19.703125 58.929688 -19.039062 59.421875 -18.0625 C 60.265625 -16.519531 61.5625 -14.875 63.3125 -13.125 C 64.78125 -11.65625 65.65625 -10.921875 65.9375 -10.921875 C 66.070312 -10.921875 66.578125 -11.320312 67.453125 -12.125 C 68.328125 -12.925781 69.007812 -13.644531 69.5 -14.28125 C 70.195312 -14.976562 70.828125 -15.75 71.390625 -16.59375 C 72.992188 -18.613281 73.796875 -19.765625 73.796875 -20.046875 Z M 7.34375 -17 C 9.375 -17 10.425781 -17 10.5 -17 C 10.570312 -17 10.609375 -16.546875 10.609375 -15.640625 C 10.609375 -14.734375 10.625 -14.28125 10.65625 -14.28125 C 10.6875 -14.28125 10.671875 -10.78125 10.609375 -3.78125 L 10.609375 6.609375 L 5.984375 6.609375 L 5.984375 -3.5625 C 5.910156 -10.28125 5.875 -13.851562 5.875 -14.28125 C 5.738281 -15.1875 5.320312 -15.988281 4.625 -16.6875 L 4.40625 -17 Z M 13.015625 -17 L 17.328125 -17 L 17.328125 6.609375 L 12.703125 6.609375 L 12.59375 -4.296875 C 12.59375 -11.648438 12.5625 -15.429688 12.5 -15.640625 C 12.425781 -15.785156 12.316406 -15.925781 12.171875 -16.0625 C 12.035156 -16.195312 11.894531 -16.332031 11.75 -16.46875 C 11.613281 -16.613281 11.507812 -16.6875 11.4375 -16.6875 C 11.375 -16.6875 11.234375 -16.722656 11.015625 -16.796875 Z M 13.015625 -17 "/></g></g></g><g fill="#ffffff" fill-opacity="1"><g transform="translate(186.000918, 467.261094)"><g><path d="M 15.328125 -74.4375 C 15.398438 -74.4375 18.09375 -74.4375 23.40625 -74.4375 L 31.390625 -74.4375 L 31.28125 -71.703125 C 31.21875 -65.117188 30.378906 -59.378906 28.765625 -54.484375 C 28.203125 -52.734375 27.363281 -50.492188 26.25 -47.765625 C 26.3125 -47.628906 26.484375 -47.5625 26.765625 -47.5625 L 27.5 -47.5625 L 27.5 11.34375 L 12.171875 11.34375 L 12.171875 -28.234375 L 11.4375 -27.5 C 10.601562 -26.800781 9.273438 -25.835938 7.453125 -24.609375 C 5.628906 -23.390625 4.613281 -22.78125 4.40625 -22.78125 C 4.332031 -22.78125 4.296875 -25.960938 4.296875 -32.328125 L 4.296875 -41.78125 L 5.046875 -42.40625 C 6.515625 -43.601562 8.035156 -45.285156 9.609375 -47.453125 C 11.179688 -49.617188 12.457031 -51.820312 13.4375 -54.0625 C 14.625 -56.582031 15.65625 -59.539062 16.53125 -62.9375 C 17.40625 -66.332031 17.84375 -68.867188 17.84375 -70.546875 C 17.84375 -71.878906 17.285156 -72.894531 16.171875 -73.59375 C 15.890625 -73.800781 15.675781 -73.972656 15.53125 -74.109375 C 15.394531 -74.253906 15.328125 -74.363281 15.328125 -74.4375 Z M 85.359375 -71.703125 C 86.265625 -71.847656 86.800781 -71.898438 86.96875 -71.859375 C 87.144531 -71.828125 87.269531 -71.707031 87.34375 -71.5 C 87.414062 -71.144531 87.453125 -68.796875 87.453125 -64.453125 L 87.453125 -57.84375 L 86.5 -57.84375 C 85.664062 -57.707031 82.867188 -57.535156 78.109375 -57.328125 C 73.765625 -57.109375 70.753906 -56.929688 69.078125 -56.796875 L 67.5 -56.6875 L 67.5 -38.53125 L 89.65625 -38.53125 L 89.65625 -24.46875 L 67.5 -24.46875 L 67.5 -5.359375 L 88.1875 -5.359375 L 88.1875 8.71875 L 32.234375 8.71875 L 32.234375 -5.359375 L 51.859375 -5.359375 L 51.859375 -24.46875 L 30.546875 -24.46875 L 30.546875 -38.53125 L 51.859375 -38.53125 L 51.859375 -56.0625 L 50.5 -55.953125 C 49.863281 -55.890625 47.007812 -55.734375 41.9375 -55.484375 C 36.863281 -55.234375 34.117188 -55.109375 33.703125 -55.109375 C 33.554688 -55.109375 33.46875 -55.40625 33.4375 -56 C 33.40625 -56.601562 33.390625 -58.582031 33.390625 -61.9375 L 33.390625 -68.875 L 34.125 -68.875 C 34.539062 -68.875 38.804688 -69.082031 46.921875 -69.5 C 48.535156 -69.632812 50.617188 -69.769531 53.171875 -69.90625 C 55.722656 -70.050781 57.734375 -70.175781 59.203125 -70.28125 C 60.679688 -70.382812 61.664062 -70.4375 62.15625 -70.4375 C 64.25 -70.582031 68.515625 -70.828125 74.953125 -71.171875 C 76.566406 -71.242188 78.195312 -71.332031 79.84375 -71.4375 C 81.488281 -71.539062 82.816406 -71.609375 83.828125 -71.640625 C 84.847656 -71.679688 85.359375 -71.703125 85.359375 -71.703125 Z M 85.359375 -71.703125 "/></g></g></g><g fill="#ffffff" fill-opacity="1"><g transform="translate(280.485372, 467.261094)"><g><path d="M 5.359375 -36.75 L 5.359375 -42.9375 L 90.1875 -42.9375 L 90.1875 -30.453125 L 5.359375 -30.453125 Z M 5.359375 -36.75 "/></g></g></g><g fill="#ffffff" fill-opacity="1"><g transform="translate(374.969827, 467.261094)"><g><path d="M 53.640625 -73.796875 C 53.367188 -73.941406 53.441406 -74.050781 53.859375 -74.125 C 54.347656 -74.125 56.304688 -74.125 59.734375 -74.125 L 66.453125 -74.125 L 66.5625 -72.96875 C 66.632812 -72.332031 66.632812 -70.722656 66.5625 -68.140625 L 66.453125 -64.453125 L 69.8125 -64.453125 L 69.8125 -68.453125 C 69.8125 -70.691406 69.773438 -72.003906 69.703125 -72.390625 C 69.640625 -72.773438 69.289062 -73.210938 68.65625 -73.703125 C 68.375 -73.835938 68.410156 -73.90625 68.765625 -73.90625 C 69.328125 -73.90625 71.53125 -73.90625 75.375 -73.90625 L 82.9375 -73.90625 L 82.9375 -64.453125 L 85.875 -64.453125 C 87.832031 -64.453125 88.882812 -64.347656 89.03125 -64.140625 C 89.03125 -64.078125 89.03125 -62.257812 89.03125 -58.6875 C 89.03125 -55.113281 89.03125 -53.117188 89.03125 -52.703125 C 88.957031 -52.628906 87.765625 -52.59375 85.453125 -52.59375 L 81.890625 -52.59375 L 81.78125 -51.96875 C 81.707031 -51.476562 81.671875 -50.078125 81.671875 -47.765625 L 81.671875 -44.203125 L 85.359375 -44.09375 L 89.03125 -43.984375 L 89.03125 -32.015625 L 85.453125 -31.921875 L 81.890625 -31.921875 L 81.78125 -30.453125 C 81.707031 -29.609375 81.671875 -28.378906 81.671875 -26.765625 L 81.671875 -24.671875 L 85.25 -24.671875 C 87.625 -24.671875 88.847656 -24.566406 88.921875 -24.359375 C 89.054688 -24.148438 89.125 -22.082031 89.125 -18.15625 L 89.234375 -12.390625 L 85.453125 -12.28125 L 81.671875 -12.28125 L 81.671875 -8.296875 C 81.671875 -5.628906 81.722656 -4.207031 81.828125 -4.03125 C 81.941406 -3.863281 83.222656 -3.78125 85.671875 -3.78125 C 88.046875 -3.851562 89.476562 -3.851562 89.96875 -3.78125 L 90.59375 -3.671875 L 90.59375 9.453125 L 52.078125 9.453125 L 51.96875 -12.90625 L 51.96875 -35.171875 L 50.8125 -34.21875 L 49.765625 -33.28125 L 49.765625 -41.78125 L 49.65625 -50.390625 L 50.5 -51.234375 C 51.820312 -52.773438 52.90625 -55.1875 53.75 -58.46875 C 54.59375 -61.757812 55.046875 -65.398438 55.109375 -69.390625 C 55.109375 -70.722656 55.09375 -71.53125 55.0625 -71.8125 C 55.03125 -72.09375 54.875 -72.441406 54.59375 -72.859375 C 54.3125 -73.273438 53.992188 -73.585938 53.640625 -73.796875 Z M 69.703125 -48.390625 L 69.703125 -52.59375 L 63.828125 -52.59375 L 63.09375 -50.8125 C 62.601562 -49.6875 62.359375 -49.085938 62.359375 -49.015625 C 62.359375 -48.953125 62.707031 -48.921875 63.40625 -48.921875 L 64.453125 -48.921875 L 64.453125 -44.09375 L 69.703125 -44.09375 Z M 69.703125 -28.34375 L 69.703125 -31.921875 L 64.453125 -31.921875 L 64.453125 -24.671875 L 65.09375 -24.671875 C 65.4375 -24.671875 66.34375 -24.671875 67.8125 -24.671875 L 69.703125 -24.78125 Z M 69.703125 -8.078125 L 69.703125 -12.390625 L 64.453125 -12.390625 L 64.453125 -3.890625 L 65.609375 -3.890625 C 67.359375 -3.890625 68.234375 -3.890625 68.234375 -3.890625 L 69.703125 -3.890625 Z M 5.78125 -71.390625 C 5.5 -71.597656 5.582031 -71.71875 6.03125 -71.75 C 6.488281 -71.789062 8.363281 -71.8125 11.65625 -71.8125 L 18.0625 -71.8125 L 18.15625 -70.96875 C 18.15625 -70.34375 18.15625 -68.800781 18.15625 -66.34375 L 18.0625 -62.78125 L 18.484375 -64.25 C 18.972656 -66 19.914062 -67.554688 21.3125 -68.921875 C 22.707031 -70.285156 24.28125 -71.144531 26.03125 -71.5 C 26.800781 -71.707031 30.757812 -71.8125 37.90625 -71.8125 L 48.609375 -71.8125 L 48.609375 -35.0625 C 48.609375 -10.5625 48.535156 2 48.390625 2.625 C 48.046875 4.238281 47.296875 5.726562 46.140625 7.09375 C 44.984375 8.457031 43.707031 9.382812 42.3125 9.875 C 41.613281 10.082031 39.300781 10.1875 35.375 10.1875 L 29.390625 10.28125 L 29.390625 -1.578125 L 32.234375 -1.6875 C 34.191406 -1.75 35.378906 -1.882812 35.796875 -2.09375 C 36.285156 -2.375 36.671875 -2.757812 36.953125 -3.25 C 37.097656 -3.675781 37.203125 -5.0625 37.265625 -7.40625 C 37.335938 -9.75 37.375 -17.078125 37.375 -29.390625 L 37.375 -59.21875 L 27.828125 -59.21875 C 21.523438 -59.21875 18.335938 -59.109375 18.265625 -58.890625 C 18.191406 -58.679688 18.15625 -51.191406 18.15625 -36.421875 C 18.15625 -24.460938 18.101562 -17.273438 18 -14.859375 C 17.894531 -12.441406 17.597656 -10.039062 17.109375 -7.65625 C 16.273438 -3.601562 14.859375 -0.0390625 12.859375 3.03125 C 10.867188 6.113281 8.398438 8.394531 5.453125 9.875 C 4.679688 10.289062 4.265625 10.5 4.203125 10.5 C 4.054688 10.5 3.984375 7.628906 3.984375 1.890625 C 4.054688 -2.234375 4.109375 -4.71875 4.140625 -5.5625 C 4.179688 -6.40625 4.304688 -6.929688 4.515625 -7.140625 C 5.359375 -8.328125 5.988281 -9.9375 6.40625 -11.96875 C 6.820312 -13.300781 7.066406 -15.628906 7.140625 -18.953125 C 7.210938 -22.273438 7.25 -30.65625 7.25 -44.09375 C 7.175781 -56.832031 7.117188 -64.335938 7.078125 -66.609375 C 7.046875 -68.890625 6.925781 -70.164062 6.71875 -70.4375 C 6.507812 -70.863281 6.195312 -71.179688 5.78125 -71.390625 Z M 21.84375 -57.734375 L 32.328125 -57.734375 L 32.328125 -54.375 L 35.796875 -54.375 L 35.796875 -45.25 L 32.328125 -45.25 L 32.328125 -40.203125 L 36.640625 -40.203125 L 36.640625 -31.1875 L 27.921875 -31.1875 L 19.109375 -31.28125 L 19.109375 -35.6875 L 19.21875 -40.109375 L 21.203125 -40.109375 L 23.3125 -40.203125 L 23.3125 -45.25 L 20.359375 -45.25 L 20.359375 -54.375 L 23.3125 -54.375 L 23.3125 -55.21875 C 23.3125 -56.132812 23.03125 -56.835938 22.46875 -57.328125 Z M 19.84375 -28.03125 C 19.914062 -28.101562 20.960938 -28.140625 22.984375 -28.140625 L 25.9375 -28.140625 L 26.03125 -26.984375 C 26.03125 -26.140625 26.03125 -25.507812 26.03125 -25.09375 L 26.140625 -24.25 L 26.34375 -24.78125 C 26.976562 -26.039062 27.960938 -26.984375 29.296875 -27.609375 C 29.921875 -27.890625 31.144531 -28.066406 32.96875 -28.140625 L 35.6875 -28.140625 L 35.796875 -15.859375 L 35.796875 -3.46875 L 19.625 -3.46875 L 19.625 -15.75 C 19.625 -23.863281 19.695312 -27.957031 19.84375 -28.03125 Z M 29.390625 -15.53125 L 29.390625 -19.3125 L 25.9375 -19.3125 L 25.9375 -11.765625 L 29.390625 -11.765625 Z M 29.390625 -15.53125 "/></g></g></g><g fill="#ffffff" fill-opacity="1"><g transform="translate(469.454281, 467.261094)"><g><path d="M 14.28125 -74.75 C 14.414062 -74.820312 15.078125 -74.820312 16.265625 -74.75 C 17.597656 -74.75 20.050781 -74.75 23.625 -74.75 C 27.257812 -74.75 29.113281 -74.710938 29.1875 -74.640625 C 29.257812 -74.640625 29.273438 -73.957031 29.234375 -72.59375 C 29.203125 -71.226562 29.148438 -70.128906 29.078125 -69.296875 C 28.796875 -67.191406 28.625 -65.859375 28.5625 -65.296875 C 28.5625 -65.222656 28.5625 -65.082031 28.5625 -64.875 L 28.5625 -64.78125 C 28.5625 -64.707031 28.734375 -64.753906 29.078125 -64.921875 C 29.429688 -65.097656 29.867188 -65.328125 30.390625 -65.609375 C 30.921875 -65.890625 31.359375 -66.101562 31.703125 -66.25 C 34.921875 -68.207031 37.054688 -70.832031 38.109375 -74.125 L 38.3125 -74.859375 L 45.03125 -74.859375 C 49.507812 -74.785156 51.75 -74.75 51.75 -74.75 C 51.96875 -74.601562 51.796875 -73.691406 51.234375 -72.015625 C 51.234375 -71.734375 51.300781 -71.59375 51.4375 -71.59375 C 51.582031 -71.53125 55.921875 -71.5 64.453125 -71.5 L 77.265625 -71.5 L 77.265625 -71.171875 C 77.265625 -70.335938 77.09375 -68.800781 76.75 -66.5625 C 76.257812 -64.039062 75.695312 -62.007812 75.0625 -60.46875 C 74.851562 -59.90625 74.710938 -59.59375 74.640625 -59.53125 L 76.109375 -59.3125 C 76.804688 -59.3125 78.382812 -59.3125 80.84375 -59.3125 C 84.96875 -59.382812 87.171875 -59.382812 87.453125 -59.3125 L 87.984375 -59.21875 L 87.984375 -46.828125 C 88.046875 -38.640625 88.046875 -34.4375 87.984375 -34.21875 L 87.984375 -34.015625 L 65.828125 -34.015625 L 65.9375 -33.171875 C 66.144531 -32.335938 66.492188 -31.007812 66.984375 -29.1875 L 67.1875 -28.34375 L 70.03125 -28.34375 C 71.707031 -28.34375 72.929688 -28.34375 73.703125 -28.34375 L 74.640625 -28.34375 L 74.75 -28.03125 C 75.101562 -26.351562 75.382812 -24.535156 75.59375 -22.578125 C 75.59375 -22.359375 75.625 -22.25 75.6875 -22.25 C 75.757812 -22.25 76.054688 -22.6875 76.578125 -23.5625 C 77.109375 -24.4375 77.476562 -25.117188 77.6875 -25.609375 C 78.945312 -28.066406 78.84375 -30.132812 77.375 -31.8125 L 77.15625 -32.125 L 89.34375 -32.125 L 89.34375 -31.5 C 89.34375 -29.257812 89.023438 -26.945312 88.390625 -24.5625 C 87.203125 -20.15625 84.929688 -16.484375 81.578125 -13.546875 C 81.503906 -13.472656 81.222656 -13.257812 80.734375 -12.90625 L 80.515625 -12.59375 L 81.46875 -11.546875 C 83.707031 -8.890625 86.332031 -6.929688 89.34375 -5.671875 L 90.390625 -5.140625 L 90.390625 8.5 L 90.1875 8.40625 C 88.15625 7.90625 86.4375 7.378906 85.03125 6.828125 C 82.375 5.703125 79.925781 4.265625 77.6875 2.515625 C 75.445312 0.765625 73.769531 -1.050781 72.65625 -2.9375 C 71.320312 -5.320312 70.335938 -7.25 69.703125 -8.71875 L 69.390625 -9.453125 L 69.296875 -3.890625 C 69.296875 -0.878906 69.273438 0.867188 69.234375 1.359375 C 69.203125 1.847656 69.082031 2.476562 68.875 3.25 C 68.382812 4.71875 67.367188 6.066406 65.828125 7.296875 C 64.285156 8.523438 62.5 9.414062 60.46875 9.96875 C 59.976562 10.113281 59.523438 10.253906 59.109375 10.390625 C 57.359375 10.878906 54.875 11.226562 51.65625 11.4375 C 50.738281 11.507812 48.789062 11.546875 45.8125 11.546875 C 42.84375 11.546875 41.21875 11.507812 40.9375 11.4375 C 40.875 11.375 40.859375 9.644531 40.890625 6.25 C 40.921875 2.851562 40.921875 1.117188 40.890625 1.046875 C 40.859375 0.972656 40.597656 1.007812 40.109375 1.15625 C 38.210938 1.644531 36.113281 2.132812 33.8125 2.625 C 29.675781 3.320312 27.398438 3.601562 26.984375 3.46875 C 26.835938 3.394531 26.765625 1.851562 26.765625 -1.15625 L 26.875 -5.78125 L 28.140625 -5.875 C 34.085938 -6.363281 39.859375 -7.765625 45.453125 -10.078125 C 48.046875 -11.054688 50.460938 -12.210938 52.703125 -13.546875 C 53.265625 -13.890625 53.789062 -14.203125 54.28125 -14.484375 C 55.113281 -14.910156 55.582031 -15.191406 55.6875 -15.328125 C 55.800781 -15.460938 55.820312 -15.773438 55.75 -16.265625 C 55.601562 -16.972656 55.476562 -17.328125 55.375 -17.328125 C 55.269531 -17.328125 54.90625 -17.148438 54.28125 -16.796875 C 49.445312 -14.066406 42.585938 -11.789062 33.703125 -9.96875 C 30.203125 -9.195312 28.171875 -8.921875 27.609375 -9.140625 C 27.535156 -9.203125 27.5 -10.738281 27.5 -13.75 C 27.5 -16.757812 27.515625 -18.300781 27.546875 -18.375 C 27.585938 -18.445312 27.957031 -18.515625 28.65625 -18.578125 C 30.195312 -18.722656 31.492188 -18.863281 32.546875 -19 C 33.453125 -19.144531 33.941406 -19.21875 34.015625 -19.21875 C 36.179688 -19.5625 38.398438 -20.046875 40.671875 -20.671875 C 42.953125 -21.304688 44.722656 -21.90625 45.984375 -22.46875 C 46.054688 -22.46875 46.507812 -22.640625 47.34375 -22.984375 C 49.03125 -23.691406 50.429688 -24.394531 51.546875 -25.09375 C 51.617188 -25.164062 51.757812 -25.253906 51.96875 -25.359375 C 52.175781 -25.460938 52.347656 -25.515625 52.484375 -25.515625 C 52.910156 -25.796875 53.125 -25.96875 53.125 -26.03125 C 53.125 -26.101562 53.125 -26.382812 53.125 -26.875 C 53.125 -27.363281 53.125 -27.625 53.125 -27.65625 C 53.125 -27.695312 52.804688 -27.578125 52.171875 -27.296875 C 49.929688 -26.109375 46.363281 -24.847656 41.46875 -23.515625 C 40 -23.023438 38.566406 -22.640625 37.171875 -22.359375 C 34.648438 -21.867188 32.09375 -21.554688 29.5 -21.421875 L 28.140625 -21.3125 L 28.140625 -31.390625 L 30.453125 -31.28125 C 33.597656 -31.21875 36.601562 -31.460938 39.46875 -32.015625 C 41.988281 -32.503906 43.878906 -32.992188 45.140625 -33.484375 C 45.773438 -33.835938 45.878906 -34.015625 45.453125 -34.015625 L 29.5 -34.015625 L 29.5 -51.015625 L 28.140625 -51.015625 L 28.140625 -54.171875 C 28.140625 -56.273438 28.140625 -57.429688 28.140625 -57.640625 C 28.140625 -57.703125 28.101562 -58.207031 28.03125 -59.15625 C 27.957031 -60.101562 27.890625 -60.644531 27.828125 -60.78125 C 27.753906 -60.925781 27.71875 -60.976562 27.71875 -60.9375 C 27.71875 -60.90625 27.71875 -60.785156 27.71875 -60.578125 C 27.507812 -59.171875 27.085938 -57.457031 26.453125 -55.4375 C 25.960938 -53.96875 25.4375 -52.492188 24.875 -51.015625 C 24.382812 -49.753906 24.140625 -49.125 24.140625 -49.125 C 24.210938 -48.988281 24.351562 -48.675781 24.5625 -48.1875 L 24.875 -47.5625 L 24.875 -18.15625 L 24.984375 11.125 L 10.1875 11.125 L 10.1875 -30.234375 L 8.71875 -29.1875 C 5.988281 -27.082031 4.410156 -26.03125 3.984375 -26.03125 C 3.984375 -26.03125 3.984375 -29.078125 3.984375 -35.171875 L 3.984375 -44.40625 L 4.9375 -45.25 C 7.664062 -47.976562 9.765625 -50.847656 11.234375 -53.859375 C 12.210938 -55.890625 13.140625 -58.441406 14.015625 -61.515625 C 14.890625 -64.597656 15.46875 -67.4375 15.75 -70.03125 C 15.957031 -71.988281 15.921875 -73.210938 15.640625 -73.703125 C 15.296875 -74.328125 14.84375 -74.640625 14.28125 -74.640625 Z M 60.78125 -60.46875 C 61.269531 -61.3125 61.515625 -61.75 61.515625 -61.78125 C 61.515625 -61.8125 58.859375 -61.828125 53.546875 -61.828125 L 45.5625 -61.828125 L 44.625 -60.890625 C 43.988281 -60.191406 43.425781 -59.597656 42.9375 -59.109375 L 42.203125 -58.375 L 43.046875 -58.375 L 43.046875 -56.6875 C 43.046875 -55.632812 43.046875 -54.757812 43.046875 -54.0625 L 43.046875 -53.015625 L 43.25 -53.75 C 43.53125 -54.726562 44.035156 -55.671875 44.765625 -56.578125 C 45.503906 -57.492188 46.332031 -58.160156 47.25 -58.578125 C 48.007812 -58.929688 49.648438 -59.144531 52.171875 -59.21875 C 52.597656 -59.21875 53.367188 -59.21875 54.484375 -59.21875 L 60.15625 -59.21875 Z M 48.078125 -49.875 C 45.140625 -49.9375 43.632812 -49.96875 43.5625 -49.96875 C 43.289062 -49.96875 43.117188 -49.9375 43.046875 -49.875 C 43.046875 -49.800781 43.046875 -48.609375 43.046875 -46.296875 L 43.046875 -43.046875 L 47.65625 -43.046875 C 50.664062 -43.046875 52.207031 -43.046875 52.28125 -43.046875 C 52.351562 -43.117188 52.351562 -43.851562 52.28125 -45.25 C 52.207031 -46.507812 52.171875 -47.628906 52.171875 -48.609375 L 52.171875 -49.875 Z M 70.03125 -49.875 C 67.15625 -49.875 65.679688 -49.890625 65.609375 -49.921875 C 65.546875 -49.953125 65.40625 -49.96875 65.1875 -49.96875 L 64.78125 -49.875 L 64.875 -46.40625 L 64.875 -43.046875 L 69.5 -42.9375 L 74.125 -42.9375 L 74.125 -43.671875 C 74.1875 -44.160156 74.1875 -45.351562 74.125 -47.25 L 74.125 -49.875 Z M 55.328125 -4.203125 C 55.328125 -4.691406 55.289062 -4.9375 55.21875 -4.9375 C 55.144531 -4.9375 54.898438 -4.757812 54.484375 -4.40625 C 53.578125 -3.707031 52.390625 -3.078125 50.921875 -2.515625 C 47.210938 -1.046875 44.238281 -0.03125 42 0.53125 C 41.570312 0.664062 41.394531 0.769531 41.46875 0.84375 C 41.675781 0.976562 42.757812 1.046875 44.71875 1.046875 C 46.675781 1.046875 48.707031 0.835938 50.8125 0.421875 C 52.425781 0.140625 53.613281 -0.382812 54.375 -1.15625 C 55.007812 -1.78125 55.328125 -2.796875 55.328125 -4.203125 Z M 55.328125 -4.203125 "/></g></g></g><g clip-path="url(#8653e25e0f)"><path fill="#ffbf3f" d="M 141.296875 723.964844 L 608.707031 723.964844 L 608.707031 708.679688 L 542.945312 708.679688 L 542.945312 693.886719 L 608.59375 693.886719 L 593.472656 678.765625 L 156.441406 678.765625 L 141.296875 693.886719 L 206.945312 693.886719 L 206.945312 708.679688 L 141.296875 708.679688 Z M 64.175781 0.0390625 L 646.941406 0.0390625 L 646.941406 25.164062 L 653.113281 25.164062 L 653.113281 0.0390625 L 672.675781 0.0390625 L 672.675781 25.164062 L 678.84375 25.164062 L 678.84375 0.0390625 L 698.40625 0.0390625 L 698.40625 25.164062 L 704.574219 25.164062 L 704.574219 0.0390625 L 724.160156 0.0390625 L 724.160156 25.164062 L 730.328125 25.164062 L 730.328125 0.0390625 L 749.890625 0.0390625 L 749.890625 749.929688 L 622.355469 749.929688 L 622.355469 693.628906 L 595.714844 666.988281 L 154.246094 666.988281 L 127.578125 693.628906 L 127.578125 749.929688 L 0 749.929688 L 0 66.832031 L 62.28125 66.832031 L 62.28125 0.0390625 Z M 3.691406 49.5625 L 46.953125 49.5625 L 46.953125 3.707031 Z M 48.726562 53.136719 L 50.527344 53.136719 L 50.527344 0.0390625 L 0 0.0390625 L 0 53.136719 Z M 141.296875 736.820312 L 141.296875 748.035156 L 608.707031 748.035156 L 608.707031 736.820312 Z M 158.917969 3.824219 L 158.917969 28.949219 L 746.128906 28.949219 L 746.128906 746.144531 L 626.144531 746.144531 L 626.144531 692.0625 L 597.28125 663.203125 L 152.632812 663.203125 L 123.863281 692.0625 L 123.863281 746.144531 L 3.785156 746.144531 L 3.785156 70.617188 L 66.070312 70.617188 L 66.070312 3.824219 Z M 335.71875 694.402344 L 341.746094 697.882812 L 341.746094 704.894531 L 335.71875 708.378906 L 329.6875 704.894531 L 329.6875 697.882812 Z M 519.128906 686.710938 L 531.820312 694.027344 L 531.820312 708.679688 L 519.128906 716.019531 L 506.441406 708.679688 L 506.441406 694.144531 L 519.128906 686.828125 Z M 395.5 695.757812 L 400.359375 698.5625 L 400.359375 704.171875 L 395.5 706.976562 L 390.636719 704.171875 L 390.636719 698.5625 Z M 486.246094 689.121094 L 496.859375 695.242188 L 496.859375 707.488281 L 486.246094 713.613281 L 475.660156 707.488281 L 475.660156 695.242188 Z M 458.695312 691.128906 L 467.550781 696.246094 L 467.550781 706.484375 L 458.695312 711.578125 L 449.835938 706.484375 L 449.835938 696.246094 Z M 434.949219 692.859375 L 442.289062 697.113281 L 442.289062 705.597656 L 434.949219 709.847656 L 427.679688 705.597656 L 427.679688 697.113281 L 435.042969 692.859375 Z M 414.101562 694.402344 L 420.132812 697.882812 L 420.132812 704.894531 L 414.101562 708.378906 L 408.050781 704.894531 L 408.050781 697.882812 Z M 230.667969 686.710938 L 243.355469 694.027344 L 243.355469 708.679688 L 230.667969 716.019531 L 217.976562 708.679688 L 217.976562 694.144531 L 230.667969 686.828125 Z M 374.910156 695.757812 L 379.746094 698.5625 L 379.746094 704.171875 L 374.910156 706.976562 L 370.050781 704.171875 L 370.050781 698.5625 Z M 354.296875 695.757812 L 359.160156 698.5625 L 359.160156 704.171875 L 354.296875 706.976562 L 349.4375 704.171875 L 349.4375 698.5625 Z M 263.550781 689.121094 L 274.160156 695.242188 L 274.160156 707.488281 L 263.550781 713.613281 L 252.9375 707.488281 L 252.9375 695.242188 Z M 291.125 691.128906 L 299.984375 696.246094 L 299.984375 706.484375 L 291.125 711.578125 L 282.269531 706.484375 L 282.269531 696.246094 Z M 314.871094 692.859375 L 322.210938 697.113281 L 322.210938 705.597656 L 314.871094 709.847656 L 307.507812 705.597656 L 307.507812 697.113281 Z M 314.871094 692.859375 " fill-opacity="1" fill-rule="evenodd"/></g><g clip-path="url(#4c35f80af3)"><path stroke-linecap="butt" transform="matrix(0.74996, 0, 0, 0.74996, 0.00000265, 0.0396294)" fill="none" stroke-linejoin="miter" d="M -0.00000353352 -0.000755871 L -0.00000353352 1000.00001 L 1000.000762 1000.00001 L 1000.000762 -0.000755871 L -0.00000353352 -0.000755871 " stroke="#ffbf3f" stroke-width="18.00095" stroke-opacity="1" stroke-miterlimit="4"/></g><g clip-path="url(#c875b5aa39)"><path fill="#ffbf3f" d="M 141.3125 719.816406 L 608.898438 719.816406 L 608.898438 750 L 141.3125 750 Z M 141.3125 719.816406 " fill-opacity="1" fill-rule="nonzero"/></g><g clip-path="url(#34e690c07d)"><path stroke-linecap="butt" transform="matrix(0.74996, 0, 0, 0.74996, 141.369634, 719.817873)" fill="none" stroke-linejoin="miter" d="M 0.00194622 -0.00195566 L 623.264051 -0.00195566 L 623.264051 40.234546 L 0.00194622 40.234546 Z M 0.00194622 -0.00195566 " stroke="#ffbf3f" stroke-width="18.00095" stroke-opacity="1" stroke-miterlimit="4"/></g><g clip-path="url(#9ca1f32816)"><path fill="#ffbf3f" d="M 322.546875 680.984375 L 424.722656 680.984375 L 424.722656 750 L 322.546875 750 Z M 322.546875 680.984375 " fill-opacity="1" fill-rule="nonzero"/></g><g clip-path="url(#3f905c1746)"><path stroke-linecap="butt" transform="matrix(0.74996, 0, 0, 0.74996, 322.548328, 680.983115)" fill="none" stroke-linejoin="miter" d="M -0.00193708 0.00168034 L 136.213582 0.00168034 L 136.213582 92.016951 L -0.00193708 92.016951 Z M -0.00193708 0.00168034 " stroke="#ffbf3f" stroke-width="18.00095" stroke-opacity="1" stroke-miterlimit="4"/></g><g clip-path="url(#468c737815)"><path fill="#ffbf3f" d="M 64.59375 0 L 532.183594 0 L 532.183594 28.726562 L 64.59375 28.726562 Z M 64.59375 0 " fill-opacity="1" fill-rule="nonzero"/></g><g clip-path="url(#e9bc0ae647)"><path stroke-linecap="butt" transform="matrix(0.74996, 0, 0, 0.74996, 64.632993, 0.00002)" fill="none" stroke-linejoin="miter" d="M -0.000240813 -0.0000266681 L 623.319099 -0.0000266681 L 623.319099 38.298869 L -0.000240813 38.298869 Z M -0.000240813 -0.0000266681 " stroke="#ffbf3f" stroke-width="18.00095" stroke-opacity="1" stroke-miterlimit="4"/></g><g fill="#ffffff" fill-opacity="1"><g transform="translate(330.479814, 730.216356)"><g><path d="M 12.671875 -42.234375 C 12.546875 -42.273438 12.585938 -42.316406 12.796875 -42.359375 C 13.085938 -42.398438 13.976562 -42.421875 15.46875 -42.421875 C 16.957031 -42.421875 18.929688 -42.421875 21.390625 -42.421875 L 30.8125 -42.421875 L 31.25 -41.171875 C 31.457031 -40.285156 31.832031 -38.960938 32.375 -37.203125 C 32.707031 -36.117188 32.976562 -35.195312 33.1875 -34.4375 C 33.40625 -33.6875 33.554688 -33.101562 33.640625 -32.6875 C 33.679688 -32.4375 33.992188 -31.351562 34.578125 -29.4375 C 35.160156 -27.550781 35.597656 -26.039062 35.890625 -24.90625 C 36.347656 -23.363281 36.785156 -21.859375 37.203125 -20.390625 C 37.628906 -18.929688 38.050781 -17.53125 38.46875 -16.1875 C 38.550781 -15.894531 38.65625 -15.53125 38.78125 -15.09375 C 38.90625 -14.65625 39.070312 -14.140625 39.28125 -13.546875 C 39.445312 -12.960938 39.570312 -12.492188 39.65625 -12.140625 C 39.738281 -11.785156 39.800781 -11.546875 39.84375 -11.421875 C 39.882812 -11.335938 39.9375 -11.148438 40 -10.859375 C 40.0625 -10.566406 40.175781 -10.1875 40.34375 -9.71875 C 40.675781 -8.757812 40.863281 -8.09375 40.90625 -7.71875 C 40.945312 -7.59375 41.007812 -7.363281 41.09375 -7.03125 C 41.1875 -6.695312 41.285156 -6.347656 41.390625 -5.984375 C 41.492188 -5.628906 41.597656 -5.304688 41.703125 -5.015625 C 41.804688 -4.722656 41.859375 -4.535156 41.859375 -4.453125 C 41.898438 -4.410156 42.046875 -3.929688 42.296875 -3.015625 C 42.335938 -2.847656 42.429688 -2.5 42.578125 -1.96875 C 42.722656 -1.445312 42.878906 -0.925781 43.046875 -0.40625 C 43.210938 0.113281 43.359375 0.59375 43.484375 1.03125 C 43.609375 1.46875 43.691406 1.707031 43.734375 1.75 C 43.734375 1.925781 43.796875 2.222656 43.921875 2.640625 C 44.046875 3.054688 44.148438 3.328125 44.234375 3.453125 C 44.273438 3.703125 44.316406 3.921875 44.359375 4.109375 C 44.398438 4.296875 44.441406 4.453125 44.484375 4.578125 C 44.523438 4.617188 44.460938 4.660156 44.296875 4.703125 C 44.128906 4.742188 43.550781 4.765625 42.5625 4.765625 C 41.582031 4.765625 40.28125 4.765625 38.65625 4.765625 L 32.1875 4.765625 L 31.9375 4.015625 C 31.851562 3.804688 31.769531 3.546875 31.6875 3.234375 C 31.601562 2.921875 31.519531 2.554688 31.4375 2.140625 C 31.4375 2.054688 31.394531 1.863281 31.3125 1.5625 C 31.226562 1.269531 31.125 0.894531 31 0.4375 C 30.832031 -0.0195312 30.695312 -0.445312 30.59375 -0.84375 C 30.488281 -1.238281 30.394531 -1.601562 30.3125 -1.9375 L 29.5625 -4.953125 L 15.375 -4.953125 L 15.25 -4.515625 C 14.875 -3.179688 14.53125 -1.90625 14.21875 -0.6875 C 13.90625 0.519531 13.617188 1.648438 13.359375 2.703125 L 12.796875 4.765625 L 6.40625 4.765625 C 4.726562 4.722656 3.394531 4.691406 2.40625 4.671875 C 1.425781 4.648438 0.9375 4.617188 0.9375 4.578125 C 2.15625 0.773438 3.304688 -3.035156 4.390625 -6.859375 C 5.484375 -10.691406 6.550781 -14.554688 7.59375 -18.453125 C 7.59375 -18.535156 7.675781 -18.859375 7.84375 -19.421875 C 8.007812 -19.984375 8.132812 -20.429688 8.21875 -20.765625 C 8.425781 -21.398438 8.613281 -22.03125 8.78125 -22.65625 C 8.945312 -23.28125 9.113281 -23.925781 9.28125 -24.59375 C 9.445312 -25.175781 9.625 -25.820312 9.8125 -26.53125 C 10.007812 -27.25 10.234375 -28.023438 10.484375 -28.859375 C 10.523438 -28.984375 10.585938 -29.222656 10.671875 -29.578125 C 10.753906 -29.941406 10.847656 -30.320312 10.953125 -30.71875 C 11.054688 -31.113281 11.160156 -31.488281 11.265625 -31.84375 C 11.367188 -32.195312 11.421875 -32.414062 11.421875 -32.5 C 11.503906 -32.707031 11.585938 -32.957031 11.671875 -33.25 C 11.753906 -33.550781 11.859375 -33.910156 11.984375 -34.328125 C 12.191406 -35.160156 12.316406 -35.640625 12.359375 -35.765625 C 12.441406 -35.972656 12.535156 -36.328125 12.640625 -36.828125 C 12.742188 -37.335938 12.898438 -37.96875 13.109375 -38.71875 C 13.441406 -39.71875 13.609375 -40.34375 13.609375 -40.59375 C 13.609375 -41.351562 13.296875 -41.898438 12.671875 -42.234375 Z M 23.28125 -28.734375 C 22.78125 -30.742188 22.488281 -31.75 22.40625 -31.75 C 22.320312 -31.5 22.132812 -30.703125 21.84375 -29.359375 C 21.757812 -29.023438 21.648438 -28.578125 21.515625 -28.015625 C 21.390625 -27.453125 21.222656 -26.753906 21.015625 -25.921875 C 20.929688 -25.671875 20.785156 -25.082031 20.578125 -24.15625 C 20.367188 -23.238281 20.140625 -22.273438 19.890625 -21.265625 C 19.554688 -20.097656 19.222656 -18.820312 18.890625 -17.4375 C 18.472656 -15.769531 18.265625 -14.875 18.265625 -14.75 C 18.265625 -14.664062 19.707031 -14.625 22.59375 -14.625 L 26.921875 -14.625 L 26.796875 -15.25 C 26.460938 -16.582031 26 -18.367188 25.40625 -20.609375 C 24.820312 -22.847656 24.113281 -25.554688 23.28125 -28.734375 Z M 23.28125 -28.734375 "/></g></g></g><g fill="#ffffff" fill-opacity="1"><g transform="translate(375.974671, 730.216356)"><g><path d="M 20.640625 -42.921875 C 22.648438 -42.921875 24.59375 -42.679688 26.46875 -42.203125 C 28.351562 -41.722656 30.019531 -40.96875 31.46875 -39.9375 C 32.914062 -38.914062 34.066406 -37.597656 34.921875 -35.984375 C 35.773438 -34.378906 36.203125 -32.46875 36.203125 -30.25 C 36.203125 -27.738281 35.601562 -25.632812 34.40625 -23.9375 C 33.21875 -22.238281 31.769531 -21.097656 30.0625 -20.515625 C 30.519531 -20.390625 31.050781 -20.203125 31.65625 -19.953125 C 32.257812 -19.703125 32.875 -19.378906 33.5 -18.984375 C 34.132812 -18.585938 34.734375 -18.125 35.296875 -17.59375 C 35.859375 -17.070312 36.328125 -16.5 36.703125 -15.875 C 37.546875 -14.582031 38.039062 -13.003906 38.1875 -11.140625 C 38.332031 -9.273438 38.113281 -7.398438 37.53125 -5.515625 C 36.894531 -3.597656 35.976562 -1.957031 34.78125 -0.59375 C 33.59375 0.757812 32.210938 1.851562 30.640625 2.6875 C 29.078125 3.53125 27.382812 4.148438 25.5625 4.546875 C 23.75 4.941406 21.898438 5.140625 20.015625 5.140625 C 17.878906 5.140625 15.859375 4.890625 13.953125 4.390625 C 12.054688 3.890625 10.4375 3.140625 9.09375 2.140625 C 8.21875 1.460938 7.410156 0.664062 6.671875 -0.25 C 5.941406 -1.164062 5.316406 -2.15625 4.796875 -3.21875 C 4.273438 -4.289062 3.859375 -5.378906 3.546875 -6.484375 C 3.234375 -7.597656 3.078125 -8.65625 3.078125 -9.65625 L 15.25 -9.65625 C 15.25 -8.820312 15.425781 -8.09375 15.78125 -7.46875 C 16.132812 -6.84375 16.601562 -6.304688 17.1875 -5.859375 C 17.78125 -5.421875 18.441406 -5.085938 19.171875 -4.859375 C 19.898438 -4.628906 20.617188 -4.515625 21.328125 -4.515625 C 22.878906 -4.515625 24.144531 -4.984375 25.125 -5.921875 C 26.113281 -6.867188 26.609375 -8.15625 26.609375 -9.78125 C 26.609375 -13.300781 24.242188 -15.0625 19.515625 -15.0625 L 15.25 -15.0625 L 15.25 -23.15625 L 19.515625 -23.15625 C 21.523438 -23.15625 23.0625 -23.632812 24.125 -24.59375 C 25.195312 -25.5625 25.734375 -26.941406 25.734375 -28.734375 C 25.734375 -30.078125 25.382812 -31.15625 24.6875 -31.96875 C 24 -32.78125 22.835938 -33.1875 21.203125 -33.1875 C 19.367188 -33.1875 17.988281 -32.6875 17.0625 -31.6875 C 16.144531 -30.6875 15.519531 -29.304688 15.1875 -27.546875 L 3.953125 -27.546875 C 4.078125 -28.628906 4.265625 -29.90625 4.515625 -31.375 C 4.765625 -32.84375 5.179688 -34.179688 5.765625 -35.390625 C 6.441406 -36.773438 7.332031 -37.9375 8.4375 -38.875 C 9.550781 -39.8125 10.765625 -40.582031 12.078125 -41.1875 C 13.398438 -41.800781 14.800781 -42.242188 16.28125 -42.515625 C 17.769531 -42.785156 19.222656 -42.921875 20.640625 -42.921875 Z M 20.640625 -42.921875 "/></g></g></g></svg>