<svg xmlns="http://www.w3.org/2000/svg" xmlns:xlink="http://www.w3.org/1999/xlink" width="1000" zoomAndPan="magnify" viewBox="0 0 750 749.999995" height="1000" preserveAspectRatio="xMidYMid meet" version="1.0"><defs><g/><clipPath id="949f8b42ba"><path d="M 0.898438 0.941406 L 749.058594 0.941406 L 749.058594 749.101562 L 0.898438 749.101562 Z M 0.898438 0.941406 " clip-rule="nonzero"/></clipPath><clipPath id="582f023f59"><path d="M 0 0.0390625 L 749.960938 0.0390625 L 749.960938 750 L 0 750 Z M 0 0.0390625 " clip-rule="nonzero"/></clipPath><clipPath id="ddd6afed46"><path d="M 141.3125 719.816406 L 608.859375 719.816406 L 608.859375 750 L 141.3125 750 Z M 141.3125 719.816406 " clip-rule="nonzero"/></clipPath><clipPath id="532cf08ea4"><path d="M 141.371094 719.816406 L 608.535156 719.816406 L 608.535156 749.816406 L 141.371094 749.816406 Z M 141.371094 719.816406 " clip-rule="nonzero"/></clipPath><clipPath id="0423222ba3"><path d="M 322.546875 680.984375 L 424.710938 680.984375 L 424.710938 750 L 322.546875 750 Z M 322.546875 680.984375 " clip-rule="nonzero"/></clipPath><clipPath id="4ab311031c"><path d="M 322.546875 680.984375 L 424.539062 680.984375 L 424.539062 749.980469 L 322.546875 749.980469 Z M 322.546875 680.984375 " clip-rule="nonzero"/></clipPath><clipPath id="34d79501f7"><path d="M 64.59375 0 L 532.144531 0 L 532.144531 28.726562 L 64.59375 28.726562 Z M 64.59375 0 " clip-rule="nonzero"/></clipPath><clipPath id="83dea3cf9f"><path d="M 64.632812 0 L 531.820312 0 L 531.820312 28.5 L 64.632812 28.5 Z M 64.632812 0 " clip-rule="nonzero"/></clipPath></defs><rect x="-75" width="900" fill="#ffffff" y="-74.999999" height="899.999994" fill-opacity="1"/><rect x="-75" width="900" fill="#000000" y="-74.999999" height="899.999994" fill-opacity="1"/><g clip-path="url(#949f8b42ba)"><path fill="#ffbf3f" d="M 141.296875 723.964844 L 608.707031 723.964844 L 608.707031 708.679688 L 542.945312 708.679688 L 542.945312 693.886719 L 608.59375 693.886719 L 593.472656 678.765625 L 156.441406 678.765625 L 141.296875 693.886719 L 206.945312 693.886719 L 206.945312 708.679688 L 141.296875 708.679688 Z M 64.175781 0.0390625 L 646.941406 0.0390625 L 646.941406 25.164062 L 653.113281 25.164062 L 653.113281 0.0390625 L 672.675781 0.0390625 L 672.675781 25.164062 L 678.84375 25.164062 L 678.84375 0.0390625 L 698.40625 0.0390625 L 698.40625 25.164062 L 704.574219 25.164062 L 704.574219 0.0390625 L 724.160156 0.0390625 L 724.160156 25.164062 L 730.328125 25.164062 L 730.328125 0.0390625 L 749.890625 0.0390625 L 749.890625 749.929688 L 622.355469 749.929688 L 622.355469 693.628906 L 595.714844 666.988281 L 154.246094 666.988281 L 127.578125 693.628906 L 127.578125 749.929688 L 0 749.929688 L 0 66.832031 L 62.28125 66.832031 L 62.28125 0.0390625 Z M 3.691406 49.5625 L 46.953125 49.5625 L 46.953125 3.707031 Z M 48.726562 53.136719 L 50.527344 53.136719 L 50.527344 0.0390625 L 0 0.0390625 L 0 53.136719 Z M 141.296875 736.820312 L 141.296875 748.035156 L 608.707031 748.035156 L 608.707031 736.820312 Z M 158.917969 3.824219 L 158.917969 28.949219 L 746.128906 28.949219 L 746.128906 746.144531 L 626.144531 746.144531 L 626.144531 692.0625 L 597.28125 663.203125 L 152.632812 663.203125 L 123.863281 692.0625 L 123.863281 746.144531 L 3.785156 746.144531 L 3.785156 70.617188 L 66.070312 70.617188 L 66.070312 3.824219 Z M 335.71875 694.402344 L 341.746094 697.882812 L 341.746094 704.894531 L 335.71875 708.378906 L 329.6875 704.894531 L 329.6875 697.882812 Z M 519.128906 686.710938 L 531.820312 694.027344 L 531.820312 708.679688 L 519.128906 716.019531 L 506.441406 708.679688 L 506.441406 694.144531 L 519.128906 686.828125 Z M 395.5 695.757812 L 400.359375 698.5625 L 400.359375 704.171875 L 395.5 706.976562 L 390.636719 704.171875 L 390.636719 698.5625 Z M 486.246094 689.121094 L 496.859375 695.242188 L 496.859375 707.488281 L 486.246094 713.613281 L 475.660156 707.488281 L 475.660156 695.242188 Z M 458.695312 691.128906 L 467.550781 696.246094 L 467.550781 706.484375 L 458.695312 711.578125 L 449.835938 706.484375 L 449.835938 696.246094 Z M 434.949219 692.859375 L 442.289062 697.113281 L 442.289062 705.597656 L 434.949219 709.847656 L 427.679688 705.597656 L 427.679688 697.113281 L 435.042969 692.859375 Z M 414.101562 694.402344 L 420.132812 697.882812 L 420.132812 704.894531 L 414.101562 708.378906 L 408.050781 704.894531 L 408.050781 697.882812 Z M 230.667969 686.710938 L 243.355469 694.027344 L 243.355469 708.679688 L 230.667969 716.019531 L 217.976562 708.679688 L 217.976562 694.144531 L 230.667969 686.828125 Z M 374.910156 695.757812 L 379.746094 698.5625 L 379.746094 704.171875 L 374.910156 706.976562 L 370.050781 704.171875 L 370.050781 698.5625 Z M 354.296875 695.757812 L 359.160156 698.5625 L 359.160156 704.171875 L 354.296875 706.976562 L 349.4375 704.171875 L 349.4375 698.5625 Z M 263.550781 689.121094 L 274.160156 695.242188 L 274.160156 707.488281 L 263.550781 713.613281 L 252.9375 707.488281 L 252.9375 695.242188 Z M 291.125 691.128906 L 299.984375 696.246094 L 299.984375 706.484375 L 291.125 711.578125 L 282.269531 706.484375 L 282.269531 696.246094 Z M 314.871094 692.859375 L 322.210938 697.113281 L 322.210938 705.597656 L 314.871094 709.847656 L 307.507812 705.597656 L 307.507812 697.113281 Z M 314.871094 692.859375 " fill-opacity="1" fill-rule="evenodd"/></g><g clip-path="url(#582f023f59)"><path stroke-linecap="butt" transform="matrix(0.74996, 0, 0, 0.74996, 0.00000265, 0.0396294)" fill="none" stroke-linejoin="miter" d="M -0.00000353352 -0.000755871 L -0.00000353352 1000.00001 L 1000.000762 1000.00001 L 1000.000762 -0.000755871 L -0.00000353352 -0.000755871 " stroke="#ffbf3f" stroke-width="18.00095" stroke-opacity="1" stroke-miterlimit="4"/></g><g fill="#ffffff" fill-opacity="1"><g transform="translate(185.997994, 284.978964)"><g><path d="M 37.265625 -73.703125 C 36.984375 -73.765625 37.054688 -73.796875 37.484375 -73.796875 C 38.035156 -73.867188 40.832031 -73.90625 45.875 -73.90625 L 55.015625 -73.90625 L 55.015625 -70.859375 C 55.015625 -68.691406 54.941406 -65.929688 54.796875 -62.578125 C 54.585938 -57.328125 54.625 -53.960938 54.90625 -52.484375 C 56.375 -45.066406 59.453125 -37.472656 64.140625 -29.703125 C 67.785156 -23.898438 71.320312 -19.332031 74.75 -16 C 78.175781 -12.675781 82.410156 -9.6875 87.453125 -7.03125 L 89.65625 -5.78125 L 89.65625 2.3125 C 89.65625 4.195312 89.65625 5.628906 89.65625 6.609375 C 89.65625 7.585938 89.632812 8.390625 89.59375 9.015625 C 89.5625 9.648438 89.53125 10.035156 89.5 10.171875 C 89.46875 10.316406 89.453125 10.390625 89.453125 10.390625 C 89.378906 10.316406 88.921875 10.144531 88.078125 9.875 C 82.828125 8.539062 77.789062 6.300781 72.96875 3.15625 C 68.28125 0.144531 63.75 -3.859375 59.375 -8.859375 C 55 -13.867188 51.410156 -19.140625 48.609375 -24.671875 L 47.453125 -27.09375 L 46.40625 -25.09375 C 43.957031 -20.050781 40.6875 -15.1875 36.59375 -10.5 C 32.5 -5.8125 28 -1.71875 23.09375 1.78125 C 20.644531 3.601562 17.773438 5.316406 14.484375 6.921875 C 12.941406 7.691406 11.066406 8.515625 8.859375 9.390625 C 6.660156 10.265625 5.421875 10.703125 5.140625 10.703125 C 4.929688 10.703125 4.828125 7.941406 4.828125 2.421875 L 4.9375 -5.875 L 7.34375 -7.453125 C 13.507812 -11.085938 18.601562 -14.988281 22.625 -19.15625 C 26.644531 -23.320312 29.953125 -28.03125 32.546875 -33.28125 C 34.296875 -36.914062 35.660156 -40.660156 36.640625 -44.515625 C 38.179688 -50.671875 38.984375 -57.5625 39.046875 -65.1875 C 39.046875 -68.90625 39.015625 -70.972656 38.953125 -71.390625 C 38.742188 -72.296875 38.179688 -73.066406 37.265625 -73.703125 Z M 37.265625 -73.703125 "/></g></g></g><g fill="#ffffff" fill-opacity="1"><g transform="translate(280.482448, 284.978964)"><g><path d="M 71.28125 -74.859375 C 71.632812 -74.859375 74.207031 -74.859375 79 -74.859375 C 83.789062 -74.859375 86.257812 -74.859375 86.40625 -74.859375 C 86.75 -74.710938 86.75 -73.519531 86.40625 -71.28125 C 85.707031 -67.082031 84.203125 -63.476562 81.890625 -60.46875 C 80.484375 -58.507812 78.644531 -56.632812 76.375 -54.84375 C 74.101562 -53.0625 71.773438 -51.648438 69.390625 -50.609375 C 67.503906 -49.765625 65.160156 -48.957031 62.359375 -48.1875 C 59.554688 -47.414062 57.632812 -47.03125 56.59375 -47.03125 L 55.953125 -47.03125 L 55.953125 -53.4375 C 55.953125 -57.78125 56.023438 -59.984375 56.171875 -60.046875 C 62.179688 -61.796875 66.585938 -64.109375 69.390625 -66.984375 C 70.160156 -67.816406 70.910156 -68.757812 71.640625 -69.8125 C 72.378906 -70.863281 72.75 -71.597656 72.75 -72.015625 C 72.6875 -72.367188 72.515625 -72.789062 72.234375 -73.28125 C 71.953125 -73.769531 71.671875 -74.117188 71.390625 -74.328125 C 71.035156 -74.535156 70.929688 -74.675781 71.078125 -74.75 C 71.078125 -74.75 71.144531 -74.785156 71.28125 -74.859375 Z M 5.5625 -64.359375 L 5.5625 -71.078125 L 53.4375 -71.078125 L 53.4375 -57.53125 L 47.65625 -57.53125 L 47.65625 -37.0625 L 53.4375 -37.0625 L 53.4375 -23.515625 L 51.234375 -23.515625 C 49.617188 -23.515625 48.601562 -23.476562 48.1875 -23.40625 L 47.65625 -23.40625 L 47.65625 9.96875 L 32.859375 9.96875 L 32.859375 -23.40625 L 30.453125 -23.40625 C 28.765625 -23.476562 27.644531 -23.476562 27.09375 -23.40625 L 26.25 -23.40625 L 26.03125 -21.84375 C 25.539062 -14.976562 23.722656 -8.832031 20.578125 -3.40625 C 17.429688 2.007812 13.234375 6.296875 7.984375 9.453125 C 6.023438 10.640625 4.9375 11.234375 4.71875 11.234375 C 4.65625 11.234375 4.625 8.296875 4.625 2.421875 L 4.625 -6.515625 L 5.140625 -6.921875 C 6.328125 -7.691406 7.445312 -8.78125 8.5 -10.1875 C 10.738281 -13.195312 12.070312 -17.113281 12.5 -21.9375 L 12.59375 -23.40625 L 9.34375 -23.40625 C 7.238281 -23.40625 6.082031 -23.441406 5.875 -23.515625 C 5.738281 -23.515625 5.632812 -25.789062 5.5625 -30.34375 L 5.5625 -37.0625 L 12.5 -37.0625 L 12.5 -57.421875 L 9.03125 -57.53125 L 5.671875 -57.640625 Z M 32.859375 -47.34375 L 32.859375 -57.53125 L 26.140625 -57.53125 L 26.140625 -37.0625 L 32.859375 -37.0625 Z M 73.484375 -49.546875 L 88.8125 -49.546875 L 88.609375 -48.390625 C 88.460938 -46.859375 88.054688 -45.023438 87.390625 -42.890625 C 86.734375 -40.753906 85.984375 -38.984375 85.140625 -37.578125 C 84.085938 -35.691406 82.597656 -33.75 80.671875 -31.75 C 78.753906 -29.757812 76.78125 -28.132812 74.75 -26.875 C 70.832031 -24.425781 66.210938 -22.503906 60.890625 -21.109375 C 58.296875 -20.398438 56.6875 -20.046875 56.0625 -20.046875 C 55.988281 -20.046875 55.953125 -22.320312 55.953125 -26.875 L 55.953125 -33.703125 L 57 -34.015625 C 60.289062 -34.921875 62.96875 -35.953125 65.03125 -37.109375 C 67.101562 -38.265625 69.046875 -39.785156 70.859375 -41.671875 C 72.328125 -43.148438 73.414062 -44.625 74.125 -46.09375 C 74.75 -47.351562 74.75 -48.332031 74.125 -49.03125 Z M 73.28125 -23.828125 L 89.765625 -23.828125 L 89.65625 -21.84375 C 89.375 -17.988281 88.359375 -14.273438 86.609375 -10.703125 C 85.984375 -9.441406 85.109375 -8.078125 83.984375 -6.609375 C 83.359375 -5.773438 82.289062 -4.601562 80.78125 -3.09375 C 79.28125 -1.59375 78.039062 -0.492188 77.0625 0.203125 C 74.050781 2.441406 70.34375 4.40625 65.9375 6.09375 C 62.363281 7.488281 58.96875 8.46875 55.75 9.03125 L 54.375 9.234375 L 54.375 2.421875 C 54.3125 -2.128906 54.3125 -4.476562 54.375 -4.625 C 54.445312 -4.757812 54.832031 -4.898438 55.53125 -5.046875 C 58.894531 -6.085938 61.488281 -7.03125 63.3125 -7.875 C 66.382812 -9.476562 69.003906 -11.539062 71.171875 -14.0625 C 73.140625 -16.375 74.4375 -18.753906 75.0625 -21.203125 C 75.0625 -21.554688 74.972656 -21.957031 74.796875 -22.40625 C 74.617188 -22.863281 74.359375 -23.195312 74.015625 -23.40625 Z M 73.28125 -23.828125 "/></g></g></g><g fill="#ffffff" fill-opacity="1"><g transform="translate(374.966903, 284.978964)"><g><path d="M 41.265625 -65.609375 L 41.265625 -73.171875 L 49.125 -73.171875 L 57.109375 -73.0625 L 57.21875 -65.609375 L 57.21875 -58.0625 L 86.921875 -58.0625 L 86.921875 -44.40625 L 57.21875 -44.40625 L 57.21875 -42.9375 C 57.21875 -42.65625 57.21875 -42.21875 57.21875 -41.625 C 57.21875 -41.03125 57.21875 -40.296875 57.21875 -39.421875 C 57.21875 -38.546875 57.21875 -37.796875 57.21875 -37.171875 C 57.144531 -34.367188 57.144531 -32.6875 57.21875 -32.125 L 57.328125 -31.5 L 71.078125 -31.5 L 84.828125 -31.390625 L 84.9375 -24.5625 L 84.9375 -17.84375 L 57.109375 -17.84375 L 57.109375 -3.671875 L 73.484375 -3.671875 L 89.765625 -3.5625 L 89.859375 2.9375 C 89.859375 7.28125 89.828125 9.554688 89.765625 9.765625 L 89.65625 10.1875 L 5.046875 10.1875 L 5.046875 -3.671875 L 41.265625 -3.671875 L 41.265625 -17.84375 L 10.5 -17.84375 L 10.5 -31.5 L 41.265625 -31.5 L 41.265625 -44.40625 L 23.515625 -44.40625 L 22.359375 -42.9375 C 19.421875 -39.300781 15.710938 -36.1875 11.234375 -33.59375 C 10.328125 -33.101562 9.222656 -32.5625 7.921875 -31.96875 C 6.628906 -31.375 5.914062 -31.113281 5.78125 -31.1875 C 5.78125 -31.1875 5.757812 -33.828125 5.71875 -39.109375 C 5.6875 -44.390625 5.707031 -47.066406 5.78125 -47.140625 C 8.363281 -48.742188 10.425781 -50.664062 11.96875 -52.90625 C 13.15625 -54.65625 14.148438 -56.664062 14.953125 -58.9375 C 15.765625 -61.21875 16.238281 -63.441406 16.375 -65.609375 C 16.445312 -66.734375 16.34375 -67.503906 16.0625 -67.921875 C 15.78125 -68.410156 15.429688 -68.757812 15.015625 -68.96875 L 14.28125 -69.5 L 22.78125 -69.5 C 28.382812 -69.5 31.1875 -69.429688 31.1875 -69.296875 C 31.1875 -68.304688 31.023438 -66.601562 30.703125 -64.1875 C 30.390625 -61.78125 30.09375 -60.085938 29.8125 -59.109375 L 29.609375 -58.0625 L 41.265625 -58.0625 Z M 41.265625 -65.609375 "/></g></g></g><g fill="#ffffff" fill-opacity="1"><g transform="translate(469.451358, 284.978964)"><g><path d="M 18.890625 -73.796875 C 18.679688 -73.867188 18.753906 -73.941406 19.109375 -74.015625 C 19.597656 -74.085938 21.765625 -74.125 25.609375 -74.125 L 32.859375 -74.125 L 32.859375 -61.3125 L 36.53125 -61.3125 L 36.53125 -48.078125 L 32.859375 -48.078125 L 32.859375 -25.203125 L 34.859375 -25.296875 C 36.253906 -25.367188 36.988281 -25.441406 37.0625 -25.515625 C 37.132812 -25.515625 37.1875 -25.425781 37.21875 -25.25 C 37.25 -25.070312 37.265625 -24.703125 37.265625 -24.140625 C 37.265625 -23.585938 37.28125 -22.875 37.3125 -22 C 37.351562 -21.125 37.375 -19.984375 37.375 -18.578125 L 37.375 -11.859375 L 35.171875 -11.65625 L 32.96875 -11.4375 L 32.859375 0 L 32.859375 11.546875 L 18.796875 11.546875 L 18.796875 0.53125 C 18.796875 -6.75 18.757812 -10.390625 18.6875 -10.390625 C 18.613281 -10.390625 17.003906 -10.285156 13.859375 -10.078125 C 9.867188 -9.722656 7.835938 -9.546875 7.765625 -9.546875 C 6.785156 -9.484375 6.191406 -9.414062 5.984375 -9.34375 L 5.5625 -9.34375 L 5.5625 -22.78125 L 6.40625 -22.890625 C 7.519531 -23.023438 10.738281 -23.300781 16.0625 -23.71875 L 18.796875 -24.046875 L 18.796875 -48.078125 L 16.6875 -48.078125 L 16.484375 -46.921875 C 15.992188 -44.410156 15.1875 -41.894531 14.0625 -39.375 C 12.03125 -34.75 9.441406 -31.457031 6.296875 -29.5 C 5.671875 -29.144531 5.253906 -28.96875 5.046875 -28.96875 C 4.898438 -28.96875 4.828125 -31.804688 4.828125 -37.484375 L 4.828125 -45.984375 L 5.359375 -47.34375 C 6.128906 -49.375 6.722656 -51.753906 7.140625 -54.484375 C 7.703125 -58.265625 7.875 -61.832031 7.65625 -65.1875 C 7.59375 -66.519531 7.421875 -67.519531 7.140625 -68.1875 C 6.859375 -68.851562 6.367188 -69.394531 5.671875 -69.8125 C 5.390625 -70.019531 5.472656 -70.140625 5.921875 -70.171875 C 6.378906 -70.210938 8.1875 -70.234375 11.34375 -70.234375 L 17.640625 -70.234375 L 17.75 -69.390625 C 17.882812 -68.617188 17.988281 -67.113281 18.0625 -64.875 L 18.15625 -61.3125 L 19.734375 -61.3125 L 19.734375 -66.875 C 19.734375 -70.582031 19.664062 -72.613281 19.53125 -72.96875 C 19.457031 -73.3125 19.242188 -73.585938 18.890625 -73.796875 Z M 42.515625 -73.796875 C 42.304688 -73.941406 42.378906 -74.015625 42.734375 -74.015625 C 43.222656 -74.085938 45.425781 -74.125 49.34375 -74.125 C 54.238281 -74.125 56.789062 -74.050781 57 -73.90625 C 57.21875 -73.832031 57.328125 -72.957031 57.328125 -71.28125 C 57.253906 -69.039062 57.113281 -67.363281 56.90625 -66.25 L 56.796875 -65.609375 L 89.65625 -65.609375 L 89.65625 -32.546875 C 89.582031 -10.566406 89.476562 0.804688 89.34375 1.578125 C 88.15625 5.210938 85.914062 7.625 82.625 8.8125 C 81.71875 9.164062 79.96875 9.445312 77.375 9.65625 C 67.570312 10.289062 62.53125 10.535156 62.25 10.390625 C 62.1875 10.316406 62.15625 7.097656 62.15625 0.734375 L 62.15625 -3.46875 L 64.25 -3.46875 C 68.164062 -3.75 70.578125 -3.957031 71.484375 -4.09375 C 72.398438 -4.226562 73.066406 -4.472656 73.484375 -4.828125 C 73.554688 -4.898438 73.660156 -5.003906 73.796875 -5.140625 C 74.359375 -5.566406 74.691406 -6.597656 74.796875 -8.234375 C 74.898438 -9.878906 74.953125 -15.320312 74.953125 -24.5625 C 74.953125 -26.59375 74.953125 -28.203125 74.953125 -29.390625 C 74.890625 -44.234375 74.820312 -49.867188 74.75 -46.296875 C 74.539062 -38.316406 73.613281 -31.507812 71.96875 -25.875 C 70.320312 -20.238281 67.644531 -14.832031 63.9375 -9.65625 C 61.207031 -5.664062 58.054688 -2.304688 54.484375 0.421875 C 52.453125 2.171875 49.894531 3.867188 46.8125 5.515625 C 43.738281 7.160156 41.148438 8.332031 39.046875 9.03125 L 38.53125 9.140625 L 38.53125 -5.359375 L 41.046875 -6.609375 C 44.691406 -8.429688 47.910156 -10.742188 50.703125 -13.546875 C 53.859375 -16.835938 56.554688 -20.648438 58.796875 -24.984375 C 60.609375 -28.554688 61.953125 -32.25 62.828125 -36.0625 C 63.703125 -39.875 64.28125 -44.441406 64.5625 -49.765625 L 64.671875 -52.171875 L 63.515625 -52.171875 C 62.890625 -52.171875 62.503906 -52.082031 62.359375 -51.90625 C 62.222656 -51.738281 62.15625 -51.195312 62.15625 -50.28125 C 62.15625 -49.65625 62.082031 -48.535156 61.9375 -46.921875 C 61.101562 -39.429688 59.285156 -33.203125 56.484375 -28.234375 C 53.679688 -23.265625 49.691406 -19.066406 44.515625 -15.640625 C 43.742188 -15.078125 42.65625 -14.410156 41.25 -13.640625 C 39.851562 -12.878906 39.085938 -12.5 38.953125 -12.5 C 38.804688 -12.5 38.734375 -14.769531 38.734375 -19.3125 L 38.734375 -26.03125 L 39.265625 -26.25 C 40.378906 -26.945312 41.722656 -28.066406 43.296875 -29.609375 C 44.878906 -31.148438 46.085938 -32.515625 46.921875 -33.703125 C 48.953125 -36.847656 50.457031 -40.554688 51.4375 -44.828125 C 52.132812 -47.972656 52.484375 -50.109375 52.484375 -51.234375 L 51.65625 -49.875 C 48.644531 -44.34375 44.722656 -40.140625 39.890625 -37.265625 C 38.910156 -36.640625 38.351562 -36.328125 38.21875 -36.328125 C 38.070312 -36.328125 38 -38.984375 38 -44.296875 L 38 -52.484375 L 38.640625 -53.125 C 40.171875 -54.59375 41.5 -56.867188 42.625 -59.953125 C 43.46875 -62.328125 44.097656 -65.441406 44.515625 -69.296875 C 44.648438 -70.617188 44.578125 -71.523438 44.296875 -72.015625 C 43.953125 -72.785156 43.359375 -73.378906 42.515625 -73.796875 Z M 42.515625 -73.796875 "/></g></g></g><g fill="#ffffff" fill-opacity="1"><g transform="translate(339.587536, 406.472543)"><g><path d="M 24.875 -53.125 L 24.140625 -53.546875 L 34.75 -53.546875 C 41.820312 -53.546875 45.359375 -53.472656 45.359375 -53.328125 L 45.359375 -43.671875 C 45.359375 -37.367188 45.390625 -34.113281 45.453125 -33.90625 C 45.597656 -33.695312 48.785156 -33.59375 55.015625 -33.59375 L 64.453125 -33.59375 L 64.453125 -18.15625 L 45.359375 -18.15625 L 45.359375 4.40625 L 26.34375 4.40625 L 26.34375 -18.15625 L 6.296875 -18.15625 L 6.296875 -33.59375 L 16.265625 -33.59375 L 26.34375 -33.703125 L 26.34375 -42.515625 C 26.414062 -44.679688 26.429688 -46.410156 26.390625 -47.703125 C 26.359375 -49.003906 26.34375 -49.863281 26.34375 -50.28125 C 26.207031 -51.257812 26.070312 -51.859375 25.9375 -52.078125 C 25.71875 -52.492188 25.363281 -52.84375 24.875 -53.125 Z M 24.875 -53.125 "/></g></g></g><g fill="#ffffff" fill-opacity="1"><g transform="translate(138.703618, 527.966122)"><g><path d="M 24.140625 -74.75 C 24.140625 -74.75 24.695312 -74.765625 25.8125 -74.796875 C 26.9375 -74.835938 28.300781 -74.859375 29.90625 -74.859375 C 31.519531 -74.859375 33.132812 -74.835938 34.75 -74.796875 C 36.363281 -74.765625 37.742188 -74.75 38.890625 -74.75 C 40.046875 -74.75 40.695312 -74.75 40.84375 -74.75 L 41.046875 -74.640625 L 41.046875 -49.96875 C 41.046875 -33.382812 41.082031 -25.070312 41.15625 -25.03125 C 41.226562 -25 42.066406 -24.984375 43.671875 -24.984375 C 45.140625 -24.984375 46.085938 -24.984375 46.515625 -24.984375 L 47.03125 -24.984375 L 47.03125 -18.890625 C 47.03125 -14.898438 46.992188 -12.835938 46.921875 -12.703125 L 46.921875 -12.28125 L 40.421875 -12.28125 L 40.3125 -12.171875 C 40.03125 -11.335938 39.472656 -10.253906 38.640625 -8.921875 C 37.660156 -7.242188 36.539062 -5.632812 35.28125 -4.09375 C 35 -3.738281 34.332031 -3.019531 33.28125 -1.9375 C 32.226562 -0.851562 31.5625 -0.207031 31.28125 0 C 31 0.207031 30.6875 0.453125 30.34375 0.734375 C 28.519531 2.203125 26.734375 3.390625 24.984375 4.296875 C 23.234375 5.210938 20.679688 6.332031 17.328125 7.65625 C 14.867188 8.570312 11.472656 9.660156 7.140625 10.921875 C 6.722656 11.054688 6.195312 11.195312 5.5625 11.34375 C 5 11.550781 4.679688 11.632812 4.609375 11.59375 C 4.546875 11.5625 4.515625 9.097656 4.515625 4.203125 L 4.515625 -3.15625 L 4.71875 -3.25 C 4.863281 -3.320312 5.390625 -3.5 6.296875 -3.78125 C 9.171875 -4.6875 12.078125 -5.703125 15.015625 -6.828125 C 16.484375 -7.453125 17.914062 -8.222656 19.3125 -9.140625 C 19.800781 -9.347656 20.328125 -9.710938 20.890625 -10.234375 C 21.453125 -10.753906 21.734375 -11.050781 21.734375 -11.125 C 21.734375 -11.195312 19.003906 -11.234375 13.546875 -11.234375 C 8.015625 -11.160156 5.109375 -11.160156 4.828125 -11.234375 L 4.515625 -11.234375 L 4.515625 -24.359375 L 15.4375 -24.46875 L 26.140625 -24.46875 L 26.25 -26.5625 C 26.25 -27.75 26.25 -35.796875 26.25 -50.703125 L 26.25 -72.65625 L 25.9375 -73.171875 C 25.582031 -74.015625 25.125 -74.503906 24.5625 -74.640625 C 24.351562 -74.640625 24.210938 -74.675781 24.140625 -74.75 Z M 53.546875 -74.75 C 61.523438 -74.820312 65.722656 -74.820312 66.140625 -74.75 L 66.453125 -74.75 L 66.453125 -70.234375 C 66.453125 -67.222656 66.453125 -65.71875 66.453125 -65.71875 C 66.523438 -65.644531 70.304688 -65.609375 77.796875 -65.609375 L 89.03125 -65.609375 L 89.03125 -62.25 C 89.03125 -61.550781 89.03125 -60.429688 89.03125 -58.890625 C 89.03125 -57.359375 89.03125 -56.3125 89.03125 -55.75 C 89.09375 -53.851562 89.09375 -52.765625 89.03125 -52.484375 L 89.03125 -52.171875 L 77.796875 -52.171875 C 70.234375 -52.171875 66.453125 -52.140625 66.453125 -52.078125 C 66.453125 -52.003906 66.453125 -50.707031 66.453125 -48.1875 L 66.453125 -44.296875 L 77.15625 -44.296875 C 84.300781 -44.296875 87.875 -44.265625 87.875 -44.203125 C 87.945312 -44.203125 87.984375 -40.738281 87.984375 -33.8125 L 87.984375 -30.34375 L 77.15625 -30.34375 C 70.019531 -30.34375 66.453125 -30.34375 66.453125 -30.34375 C 66.453125 -29.851562 66.453125 -28.15625 66.453125 -25.25 C 66.453125 -22.34375 66.46875 -20.890625 66.5 -20.890625 C 66.539062 -20.890625 70.476562 -20.890625 78.3125 -20.890625 L 90.078125 -20.890625 L 90.078125 -7.140625 L 84.203125 -7.140625 C 79.578125 -7.140625 75.617188 -7.140625 72.328125 -7.140625 L 66.453125 -7.140625 L 66.453125 1.890625 C 66.453125 7.835938 66.429688 10.84375 66.390625 10.90625 C 66.359375 10.976562 63.789062 11.015625 58.6875 11.015625 L 51.125 11.015625 L 51.015625 -31.1875 C 50.953125 -59.25 50.882812 -73.382812 50.8125 -73.59375 C 50.601562 -74.007812 50.289062 -74.359375 49.875 -74.640625 C 49.800781 -74.640625 49.867188 -74.640625 50.078125 -74.640625 Z M 14.484375 -65.609375 C 20.503906 -65.609375 23.617188 -65.578125 23.828125 -65.515625 L 24.046875 -65.515625 L 24.046875 -58.796875 L 23.9375 -52.078125 L 15.015625 -52.078125 C 8.992188 -52.078125 5.878906 -52.078125 5.671875 -52.078125 L 5.25 -52.171875 L 5.25 -65.515625 Z M 5.984375 -37.796875 C 5.984375 -42.273438 6 -44.53125 6.03125 -44.5625 C 6.070312 -44.601562 9.101562 -44.625 15.125 -44.625 L 23.9375 -44.625 L 23.9375 -31.1875 L 5.984375 -31.1875 Z M 5.984375 -37.796875 "/></g></g></g><g fill="#ffffff" fill-opacity="1"><g transform="translate(233.293056, 527.966122)"><g><path d="M 37.265625 -73.703125 C 36.984375 -73.765625 37.054688 -73.796875 37.484375 -73.796875 C 38.035156 -73.867188 40.832031 -73.90625 45.875 -73.90625 L 55.015625 -73.90625 L 55.015625 -70.859375 C 55.015625 -68.691406 54.941406 -65.929688 54.796875 -62.578125 C 54.585938 -57.328125 54.625 -53.960938 54.90625 -52.484375 C 56.375 -45.066406 59.453125 -37.472656 64.140625 -29.703125 C 67.785156 -23.898438 71.320312 -19.332031 74.75 -16 C 78.175781 -12.675781 82.410156 -9.6875 87.453125 -7.03125 L 89.65625 -5.78125 L 89.65625 2.3125 C 89.65625 4.195312 89.65625 5.628906 89.65625 6.609375 C 89.65625 7.585938 89.632812 8.390625 89.59375 9.015625 C 89.5625 9.648438 89.53125 10.035156 89.5 10.171875 C 89.46875 10.316406 89.453125 10.390625 89.453125 10.390625 C 89.378906 10.316406 88.921875 10.144531 88.078125 9.875 C 82.828125 8.539062 77.789062 6.300781 72.96875 3.15625 C 68.28125 0.144531 63.75 -3.859375 59.375 -8.859375 C 55 -13.867188 51.410156 -19.140625 48.609375 -24.671875 L 47.453125 -27.09375 L 46.40625 -25.09375 C 43.957031 -20.050781 40.6875 -15.1875 36.59375 -10.5 C 32.5 -5.8125 28 -1.71875 23.09375 1.78125 C 20.644531 3.601562 17.773438 5.316406 14.484375 6.921875 C 12.941406 7.691406 11.066406 8.515625 8.859375 9.390625 C 6.660156 10.265625 5.421875 10.703125 5.140625 10.703125 C 4.929688 10.703125 4.828125 7.941406 4.828125 2.421875 L 4.9375 -5.875 L 7.34375 -7.453125 C 13.507812 -11.085938 18.601562 -14.988281 22.625 -19.15625 C 26.644531 -23.320312 29.953125 -28.03125 32.546875 -33.28125 C 34.296875 -36.914062 35.660156 -40.660156 36.640625 -44.515625 C 38.179688 -50.671875 38.984375 -57.5625 39.046875 -65.1875 C 39.046875 -68.90625 39.015625 -70.972656 38.953125 -71.390625 C 38.742188 -72.296875 38.179688 -73.066406 37.265625 -73.703125 Z M 37.265625 -73.703125 "/></g></g></g><g fill="#ffffff" fill-opacity="1"><g transform="translate(327.777511, 527.966122)"><g><path d="M 71.28125 -74.859375 C 71.632812 -74.859375 74.207031 -74.859375 79 -74.859375 C 83.789062 -74.859375 86.257812 -74.859375 86.40625 -74.859375 C 86.75 -74.710938 86.75 -73.519531 86.40625 -71.28125 C 85.707031 -67.082031 84.203125 -63.476562 81.890625 -60.46875 C 80.484375 -58.507812 78.644531 -56.632812 76.375 -54.84375 C 74.101562 -53.0625 71.773438 -51.648438 69.390625 -50.609375 C 67.503906 -49.765625 65.160156 -48.957031 62.359375 -48.1875 C 59.554688 -47.414062 57.632812 -47.03125 56.59375 -47.03125 L 55.953125 -47.03125 L 55.953125 -53.4375 C 55.953125 -57.78125 56.023438 -59.984375 56.171875 -60.046875 C 62.179688 -61.796875 66.585938 -64.109375 69.390625 -66.984375 C 70.160156 -67.816406 70.910156 -68.757812 71.640625 -69.8125 C 72.378906 -70.863281 72.75 -71.597656 72.75 -72.015625 C 72.6875 -72.367188 72.515625 -72.789062 72.234375 -73.28125 C 71.953125 -73.769531 71.671875 -74.117188 71.390625 -74.328125 C 71.035156 -74.535156 70.929688 -74.675781 71.078125 -74.75 C 71.078125 -74.75 71.144531 -74.785156 71.28125 -74.859375 Z M 5.5625 -64.359375 L 5.5625 -71.078125 L 53.4375 -71.078125 L 53.4375 -57.53125 L 47.65625 -57.53125 L 47.65625 -37.0625 L 53.4375 -37.0625 L 53.4375 -23.515625 L 51.234375 -23.515625 C 49.617188 -23.515625 48.601562 -23.476562 48.1875 -23.40625 L 47.65625 -23.40625 L 47.65625 9.96875 L 32.859375 9.96875 L 32.859375 -23.40625 L 30.453125 -23.40625 C 28.765625 -23.476562 27.644531 -23.476562 27.09375 -23.40625 L 26.25 -23.40625 L 26.03125 -21.84375 C 25.539062 -14.976562 23.722656 -8.832031 20.578125 -3.40625 C 17.429688 2.007812 13.234375 6.296875 7.984375 9.453125 C 6.023438 10.640625 4.9375 11.234375 4.71875 11.234375 C 4.65625 11.234375 4.625 8.296875 4.625 2.421875 L 4.625 -6.515625 L 5.140625 -6.921875 C 6.328125 -7.691406 7.445312 -8.78125 8.5 -10.1875 C 10.738281 -13.195312 12.070312 -17.113281 12.5 -21.9375 L 12.59375 -23.40625 L 9.34375 -23.40625 C 7.238281 -23.40625 6.082031 -23.441406 5.875 -23.515625 C 5.738281 -23.515625 5.632812 -25.789062 5.5625 -30.34375 L 5.5625 -37.0625 L 12.5 -37.0625 L 12.5 -57.421875 L 9.03125 -57.53125 L 5.671875 -57.640625 Z M 32.859375 -47.34375 L 32.859375 -57.53125 L 26.140625 -57.53125 L 26.140625 -37.0625 L 32.859375 -37.0625 Z M 73.484375 -49.546875 L 88.8125 -49.546875 L 88.609375 -48.390625 C 88.460938 -46.859375 88.054688 -45.023438 87.390625 -42.890625 C 86.734375 -40.753906 85.984375 -38.984375 85.140625 -37.578125 C 84.085938 -35.691406 82.597656 -33.75 80.671875 -31.75 C 78.753906 -29.757812 76.78125 -28.132812 74.75 -26.875 C 70.832031 -24.425781 66.210938 -22.503906 60.890625 -21.109375 C 58.296875 -20.398438 56.6875 -20.046875 56.0625 -20.046875 C 55.988281 -20.046875 55.953125 -22.320312 55.953125 -26.875 L 55.953125 -33.703125 L 57 -34.015625 C 60.289062 -34.921875 62.96875 -35.953125 65.03125 -37.109375 C 67.101562 -38.265625 69.046875 -39.785156 70.859375 -41.671875 C 72.328125 -43.148438 73.414062 -44.625 74.125 -46.09375 C 74.75 -47.351562 74.75 -48.332031 74.125 -49.03125 Z M 73.28125 -23.828125 L 89.765625 -23.828125 L 89.65625 -21.84375 C 89.375 -17.988281 88.359375 -14.273438 86.609375 -10.703125 C 85.984375 -9.441406 85.109375 -8.078125 83.984375 -6.609375 C 83.359375 -5.773438 82.289062 -4.601562 80.78125 -3.09375 C 79.28125 -1.59375 78.039062 -0.492188 77.0625 0.203125 C 74.050781 2.441406 70.34375 4.40625 65.9375 6.09375 C 62.363281 7.488281 58.96875 8.46875 55.75 9.03125 L 54.375 9.234375 L 54.375 2.421875 C 54.3125 -2.128906 54.3125 -4.476562 54.375 -4.625 C 54.445312 -4.757812 54.832031 -4.898438 55.53125 -5.046875 C 58.894531 -6.085938 61.488281 -7.03125 63.3125 -7.875 C 66.382812 -9.476562 69.003906 -11.539062 71.171875 -14.0625 C 73.140625 -16.375 74.4375 -18.753906 75.0625 -21.203125 C 75.0625 -21.554688 74.972656 -21.957031 74.796875 -22.40625 C 74.617188 -22.863281 74.359375 -23.195312 74.015625 -23.40625 Z M 73.28125 -23.828125 "/></g></g></g><g fill="#ffffff" fill-opacity="1"><g transform="translate(422.261965, 527.966122)"><g><path d="M 41.265625 -65.609375 L 41.265625 -73.171875 L 49.125 -73.171875 L 57.109375 -73.0625 L 57.21875 -65.609375 L 57.21875 -58.0625 L 86.921875 -58.0625 L 86.921875 -44.40625 L 57.21875 -44.40625 L 57.21875 -42.9375 C 57.21875 -42.65625 57.21875 -42.21875 57.21875 -41.625 C 57.21875 -41.03125 57.21875 -40.296875 57.21875 -39.421875 C 57.21875 -38.546875 57.21875 -37.796875 57.21875 -37.171875 C 57.144531 -34.367188 57.144531 -32.6875 57.21875 -32.125 L 57.328125 -31.5 L 71.078125 -31.5 L 84.828125 -31.390625 L 84.9375 -24.5625 L 84.9375 -17.84375 L 57.109375 -17.84375 L 57.109375 -3.671875 L 73.484375 -3.671875 L 89.765625 -3.5625 L 89.859375 2.9375 C 89.859375 7.28125 89.828125 9.554688 89.765625 9.765625 L 89.65625 10.1875 L 5.046875 10.1875 L 5.046875 -3.671875 L 41.265625 -3.671875 L 41.265625 -17.84375 L 10.5 -17.84375 L 10.5 -31.5 L 41.265625 -31.5 L 41.265625 -44.40625 L 23.515625 -44.40625 L 22.359375 -42.9375 C 19.421875 -39.300781 15.710938 -36.1875 11.234375 -33.59375 C 10.328125 -33.101562 9.222656 -32.5625 7.921875 -31.96875 C 6.628906 -31.375 5.914062 -31.113281 5.78125 -31.1875 C 5.78125 -31.1875 5.757812 -33.828125 5.71875 -39.109375 C 5.6875 -44.390625 5.707031 -47.066406 5.78125 -47.140625 C 8.363281 -48.742188 10.425781 -50.664062 11.96875 -52.90625 C 13.15625 -54.65625 14.148438 -56.664062 14.953125 -58.9375 C 15.765625 -61.21875 16.238281 -63.441406 16.375 -65.609375 C 16.445312 -66.734375 16.34375 -67.503906 16.0625 -67.921875 C 15.78125 -68.410156 15.429688 -68.757812 15.015625 -68.96875 L 14.28125 -69.5 L 22.78125 -69.5 C 28.382812 -69.5 31.1875 -69.429688 31.1875 -69.296875 C 31.1875 -68.304688 31.023438 -66.601562 30.703125 -64.1875 C 30.390625 -61.78125 30.09375 -60.085938 29.8125 -59.109375 L 29.609375 -58.0625 L 41.265625 -58.0625 Z M 41.265625 -65.609375 "/></g></g></g><g fill="#ffffff" fill-opacity="1"><g transform="translate(516.74642, 527.966122)"><g><path d="M 18.890625 -73.796875 C 18.679688 -73.867188 18.753906 -73.941406 19.109375 -74.015625 C 19.597656 -74.085938 21.765625 -74.125 25.609375 -74.125 L 32.859375 -74.125 L 32.859375 -61.3125 L 36.53125 -61.3125 L 36.53125 -48.078125 L 32.859375 -48.078125 L 32.859375 -25.203125 L 34.859375 -25.296875 C 36.253906 -25.367188 36.988281 -25.441406 37.0625 -25.515625 C 37.132812 -25.515625 37.1875 -25.425781 37.21875 -25.25 C 37.25 -25.070312 37.265625 -24.703125 37.265625 -24.140625 C 37.265625 -23.585938 37.28125 -22.875 37.3125 -22 C 37.351562 -21.125 37.375 -19.984375 37.375 -18.578125 L 37.375 -11.859375 L 35.171875 -11.65625 L 32.96875 -11.4375 L 32.859375 0 L 32.859375 11.546875 L 18.796875 11.546875 L 18.796875 0.53125 C 18.796875 -6.75 18.757812 -10.390625 18.6875 -10.390625 C 18.613281 -10.390625 17.003906 -10.285156 13.859375 -10.078125 C 9.867188 -9.722656 7.835938 -9.546875 7.765625 -9.546875 C 6.785156 -9.484375 6.191406 -9.414062 5.984375 -9.34375 L 5.5625 -9.34375 L 5.5625 -22.78125 L 6.40625 -22.890625 C 7.519531 -23.023438 10.738281 -23.300781 16.0625 -23.71875 L 18.796875 -24.046875 L 18.796875 -48.078125 L 16.6875 -48.078125 L 16.484375 -46.921875 C 15.992188 -44.410156 15.1875 -41.894531 14.0625 -39.375 C 12.03125 -34.75 9.441406 -31.457031 6.296875 -29.5 C 5.671875 -29.144531 5.253906 -28.96875 5.046875 -28.96875 C 4.898438 -28.96875 4.828125 -31.804688 4.828125 -37.484375 L 4.828125 -45.984375 L 5.359375 -47.34375 C 6.128906 -49.375 6.722656 -51.753906 7.140625 -54.484375 C 7.703125 -58.265625 7.875 -61.832031 7.65625 -65.1875 C 7.59375 -66.519531 7.421875 -67.519531 7.140625 -68.1875 C 6.859375 -68.851562 6.367188 -69.394531 5.671875 -69.8125 C 5.390625 -70.019531 5.472656 -70.140625 5.921875 -70.171875 C 6.378906 -70.210938 8.1875 -70.234375 11.34375 -70.234375 L 17.640625 -70.234375 L 17.75 -69.390625 C 17.882812 -68.617188 17.988281 -67.113281 18.0625 -64.875 L 18.15625 -61.3125 L 19.734375 -61.3125 L 19.734375 -66.875 C 19.734375 -70.582031 19.664062 -72.613281 19.53125 -72.96875 C 19.457031 -73.3125 19.242188 -73.585938 18.890625 -73.796875 Z M 42.515625 -73.796875 C 42.304688 -73.941406 42.378906 -74.015625 42.734375 -74.015625 C 43.222656 -74.085938 45.425781 -74.125 49.34375 -74.125 C 54.238281 -74.125 56.789062 -74.050781 57 -73.90625 C 57.21875 -73.832031 57.328125 -72.957031 57.328125 -71.28125 C 57.253906 -69.039062 57.113281 -67.363281 56.90625 -66.25 L 56.796875 -65.609375 L 89.65625 -65.609375 L 89.65625 -32.546875 C 89.582031 -10.566406 89.476562 0.804688 89.34375 1.578125 C 88.15625 5.210938 85.914062 7.625 82.625 8.8125 C 81.71875 9.164062 79.96875 9.445312 77.375 9.65625 C 67.570312 10.289062 62.53125 10.535156 62.25 10.390625 C 62.1875 10.316406 62.15625 7.097656 62.15625 0.734375 L 62.15625 -3.46875 L 64.25 -3.46875 C 68.164062 -3.75 70.578125 -3.957031 71.484375 -4.09375 C 72.398438 -4.226562 73.066406 -4.472656 73.484375 -4.828125 C 73.554688 -4.898438 73.660156 -5.003906 73.796875 -5.140625 C 74.359375 -5.566406 74.691406 -6.597656 74.796875 -8.234375 C 74.898438 -9.878906 74.953125 -15.320312 74.953125 -24.5625 C 74.953125 -26.59375 74.953125 -28.203125 74.953125 -29.390625 C 74.890625 -44.234375 74.820312 -49.867188 74.75 -46.296875 C 74.539062 -38.316406 73.613281 -31.507812 71.96875 -25.875 C 70.320312 -20.238281 67.644531 -14.832031 63.9375 -9.65625 C 61.207031 -5.664062 58.054688 -2.304688 54.484375 0.421875 C 52.453125 2.171875 49.894531 3.867188 46.8125 5.515625 C 43.738281 7.160156 41.148438 8.332031 39.046875 9.03125 L 38.53125 9.140625 L 38.53125 -5.359375 L 41.046875 -6.609375 C 44.691406 -8.429688 47.910156 -10.742188 50.703125 -13.546875 C 53.859375 -16.835938 56.554688 -20.648438 58.796875 -24.984375 C 60.609375 -28.554688 61.953125 -32.25 62.828125 -36.0625 C 63.703125 -39.875 64.28125 -44.441406 64.5625 -49.765625 L 64.671875 -52.171875 L 63.515625 -52.171875 C 62.890625 -52.171875 62.503906 -52.082031 62.359375 -51.90625 C 62.222656 -51.738281 62.15625 -51.195312 62.15625 -50.28125 C 62.15625 -49.65625 62.082031 -48.535156 61.9375 -46.921875 C 61.101562 -39.429688 59.285156 -33.203125 56.484375 -28.234375 C 53.679688 -23.265625 49.691406 -19.066406 44.515625 -15.640625 C 43.742188 -15.078125 42.65625 -14.410156 41.25 -13.640625 C 39.851562 -12.878906 39.085938 -12.5 38.953125 -12.5 C 38.804688 -12.5 38.734375 -14.769531 38.734375 -19.3125 L 38.734375 -26.03125 L 39.265625 -26.25 C 40.378906 -26.945312 41.722656 -28.066406 43.296875 -29.609375 C 44.878906 -31.148438 46.085938 -32.515625 46.921875 -33.703125 C 48.953125 -36.847656 50.457031 -40.554688 51.4375 -44.828125 C 52.132812 -47.972656 52.484375 -50.109375 52.484375 -51.234375 L 51.65625 -49.875 C 48.644531 -44.34375 44.722656 -40.140625 39.890625 -37.265625 C 38.910156 -36.640625 38.351562 -36.328125 38.21875 -36.328125 C 38.070312 -36.328125 38 -38.984375 38 -44.296875 L 38 -52.484375 L 38.640625 -53.125 C 40.171875 -54.59375 41.5 -56.867188 42.625 -59.953125 C 43.46875 -62.328125 44.097656 -65.441406 44.515625 -69.296875 C 44.648438 -70.617188 44.578125 -71.523438 44.296875 -72.015625 C 43.953125 -72.785156 43.359375 -73.378906 42.515625 -73.796875 Z M 42.515625 -73.796875 "/></g></g></g><g clip-path="url(#ddd6afed46)"><path fill="#ffbf3f" d="M 141.3125 719.816406 L 608.898438 719.816406 L 608.898438 750 L 141.3125 750 Z M 141.3125 719.816406 " fill-opacity="1" fill-rule="nonzero"/></g><g clip-path="url(#532cf08ea4)"><path stroke-linecap="butt" transform="matrix(0.74996, 0, 0, 0.74996, 141.369634, 719.817873)" fill="none" stroke-linejoin="miter" d="M 0.00194622 -0.00195566 L 623.264051 -0.00195566 L 623.264051 40.234546 L 0.00194622 40.234546 Z M 0.00194622 -0.00195566 " stroke="#ffbf3f" stroke-width="18.00095" stroke-opacity="1" stroke-miterlimit="4"/></g><g clip-path="url(#0423222ba3)"><path fill="#ffbf3f" d="M 322.546875 680.984375 L 424.722656 680.984375 L 424.722656 750 L 322.546875 750 Z M 322.546875 680.984375 " fill-opacity="1" fill-rule="nonzero"/></g><g clip-path="url(#4ab311031c)"><path stroke-linecap="butt" transform="matrix(0.74996, 0, 0, 0.74996, 322.548328, 680.983115)" fill="none" stroke-linejoin="miter" d="M -0.00193708 0.00168034 L 136.213582 0.00168034 L 136.213582 92.016951 L -0.00193708 92.016951 Z M -0.00193708 0.00168034 " stroke="#ffbf3f" stroke-width="18.00095" stroke-opacity="1" stroke-miterlimit="4"/></g><g clip-path="url(#34d79501f7)"><path fill="#ffbf3f" d="M 64.59375 0 L 532.183594 0 L 532.183594 28.726562 L 64.59375 28.726562 Z M 64.59375 0 " fill-opacity="1" fill-rule="nonzero"/></g><g clip-path="url(#83dea3cf9f)"><path stroke-linecap="butt" transform="matrix(0.74996, 0, 0, 0.74996, 64.632993, 0.00002)" fill="none" stroke-linejoin="miter" d="M -0.000240813 -0.0000266681 L 623.319099 -0.0000266681 L 623.319099 38.298869 L -0.000240813 38.298869 Z M -0.000240813 -0.0000266681 " stroke="#ffbf3f" stroke-width="18.00095" stroke-opacity="1" stroke-miterlimit="4"/></g><g fill="#ffffff" fill-opacity="1"><g transform="translate(330.987213, 730.216356)"><g><path d="M 3.640625 -42.234375 C 3.554688 -42.273438 3.617188 -42.316406 3.828125 -42.359375 C 4.035156 -42.398438 4.648438 -42.421875 5.671875 -42.421875 C 6.703125 -42.421875 8.179688 -42.421875 10.109375 -42.421875 L 16.875 -42.421875 L 16.875 4.765625 L 4.578125 4.765625 L 4.578125 -41.296875 L 4.265625 -41.671875 C 4.140625 -41.921875 3.929688 -42.109375 3.640625 -42.234375 Z M 18.578125 -42.421875 L 23.71875 -42.421875 C 25.101562 -42.421875 26.242188 -42.421875 27.140625 -42.421875 C 28.035156 -42.421875 28.710938 -42.398438 29.171875 -42.359375 C 31.054688 -42.234375 32.800781 -41.65625 34.40625 -40.625 C 36.019531 -39.601562 37.332031 -38.316406 38.34375 -36.765625 C 39.84375 -34.460938 40.550781 -31.992188 40.46875 -29.359375 C 40.425781 -28.359375 40.300781 -27.503906 40.09375 -26.796875 C 39.59375 -25.285156 38.710938 -23.960938 37.453125 -22.828125 C 36.203125 -21.703125 34.78125 -21.035156 33.1875 -20.828125 C 32.519531 -20.703125 32.164062 -20.617188 32.125 -20.578125 C 32.125 -20.492188 32.3125 -20.453125 32.6875 -20.453125 C 34.070312 -20.453125 35.304688 -20.203125 36.390625 -19.703125 C 37.484375 -19.203125 38.414062 -18.519531 39.1875 -17.65625 C 39.957031 -16.800781 40.582031 -15.804688 41.0625 -14.671875 C 41.550781 -13.546875 41.859375 -12.335938 41.984375 -11.046875 C 42.191406 -8.492188 41.726562 -6.109375 40.59375 -3.890625 C 39.71875 -2.003906 38.492188 -0.394531 36.921875 0.9375 C 35.359375 2.28125 33.613281 3.285156 31.6875 3.953125 C 31.1875 4.160156 30.707031 4.316406 30.25 4.421875 C 29.789062 4.523438 29.367188 4.597656 28.984375 4.640625 C 28.566406 4.679688 27.921875 4.703125 27.046875 4.703125 C 26.171875 4.703125 25.019531 4.703125 23.59375 4.703125 L 18.578125 4.765625 L 18.578125 -3.890625 L 21.65625 -3.890625 C 22.488281 -3.890625 23.164062 -3.898438 23.6875 -3.921875 C 24.207031 -3.941406 24.613281 -3.972656 24.90625 -4.015625 C 25.375 -4.054688 25.921875 -4.222656 26.546875 -4.515625 C 26.921875 -4.765625 27.304688 -5.109375 27.703125 -5.546875 C 28.097656 -5.992188 28.378906 -6.425781 28.546875 -6.84375 C 28.960938 -7.71875 29.148438 -8.738281 29.109375 -9.90625 C 29.066406 -11.082031 28.835938 -12.085938 28.421875 -12.921875 C 28.210938 -13.296875 27.910156 -13.671875 27.515625 -14.046875 C 27.117188 -14.429688 26.753906 -14.707031 26.421875 -14.875 C 25.835938 -15.207031 25.3125 -15.394531 24.84375 -15.4375 C 24.59375 -15.476562 24.207031 -15.5 23.6875 -15.5 C 23.164062 -15.5 22.488281 -15.5 21.65625 -15.5 L 18.578125 -15.5 L 18.578125 -24.71875 L 21.078125 -24.71875 C 21.878906 -24.71875 22.53125 -24.71875 23.03125 -24.71875 C 23.53125 -24.71875 23.882812 -24.738281 24.09375 -24.78125 C 25.351562 -25.070312 26.328125 -25.71875 27.015625 -26.71875 C 27.703125 -27.726562 27.941406 -28.882812 27.734375 -30.1875 C 27.523438 -31.144531 27.203125 -31.882812 26.765625 -32.40625 C 26.328125 -32.925781 25.8125 -33.3125 25.21875 -33.5625 C 24.632812 -33.820312 23.988281 -33.972656 23.28125 -34.015625 C 22.570312 -34.054688 21.816406 -34.078125 21.015625 -34.078125 L 18.578125 -34.078125 Z M 18.578125 -42.421875 "/></g></g></g><g fill="#ffffff" fill-opacity="1"><g transform="translate(375.478049, 730.216356)"><g><path d="M 20.078125 -42.359375 C 20.117188 -42.398438 21.644531 -42.421875 24.65625 -42.421875 L 29.171875 -42.421875 L 29.171875 4.765625 L 16.9375 4.765625 L 16.9375 -30.375 L 11.734375 -30.375 L 11.734375 -33.578125 C 11.734375 -36.128906 11.753906 -37.507812 11.796875 -37.71875 L 11.796875 -38.71875 L 12.609375 -38.84375 C 14.367188 -39.050781 16.066406 -39.613281 17.703125 -40.53125 C 18.078125 -40.78125 18.554688 -41.113281 19.140625 -41.53125 C 19.722656 -41.957031 20.035156 -42.234375 20.078125 -42.359375 Z M 20.078125 -42.359375 "/></g></g></g></svg>