<svg xmlns="http://www.w3.org/2000/svg" xmlns:xlink="http://www.w3.org/1999/xlink" width="1000" zoomAndPan="magnify" viewBox="0 0 750 749.999995" height="1000" preserveAspectRatio="xMidYMid meet" version="1.0"><defs><g/><clipPath id="2acb8ffd13"><path d="M 0.898438 0.941406 L 749.058594 0.941406 L 749.058594 749.101562 L 0.898438 749.101562 Z M 0.898438 0.941406 " clip-rule="nonzero"/></clipPath><clipPath id="7d80198ae1"><path d="M 0 0.0390625 L 749.960938 0.0390625 L 749.960938 750 L 0 750 Z M 0 0.0390625 " clip-rule="nonzero"/></clipPath><clipPath id="d1bc9aecad"><path d="M 141.3125 719.816406 L 608.859375 719.816406 L 608.859375 750 L 141.3125 750 Z M 141.3125 719.816406 " clip-rule="nonzero"/></clipPath><clipPath id="3e213a6e1b"><path d="M 141.371094 719.816406 L 608.535156 719.816406 L 608.535156 749.816406 L 141.371094 749.816406 Z M 141.371094 719.816406 " clip-rule="nonzero"/></clipPath><clipPath id="08a0233791"><path d="M 322.546875 680.984375 L 424.710938 680.984375 L 424.710938 750 L 322.546875 750 Z M 322.546875 680.984375 " clip-rule="nonzero"/></clipPath><clipPath id="c1b5fed124"><path d="M 322.546875 680.984375 L 424.539062 680.984375 L 424.539062 749.980469 L 322.546875 749.980469 Z M 322.546875 680.984375 " clip-rule="nonzero"/></clipPath><clipPath id="1cbabc43f0"><path d="M 64.59375 0 L 532.144531 0 L 532.144531 28.726562 L 64.59375 28.726562 Z M 64.59375 0 " clip-rule="nonzero"/></clipPath><clipPath id="b64063147b"><path d="M 64.632812 0 L 531.820312 0 L 531.820312 28.5 L 64.632812 28.5 Z M 64.632812 0 " clip-rule="nonzero"/></clipPath></defs><rect x="-75" width="900" fill="#ffffff" y="-74.999999" height="899.999994" fill-opacity="1"/><rect x="-75" width="900" fill="#000000" y="-74.999999" height="899.999994" fill-opacity="1"/><g fill="#ffffff" fill-opacity="1"><g transform="translate(185.898397, 284.998887)"><g><path d="M 37.796875 -74.859375 L 54.90625 -74.859375 L 54.90625 -70.65625 L 55.328125 -70.65625 C 55.679688 -70.582031 61.5625 -70.546875 72.96875 -70.546875 L 90.078125 -70.65625 L 90.078125 -57.953125 L 4.515625 -57.953125 L 4.515625 -70.546875 L 5.671875 -70.546875 C 6.015625 -70.546875 11.785156 -70.546875 22.984375 -70.546875 L 39.15625 -70.546875 L 39.15625 -71.921875 C 39.082031 -72.898438 38.976562 -73.546875 38.84375 -73.859375 C 38.707031 -74.171875 38.460938 -74.429688 38.109375 -74.640625 Z M 21.109375 -56.484375 L 37.171875 -56.484375 L 37.171875 -52.484375 L 40.203125 -52.484375 C 44.335938 -52.484375 47.734375 -52.484375 50.390625 -52.484375 L 58.375 -52.484375 L 58.375 -53.546875 C 58.375 -54.453125 58.195312 -55.113281 57.84375 -55.53125 C 57.632812 -55.675781 57.320312 -55.851562 56.90625 -56.0625 L 56.171875 -56.484375 L 73.0625 -56.484375 L 73.0625 -52.484375 L 77.375 -52.484375 C 77.789062 -52.484375 78.382812 -52.484375 79.15625 -52.484375 C 79.925781 -52.484375 80.609375 -52.484375 81.203125 -52.484375 C 81.796875 -52.484375 82.40625 -52.46875 83.03125 -52.4375 C 83.664062 -52.40625 84.125 -52.390625 84.40625 -52.390625 L 87.34375 -52.390625 L 87.453125 -25.828125 C 87.453125 -8.046875 87.378906 1.125 87.234375 1.6875 C 86.960938 3.988281 86.054688 5.945312 84.515625 7.5625 C 83.046875 9.101562 81.191406 10.148438 78.953125 10.703125 L 78 11.015625 L 62.78125 11.015625 L 62.78125 5.671875 L 61.9375 5.5625 C 61.445312 5.5625 55.5 5.5625 44.09375 5.5625 L 27.1875 5.671875 L 27.1875 -7.875 C 27.1875 -16.90625 27.148438 -21.539062 27.078125 -21.78125 C 27.015625 -22.03125 26.878906 -22.296875 26.671875 -22.578125 C 26.109375 -23.066406 25.441406 -23.273438 24.671875 -23.203125 L 24.046875 -23.09375 L 23.9375 -23.515625 C 23.9375 -23.722656 23.9375 -25.539062 23.9375 -28.96875 L 23.9375 -34.125 L 24.140625 -34.21875 C 26.035156 -34.5 27.613281 -35.203125 28.875 -36.328125 C 30.195312 -37.441406 31 -38.703125 31.28125 -40.109375 L 31.28125 -40.53125 L 26.765625 -40.53125 L 22.359375 -40.421875 L 22.359375 -14.484375 C 22.359375 2.796875 22.320312 11.4375 22.25 11.4375 C 22.1875 11.507812 19.671875 11.507812 14.703125 11.4375 L 7.34375 11.4375 L 7.25 -19.625 L 7.25 -50.609375 L 6.921875 -51.125 C 6.648438 -51.820312 6.300781 -52.207031 5.875 -52.28125 L 5.984375 -52.390625 C 6.054688 -52.390625 8.75 -52.390625 14.0625 -52.390625 C 16.9375 -52.453125 19.664062 -52.484375 22.25 -52.484375 L 22.46875 -52.484375 L 22.46875 -53.640625 C 22.46875 -54.410156 22.363281 -54.9375 22.15625 -55.21875 C 22.007812 -55.570312 21.796875 -55.851562 21.515625 -56.0625 Z M 49.453125 -40.53125 L 43.671875 -40.53125 L 43.671875 -40.203125 C 43.671875 -39.015625 43.5 -37.789062 43.15625 -36.53125 C 42.875 -34.78125 42.242188 -33.207031 41.265625 -31.8125 C 39.785156 -29.707031 37.507812 -27.882812 34.4375 -26.34375 C 32.757812 -25.4375 30.867188 -24.738281 28.765625 -24.25 C 26.523438 -23.6875 25.40625 -23.375 25.40625 -23.3125 C 25.40625 -23.3125 27.710938 -23.3125 32.328125 -23.3125 L 39.15625 -23.3125 L 39.15625 -19.734375 C 39.15625 -19.109375 39.15625 -18.53125 39.15625 -18 C 39.15625 -17.476562 39.171875 -17.054688 39.203125 -16.734375 C 39.242188 -16.421875 39.265625 -16.265625 39.265625 -16.265625 C 39.265625 -16.410156 39.332031 -16.765625 39.46875 -17.328125 C 39.675781 -18.722656 40.378906 -20.015625 41.578125 -21.203125 C 42.410156 -22.117188 43.457031 -22.75 44.71875 -23.09375 C 45.144531 -23.238281 49.347656 -23.3125 57.328125 -23.3125 L 69.296875 -23.3125 L 69.296875 -14.484375 C 69.296875 -5.734375 69.328125 -1.328125 69.390625 -1.265625 C 69.390625 -1.265625 69.632812 -1.4375 70.125 -1.78125 C 70.40625 -1.988281 70.753906 -2.269531 71.171875 -2.625 C 71.804688 -3.113281 72.265625 -3.707031 72.546875 -4.40625 L 72.75 -4.9375 L 72.75 -22.046875 C 72.6875 -33.453125 72.65625 -39.363281 72.65625 -39.78125 L 72.65625 -40.53125 L 61.625 -40.53125 L 61.625 -39.265625 C 61.695312 -38.421875 61.800781 -37.753906 61.9375 -37.265625 C 62.632812 -35.941406 63.582031 -35.207031 64.78125 -35.0625 C 66.25 -34.988281 68.066406 -35.269531 70.234375 -35.90625 C 70.859375 -35.976562 71.171875 -35.992188 71.171875 -35.953125 C 71.171875 -35.921875 71.171875 -34.191406 71.171875 -30.765625 L 71.171875 -25.515625 L 70.65625 -25.40625 C 67.15625 -25.195312 63.269531 -25.09375 59 -25.09375 C 58.226562 -25.09375 57.632812 -25.128906 57.21875 -25.203125 C 55.675781 -25.472656 54.238281 -26.1875 52.90625 -27.34375 C 51.582031 -28.5 50.640625 -29.847656 50.078125 -31.390625 C 49.660156 -32.441406 49.453125 -34.191406 49.453125 -36.640625 C 49.453125 -38.671875 49.453125 -39.789062 49.453125 -40 Z M 56.90625 -12.28125 L 39.15625 -12.28125 L 39.15625 -5.359375 L 47.875 -5.359375 C 53.6875 -5.359375 56.644531 -5.390625 56.75 -5.453125 C 56.851562 -5.523438 56.90625 -5.84375 56.90625 -6.40625 C 56.90625 -6.613281 56.90625 -7.734375 56.90625 -9.765625 Z M 56.90625 -12.28125 "/></g></g></g><g fill="#ffffff" fill-opacity="1"><g transform="translate(280.487835, 284.998887)"><g><path d="M 12.078125 -72.328125 L 28.65625 -72.328125 L 28.65625 -64.25 L 28.96875 -65.1875 C 29.53125 -66.875 30.492188 -68.328125 31.859375 -69.546875 C 33.222656 -70.773438 34.742188 -71.597656 36.421875 -72.015625 C 37.128906 -72.222656 44.832031 -72.328125 59.53125 -72.328125 L 81.578125 -72.328125 L 81.578125 -58.265625 C 81.578125 -48.890625 81.503906 -43.742188 81.359375 -42.828125 C 81.078125 -41.015625 80.273438 -39.441406 78.953125 -38.109375 C 77.828125 -36.984375 76.492188 -36.25 74.953125 -35.90625 C 74.253906 -35.695312 63.863281 -35.59375 43.78125 -35.59375 L 13.640625 -35.59375 L 13.640625 -52.90625 C 13.640625 -53.332031 13.640625 -53.960938 13.640625 -54.796875 C 13.640625 -62.984375 13.601562 -67.773438 13.53125 -69.171875 C 13.46875 -70.578125 13.191406 -71.457031 12.703125 -71.8125 C 12.628906 -71.8125 12.59375 -71.8125 12.59375 -71.8125 Z M 66.25 -58.796875 L 28.65625 -58.796875 L 28.5625 -54.28125 C 28.5625 -50.425781 28.59375 -48.429688 28.65625 -48.296875 C 28.726562 -48.222656 34.660156 -48.203125 46.453125 -48.234375 C 58.242188 -48.273438 64.242188 -48.328125 64.453125 -48.390625 C 65.085938 -48.671875 65.613281 -49.234375 66.03125 -50.078125 C 66.175781 -50.359375 66.25 -51.898438 66.25 -54.703125 Z M 6.1875 -30.96875 C 5.914062 -31.113281 8.367188 -31.1875 13.546875 -31.1875 L 21.421875 -31.1875 L 21.421875 -24.78125 L 21.734375 -25.609375 C 22.296875 -26.941406 23.171875 -28.097656 24.359375 -29.078125 C 25.546875 -30.054688 26.875 -30.6875 28.34375 -30.96875 C 29.039062 -31.113281 32.191406 -31.1875 37.796875 -31.1875 L 46.09375 -31.1875 L 46.09375 9.140625 L 7.65625 9.140625 L 7.65625 -9.34375 C 7.726562 -21.664062 7.726562 -28.101562 7.65625 -28.65625 C 7.519531 -29.851562 7.03125 -30.625 6.1875 -30.96875 Z M 32.859375 -10.8125 L 32.859375 -17.84375 L 21.421875 -17.84375 L 21.421875 -3.78125 L 32.859375 -3.78125 Z M 48.71875 -30.859375 C 48.570312 -30.929688 48.640625 -31.003906 48.921875 -31.078125 C 49.335938 -31.148438 51.613281 -31.1875 55.75 -31.1875 L 63.3125 -31.1875 L 63.3125 -23.3125 L 63.625 -24.46875 C 63.96875 -25.507812 64.628906 -26.570312 65.609375 -27.65625 C 66.585938 -28.75 67.570312 -29.570312 68.5625 -30.125 C 69.46875 -30.550781 70.410156 -30.816406 71.390625 -30.921875 C 72.367188 -31.023438 75.203125 -31.113281 79.890625 -31.1875 L 88.921875 -31.1875 L 88.921875 9.140625 L 49.875 9.140625 L 49.875 -10.28125 C 49.875 -11.125 49.875 -12.316406 49.875 -13.859375 C 49.800781 -22.117188 49.726562 -26.945312 49.65625 -28.34375 C 49.582031 -29.75 49.335938 -30.554688 48.921875 -30.765625 C 48.847656 -30.828125 48.78125 -30.859375 48.71875 -30.859375 Z M 74.953125 -10.8125 L 74.953125 -17.84375 L 63.3125 -17.84375 L 63.3125 -3.78125 L 74.953125 -3.78125 Z M 74.953125 -10.8125 "/></g></g></g><g fill="#ffffff" fill-opacity="1"><g transform="translate(374.972289, 284.998887)"><g><path d="M 26.671875 -73.703125 L 41.46875 -73.703125 L 41.46875 -73.59375 C 40.976562 -71.5625 40.554688 -70.160156 40.203125 -69.390625 L 47.453125 -69.1875 C 49.617188 -69.1875 53.675781 -69.1875 59.625 -69.1875 L 78.953125 -69.1875 L 78.953125 -67.078125 C 78.804688 -63.160156 78.101562 -59.382812 76.84375 -55.75 C 76.632812 -55.113281 76.359375 -54.378906 76.015625 -53.546875 C 75.304688 -51.796875 74.847656 -50.78125 74.640625 -50.5 C 74.566406 -50.425781 74.359375 -50.078125 74.015625 -49.453125 C 72.617188 -46.722656 70.726562 -44.0625 68.34375 -41.46875 C 66.382812 -39.226562 64.078125 -37.09375 61.421875 -35.0625 C 59.878906 -33.875 58.054688 -32.613281 55.953125 -31.28125 C 55.609375 -31.144531 55.328125 -31.003906 55.109375 -30.859375 C 54.898438 -30.722656 54.707031 -30.601562 54.53125 -30.5 C 54.363281 -30.394531 54.242188 -30.320312 54.171875 -30.28125 C 54.097656 -30.25 54.023438 -30.210938 53.953125 -30.171875 C 53.890625 -30.140625 53.859375 -30.09375 53.859375 -30.03125 C 53.929688 -29.957031 59.492188 -29.921875 70.546875 -29.921875 C 81.609375 -29.921875 87.171875 -29.921875 87.234375 -29.921875 C 87.234375 -29.921875 87.234375 -17.394531 87.234375 7.65625 L 87.234375 10.5 L 23.625 10.5 L 23.625 0 C 23.6875 -7 23.753906 -11.65625 23.828125 -13.96875 C 23.828125 -16.269531 23.828125 -17.421875 23.828125 -17.421875 C 23.828125 -17.421875 23.546875 -17.351562 22.984375 -17.21875 C 18.929688 -16.03125 14.453125 -15.050781 9.546875 -14.28125 C 8.359375 -14.132812 7.691406 -14.0625 7.546875 -14.0625 C 7.410156 -14.0625 7.34375 -14.132812 7.34375 -14.28125 C 7.28125 -14.625 7.25 -17.101562 7.25 -21.71875 C 7.25 -26.34375 7.28125 -28.671875 7.34375 -28.703125 C 7.414062 -28.742188 7.941406 -28.832031 8.921875 -28.96875 C 11.796875 -29.25 14.316406 -29.671875 16.484375 -30.234375 C 16.617188 -30.234375 17.25 -30.335938 18.375 -30.546875 C 19.488281 -30.828125 20.851562 -31.210938 22.46875 -31.703125 C 22.75 -31.773438 23.203125 -31.914062 23.828125 -32.125 C 26.628906 -32.820312 28.800781 -33.488281 30.34375 -34.125 C 30.550781 -34.1875 30.691406 -34.253906 30.765625 -34.328125 C 30.828125 -34.328125 30.828125 -34.429688 30.765625 -34.640625 C 30.554688 -34.847656 30.132812 -35.546875 29.5 -36.734375 C 28.875 -37.929688 28.257812 -39.140625 27.65625 -40.359375 C 27.0625 -41.585938 26.734375 -42.34375 26.671875 -42.625 C 26.597656 -42.757812 26.351562 -43.316406 25.9375 -44.296875 C 25.71875 -44.929688 25.4375 -45.773438 25.09375 -46.828125 C 24.675781 -48.359375 24.359375 -49.125 24.140625 -49.125 C 24.140625 -49.125 23.753906 -48.878906 22.984375 -48.390625 C 19.628906 -46.296875 15.675781 -44.515625 11.125 -43.046875 C 9.3125 -42.484375 8.265625 -42.203125 7.984375 -42.203125 C 7.910156 -42.203125 7.910156 -44.507812 7.984375 -49.125 L 7.984375 -56.0625 L 9.34375 -56.59375 C 13.40625 -57.914062 16.832031 -59.734375 19.625 -62.046875 C 21.164062 -63.304688 22.425781 -64.671875 23.40625 -66.140625 C 24.039062 -66.984375 24.65625 -68.140625 25.25 -69.609375 C 25.84375 -71.078125 26.242188 -72.265625 26.453125 -73.171875 Z M 60.6875 -55.4375 C 60.6875 -55.4375 60.472656 -55.453125 60.046875 -55.484375 C 59.628906 -55.515625 58.878906 -55.53125 57.796875 -55.53125 C 56.710938 -55.53125 55.273438 -55.53125 53.484375 -55.53125 C 51.703125 -55.53125 49.378906 -55.53125 46.515625 -55.53125 L 32.234375 -55.53125 L 31.5 -54.796875 C 30.238281 -53.535156 28.941406 -52.382812 27.609375 -51.34375 C 27.472656 -51.269531 27.316406 -51.160156 27.140625 -51.015625 C 26.960938 -50.878906 26.820312 -50.773438 26.71875 -50.703125 C 26.613281 -50.640625 26.523438 -50.570312 26.453125 -50.5 C 26.378906 -50.425781 26.453125 -50.390625 26.671875 -50.390625 L 32.4375 -50.28125 L 38.734375 -50.28125 L 38.84375 -50.078125 C 38.914062 -49.515625 39.226562 -48.445312 39.78125 -46.875 C 40.34375 -45.300781 40.921875 -43.847656 41.515625 -42.515625 C 42.109375 -41.191406 42.441406 -40.5625 42.515625 -40.625 C 42.585938 -40.625 42.867188 -40.800781 43.359375 -41.15625 C 45.804688 -42.488281 48.222656 -43.992188 50.609375 -45.671875 C 53.960938 -48.191406 56.832031 -50.882812 59.21875 -53.75 C 59.488281 -53.957031 59.742188 -54.21875 59.984375 -54.53125 C 60.234375 -54.851562 60.359375 -55.015625 60.359375 -55.015625 C 60.503906 -55.222656 60.613281 -55.363281 60.6875 -55.4375 Z M 72.546875 -9.65625 C 72.546875 -13.925781 72.492188 -16.078125 72.390625 -16.109375 C 72.285156 -16.148438 66.773438 -16.171875 55.859375 -16.171875 C 44.796875 -16.171875 39.242188 -16.148438 39.203125 -16.109375 C 39.171875 -16.078125 39.15625 -13.890625 39.15625 -9.546875 L 39.15625 -3.15625 L 72.546875 -3.15625 Z M 72.546875 -9.65625 "/></g></g></g><g fill="#ffffff" fill-opacity="1"><g transform="translate(469.456744, 284.998887)"><g><path d="M 34.953125 -73.0625 C 35.304688 -73.132812 35.726562 -73.1875 36.21875 -73.21875 C 36.707031 -73.257812 37.070312 -73.296875 37.3125 -73.328125 C 37.5625 -73.367188 37.722656 -73.390625 37.796875 -73.390625 C 37.867188 -73.390625 37.921875 -73.109375 37.953125 -72.546875 C 37.984375 -71.984375 38 -70.335938 38 -67.609375 C 38 -63.691406 37.984375 -61.734375 37.953125 -61.734375 C 37.921875 -61.734375 36.554688 -61.609375 33.859375 -61.359375 C 31.160156 -61.117188 29.722656 -61 29.546875 -61 C 29.378906 -61 29.296875 -59.703125 29.296875 -57.109375 L 29.296875 -53.234375 L 38 -53.234375 L 38 -39.78125 L 29.296875 -39.78125 L 29.296875 10.390625 L 17.421875 10.390625 L 17.328125 -14.703125 L 17.328125 -39.6875 L 11.4375 -39.78125 L 5.671875 -39.78125 L 5.671875 -53.234375 L 17.421875 -53.234375 L 17.421875 -56.59375 C 17.421875 -58.832031 17.316406 -59.953125 17.109375 -59.953125 C 16.828125 -59.953125 15.054688 -59.828125 11.796875 -59.578125 C 8.546875 -59.335938 6.785156 -59.179688 6.515625 -59.109375 L 5.78125 -59 L 5.78125 -70.65625 L 6.1875 -70.765625 C 6.46875 -70.765625 10.109375 -71.078125 17.109375 -71.703125 C 26.554688 -72.398438 32.503906 -72.851562 34.953125 -73.0625 Z M 80.9375 -72.859375 C 85.632812 -73.140625 88.398438 -73.316406 89.234375 -73.390625 L 89.765625 -73.390625 L 89.765625 -61.421875 L 88.921875 -61.3125 C 88.015625 -61.238281 78.390625 -60.785156 60.046875 -59.953125 C 48.640625 -59.460938 42.445312 -59.21875 41.46875 -59.21875 L 40.109375 -59.21875 L 40.109375 -70.765625 L 40.734375 -70.859375 C 41.085938 -70.929688 42.242188 -71.003906 44.203125 -71.078125 C 51.410156 -71.359375 63.65625 -71.953125 80.9375 -72.859375 Z M 73.171875 -59 L 80.421875 -59 L 87.453125 -58.890625 L 87.453125 -53.546875 C 87.453125 -50.046875 87.414062 -48.117188 87.34375 -47.765625 L 87.234375 -47.34375 L 75.171875 -47.34375 L 75.171875 -50.28125 C 75.171875 -53.925781 75.097656 -56.132812 74.953125 -56.90625 C 74.816406 -57.675781 74.429688 -58.234375 73.796875 -58.578125 Z M 41.890625 -58.375 C 41.890625 -58.4375 44.054688 -58.46875 48.390625 -58.46875 L 54.90625 -58.375 L 55.015625 -52.8125 L 55.015625 -47.34375 L 42.625 -47.34375 L 42.625 -51.546875 C 42.625 -55.460938 42.519531 -57.5625 42.3125 -57.84375 C 42.03125 -58.050781 41.890625 -58.226562 41.890625 -58.375 Z M 58.15625 -57.53125 C 57.875 -57.882812 57.75 -58.09375 57.78125 -58.15625 C 57.820312 -58.226562 60.015625 -58.265625 64.359375 -58.265625 L 70.859375 -58.15625 L 70.859375 -52.8125 L 70.96875 -47.5625 L 70.34375 -47.453125 C 69.988281 -47.378906 67.992188 -47.34375 64.359375 -47.34375 L 58.796875 -47.453125 L 58.6875 -52.28125 L 58.6875 -57.21875 Z M 56.6875 -46.296875 C 56.476562 -46.441406 56.515625 -46.515625 56.796875 -46.515625 C 57.359375 -46.578125 59.457031 -46.609375 63.09375 -46.609375 L 69.921875 -46.515625 L 70.03125 -45.875 L 70.03125 -45.25 L 87.5625 -45.25 L 87.5625 -16.375 L 90.28125 -16.375 L 90.28125 -5.359375 L 87.5625 -5.359375 L 87.453125 -1.6875 C 87.453125 0.769531 87.273438 2.414062 86.921875 3.25 C 85.804688 5.84375 84.09375 7.769531 81.78125 9.03125 C 80.726562 9.59375 79.675781 9.925781 78.625 10.03125 C 77.582031 10.132812 75.238281 10.1875 71.59375 10.1875 L 65.1875 10.078125 L 65.09375 4.203125 L 65.09375 -1.6875 L 68.453125 -1.6875 C 70.765625 -1.6875 72.195312 -1.753906 72.75 -1.890625 C 74.007812 -2.515625 74.640625 -3.457031 74.640625 -4.71875 L 74.640625 -5.359375 L 53.546875 -5.359375 L 53.546875 10.1875 L 41.15625 10.1875 L 41.15625 3.046875 C 41.15625 -1.578125 41.117188 -4.132812 41.046875 -4.625 C 40.972656 -4.96875 40.898438 -5.175781 40.828125 -5.25 C 40.765625 -5.320312 40.554688 -5.359375 40.203125 -5.359375 L 39.375 -5.359375 L 39.375 -16.375 L 41.15625 -16.375 L 41.046875 -30.125 C 41.046875 -39.226562 40.941406 -43.953125 40.734375 -44.296875 C 40.453125 -44.578125 40.171875 -44.789062 39.890625 -44.9375 L 41.359375 -45.140625 C 42.554688 -45.210938 44.898438 -45.25 48.390625 -45.25 L 57.53125 -45.25 L 57.21875 -45.5625 C 57.070312 -45.84375 56.894531 -46.085938 56.6875 -46.296875 Z M 58.15625 -32.125 L 58.15625 -34.21875 L 53.546875 -34.21875 L 53.546875 -16.375 L 58.15625 -16.375 L 58.15625 -20.890625 L 56.796875 -21.109375 L 55.21875 -21.203125 L 55.21875 -24.25 C 55.144531 -26.207031 55.144531 -27.644531 55.21875 -28.5625 L 55.21875 -30.03125 L 58.15625 -30.03125 Z M 74.953125 -25.40625 L 74.953125 -34.21875 L 70.03125 -34.21875 L 70.03125 -30.03125 L 72.859375 -30.03125 L 72.859375 -20.78125 L 70.03125 -20.78125 L 70.03125 -16.375 L 74.953125 -16.375 Z M 6.71875 -35.90625 C 6.4375 -36.25 6.347656 -36.472656 6.453125 -36.578125 C 6.554688 -36.691406 6.785156 -36.710938 7.140625 -36.640625 C 7.484375 -36.566406 8.914062 -36.53125 11.4375 -36.53125 L 15.328125 -36.53125 L 15.328125 -23.3125 C 15.253906 -16.863281 15.21875 -12.941406 15.21875 -11.546875 C 15.21875 -10.148438 15.078125 -9.03125 14.796875 -8.1875 C 14.097656 -4.832031 12.664062 -1.71875 10.5 1.15625 C 9.863281 2 9.003906 2.976562 7.921875 4.09375 C 6.835938 5.21875 5.910156 6.023438 5.140625 6.515625 L 4.296875 7.03125 L 4.296875 -8.71875 L 5.046875 -9.34375 C 6.160156 -10.1875 6.820312 -11.65625 7.03125 -13.75 C 7.175781 -14.800781 7.25 -18.6875 7.25 -25.40625 L 7.140625 -35.59375 Z M 30.125 -36.109375 C 29.707031 -36.535156 29.566406 -36.710938 29.703125 -36.640625 C 29.773438 -36.640625 29.847656 -36.640625 29.921875 -36.640625 C 30.273438 -36.566406 31.601562 -36.53125 33.90625 -36.53125 L 37.375 -36.53125 L 37.375 0.625 L 31.078125 0.625 L 31.078125 -17.109375 C 31.078125 -28.941406 31.003906 -35 30.859375 -35.28125 C 30.722656 -35.550781 30.476562 -35.828125 30.125 -36.109375 Z M 30.125 -36.109375 "/></g></g></g><g fill="#ffffff" fill-opacity="1"><g transform="translate(233.192776, 406.492465)"><g><path d="M 30.859375 -74.328125 C 30.648438 -74.460938 30.722656 -74.53125 31.078125 -74.53125 C 31.566406 -74.53125 33.5625 -74.53125 37.0625 -74.53125 C 41.539062 -74.53125 43.921875 -74.53125 44.203125 -74.53125 C 44.484375 -74.53125 44.640625 -74.375 44.671875 -74.0625 C 44.703125 -73.75 44.71875 -72.753906 44.71875 -71.078125 L 44.71875 -67.71875 L 49.765625 -67.71875 L 49.765625 -73.28125 L 49.234375 -73.796875 L 48.609375 -74.53125 L 51.015625 -74.53125 C 52.421875 -74.53125 54.171875 -74.53125 56.265625 -74.53125 C 58.085938 -74.601562 59.59375 -74.601562 60.78125 -74.53125 L 62.359375 -74.4375 L 62.359375 -67.71875 L 66.453125 -67.71875 L 66.453125 -70.234375 C 66.453125 -71.703125 66.378906 -72.660156 66.234375 -73.109375 C 66.097656 -73.566406 65.820312 -73.90625 65.40625 -74.125 C 65.125 -74.257812 64.984375 -74.394531 64.984375 -74.53125 C 65.054688 -74.53125 67.296875 -74.53125 71.703125 -74.53125 C 76.109375 -74.53125 78.523438 -74.53125 78.953125 -74.53125 C 79.085938 -74.53125 79.15625 -73.378906 79.15625 -71.078125 L 79.15625 -67.71875 L 89.125 -67.71875 L 89.125 -56.0625 L 79.15625 -56.0625 L 79.15625 -54.90625 C 79.226562 -54.132812 79.4375 -53.539062 79.78125 -53.125 C 80.132812 -52.632812 80.535156 -52.335938 80.984375 -52.234375 C 81.441406 -52.128906 82.582031 -52.144531 84.40625 -52.28125 C 86.644531 -52.488281 87.941406 -52.628906 88.296875 -52.703125 L 89.125 -52.8125 L 89.125 -41.671875 L 86.828125 -41.578125 C 85.140625 -41.503906 82.757812 -41.429688 79.6875 -41.359375 C 76.46875 -41.296875 74.4375 -41.332031 73.59375 -41.46875 C 71.914062 -41.957031 70.460938 -42.8125 69.234375 -44.03125 C 68.015625 -45.257812 67.160156 -46.679688 66.671875 -48.296875 C 66.523438 -48.992188 66.453125 -50.460938 66.453125 -52.703125 L 66.453125 -56.0625 L 62.359375 -56.0625 L 62.359375 -41.46875 L 50.8125 -41.46875 C 43.1875 -41.46875 38.988281 -41.535156 38.21875 -41.671875 C 35.832031 -42.378906 34.082031 -43.851562 32.96875 -46.09375 L 32.4375 -47.25 L 32.234375 -51.65625 C 32.234375 -52.070312 32.234375 -52.523438 32.234375 -53.015625 C 32.234375 -53.503906 32.234375 -53.90625 32.234375 -54.21875 C 32.234375 -54.539062 32.210938 -54.835938 32.171875 -55.109375 C 32.140625 -55.390625 32.125 -55.597656 32.125 -55.734375 C 32.125 -55.878906 32.125 -55.953125 32.125 -55.953125 C 32.125 -56.023438 31.457031 -56.023438 30.125 -55.953125 L 28.140625 -55.953125 L 27.828125 -54.59375 C 26.210938 -48.15625 21.765625 -43.78125 14.484375 -41.46875 C 11.960938 -40.625 9.515625 -40.097656 7.140625 -39.890625 L 5.78125 -39.6875 L 5.78125 -51.34375 L 7.25 -51.65625 C 9.625 -52.144531 11.507812 -53.125 12.90625 -54.59375 C 13.613281 -55.289062 13.96875 -55.710938 13.96875 -55.859375 C 13.96875 -55.992188 12.601562 -56.0625 9.875 -56.0625 L 5.5625 -56.0625 L 5.5625 -67.71875 L 15.859375 -67.71875 L 15.859375 -69.8125 C 15.859375 -71.070312 15.785156 -71.984375 15.640625 -72.546875 C 15.503906 -73.109375 15.15625 -73.523438 14.59375 -73.796875 C 14.175781 -74.078125 13.859375 -74.289062 13.640625 -74.4375 C 13.640625 -74.4375 13.953125 -74.453125 14.578125 -74.484375 C 15.210938 -74.515625 16.109375 -74.53125 17.265625 -74.53125 C 18.421875 -74.53125 19.664062 -74.53125 21 -74.53125 L 28.65625 -74.53125 L 28.65625 -67.71875 L 32.328125 -67.71875 L 32.234375 -70.34375 C 32.234375 -71.8125 32.144531 -72.769531 31.96875 -73.21875 C 31.789062 -73.675781 31.421875 -74.046875 30.859375 -74.328125 Z M 49.765625 -53.75 L 49.765625 -56.0625 L 44.71875 -56.0625 L 44.71875 -54.703125 C 44.71875 -53.785156 44.894531 -53.082031 45.25 -52.59375 C 45.945312 -51.820312 47.03125 -51.4375 48.5 -51.4375 L 49.765625 -51.4375 Z M 5.875 -38.421875 C 5.664062 -38.492188 5.703125 -38.566406 5.984375 -38.640625 C 6.546875 -38.640625 9.066406 -38.640625 13.546875 -38.640625 L 21.734375 -38.640625 L 21.84375 -34.546875 L 21.9375 -31.078125 C 22.363281 -33.660156 23.660156 -35.691406 25.828125 -37.171875 C 25.898438 -37.234375 26.039062 -37.335938 26.25 -37.484375 C 27.019531 -38.035156 28.453125 -38.363281 30.546875 -38.46875 C 32.648438 -38.582031 39.6875 -38.640625 51.65625 -38.640625 C 54.664062 -38.640625 56.972656 -38.640625 58.578125 -38.640625 L 88.296875 -38.640625 L 88.296875 -22.25 L 73.484375 -22.25 L 73.484375 -27.296875 L 47.65625 -27.40625 L 21.734375 -27.40625 L 21.734375 -22.25 L 7.03125 -22.25 L 7.03125 -29.703125 C 7.03125 -29.847656 7.03125 -29.988281 7.03125 -30.125 C 7.03125 -33.976562 6.976562 -36.253906 6.875 -36.953125 C 6.769531 -37.648438 6.4375 -38.140625 5.875 -38.421875 Z M 38.953125 -25.296875 C 38.804688 -25.367188 38.875 -25.40625 39.15625 -25.40625 C 39.644531 -25.476562 42.203125 -25.546875 46.828125 -25.609375 L 55.21875 -25.609375 L 55.21875 -21.625 L 83.25 -21.625 L 83.140625 -10.703125 C 83.140625 -4.753906 83.085938 -1.238281 82.984375 -0.15625 C 82.878906 0.925781 82.550781 2.03125 82 3.15625 C 81.71875 3.851562 81.101562 4.65625 80.15625 5.5625 C 79.207031 6.46875 78.347656 7.164062 77.578125 7.65625 C 76.535156 8.15625 75.46875 8.457031 74.375 8.5625 C 73.289062 8.664062 70.753906 8.71875 66.765625 8.71875 L 59.625 8.71875 L 59.625 -3.25 L 62.578125 -3.359375 C 64.109375 -3.359375 65.101562 -3.410156 65.5625 -3.515625 C 66.019531 -3.617188 66.5625 -3.988281 67.1875 -4.625 C 68.03125 -5.457031 68.488281 -6.679688 68.5625 -8.296875 L 68.65625 -9.765625 L 55.21875 -9.765625 L 55.21875 11.546875 L 49.453125 11.546875 C 46.296875 11.472656 43.773438 11.4375 41.890625 11.4375 L 40.109375 11.4375 L 40.109375 -9.765625 L 26.140625 -9.765625 L 26.140625 8.71875 L 11.234375 8.71875 L 11.234375 -5.25 C 11.234375 -5.601562 11.234375 -6.195312 11.234375 -7.03125 C 11.234375 -13.539062 11.179688 -17.351562 11.078125 -18.46875 C 10.972656 -19.59375 10.675781 -20.363281 10.1875 -20.78125 C 10.113281 -20.851562 10.039062 -20.890625 9.96875 -20.890625 L 9.34375 -21.625 L 26.140625 -21.625 L 26.25 -17.84375 L 26.34375 -14.703125 L 26.34375 -14.796875 C 26.695312 -16.265625 27.535156 -17.628906 28.859375 -18.890625 C 30.191406 -20.148438 31.628906 -20.957031 33.171875 -21.3125 C 33.867188 -21.519531 35.203125 -21.625 37.171875 -21.625 L 40.109375 -21.625 L 40.109375 -22.671875 C 40.109375 -24.078125 39.722656 -24.953125 38.953125 -25.296875 Z M 38.953125 -25.296875 "/></g></g></g><g fill="#ffffff" fill-opacity="1"><g transform="translate(327.677231, 406.492465)"><g><path d="M 32.234375 -74.328125 C 31.878906 -74.460938 31.945312 -74.53125 32.4375 -74.53125 C 33 -74.601562 35.625 -74.640625 40.3125 -74.640625 C 46.257812 -74.640625 49.234375 -74.601562 49.234375 -74.53125 C 49.234375 -74.46875 49.039062 -73.507812 48.65625 -71.65625 C 48.269531 -69.800781 48.046875 -68.734375 47.984375 -68.453125 C 47.910156 -67.960938 47.875 -67.644531 47.875 -67.5 C 47.875 -67.363281 54.695312 -67.296875 68.34375 -67.296875 L 88.71875 -67.296875 L 88.71875 -53.640625 L 42 -53.640625 L 40.53125 -51.125 L 39.265625 -48.8125 L 60.78125 -48.71875 L 82.3125 -48.71875 L 82.3125 -22.578125 L 82.203125 3.46875 L 81.890625 4.71875 C 81.191406 6.539062 80.140625 8.015625 78.734375 9.140625 C 77.265625 10.460938 75.585938 11.226562 73.703125 11.4375 C 72.785156 11.582031 69.144531 11.65625 62.78125 11.65625 L 53.015625 11.65625 L 53.015625 -1.890625 L 57.953125 -2 L 62.890625 -2 L 63.828125 -2.625 C 64.460938 -2.90625 65.023438 -3.328125 65.515625 -3.890625 C 65.578125 -3.953125 65.644531 -4.019531 65.71875 -4.09375 C 66.28125 -4.726562 66.59375 -5.65625 66.65625 -6.875 C 66.726562 -8.101562 66.765625 -12.078125 66.765625 -18.796875 C 66.765625 -19.492188 66.765625 -20.050781 66.765625 -20.46875 L 66.765625 -34.4375 L 30.03125 -34.4375 L 30.03125 -30.546875 L 46.296875 -30.546875 L 62.46875 -30.453125 L 62.46875 -20.6875 L 30.03125 -20.6875 L 30.03125 -16.375 L 62.578125 -16.375 L 62.578125 -5.984375 L 30.03125 -5.984375 L 30.03125 2.734375 C 30.03125 8.535156 29.957031 11.472656 29.8125 11.546875 C 29.601562 11.617188 27.222656 11.65625 22.671875 11.65625 L 15.859375 11.65625 L 15.859375 10.921875 C 15.859375 10.847656 15.859375 10.441406 15.859375 9.703125 C 15.859375 8.972656 15.859375 7.976562 15.859375 6.71875 C 15.859375 5.457031 15.859375 4.054688 15.859375 2.515625 C 15.859375 0.972656 15.859375 -0.789062 15.859375 -2.78125 C 15.859375 -4.78125 15.859375 -6.722656 15.859375 -8.609375 C 15.785156 -21.140625 15.726562 -27.40625 15.6875 -27.40625 C 15.65625 -27.40625 15.394531 -27.300781 14.90625 -27.09375 C 13.925781 -26.457031 12.226562 -25.523438 9.8125 -24.296875 C 7.394531 -23.078125 6.050781 -22.46875 5.78125 -22.46875 C 5.78125 -22.46875 5.78125 -25.234375 5.78125 -30.765625 L 5.78125 -39.046875 L 7.453125 -40 C 13.816406 -43.425781 19.066406 -47.207031 23.203125 -51.34375 L 25.296875 -53.546875 L 15.53125 -53.640625 L 5.78125 -53.640625 L 5.78125 -67.296875 L 32.65625 -67.296875 L 33.0625 -69.296875 C 33.488281 -70.898438 33.648438 -72.050781 33.546875 -72.75 C 33.441406 -73.445312 33.003906 -73.972656 32.234375 -74.328125 Z M 32.234375 -74.328125 "/></g></g></g><g fill="#ffffff" fill-opacity="1"><g transform="translate(422.161685, 406.492465)"><g><path d="M 21 -74.53125 C 20.851562 -74.601562 21.179688 -74.640625 21.984375 -74.640625 C 22.796875 -74.640625 23.953125 -74.640625 25.453125 -74.640625 C 26.960938 -74.640625 28.660156 -74.640625 30.546875 -74.640625 L 40.421875 -74.640625 L 40.625 -72.75 C 40.695312 -71.769531 40.695312 -69.707031 40.625 -66.5625 L 40.625 -62.15625 L 72.234375 -62.15625 L 72.234375 -34.640625 L 72.328125 -7.03125 L 72.75 -6.40625 C 73.03125 -5.914062 73.414062 -5.492188 73.90625 -5.140625 C 74.46875 -4.796875 75.148438 -4.601562 75.953125 -4.5625 C 76.753906 -4.53125 78.171875 -4.617188 80.203125 -4.828125 C 85.109375 -5.460938 87.945312 -5.8125 88.71875 -5.875 C 89.90625 -6.082031 90.53125 -6.15625 90.59375 -6.09375 C 90.664062 -5.945312 90.703125 -3.671875 90.703125 0.734375 L 90.703125 7.453125 L 89.65625 7.5625 C 88.039062 7.695312 84.3125 7.957031 78.46875 8.34375 C 72.625 8.726562 69.179688 8.921875 68.140625 8.921875 C 66.035156 8.921875 64.40625 8.707031 63.25 8.28125 C 62.09375 7.863281 60.921875 7.132812 59.734375 6.09375 C 58.054688 4.550781 57.078125 2.800781 56.796875 0.84375 C 56.660156 0.144531 56.59375 -8.21875 56.59375 -24.25 L 56.59375 -48.296875 L 40.53125 -48.296875 L 40.421875 -43.890625 C 40.140625 -31.847656 36.988281 -20.859375 30.96875 -10.921875 C 27.820312 -5.671875 24.269531 -1.316406 20.3125 2.140625 C 16.363281 5.609375 11.726562 8.394531 6.40625 10.5 L 4.203125 11.34375 L 4.09375 7.5625 C 4.09375 4.96875 4.09375 2.0625 4.09375 -1.15625 L 4.203125 -5.984375 L 5.875 -7.03125 C 11.96875 -11.164062 16.34375 -16.03125 19 -21.625 C 21.445312 -26.664062 23.09375 -32.195312 23.9375 -38.21875 C 24.5625 -41.71875 24.875 -44.617188 24.875 -46.921875 L 24.875 -48.296875 L 6.296875 -48.296875 L 6.296875 -62.15625 L 24.875 -62.15625 L 24.78125 -66.5625 C 24.78125 -69.425781 24.601562 -71.175781 24.25 -71.8125 C 23.550781 -73.132812 22.46875 -74.039062 21 -74.53125 Z M 21 -74.53125 "/></g></g></g><g fill="#ffffff" fill-opacity="1"><g transform="translate(91.520572, 527.986044)"><g><path d="M 71.171875 -68.5625 L 71.171875 -71.390625 L 70.546875 -72.015625 L 70.03125 -72.65625 L 85.25 -72.65625 L 85.25 -56.90625 L 71.171875 -56.90625 Z M 7.140625 -47.140625 C 7.066406 -47.210938 7.867188 -47.25 9.546875 -47.25 C 11.234375 -47.25 13.5625 -47.265625 16.53125 -47.296875 C 19.507812 -47.328125 22.78125 -47.34375 26.34375 -47.34375 L 45.875 -47.34375 L 45.875 -29.8125 C 45.875 -18.050781 45.835938 -12.066406 45.765625 -11.859375 L 45.671875 -11.34375 L 9.234375 -11.34375 L 9.234375 -28.03125 C 9.234375 -39.15625 9.164062 -44.929688 9.03125 -45.359375 C 8.882812 -45.773438 8.632812 -46.175781 8.28125 -46.5625 C 7.9375 -46.945312 7.554688 -47.140625 7.140625 -47.140625 Z M 29.390625 -30.125 L 29.390625 -35.171875 L 18.796875 -35.171875 L 18.796875 -25.09375 L 29.390625 -25.09375 Z M 5.359375 -0.734375 L 5.359375 -7.453125 L 45.875 -7.453125 L 45.875 6.09375 L 5.359375 6.09375 Z M 85.25 -61.3125 L 85.25 -51.015625 L 65.296875 -51.015625 L 65.40625 -45.25 C 65.476562 -38.738281 66.035156 -33.421875 67.078125 -29.296875 L 67.5 -27.296875 L 68.03125 -28.5625 C 68.9375 -30.9375 69.632812 -33.628906 70.125 -36.640625 C 70.332031 -37.972656 70.503906 -39.703125 70.640625 -41.828125 C 70.785156 -43.960938 70.828125 -45.453125 70.765625 -46.296875 L 70.65625 -47.5625 L 84.203125 -47.5625 L 84.09375 -43.359375 C 84.019531 -39.296875 83.703125 -35.691406 83.140625 -32.546875 C 82.097656 -26.171875 80.242188 -20.289062 77.578125 -14.90625 L 76.328125 -12.390625 L 76.953125 -11.859375 C 79.472656 -9.691406 81.78125 -8.046875 83.875 -6.921875 C 84.789062 -6.578125 85.878906 -6.125 87.140625 -5.5625 L 89.03125 -4.71875 L 89.03125 3.15625 C 89.09375 8.46875 89.09375 11.125 89.03125 11.125 C 88.394531 11.125 86.429688 10.492188 83.140625 9.234375 C 77.472656 6.992188 72.226562 3.8125 67.40625 -0.3125 C 67.257812 -0.457031 66.769531 -0.144531 65.9375 0.625 C 62.988281 3.351562 59.378906 5.769531 55.109375 7.875 C 50.984375 10.039062 48.394531 11.125 47.34375 11.125 C 47.132812 11.125 47.03125 8.253906 47.03125 2.515625 L 47.03125 -5.984375 L 49.234375 -7.03125 C 50.566406 -7.664062 51.757812 -8.332031 52.8125 -9.03125 C 53.507812 -9.519531 54.46875 -10.234375 55.6875 -11.171875 C 56.914062 -12.117188 57.632812 -12.769531 57.84375 -13.125 C 58.050781 -13.332031 57.769531 -14.242188 57 -15.859375 C 55.113281 -20.335938 53.75 -24.953125 52.90625 -29.703125 C 51.925781 -35.515625 51.4375 -41.328125 51.4375 -47.140625 L 51.4375 -51.015625 L 28.5625 -51.015625 C 13.226562 -51.015625 5.523438 -51.085938 5.453125 -51.234375 C 5.453125 -51.648438 5.453125 -53.941406 5.453125 -58.109375 C 5.453125 -62.273438 5.453125 -64.390625 5.453125 -64.453125 C 5.523438 -64.671875 13.226562 -64.78125 28.5625 -64.78125 L 51.4375 -64.78125 L 51.4375 -67.40625 C 51.4375 -69.21875 51.265625 -70.441406 50.921875 -71.078125 C 50.429688 -72.191406 49.585938 -73.03125 48.390625 -73.59375 L 47.453125 -74.125 L 65.296875 -74.125 L 65.296875 -64.78125 L 85.25 -64.78125 Z M 85.25 -61.3125 "/></g></g></g><g fill="#ffffff" fill-opacity="1"><g transform="translate(186.005027, 527.986044)"><g><path d="M 21 -74.53125 C 20.851562 -74.601562 21.179688 -74.640625 21.984375 -74.640625 C 22.796875 -74.640625 23.953125 -74.640625 25.453125 -74.640625 C 26.960938 -74.640625 28.660156 -74.640625 30.546875 -74.640625 L 40.421875 -74.640625 L 40.625 -72.75 C 40.695312 -71.769531 40.695312 -69.707031 40.625 -66.5625 L 40.625 -62.15625 L 72.234375 -62.15625 L 72.234375 -34.640625 L 72.328125 -7.03125 L 72.75 -6.40625 C 73.03125 -5.914062 73.414062 -5.492188 73.90625 -5.140625 C 74.46875 -4.796875 75.148438 -4.601562 75.953125 -4.5625 C 76.753906 -4.53125 78.171875 -4.617188 80.203125 -4.828125 C 85.109375 -5.460938 87.945312 -5.8125 88.71875 -5.875 C 89.90625 -6.082031 90.53125 -6.15625 90.59375 -6.09375 C 90.664062 -5.945312 90.703125 -3.671875 90.703125 0.734375 L 90.703125 7.453125 L 89.65625 7.5625 C 88.039062 7.695312 84.3125 7.957031 78.46875 8.34375 C 72.625 8.726562 69.179688 8.921875 68.140625 8.921875 C 66.035156 8.921875 64.40625 8.707031 63.25 8.28125 C 62.09375 7.863281 60.921875 7.132812 59.734375 6.09375 C 58.054688 4.550781 57.078125 2.800781 56.796875 0.84375 C 56.660156 0.144531 56.59375 -8.21875 56.59375 -24.25 L 56.59375 -48.296875 L 40.53125 -48.296875 L 40.421875 -43.890625 C 40.140625 -31.847656 36.988281 -20.859375 30.96875 -10.921875 C 27.820312 -5.671875 24.269531 -1.316406 20.3125 2.140625 C 16.363281 5.609375 11.726562 8.394531 6.40625 10.5 L 4.203125 11.34375 L 4.09375 7.5625 C 4.09375 4.96875 4.09375 2.0625 4.09375 -1.15625 L 4.203125 -5.984375 L 5.875 -7.03125 C 11.96875 -11.164062 16.34375 -16.03125 19 -21.625 C 21.445312 -26.664062 23.09375 -32.195312 23.9375 -38.21875 C 24.5625 -41.71875 24.875 -44.617188 24.875 -46.921875 L 24.875 -48.296875 L 6.296875 -48.296875 L 6.296875 -62.15625 L 24.875 -62.15625 L 24.78125 -66.5625 C 24.78125 -69.425781 24.601562 -71.175781 24.25 -71.8125 C 23.550781 -73.132812 22.46875 -74.039062 21 -74.53125 Z M 21 -74.53125 "/></g></g></g><g fill="#ffffff" fill-opacity="1"><g transform="translate(280.594465, 527.986044)"><g><path d="M 51.34375 -74.125 L 64.5625 -74.125 L 64.671875 -72.75 C 64.804688 -70.65625 64.734375 -68.695312 64.453125 -66.875 L 64.359375 -66.140625 L 88.1875 -66.140625 L 88.1875 -32.75 C 88.1875 -10.5 88.148438 1.007812 88.078125 1.78125 C 87.734375 3.394531 86.878906 4.953125 85.515625 6.453125 C 84.148438 7.960938 82.660156 8.960938 81.046875 9.453125 C 80.273438 9.660156 78.664062 9.867188 76.21875 10.078125 C 68.445312 10.640625 63.160156 10.921875 60.359375 10.921875 L 59.421875 10.921875 L 59.421875 -2.734375 L 59.84375 -2.828125 C 60.050781 -2.828125 61.800781 -2.898438 65.09375 -3.046875 C 68.445312 -3.179688 70.367188 -3.285156 70.859375 -3.359375 C 71.285156 -3.429688 71.742188 -3.660156 72.234375 -4.046875 C 72.722656 -4.429688 73.035156 -4.832031 73.171875 -5.25 C 73.316406 -5.601562 73.390625 -13.617188 73.390625 -29.296875 L 73.390625 -52.59375 L 60.046875 -52.59375 L 58.6875 -50.5 C 56.238281 -46.644531 52.738281 -43.492188 48.1875 -41.046875 C 47.070312 -40.421875 46.441406 -40.140625 46.296875 -40.203125 C 46.015625 -40.628906 45.875 -43.113281 45.875 -47.65625 L 45.875 -55.21875 L 46.40625 -55.75 C 47.382812 -56.65625 48.328125 -58.054688 49.234375 -59.953125 C 50.640625 -62.890625 51.34375 -66.5625 51.34375 -70.96875 Z M 18.578125 -73.703125 C 19.703125 -73.835938 20.472656 -73.867188 20.890625 -73.796875 C 21.304688 -73.734375 23.507812 -73.703125 27.5 -73.703125 L 33.390625 -73.703125 L 33.390625 -65.09375 L 39.046875 -65.09375 L 44.71875 -64.984375 L 44.71875 -27.1875 L 44.828125 10.703125 L 7.765625 10.703125 L 7.765625 -63.625 L 7.03125 -64.359375 L 6.40625 -65.09375 L 18.375 -65.09375 L 18.375 -68.5625 C 18.375 -70.375 18.335938 -71.523438 18.265625 -72.015625 C 18.191406 -72.503906 17.945312 -72.925781 17.53125 -73.28125 L 17.109375 -73.703125 Z M 31.390625 -27.40625 L 31.390625 -51.859375 L 21.109375 -51.859375 L 21.109375 -31.921875 L 28.234375 -31.921875 L 28.234375 -19.109375 L 21.109375 -19.109375 L 21.109375 -3.046875 L 31.390625 -3.046875 Z M 52.8125 -41.671875 L 52.28125 -42.203125 L 67.5 -42.203125 L 67.5 -37.90625 C 67.5 -28.664062 67.5 -20.960938 67.5 -14.796875 L 67.5 -8.8125 L 53.4375 -8.8125 L 53.4375 -24.984375 L 53.328125 -41.15625 Z M 52.8125 -41.671875 "/></g></g></g><g fill="#ffffff" fill-opacity="1"><g transform="translate(374.973937, 527.986044)"><g><path d="M 6.71875 -72.546875 L 24.78125 -72.546875 L 24.78125 -63.9375 L 25.203125 -65.09375 C 26.460938 -68.3125 28.769531 -70.550781 32.125 -71.8125 L 33.484375 -72.4375 L 60.890625 -72.4375 L 88.296875 -72.546875 L 88.1875 -36.53125 C 88.1875 -12.59375 88.082031 -0.347656 87.875 0.203125 C 87.3125 2.171875 86.296875 3.941406 84.828125 5.515625 C 83.359375 7.085938 81.644531 8.1875 79.6875 8.8125 L 78.109375 9.453125 L 69.078125 9.453125 L 60.046875 9.546875 L 60.046875 -4.296875 L 64.453125 -4.40625 L 68.875 -4.515625 L 69.921875 -5.046875 C 71.035156 -5.671875 71.875 -6.578125 72.4375 -7.765625 C 72.644531 -8.253906 72.785156 -16.9375 72.859375 -33.8125 L 72.859375 -59 L 24.78125 -59 L 24.78125 9.546875 L 16.90625 9.453125 L 9.140625 9.453125 L 9.140625 -30.453125 C 9.140625 -50.390625 9.140625 -62.054688 9.140625 -65.453125 C 9.140625 -68.847656 9.03125 -70.6875 8.8125 -70.96875 C 8.539062 -71.382812 8.125 -71.734375 7.5625 -72.015625 Z M 26.984375 -50.8125 L 26.984375 -56.484375 L 69.921875 -56.484375 L 69.921875 -45.25 L 26.984375 -45.25 Z M 26.671875 -40.53125 C 26.316406 -40.59375 28.726562 -40.625 33.90625 -40.625 L 41.671875 -40.734375 L 41.78125 -36.328125 L 41.78125 -32.015625 L 42.09375 -32.96875 C 42.65625 -34.644531 43.566406 -36.148438 44.828125 -37.484375 C 46.578125 -39.160156 48.503906 -40.175781 50.609375 -40.53125 C 51.441406 -40.664062 54.519531 -40.734375 59.84375 -40.734375 L 67.921875 -40.734375 L 67.921875 -6.71875 L 28.453125 -6.71875 L 28.453125 -22.671875 C 28.453125 -31.285156 28.414062 -36.238281 28.34375 -37.53125 C 28.269531 -38.820312 27.988281 -39.644531 27.5 -40 C 27.289062 -40.28125 27.015625 -40.457031 26.671875 -40.53125 Z M 54.59375 -23.40625 L 54.59375 -28.96875 L 41.671875 -28.96875 L 41.671875 -17.84375 L 54.59375 -17.84375 Z M 54.59375 -23.40625 "/></g></g></g><g fill="#ffffff" fill-opacity="1"><g transform="translate(469.458391, 527.986044)"><g><path d="M 38.640625 -73.59375 C 38.359375 -73.664062 41.015625 -73.703125 46.609375 -73.703125 L 55.015625 -73.703125 L 55.015625 -68.875 L 87.234375 -68.875 L 87.234375 -55.75 L 52.703125 -55.75 C 33.660156 -55.820312 20.257812 -55.859375 12.5 -55.859375 L 6.828125 -55.859375 L 6.828125 -68.875 L 40.109375 -68.875 L 40.109375 -69.8125 C 40.242188 -71.914062 39.753906 -73.175781 38.640625 -73.59375 Z M 19 -53.75 C 18.71875 -53.820312 18.753906 -53.859375 19.109375 -53.859375 C 19.734375 -53.929688 22.253906 -53.96875 26.671875 -53.96875 L 35.0625 -53.96875 L 35.0625 -47.34375 L 60.46875 -47.34375 L 60.359375 -50.078125 L 60.265625 -52.90625 L 59.625 -53.546875 L 59 -53.96875 L 74.859375 -53.96875 L 74.859375 -47.34375 L 89.453125 -47.34375 L 89.453125 -34.4375 L 47.453125 -34.546875 L 5.453125 -34.546875 L 5.359375 -40.9375 L 5.359375 -47.34375 L 20.265625 -47.34375 L 20.265625 -49.65625 C 20.265625 -51.894531 19.84375 -53.257812 19 -53.75 Z M 10.1875 -31.390625 C 9.976562 -31.523438 10.046875 -31.59375 10.390625 -31.59375 C 10.953125 -31.664062 13.539062 -31.703125 18.15625 -31.703125 L 26.671875 -31.703125 L 26.671875 -25.203125 L 27.09375 -26.140625 C 27.582031 -27.472656 28.421875 -28.628906 29.609375 -29.609375 C 30.796875 -30.585938 32.085938 -31.21875 33.484375 -31.5 C 34.253906 -31.632812 42.796875 -31.703125 59.109375 -31.703125 L 83.78125 -31.703125 L 83.671875 -13.96875 C 83.671875 -5.070312 83.648438 0.160156 83.609375 1.734375 C 83.578125 3.304688 83.457031 4.335938 83.25 4.828125 C 82.132812 7.703125 80.316406 9.554688 77.796875 10.390625 C 77.160156 10.535156 75.460938 10.625 72.703125 10.65625 C 69.941406 10.6875 60.507812 10.703125 44.40625 10.703125 L 12.078125 10.703125 L 11.96875 -9.453125 C 11.894531 -23.023438 11.789062 -29.914062 11.65625 -30.125 C 11.375 -30.613281 10.882812 -31.035156 10.1875 -31.390625 Z M 69.703125 -11.765625 L 69.703125 -19.109375 L 26.671875 -19.109375 L 26.671875 -14.90625 L 65.40625 -14.90625 L 65.40625 -4.9375 L 26.671875 -4.9375 L 26.671875 -1.46875 L 46.515625 -1.46875 C 59.597656 -1.46875 66.347656 -1.539062 66.765625 -1.6875 C 67.816406 -1.957031 68.625 -2.582031 69.1875 -3.5625 L 69.609375 -4.296875 Z M 69.703125 -11.765625 "/></g></g></g><g fill="#ffffff" fill-opacity="1"><g transform="translate(563.942869, 527.986044)"><g><path d="M 42.9375 -74.4375 C 44.195312 -74.4375 47.066406 -74.46875 51.546875 -74.53125 L 55.953125 -74.53125 L 55.953125 -74.125 C 55.890625 -73.90625 55.890625 -72.890625 55.953125 -71.078125 L 55.953125 -68.34375 L 89.03125 -68.34375 L 89.03125 -45.25 L 77.578125 -45.25 L 77.578125 -38.421875 L 76.640625 -37.484375 C 74.890625 -35.734375 72.265625 -33.804688 68.765625 -31.703125 C 66.878906 -30.515625 64.988281 -29.5 63.09375 -28.65625 C 63.09375 -28.65625 63.285156 -28.65625 63.671875 -28.65625 C 64.054688 -28.65625 64.632812 -28.640625 65.40625 -28.609375 C 66.175781 -28.578125 67.101562 -28.5625 68.1875 -28.5625 C 69.269531 -28.5625 70.507812 -28.5625 71.90625 -28.5625 C 73.3125 -28.5625 74.785156 -28.5625 76.328125 -28.5625 L 89.65625 -28.5625 L 89.65625 -15.21875 L 56.0625 -15.21875 L 56.0625 -7.765625 C 56.0625 -4.054688 56.023438 -1.625 55.953125 -0.46875 C 55.890625 0.6875 55.785156 1.613281 55.640625 2.3125 C 55.078125 5.039062 53.675781 7.242188 51.4375 8.921875 C 49.625 10.390625 47.523438 11.195312 45.140625 11.34375 C 44.234375 11.40625 40.664062 11.4375 34.4375 11.4375 L 24.984375 11.34375 L 24.984375 5.359375 C 24.910156 1.222656 24.875 -1.050781 24.875 -1.46875 L 24.984375 -2.203125 L 30.96875 -2.203125 C 35.03125 -2.203125 37.234375 -2.238281 37.578125 -2.3125 C 39.328125 -2.65625 40.414062 -3.703125 40.84375 -5.453125 C 40.976562 -5.734375 41.046875 -7.453125 41.046875 -10.609375 L 41.046875 -15.21875 L 4.9375 -15.21875 L 4.9375 -28.5625 L 41.78125 -28.5625 L 41.78125 -30.65625 L 43.046875 -31.28125 C 45.984375 -32.75 48.46875 -34.046875 50.5 -35.171875 C 50.84375 -35.378906 51.296875 -35.640625 51.859375 -35.953125 C 52.421875 -36.265625 52.769531 -36.457031 52.90625 -36.53125 C 54.238281 -37.300781 55.222656 -37.894531 55.859375 -38.3125 L 56.265625 -38.640625 L 54.59375 -38.640625 C 53.46875 -38.640625 46.992188 -38.671875 35.171875 -38.734375 L 17.53125 -38.734375 L 17.53125 -45.25 L 6.609375 -45.25 L 6.609375 -45.671875 C 6.546875 -45.953125 6.53125 -49.519531 6.5625 -56.375 C 6.59375 -63.238281 6.578125 -66.773438 6.515625 -66.984375 C 6.441406 -67.191406 6.28125 -67.4375 6.03125 -67.71875 C 5.789062 -68 5.597656 -68.140625 5.453125 -68.140625 C 5.390625 -68.203125 6.300781 -68.25 8.1875 -68.28125 C 10.070312 -68.320312 12.066406 -68.34375 14.171875 -68.34375 C 16.273438 -68.34375 18.0625 -68.34375 19.53125 -68.34375 L 21.734375 -68.34375 L 21.84375 -64.453125 L 21.9375 -61.3125 C 22.363281 -64.039062 23.484375 -66 25.296875 -67.1875 C 25.992188 -67.675781 26.765625 -67.992188 27.609375 -68.140625 C 27.960938 -68.203125 30.203125 -68.269531 34.328125 -68.34375 L 40.625 -68.34375 L 40.625 -70.234375 C 40.695312 -71.421875 40.679688 -72.1875 40.578125 -72.53125 C 40.472656 -72.882812 40.28125 -73.238281 40 -73.59375 C 39.644531 -73.945312 39.363281 -74.15625 39.15625 -74.21875 L 41.265625 -74.4375 Z M 21.734375 -56.171875 L 21.734375 -50.921875 L 26.5625 -50.921875 C 33.769531 -51.054688 45.175781 -51.160156 60.78125 -51.234375 C 69.675781 -51.234375 74.140625 -51.25 74.171875 -51.28125 C 74.203125 -51.320312 74.21875 -52.09375 74.21875 -53.59375 C 74.21875 -55.101562 74.179688 -55.890625 74.109375 -55.953125 C 74.046875 -56.023438 65.335938 -56.097656 47.984375 -56.171875 Z M 21.734375 -56.171875 "/></g></g></g><g clip-path="url(#2acb8ffd13)"><path fill="#ffbf3f" d="M 141.296875 723.964844 L 608.707031 723.964844 L 608.707031 708.679688 L 542.945312 708.679688 L 542.945312 693.886719 L 608.59375 693.886719 L 593.472656 678.765625 L 156.441406 678.765625 L 141.296875 693.886719 L 206.945312 693.886719 L 206.945312 708.679688 L 141.296875 708.679688 Z M 64.175781 0.0390625 L 646.941406 0.0390625 L 646.941406 25.164062 L 653.113281 25.164062 L 653.113281 0.0390625 L 672.675781 0.0390625 L 672.675781 25.164062 L 678.84375 25.164062 L 678.84375 0.0390625 L 698.40625 0.0390625 L 698.40625 25.164062 L 704.574219 25.164062 L 704.574219 0.0390625 L 724.160156 0.0390625 L 724.160156 25.164062 L 730.328125 25.164062 L 730.328125 0.0390625 L 749.890625 0.0390625 L 749.890625 749.929688 L 622.355469 749.929688 L 622.355469 693.628906 L 595.714844 666.988281 L 154.246094 666.988281 L 127.578125 693.628906 L 127.578125 749.929688 L 0 749.929688 L 0 66.832031 L 62.28125 66.832031 L 62.28125 0.0390625 Z M 3.691406 49.5625 L 46.953125 49.5625 L 46.953125 3.707031 Z M 48.726562 53.136719 L 50.527344 53.136719 L 50.527344 0.0390625 L 0 0.0390625 L 0 53.136719 Z M 141.296875 736.820312 L 141.296875 748.035156 L 608.707031 748.035156 L 608.707031 736.820312 Z M 158.917969 3.824219 L 158.917969 28.949219 L 746.128906 28.949219 L 746.128906 746.144531 L 626.144531 746.144531 L 626.144531 692.0625 L 597.28125 663.203125 L 152.632812 663.203125 L 123.863281 692.0625 L 123.863281 746.144531 L 3.785156 746.144531 L 3.785156 70.617188 L 66.070312 70.617188 L 66.070312 3.824219 Z M 335.71875 694.402344 L 341.746094 697.882812 L 341.746094 704.894531 L 335.71875 708.378906 L 329.6875 704.894531 L 329.6875 697.882812 Z M 519.128906 686.710938 L 531.820312 694.027344 L 531.820312 708.679688 L 519.128906 716.019531 L 506.441406 708.679688 L 506.441406 694.144531 L 519.128906 686.828125 Z M 395.5 695.757812 L 400.359375 698.5625 L 400.359375 704.171875 L 395.5 706.976562 L 390.636719 704.171875 L 390.636719 698.5625 Z M 486.246094 689.121094 L 496.859375 695.242188 L 496.859375 707.488281 L 486.246094 713.613281 L 475.660156 707.488281 L 475.660156 695.242188 Z M 458.695312 691.128906 L 467.550781 696.246094 L 467.550781 706.484375 L 458.695312 711.578125 L 449.835938 706.484375 L 449.835938 696.246094 Z M 434.949219 692.859375 L 442.289062 697.113281 L 442.289062 705.597656 L 434.949219 709.847656 L 427.679688 705.597656 L 427.679688 697.113281 L 435.042969 692.859375 Z M 414.101562 694.402344 L 420.132812 697.882812 L 420.132812 704.894531 L 414.101562 708.378906 L 408.050781 704.894531 L 408.050781 697.882812 Z M 230.667969 686.710938 L 243.355469 694.027344 L 243.355469 708.679688 L 230.667969 716.019531 L 217.976562 708.679688 L 217.976562 694.144531 L 230.667969 686.828125 Z M 374.910156 695.757812 L 379.746094 698.5625 L 379.746094 704.171875 L 374.910156 706.976562 L 370.050781 704.171875 L 370.050781 698.5625 Z M 354.296875 695.757812 L 359.160156 698.5625 L 359.160156 704.171875 L 354.296875 706.976562 L 349.4375 704.171875 L 349.4375 698.5625 Z M 263.550781 689.121094 L 274.160156 695.242188 L 274.160156 707.488281 L 263.550781 713.613281 L 252.9375 707.488281 L 252.9375 695.242188 Z M 291.125 691.128906 L 299.984375 696.246094 L 299.984375 706.484375 L 291.125 711.578125 L 282.269531 706.484375 L 282.269531 696.246094 Z M 314.871094 692.859375 L 322.210938 697.113281 L 322.210938 705.597656 L 314.871094 709.847656 L 307.507812 705.597656 L 307.507812 697.113281 Z M 314.871094 692.859375 " fill-opacity="1" fill-rule="evenodd"/></g><g clip-path="url(#7d80198ae1)"><path stroke-linecap="butt" transform="matrix(0.74996, 0, 0, 0.74996, 0.00000265, 0.0396294)" fill="none" stroke-linejoin="miter" d="M -0.00000353352 -0.000755871 L -0.00000353352 1000.00001 L 1000.000762 1000.00001 L 1000.000762 -0.000755871 L -0.00000353352 -0.000755871 " stroke="#ffbf3f" stroke-width="18.00095" stroke-opacity="1" stroke-miterlimit="4"/></g><g clip-path="url(#d1bc9aecad)"><path fill="#ffbf3f" d="M 141.3125 719.816406 L 608.898438 719.816406 L 608.898438 750 L 141.3125 750 Z M 141.3125 719.816406 " fill-opacity="1" fill-rule="nonzero"/></g><g clip-path="url(#3e213a6e1b)"><path stroke-linecap="butt" transform="matrix(0.74996, 0, 0, 0.74996, 141.369634, 719.817633)" fill="none" stroke-linejoin="miter" d="M 0.00194622 -0.00163565 L 623.264051 -0.00163565 L 623.264051 40.234866 L 0.00194622 40.234866 Z M 0.00194622 -0.00163565 " stroke="#ffbf3f" stroke-width="18.00095" stroke-opacity="1" stroke-miterlimit="4"/></g><g clip-path="url(#08a0233791)"><path fill="#ffbf3f" d="M 322.546875 680.984375 L 424.722656 680.984375 L 424.722656 750 L 322.546875 750 Z M 322.546875 680.984375 " fill-opacity="1" fill-rule="nonzero"/></g><g clip-path="url(#c1b5fed124)"><path stroke-linecap="butt" transform="matrix(0.74996, 0, 0, 0.74996, 322.548328, 680.983115)" fill="none" stroke-linejoin="miter" d="M -0.00193708 0.00168034 L 136.213582 0.00168034 L 136.213582 92.016951 L -0.00193708 92.016951 Z M -0.00193708 0.00168034 " stroke="#ffbf3f" stroke-width="18.00095" stroke-opacity="1" stroke-miterlimit="4"/></g><g clip-path="url(#1cbabc43f0)"><path fill="#ffbf3f" d="M 64.59375 0 L 532.183594 0 L 532.183594 28.726562 L 64.59375 28.726562 Z M 64.59375 0 " fill-opacity="1" fill-rule="nonzero"/></g><g clip-path="url(#b64063147b)"><path stroke-linecap="butt" transform="matrix(0.74996, 0, 0, 0.74996, 64.632993, 0.00002)" fill="none" stroke-linejoin="miter" d="M -0.000240813 -0.0000266681 L 623.319099 -0.0000266681 L 623.319099 38.298869 L -0.000240813 38.298869 Z M -0.000240813 -0.0000266681 " stroke="#ffbf3f" stroke-width="18.00095" stroke-opacity="1" stroke-miterlimit="4"/></g><g fill="#ffffff" fill-opacity="1"><g transform="translate(330.987213, 730.216356)"><g><path d="M 3.640625 -42.234375 C 3.554688 -42.273438 3.617188 -42.316406 3.828125 -42.359375 C 4.035156 -42.398438 4.648438 -42.421875 5.671875 -42.421875 C 6.703125 -42.421875 8.179688 -42.421875 10.109375 -42.421875 L 16.875 -42.421875 L 16.875 4.765625 L 4.578125 4.765625 L 4.578125 -41.296875 L 4.265625 -41.671875 C 4.140625 -41.921875 3.929688 -42.109375 3.640625 -42.234375 Z M 18.578125 -42.421875 L 23.71875 -42.421875 C 25.101562 -42.421875 26.242188 -42.421875 27.140625 -42.421875 C 28.035156 -42.421875 28.710938 -42.398438 29.171875 -42.359375 C 31.054688 -42.234375 32.800781 -41.65625 34.40625 -40.625 C 36.019531 -39.601562 37.332031 -38.316406 38.34375 -36.765625 C 39.84375 -34.460938 40.550781 -31.992188 40.46875 -29.359375 C 40.425781 -28.359375 40.300781 -27.503906 40.09375 -26.796875 C 39.59375 -25.285156 38.710938 -23.960938 37.453125 -22.828125 C 36.203125 -21.703125 34.78125 -21.035156 33.1875 -20.828125 C 32.519531 -20.703125 32.164062 -20.617188 32.125 -20.578125 C 32.125 -20.492188 32.3125 -20.453125 32.6875 -20.453125 C 34.070312 -20.453125 35.304688 -20.203125 36.390625 -19.703125 C 37.484375 -19.203125 38.414062 -18.519531 39.1875 -17.65625 C 39.957031 -16.800781 40.582031 -15.804688 41.0625 -14.671875 C 41.550781 -13.546875 41.859375 -12.335938 41.984375 -11.046875 C 42.191406 -8.492188 41.726562 -6.109375 40.59375 -3.890625 C 39.71875 -2.003906 38.492188 -0.394531 36.921875 0.9375 C 35.359375 2.28125 33.613281 3.285156 31.6875 3.953125 C 31.1875 4.160156 30.707031 4.316406 30.25 4.421875 C 29.789062 4.523438 29.367188 4.597656 28.984375 4.640625 C 28.566406 4.679688 27.921875 4.703125 27.046875 4.703125 C 26.171875 4.703125 25.019531 4.703125 23.59375 4.703125 L 18.578125 4.765625 L 18.578125 -3.890625 L 21.65625 -3.890625 C 22.488281 -3.890625 23.164062 -3.898438 23.6875 -3.921875 C 24.207031 -3.941406 24.613281 -3.972656 24.90625 -4.015625 C 25.375 -4.054688 25.921875 -4.222656 26.546875 -4.515625 C 26.921875 -4.765625 27.304688 -5.109375 27.703125 -5.546875 C 28.097656 -5.992188 28.378906 -6.425781 28.546875 -6.84375 C 28.960938 -7.71875 29.148438 -8.738281 29.109375 -9.90625 C 29.066406 -11.082031 28.835938 -12.085938 28.421875 -12.921875 C 28.210938 -13.296875 27.910156 -13.671875 27.515625 -14.046875 C 27.117188 -14.429688 26.753906 -14.707031 26.421875 -14.875 C 25.835938 -15.207031 25.3125 -15.394531 24.84375 -15.4375 C 24.59375 -15.476562 24.207031 -15.5 23.6875 -15.5 C 23.164062 -15.5 22.488281 -15.5 21.65625 -15.5 L 18.578125 -15.5 L 18.578125 -24.71875 L 21.078125 -24.71875 C 21.878906 -24.71875 22.53125 -24.71875 23.03125 -24.71875 C 23.53125 -24.71875 23.882812 -24.738281 24.09375 -24.78125 C 25.351562 -25.070312 26.328125 -25.71875 27.015625 -26.71875 C 27.703125 -27.726562 27.941406 -28.882812 27.734375 -30.1875 C 27.523438 -31.144531 27.203125 -31.882812 26.765625 -32.40625 C 26.328125 -32.925781 25.8125 -33.3125 25.21875 -33.5625 C 24.632812 -33.820312 23.988281 -33.972656 23.28125 -34.015625 C 22.570312 -34.054688 21.816406 -34.078125 21.015625 -34.078125 L 18.578125 -34.078125 Z M 18.578125 -42.421875 "/></g></g></g><g fill="#ffffff" fill-opacity="1"><g transform="translate(375.478049, 730.216356)"><g><path d="M 20.828125 -42.796875 C 24.890625 -42.796875 28.289062 -41.863281 31.03125 -40 C 33.769531 -38.132812 35.597656 -35.21875 36.515625 -31.25 C 36.554688 -30.914062 36.585938 -30.503906 36.609375 -30.015625 C 36.628906 -29.535156 36.640625 -28.960938 36.640625 -28.296875 C 36.640625 -27.253906 36.484375 -26.226562 36.171875 -25.21875 C 35.859375 -24.21875 35.453125 -23.265625 34.953125 -22.359375 C 34.453125 -21.460938 33.882812 -20.617188 33.25 -19.828125 C 32.625 -19.035156 31.976562 -18.328125 31.3125 -17.703125 C 29.96875 -16.484375 28.910156 -15.519531 28.140625 -14.8125 C 27.367188 -14.101562 26.773438 -13.578125 26.359375 -13.234375 C 23.554688 -10.804688 21.796875 -9.238281 21.078125 -8.53125 C 19.953125 -7.488281 19.097656 -6.359375 18.515625 -5.140625 L 18.328125 -4.828125 L 28.109375 -4.828125 C 34.390625 -4.828125 37.53125 -4.785156 37.53125 -4.703125 C 37.488281 -4.367188 37.445312 -3.972656 37.40625 -3.515625 C 37.320312 -3.140625 37.242188 -2.65625 37.171875 -2.0625 C 37.109375 -1.476562 37.015625 -0.789062 36.890625 0 C 36.679688 1.550781 36.523438 2.710938 36.421875 3.484375 C 36.316406 4.253906 36.265625 4.660156 36.265625 4.703125 C 36.265625 4.742188 30.867188 4.765625 20.078125 4.765625 L 3.828125 4.765625 L 3.828125 1.875 C 3.828125 0.125 3.929688 -1.332031 4.140625 -2.5 C 4.347656 -3.675781 4.679688 -4.734375 5.140625 -5.671875 C 5.597656 -6.617188 6.210938 -7.519531 6.984375 -8.375 C 7.765625 -9.226562 8.722656 -10.222656 9.859375 -11.359375 C 11.859375 -13.367188 13.925781 -15.3125 16.0625 -17.1875 C 17.53125 -18.53125 18.804688 -19.710938 19.890625 -20.734375 C 20.972656 -21.765625 21.851562 -22.632812 22.53125 -23.34375 C 23.195312 -24.050781 23.75 -24.695312 24.1875 -25.28125 C 24.625 -25.875 24.945312 -26.378906 25.15625 -26.796875 C 25.414062 -27.335938 25.546875 -28.035156 25.546875 -28.890625 C 25.546875 -29.753906 25.4375 -30.457031 25.21875 -31 C 24.175781 -32.925781 22.546875 -33.890625 20.328125 -33.890625 C 19.617188 -33.890625 18.945312 -33.769531 18.3125 -33.53125 C 17.6875 -33.300781 17.164062 -32.957031 16.75 -32.5 C 15.664062 -31.457031 15.0625 -29.867188 14.9375 -27.734375 L 14.875 -26.796875 L 14.4375 -26.734375 L 3.515625 -26.734375 L 3.578125 -27.484375 C 3.785156 -29.910156 4.347656 -32.070312 5.265625 -33.96875 C 6.191406 -35.875 7.40625 -37.472656 8.90625 -38.765625 C 10.414062 -40.066406 12.179688 -41.0625 14.203125 -41.75 C 16.234375 -42.445312 18.441406 -42.796875 20.828125 -42.796875 Z M 20.828125 -42.796875 "/></g></g></g></svg>