<svg xmlns="http://www.w3.org/2000/svg" xmlns:xlink="http://www.w3.org/1999/xlink" width="1000" zoomAndPan="magnify" viewBox="0 0 750 749.999995" height="1000" preserveAspectRatio="xMidYMid meet" version="1.0"><defs><g/><clipPath id="f967ae9cfc"><path d="M 0.898438 0.941406 L 749.058594 0.941406 L 749.058594 749.101562 L 0.898438 749.101562 Z M 0.898438 0.941406 " clip-rule="nonzero"/></clipPath><clipPath id="55050edee2"><path d="M 0 0.0390625 L 749.960938 0.0390625 L 749.960938 750 L 0 750 Z M 0 0.0390625 " clip-rule="nonzero"/></clipPath><clipPath id="5c58bb9092"><path d="M 141.3125 719.816406 L 608.859375 719.816406 L 608.859375 750 L 141.3125 750 Z M 141.3125 719.816406 " clip-rule="nonzero"/></clipPath><clipPath id="eb22775021"><path d="M 141.371094 719.816406 L 608.535156 719.816406 L 608.535156 749.816406 L 141.371094 749.816406 Z M 141.371094 719.816406 " clip-rule="nonzero"/></clipPath><clipPath id="876c45ebf1"><path d="M 322.546875 680.984375 L 424.710938 680.984375 L 424.710938 750 L 322.546875 750 Z M 322.546875 680.984375 " clip-rule="nonzero"/></clipPath><clipPath id="ff7c8938a5"><path d="M 322.546875 680.984375 L 424.539062 680.984375 L 424.539062 749.980469 L 322.546875 749.980469 Z M 322.546875 680.984375 " clip-rule="nonzero"/></clipPath><clipPath id="24d3f15def"><path d="M 64.59375 0 L 532.144531 0 L 532.144531 28.726562 L 64.59375 28.726562 Z M 64.59375 0 " clip-rule="nonzero"/></clipPath><clipPath id="67a37f9a5a"><path d="M 64.632812 0 L 531.820312 0 L 531.820312 28.5 L 64.632812 28.5 Z M 64.632812 0 " clip-rule="nonzero"/></clipPath></defs><rect x="-75" width="900" fill="#ffffff" y="-74.999999" height="899.999994" fill-opacity="1"/><rect x="-75" width="900" fill="#000000" y="-74.999999" height="899.999994" fill-opacity="1"/><g fill="#ffffff" fill-opacity="1"><g transform="translate(173.350218, 345.767457)"><g><path d="M 29.390625 -37.6875 L 35.484375 -37.6875 C 37.234375 -37.6875 38.632812 -37.703125 39.6875 -37.734375 C 40.738281 -37.773438 41.472656 -37.832031 41.890625 -37.90625 C 42.660156 -37.96875 43.640625 -38.28125 44.828125 -38.84375 C 46.296875 -39.613281 47.378906 -40.769531 48.078125 -42.3125 C 49.054688 -44.476562 49.234375 -46.785156 48.609375 -49.234375 C 47.972656 -51.828125 46.535156 -53.539062 44.296875 -54.375 L 43.25 -55.015625 L 36.328125 -55.109375 L 31.703125 -55.109375 L 31.703125 -70.96875 C 35.273438 -70.96875 38.160156 -70.96875 40.359375 -70.96875 C 42.566406 -70.96875 44.300781 -70.96875 45.5625 -70.96875 C 46.820312 -70.96875 47.726562 -70.945312 48.28125 -70.90625 C 48.84375 -70.875 49.234375 -70.859375 49.453125 -70.859375 C 55.398438 -70.367188 60.15625 -68.671875 63.71875 -65.765625 C 67.289062 -62.867188 69.640625 -58.441406 70.765625 -52.484375 C 71.671875 -46.753906 71.019531 -41.960938 68.8125 -38.109375 C 66.613281 -34.253906 63.097656 -31.945312 58.265625 -31.1875 L 56.796875 -31.078125 L 58.15625 -30.765625 C 62.78125 -30.054688 65.929688 -27.78125 67.609375 -23.9375 C 68.097656 -22.957031 68.5 -21.519531 68.8125 -19.625 C 69.132812 -17.738281 69.429688 -15.328125 69.703125 -12.390625 C 70.546875 -1.472656 70.96875 5.070312 70.96875 7.25 L 70.96875 7.984375 L 48.71875 7.984375 L 48.5 7.03125 C 48.425781 6.613281 48.375 5.894531 48.34375 4.875 C 48.3125 3.863281 48.222656 2.585938 48.078125 1.046875 C 47.453125 -10.492188 46.613281 -17.382812 45.5625 -19.625 C 45.207031 -20.332031 44.019531 -20.894531 42 -21.3125 C 41.226562 -21.445312 38.878906 -21.585938 34.953125 -21.734375 L 29.390625 -21.734375 L 29.390625 7.984375 L 8.078125 7.984375 L 8.078125 -30.234375 C 8.148438 -39.472656 8.164062 -46.820312 8.125 -52.28125 C 8.09375 -57.738281 8.078125 -61.414062 8.078125 -63.3125 C 7.941406 -66.875 7.800781 -68.796875 7.65625 -69.078125 C 7.3125 -69.921875 6.753906 -70.515625 5.984375 -70.859375 C 6.398438 -70.859375 6.890625 -70.859375 7.453125 -70.859375 C 8.015625 -70.859375 8.660156 -70.875 9.390625 -70.90625 C 10.128906 -70.945312 10.988281 -70.96875 11.96875 -70.96875 L 29.390625 -70.96875 Z M 29.390625 -37.6875 "/></g></g></g><g fill="#ffffff" fill-opacity="1"><g transform="translate(251.142425, 345.767457)"><g><path d="M 33.59375 -70.859375 C 33.664062 -70.929688 36.222656 -70.96875 41.265625 -70.96875 L 48.8125 -70.96875 L 48.8125 7.984375 L 28.34375 7.984375 L 28.34375 -50.8125 L 19.625 -50.8125 L 19.625 -56.171875 C 19.625 -60.441406 19.660156 -62.75 19.734375 -63.09375 L 19.734375 -64.78125 L 21.109375 -64.984375 C 24.046875 -65.335938 26.878906 -66.28125 29.609375 -67.8125 C 30.234375 -68.238281 31.035156 -68.800781 32.015625 -69.5 C 32.992188 -70.195312 33.519531 -70.648438 33.59375 -70.859375 Z M 33.59375 -70.859375 "/></g></g></g><g fill="#ffffff" fill-opacity="1"><g transform="translate(319.381197, 345.767457)"><g><path d="M 30.859375 -71.390625 L 34.328125 -71.390625 C 40.765625 -71.523438 46.015625 -70.507812 50.078125 -68.34375 C 56.378906 -65.332031 59.945312 -60.710938 60.78125 -54.484375 C 60.851562 -53.921875 60.890625 -53.203125 60.890625 -52.328125 C 60.890625 -51.453125 60.867188 -50.5625 60.828125 -49.65625 C 60.796875 -48.75 60.742188 -47.890625 60.671875 -47.078125 C 60.609375 -46.273438 60.503906 -45.628906 60.359375 -45.140625 C 59.171875 -40.585938 56.796875 -37.191406 53.234375 -34.953125 C 52.597656 -34.679688 52.28125 -34.472656 52.28125 -34.328125 C 52.28125 -34.328125 52.5625 -34.15625 53.125 -33.8125 C 54.875 -32.96875 56.394531 -31.878906 57.6875 -30.546875 C 58.976562 -29.222656 60.046875 -27.738281 60.890625 -26.09375 C 61.734375 -24.445312 62.363281 -22.695312 62.78125 -20.84375 C 63.195312 -18.988281 63.40625 -17.148438 63.40625 -15.328125 C 63.476562 -12.523438 63.128906 -9.9375 62.359375 -7.5625 C 61.304688 -4.34375 59.78125 -1.703125 57.78125 0.359375 C 55.789062 2.429688 53.484375 4.078125 50.859375 5.296875 C 48.234375 6.523438 45.414062 7.363281 42.40625 7.8125 C 39.40625 8.269531 36.398438 8.5 33.390625 8.5 C 30.722656 8.5 27.988281 8.253906 25.1875 7.765625 C 22.394531 7.273438 19.738281 6.46875 17.21875 5.34375 C 14.695312 4.226562 12.4375 2.757812 10.4375 0.9375 C 8.445312 -0.875 6.925781 -3.144531 5.875 -5.875 C 5.039062 -8.050781 4.515625 -10.257812 4.296875 -12.5 C 4.085938 -14.738281 4.191406 -16.90625 4.609375 -19 C 5.035156 -21.101562 5.738281 -23.097656 6.71875 -24.984375 C 7.695312 -26.878906 8.957031 -28.5625 10.5 -30.03125 C 10.914062 -30.375 11.367188 -30.71875 11.859375 -31.0625 C 12.347656 -31.414062 12.875 -31.804688 13.4375 -32.234375 C 14.625 -33.066406 15.320312 -33.484375 15.53125 -33.484375 C 16.164062 -33.484375 15.921875 -33.867188 14.796875 -34.640625 C 9.898438 -38.421875 7.242188 -43.320312 6.828125 -49.34375 C 6.472656 -54.519531 7.90625 -59 11.125 -62.78125 C 12.457031 -64.382812 13.875 -65.691406 15.375 -66.703125 C 16.882812 -67.722656 18.460938 -68.546875 20.109375 -69.171875 C 21.753906 -69.804688 23.484375 -70.28125 25.296875 -70.59375 C 27.117188 -70.914062 28.972656 -71.179688 30.859375 -71.390625 Z M 33.8125 -58.15625 C 33.457031 -58.15625 33.15625 -58.140625 32.90625 -58.109375 C 32.664062 -58.078125 32.367188 -58.023438 32.015625 -57.953125 C 29.773438 -57.597656 28.203125 -56.6875 27.296875 -55.21875 C 26.390625 -53.75 25.96875 -51.613281 26.03125 -48.8125 C 26.175781 -46.363281 26.878906 -44.4375 28.140625 -43.03125 C 29.398438 -41.632812 31.253906 -40.9375 33.703125 -40.9375 C 34.472656 -40.9375 35.222656 -40.988281 35.953125 -41.09375 C 36.691406 -41.207031 37.34375 -41.398438 37.90625 -41.671875 C 38.394531 -41.953125 38.9375 -42.40625 39.53125 -43.03125 C 40.125 -43.664062 40.5625 -44.226562 40.84375 -44.71875 C 41.394531 -45.769531 41.707031 -47.117188 41.78125 -48.765625 C 41.851562 -50.410156 41.75 -51.828125 41.46875 -53.015625 C 40.90625 -54.835938 39.941406 -56.148438 38.578125 -56.953125 C 37.210938 -57.753906 35.625 -58.15625 33.8125 -58.15625 Z M 37.375 -26.453125 C 36.957031 -26.597656 36.378906 -26.722656 35.640625 -26.828125 C 34.910156 -26.929688 34.191406 -26.984375 33.484375 -26.984375 C 32.296875 -26.984375 31.28125 -26.789062 30.4375 -26.40625 C 29.601562 -26.019531 28.765625 -25.40625 27.921875 -24.5625 C 26.378906 -22.601562 25.578125 -19.910156 25.515625 -16.484375 C 25.367188 -12.984375 26.03125 -10.253906 27.5 -8.296875 C 28.269531 -7.316406 29.285156 -6.597656 30.546875 -6.140625 C 31.804688 -5.679688 33.03125 -5.453125 34.21875 -5.453125 C 35.6875 -5.453125 36.960938 -5.75 38.046875 -6.34375 C 39.140625 -6.945312 40.015625 -7.71875 40.671875 -8.65625 C 41.335938 -9.601562 41.828125 -10.6875 42.140625 -11.90625 C 42.460938 -13.132812 42.625 -14.414062 42.625 -15.75 C 42.550781 -16.726562 42.441406 -17.757812 42.296875 -18.84375 C 42.160156 -19.925781 41.898438 -20.972656 41.515625 -21.984375 C 41.128906 -23.003906 40.601562 -23.914062 39.9375 -24.71875 C 39.28125 -25.53125 38.425781 -26.109375 37.375 -26.453125 Z M 37.375 -26.453125 "/></g></g></g><g fill="#ffffff" fill-opacity="1"><g transform="translate(387.619969, 345.767457)"><g><path d="M 24.046875 -73.28125 C 23.765625 -73.488281 23.640625 -73.609375 23.671875 -73.640625 C 23.703125 -73.679688 26.550781 -73.703125 32.21875 -73.703125 C 37.894531 -73.703125 40.769531 -73.664062 40.84375 -73.59375 C 40.90625 -73.59375 40.757812 -72.613281 40.40625 -70.65625 C 40.0625 -68.695312 39.75 -67.296875 39.46875 -66.453125 C 39.332031 -65.890625 39.265625 -65.578125 39.265625 -65.515625 C 39.054688 -64.742188 38.8125 -64.078125 38.53125 -63.515625 C 38.53125 -63.441406 38.425781 -63.160156 38.21875 -62.671875 C 37.445312 -60.503906 36.289062 -58.125 34.75 -55.53125 C 34.332031 -54.90625 33.789062 -54.132812 33.125 -53.21875 C 32.457031 -52.3125 31.878906 -51.507812 31.390625 -50.8125 C 30.898438 -50.113281 30.617188 -49.800781 30.546875 -49.875 L 30.453125 -49.765625 C 30.453125 -49.617188 29.734375 -48.828125 28.296875 -47.390625 C 26.859375 -45.960938 25.859375 -45.003906 25.296875 -44.515625 C 24.671875 -44.023438 24.253906 -43.707031 24.046875 -43.5625 L 23.71875 -43.359375 L 48.71875 -43.359375 C 65.300781 -43.359375 73.59375 -43.375 73.59375 -43.40625 C 73.59375 -43.445312 73.414062 -43.609375 73.0625 -43.890625 C 69.5 -46.191406 66.210938 -49.269531 63.203125 -53.125 C 59.835938 -57.601562 57.390625 -62.117188 55.859375 -66.671875 C 55.015625 -69.179688 54.453125 -71.421875 54.171875 -73.390625 L 54.0625 -73.703125 L 69.296875 -73.703125 L 69.390625 -73.171875 C 69.597656 -71.566406 70.125 -69.851562 70.96875 -68.03125 C 72.507812 -64.8125 74.503906 -61.976562 76.953125 -59.53125 C 79.890625 -56.582031 83.351562 -54.203125 87.34375 -52.390625 C 88.53125 -51.828125 89.195312 -51.507812 89.34375 -51.4375 L 89.546875 -51.34375 L 89.546875 -47.5625 C 89.546875 -40.351562 89.546875 -36.75 89.546875 -36.75 C 89.484375 -36.675781 88.398438 -36.953125 86.296875 -37.578125 C 85.035156 -38.003906 83.953125 -38.359375 83.046875 -38.640625 C 82.765625 -38.773438 82.625 -38.804688 82.625 -38.734375 C 82.625 -33.066406 82.625 -26.769531 82.625 -19.84375 C 82.625 -7.382812 82.585938 -0.835938 82.515625 -0.203125 C 82.171875 2.523438 81.050781 4.765625 79.15625 6.515625 C 77.820312 7.910156 76.109375 8.851562 74.015625 9.34375 C 73.597656 9.476562 69.082031 9.546875 60.46875 9.546875 C 51.925781 9.546875 47.585938 9.546875 47.453125 9.546875 L 47.25 9.546875 L 47.25 -3.671875 L 55.328125 -3.671875 C 59.660156 -3.671875 62.195312 -3.671875 62.9375 -3.671875 C 63.675781 -3.671875 64.320312 -3.8125 64.875 -4.09375 C 65.582031 -4.507812 66.144531 -5.140625 66.5625 -5.984375 C 66.769531 -6.335938 66.890625 -6.671875 66.921875 -6.984375 C 66.960938 -7.296875 67.015625 -11.195312 67.078125 -18.6875 L 67.078125 -29.8125 L 49.03125 -29.8125 L 48.921875 -29.296875 C 48.921875 -29.078125 48.921875 -28.863281 48.921875 -28.65625 C 48.921875 -28.375 48.765625 -27.425781 48.453125 -25.8125 C 48.140625 -24.207031 47.984375 -23.335938 47.984375 -23.203125 C 47.984375 -23.203125 47.945312 -23.0625 47.875 -22.78125 C 47.800781 -22.082031 47.5 -20.925781 46.96875 -19.3125 C 46.445312 -17.707031 46.015625 -16.554688 45.671875 -15.859375 C 44.335938 -12.847656 42.757812 -10.113281 40.9375 -7.65625 C 38.695312 -4.65625 36.53125 -2.347656 34.4375 -0.734375 C 34.226562 -0.597656 34.019531 -0.421875 33.8125 -0.203125 C 33.175781 0.285156 32.546875 0.703125 31.921875 1.046875 C 31.566406 1.328125 31.320312 1.503906 31.1875 1.578125 C 31.039062 1.785156 30.945312 1.890625 30.90625 1.890625 C 30.875 1.890625 30.648438 1.992188 30.234375 2.203125 C 28.203125 3.460938 25.894531 4.6875 23.3125 5.875 C 21.132812 6.789062 19.941406 7.25 19.734375 7.25 C 19.734375 7.25 19.382812 7.382812 18.6875 7.65625 C 17.425781 8.15625 15.394531 8.753906 12.59375 9.453125 C 9.800781 10.148438 7.84375 10.535156 6.71875 10.609375 L 6.1875 10.703125 L 6.1875 3.25 C 6.1875 -1.71875 6.238281 -4.21875 6.34375 -4.25 C 6.457031 -4.28125 6.722656 -4.332031 7.140625 -4.40625 C 8.191406 -4.613281 9.734375 -5.070312 11.765625 -5.78125 C 13.929688 -6.476562 16.238281 -7.457031 18.6875 -8.71875 C 20.71875 -9.757812 22.921875 -11.367188 25.296875 -13.546875 C 26.421875 -14.523438 27.644531 -15.816406 28.96875 -17.421875 C 29.53125 -18.191406 30.269531 -19.382812 31.1875 -21 C 32.300781 -22.957031 33.101562 -24.773438 33.59375 -26.453125 C 34.007812 -28.273438 34.21875 -29.394531 34.21875 -29.8125 C 34.21875 -29.882812 30.582031 -29.882812 23.3125 -29.8125 L 12.28125 -29.8125 L 12.28125 -32.96875 C 12.28125 -35.132812 12.257812 -36.234375 12.21875 -36.265625 C 12.1875 -36.304688 11.925781 -36.222656 11.4375 -36.015625 C 10.945312 -35.867188 10.351562 -35.691406 9.65625 -35.484375 C 9.03125 -35.203125 8.539062 -35.023438 8.1875 -34.953125 C 6.15625 -34.328125 5.070312 -34.082031 4.9375 -34.21875 C 4.9375 -34.21875 4.9375 -36.6875 4.9375 -41.625 C 4.9375 -46.5625 4.9375 -49.03125 4.9375 -49.03125 C 5.21875 -49.164062 5.460938 -49.304688 5.671875 -49.453125 C 9.171875 -51.203125 12.25 -53.125 14.90625 -55.21875 C 17.351562 -57.175781 19.421875 -59.273438 21.109375 -61.515625 C 21.453125 -62.003906 21.867188 -62.632812 22.359375 -63.40625 C 22.847656 -64.175781 23.300781 -64.945312 23.71875 -65.71875 C 24.144531 -66.488281 24.515625 -67.207031 24.828125 -67.875 C 25.140625 -68.539062 25.332031 -69.046875 25.40625 -69.390625 C 25.613281 -70.085938 25.613281 -70.789062 25.40625 -71.5 C 25.269531 -72.195312 24.816406 -72.789062 24.046875 -73.28125 Z M 24.046875 -73.28125 "/></g></g></g><g fill="#ffffff" fill-opacity="1"><g transform="translate(482.104423, 345.767457)"><g><path d="M 17.640625 -74.53125 C 17.429688 -74.675781 17.328125 -74.765625 17.328125 -74.796875 C 17.328125 -74.835938 18.09375 -74.820312 19.625 -74.75 C 21.03125 -74.75 23.484375 -74.75 26.984375 -74.75 L 31.703125 -74.75 L 31.8125 -67.8125 C 31.8125 -66.769531 31.8125 -65.617188 31.8125 -64.359375 C 31.8125 -63.097656 31.8125 -62.148438 31.8125 -61.515625 C 31.8125 -60.890625 31.8125 -60.539062 31.8125 -60.46875 L 31.8125 -60.15625 L 38.640625 -60.15625 C 43.253906 -60.15625 45.5625 -60.15625 45.5625 -60.15625 C 45.632812 -60.082031 45.632812 -57.703125 45.5625 -53.015625 L 45.5625 -50.078125 L 40.625 -50.078125 C 37.332031 -50.148438 35.0625 -50.148438 33.8125 -50.078125 L 31.8125 -50.078125 L 31.8125 -30.96875 L 25.296875 -30.96875 L 18.6875 -31.078125 L 18.6875 -40.53125 C 18.6875 -46.894531 18.6875 -50.078125 18.6875 -50.078125 C 18.613281 -50.148438 15.988281 -50.1875 10.8125 -50.1875 L 4.71875 -50.1875 L 4.71875 -55.109375 C 4.65625 -58.398438 4.625 -60.0625 4.625 -60.09375 C 4.625 -60.132812 6.96875 -60.15625 11.65625 -60.15625 L 18.6875 -60.15625 L 18.6875 -66.453125 C 18.6875 -70.722656 18.648438 -72.960938 18.578125 -73.171875 C 18.441406 -73.734375 18.128906 -74.1875 17.640625 -74.53125 Z M 46.40625 -71.921875 L 89.96875 -71.921875 L 89.96875 -66.25 C 89.96875 -65.757812 89.96875 -65.300781 89.96875 -64.875 C 89.96875 -64.457031 89.96875 -64.054688 89.96875 -63.671875 C 89.96875 -63.285156 89.945312 -62.914062 89.90625 -62.5625 C 89.875 -62.21875 89.859375 -61.921875 89.859375 -61.671875 C 89.859375 -61.429688 89.859375 -61.207031 89.859375 -61 C 89.859375 -60.789062 89.859375 -60.648438 89.859375 -60.578125 C 89.859375 -60.503906 89.859375 -60.46875 89.859375 -60.46875 C 89.859375 -60.46875 87.375 -60.46875 82.40625 -60.46875 L 74.859375 -60.46875 L 74.859375 -59.734375 C 74.785156 -59.316406 74.75 -58.757812 74.75 -58.0625 C 74.675781 -57.289062 74.601562 -56.765625 74.53125 -56.484375 L 74.53125 -55.859375 L 89.03125 -55.859375 L 89.03125 -47.140625 C 89.03125 -21.734375 89.03125 -8.328125 89.03125 -6.921875 L 89.03125 -5.25 L 72.234375 -5.25 C 59.835938 -5.320312 52.976562 -5.359375 51.65625 -5.359375 L 47.875 -5.359375 L 47.875 -29.703125 C 47.875 -45.941406 47.835938 -54.164062 47.765625 -54.375 C 47.484375 -55.007812 46.925781 -55.46875 46.09375 -55.75 L 53.328125 -55.859375 L 60.890625 -55.859375 L 60.78125 -58.15625 L 60.78125 -60.46875 L 53.96875 -60.46875 C 49.488281 -60.46875 47.160156 -60.484375 46.984375 -60.515625 C 46.804688 -60.554688 46.71875 -60.613281 46.71875 -60.6875 C 46.71875 -60.894531 46.679688 -61.171875 46.609375 -61.515625 C 46.472656 -61.941406 46.40625 -64.460938 46.40625 -69.078125 Z M 76.21875 -30.546875 L 76.21875 -45.25 L 60.890625 -45.25 L 60.78125 -44.09375 C 60.78125 -42.96875 60.816406 -42.160156 60.890625 -41.671875 C 60.890625 -41.609375 62.882812 -41.578125 66.875 -41.578125 C 70.863281 -41.578125 73 -41.578125 73.28125 -41.578125 L 73.484375 -41.46875 L 73.484375 -32.328125 L 67.1875 -32.328125 L 60.78125 -32.234375 L 60.78125 -28.5625 L 73.484375 -28.5625 L 73.484375 -19.421875 L 67.1875 -19.421875 C 62.988281 -19.421875 60.851562 -19.351562 60.78125 -19.21875 C 60.78125 -19.070312 60.78125 -18.546875 60.78125 -17.640625 L 60.78125 -16.0625 L 76.21875 -16.0625 Z M 4.9375 -71.5 C 4.789062 -71.5625 4.859375 -71.59375 5.140625 -71.59375 C 5.492188 -71.664062 7.175781 -71.703125 10.1875 -71.703125 L 15.640625 -71.703125 L 15.640625 -61.515625 L 6.40625 -61.515625 L 6.40625 -65.71875 C 6.40625 -68.519531 6.367188 -70.023438 6.296875 -70.234375 C 5.953125 -70.796875 5.5 -71.21875 4.9375 -71.5 Z M 33.8125 -71.703125 L 38.953125 -71.703125 L 44.09375 -71.59375 L 44.09375 -66.984375 C 44.09375 -63.972656 44.09375 -62.328125 44.09375 -62.046875 L 44.09375 -61.515625 L 34.859375 -61.515625 L 34.859375 -62.25 C 34.859375 -62.53125 34.820312 -64.84375 34.75 -69.1875 C 34.675781 -70.375 34.46875 -71.109375 34.125 -71.390625 Z M 7.25 -48.609375 C 8.15625 -48.609375 10.007812 -48.609375 12.8125 -48.609375 L 16.6875 -48.609375 L 16.6875 -47.875 C 16.6875 -47.382812 16.65625 -47.101562 16.59375 -47.03125 C 16.59375 -46.957031 16.554688 -46.222656 16.484375 -44.828125 C 16.484375 -43.429688 16.445312 -42.695312 16.375 -42.625 C 16.300781 -42.550781 16.160156 -41.359375 15.953125 -39.046875 C 15.890625 -38.066406 15.785156 -36.566406 15.640625 -34.546875 C 15.503906 -33.628906 15.398438 -33 15.328125 -32.65625 C 15.328125 -32.164062 15.304688 -31.882812 15.265625 -31.8125 C 15.234375 -31.738281 13.609375 -31.703125 10.390625 -31.703125 L 5.671875 -31.59375 L 5.78125 -32.4375 C 6.195312 -37.757812 6.441406 -41.050781 6.515625 -42.3125 C 6.578125 -43.21875 6.625 -44.28125 6.65625 -45.5 C 6.695312 -46.726562 6.664062 -47.484375 6.5625 -47.765625 C 6.457031 -48.046875 6.265625 -48.222656 5.984375 -48.296875 L 5.453125 -48.609375 Z M 33.8125 -48.5 C 34.082031 -48.5 35.84375 -48.5 39.09375 -48.5 C 42.351562 -48.5 44.054688 -48.5 44.203125 -48.5 L 44.515625 -48.5 L 44.40625 -40.109375 L 44.40625 -31.703125 L 39.6875 -31.703125 C 36.53125 -31.703125 34.9375 -31.703125 34.90625 -31.703125 C 34.875 -31.703125 34.820312 -33.628906 34.75 -37.484375 C 34.75 -43.148438 34.710938 -46.226562 34.640625 -46.71875 C 34.578125 -47.488281 34.300781 -48.015625 33.8125 -48.296875 L 33.484375 -48.5 Z M 20.6875 -29.5 C 25.019531 -29.5 28.625 -29.5 31.5 -29.5 L 31.921875 -29.5 L 31.921875 -24.359375 L 38.53125 -24.359375 C 39.019531 -24.359375 39.507812 -24.359375 40 -24.359375 C 40.488281 -24.359375 40.957031 -24.359375 41.40625 -24.359375 C 41.863281 -24.359375 42.285156 -24.359375 42.671875 -24.359375 C 43.054688 -24.359375 43.40625 -24.359375 43.71875 -24.359375 C 44.039062 -24.359375 44.304688 -24.359375 44.515625 -24.359375 C 44.722656 -24.359375 44.878906 -24.359375 44.984375 -24.359375 C 45.085938 -24.359375 45.140625 -24.359375 45.140625 -24.359375 C 45.210938 -24.359375 45.25 -22.328125 45.25 -18.265625 L 45.25 -12.28125 L 38.84375 -12.28125 L 32.4375 -12.171875 L 32.859375 -11.546875 C 33.628906 -10.078125 34.890625 -8.710938 36.640625 -7.453125 C 38.523438 -5.984375 40.726562 -5.003906 43.25 -4.515625 C 43.394531 -4.515625 43.550781 -4.492188 43.71875 -4.453125 C 43.894531 -4.421875 44.019531 -4.382812 44.09375 -4.34375 C 44.164062 -4.3125 44.234375 -4.296875 44.296875 -4.296875 L 44.515625 -4.296875 L 44.515625 2.625 C 44.515625 7.238281 44.441406 9.546875 44.296875 9.546875 C 44.023438 9.546875 42.660156 9.195312 40.203125 8.5 C 34.046875 6.820312 29.394531 4.269531 26.25 0.84375 L 25.828125 0.203125 L 24.46875 1.46875 C 22.988281 2.9375 21.410156 4.234375 19.734375 5.359375 C 18.546875 6.128906 17.359375 6.789062 16.171875 7.34375 C 12.109375 8.957031 8.257812 10.21875 4.625 11.125 C 4.40625 11.195312 4.226562 11.234375 4.09375 11.234375 C 4.09375 11.234375 4.070312 11.128906 4.03125 10.921875 C 4 10.710938 3.984375 10.328125 3.984375 9.765625 C 3.984375 9.203125 3.984375 8.460938 3.984375 7.546875 C 3.984375 6.640625 3.984375 5.421875 3.984375 3.890625 C 3.984375 -1.015625 4.019531 -3.46875 4.09375 -3.46875 C 4.300781 -3.46875 5 -3.625 6.1875 -3.9375 C 7.382812 -4.25 8.085938 -4.476562 8.296875 -4.625 C 8.296875 -4.625 8.609375 -4.726562 9.234375 -4.9375 C 10.492188 -5.5 11.367188 -5.953125 11.859375 -6.296875 C 12.003906 -6.441406 12.21875 -6.617188 12.5 -6.828125 C 12.769531 -6.960938 13.132812 -7.257812 13.59375 -7.71875 C 14.050781 -8.175781 14.523438 -8.648438 15.015625 -9.140625 C 15.503906 -9.628906 15.816406 -10.007812 15.953125 -10.28125 C 16.648438 -11.332031 17 -11.960938 17 -12.171875 C 17 -12.242188 14.9375 -12.28125 10.8125 -12.28125 L 4.515625 -12.28125 L 4.515625 -18.265625 C 4.515625 -22.328125 4.582031 -24.359375 4.71875 -24.359375 C 4.789062 -24.429688 6.296875 -24.445312 9.234375 -24.40625 C 12.171875 -24.375 13.75 -24.359375 13.96875 -24.359375 C 14.03125 -24.359375 14.03125 -24.320312 13.96875 -24.25 L 14.28125 -24.140625 C 15.539062 -24.285156 16.972656 -24.394531 18.578125 -24.46875 C 18.648438 -24.46875 18.6875 -24.601562 18.6875 -24.875 C 18.6875 -25.019531 18.648438 -25.25 18.578125 -25.5625 C 18.515625 -25.875 18.484375 -26.101562 18.484375 -26.25 C 18.335938 -27.789062 17.953125 -28.804688 17.328125 -29.296875 L 17 -29.5 Z M 59 -4.40625 C 62.144531 -4.40625 64.035156 -4.40625 64.671875 -4.40625 C 65.296875 -4.40625 65.820312 -4.40625 66.25 -4.40625 L 66.765625 -4.40625 L 66.671875 -2.9375 C 66.671875 -1.675781 66.492188 -0.59375 66.140625 0.3125 C 65.367188 2.832031 63.722656 4.96875 61.203125 6.71875 C 58.679688 8.675781 55.601562 10.003906 51.96875 10.703125 C 50.570312 10.984375 49 11.125 47.25 11.125 L 45.671875 11.125 L 45.5625 5.5625 L 45.5625 0 L 46.71875 -0.109375 C 48.882812 -0.242188 50.738281 -0.835938 52.28125 -1.890625 C 53.1875 -2.515625 53.78125 -3.144531 54.0625 -3.78125 C 54.207031 -4.0625 54.453125 -4.21875 54.796875 -4.25 C 55.148438 -4.28125 56.550781 -4.332031 59 -4.40625 Z M 69.703125 -4.515625 L 71.8125 -4.40625 C 72.925781 -4.40625 74.328125 -4.40625 76.015625 -4.40625 C 77.410156 -4.40625 78.109375 -4.332031 78.109375 -4.1875 C 78.109375 -4.050781 78.703125 -3.984375 79.890625 -3.984375 L 81.78125 -3.984375 L 82 -3.671875 C 83.394531 -1.578125 85.910156 -0.53125 89.546875 -0.53125 L 90.59375 -0.53125 L 90.59375 10.8125 L 89.765625 10.8125 C 86.398438 10.601562 83.265625 10.039062 80.359375 9.125 C 77.460938 8.21875 75.171875 7.066406 73.484375 5.671875 C 71.671875 4.054688 70.484375 2.097656 69.921875 -0.203125 C 69.566406 -1.742188 69.492188 -3.039062 69.703125 -4.09375 Z M 69.703125 -4.515625 "/></g></g></g><g fill="#ffffff" fill-opacity="1"><g transform="translate(186.005799, 467.261036)"><g><path d="M 15.328125 -74.4375 C 15.398438 -74.4375 18.09375 -74.4375 23.40625 -74.4375 L 31.390625 -74.4375 L 31.28125 -71.703125 C 31.21875 -65.117188 30.378906 -59.378906 28.765625 -54.484375 C 28.203125 -52.734375 27.363281 -50.492188 26.25 -47.765625 C 26.3125 -47.628906 26.484375 -47.5625 26.765625 -47.5625 L 27.5 -47.5625 L 27.5 11.34375 L 12.171875 11.34375 L 12.171875 -28.234375 L 11.4375 -27.5 C 10.601562 -26.800781 9.273438 -25.835938 7.453125 -24.609375 C 5.628906 -23.390625 4.613281 -22.78125 4.40625 -22.78125 C 4.332031 -22.78125 4.296875 -25.960938 4.296875 -32.328125 L 4.296875 -41.78125 L 5.046875 -42.40625 C 6.515625 -43.601562 8.035156 -45.285156 9.609375 -47.453125 C 11.179688 -49.617188 12.457031 -51.820312 13.4375 -54.0625 C 14.625 -56.582031 15.65625 -59.539062 16.53125 -62.9375 C 17.40625 -66.332031 17.84375 -68.867188 17.84375 -70.546875 C 17.84375 -71.878906 17.285156 -72.894531 16.171875 -73.59375 C 15.890625 -73.800781 15.675781 -73.972656 15.53125 -74.109375 C 15.394531 -74.253906 15.328125 -74.363281 15.328125 -74.4375 Z M 85.359375 -71.703125 C 86.265625 -71.847656 86.800781 -71.898438 86.96875 -71.859375 C 87.144531 -71.828125 87.269531 -71.707031 87.34375 -71.5 C 87.414062 -71.144531 87.453125 -68.796875 87.453125 -64.453125 L 87.453125 -57.84375 L 86.5 -57.84375 C 85.664062 -57.707031 82.867188 -57.535156 78.109375 -57.328125 C 73.765625 -57.109375 70.753906 -56.929688 69.078125 -56.796875 L 67.5 -56.6875 L 67.5 -38.53125 L 89.65625 -38.53125 L 89.65625 -24.46875 L 67.5 -24.46875 L 67.5 -5.359375 L 88.1875 -5.359375 L 88.1875 8.71875 L 32.234375 8.71875 L 32.234375 -5.359375 L 51.859375 -5.359375 L 51.859375 -24.46875 L 30.546875 -24.46875 L 30.546875 -38.53125 L 51.859375 -38.53125 L 51.859375 -56.0625 L 50.5 -55.953125 C 49.863281 -55.890625 47.007812 -55.734375 41.9375 -55.484375 C 36.863281 -55.234375 34.117188 -55.109375 33.703125 -55.109375 C 33.554688 -55.109375 33.46875 -55.40625 33.4375 -56 C 33.40625 -56.601562 33.390625 -58.582031 33.390625 -61.9375 L 33.390625 -68.875 L 34.125 -68.875 C 34.539062 -68.875 38.804688 -69.082031 46.921875 -69.5 C 48.535156 -69.632812 50.617188 -69.769531 53.171875 -69.90625 C 55.722656 -70.050781 57.734375 -70.175781 59.203125 -70.28125 C 60.679688 -70.382812 61.664062 -70.4375 62.15625 -70.4375 C 64.25 -70.582031 68.515625 -70.828125 74.953125 -71.171875 C 76.566406 -71.242188 78.195312 -71.332031 79.84375 -71.4375 C 81.488281 -71.539062 82.816406 -71.609375 83.828125 -71.640625 C 84.847656 -71.679688 85.359375 -71.703125 85.359375 -71.703125 Z M 85.359375 -71.703125 "/></g></g></g><g fill="#ffffff" fill-opacity="1"><g transform="translate(280.490254, 467.261036)"><g><path d="M 5.359375 -36.75 L 5.359375 -42.9375 L 90.1875 -42.9375 L 90.1875 -30.453125 L 5.359375 -30.453125 Z M 5.359375 -36.75 "/></g></g></g><g fill="#ffffff" fill-opacity="1"><g transform="translate(374.974709, 467.261036)"><g><path d="M 53.640625 -73.796875 C 53.367188 -73.941406 53.441406 -74.050781 53.859375 -74.125 C 54.347656 -74.125 56.304688 -74.125 59.734375 -74.125 L 66.453125 -74.125 L 66.5625 -72.96875 C 66.632812 -72.332031 66.632812 -70.722656 66.5625 -68.140625 L 66.453125 -64.453125 L 69.8125 -64.453125 L 69.8125 -68.453125 C 69.8125 -70.691406 69.773438 -72.003906 69.703125 -72.390625 C 69.640625 -72.773438 69.289062 -73.210938 68.65625 -73.703125 C 68.375 -73.835938 68.410156 -73.90625 68.765625 -73.90625 C 69.328125 -73.90625 71.53125 -73.90625 75.375 -73.90625 L 82.9375 -73.90625 L 82.9375 -64.453125 L 85.875 -64.453125 C 87.832031 -64.453125 88.882812 -64.347656 89.03125 -64.140625 C 89.03125 -64.078125 89.03125 -62.257812 89.03125 -58.6875 C 89.03125 -55.113281 89.03125 -53.117188 89.03125 -52.703125 C 88.957031 -52.628906 87.765625 -52.59375 85.453125 -52.59375 L 81.890625 -52.59375 L 81.78125 -51.96875 C 81.707031 -51.476562 81.671875 -50.078125 81.671875 -47.765625 L 81.671875 -44.203125 L 85.359375 -44.09375 L 89.03125 -43.984375 L 89.03125 -32.015625 L 85.453125 -31.921875 L 81.890625 -31.921875 L 81.78125 -30.453125 C 81.707031 -29.609375 81.671875 -28.378906 81.671875 -26.765625 L 81.671875 -24.671875 L 85.25 -24.671875 C 87.625 -24.671875 88.847656 -24.566406 88.921875 -24.359375 C 89.054688 -24.148438 89.125 -22.082031 89.125 -18.15625 L 89.234375 -12.390625 L 85.453125 -12.28125 L 81.671875 -12.28125 L 81.671875 -8.296875 C 81.671875 -5.628906 81.722656 -4.207031 81.828125 -4.03125 C 81.941406 -3.863281 83.222656 -3.78125 85.671875 -3.78125 C 88.046875 -3.851562 89.476562 -3.851562 89.96875 -3.78125 L 90.59375 -3.671875 L 90.59375 9.453125 L 52.078125 9.453125 L 51.96875 -12.90625 L 51.96875 -35.171875 L 50.8125 -34.21875 L 49.765625 -33.28125 L 49.765625 -41.78125 L 49.65625 -50.390625 L 50.5 -51.234375 C 51.820312 -52.773438 52.90625 -55.1875 53.75 -58.46875 C 54.59375 -61.757812 55.046875 -65.398438 55.109375 -69.390625 C 55.109375 -70.722656 55.09375 -71.53125 55.0625 -71.8125 C 55.03125 -72.09375 54.875 -72.441406 54.59375 -72.859375 C 54.3125 -73.273438 53.992188 -73.585938 53.640625 -73.796875 Z M 69.703125 -48.390625 L 69.703125 -52.59375 L 63.828125 -52.59375 L 63.09375 -50.8125 C 62.601562 -49.6875 62.359375 -49.085938 62.359375 -49.015625 C 62.359375 -48.953125 62.707031 -48.921875 63.40625 -48.921875 L 64.453125 -48.921875 L 64.453125 -44.09375 L 69.703125 -44.09375 Z M 69.703125 -28.34375 L 69.703125 -31.921875 L 64.453125 -31.921875 L 64.453125 -24.671875 L 65.09375 -24.671875 C 65.4375 -24.671875 66.34375 -24.671875 67.8125 -24.671875 L 69.703125 -24.78125 Z M 69.703125 -8.078125 L 69.703125 -12.390625 L 64.453125 -12.390625 L 64.453125 -3.890625 L 65.609375 -3.890625 C 67.359375 -3.890625 68.234375 -3.890625 68.234375 -3.890625 L 69.703125 -3.890625 Z M 5.78125 -71.390625 C 5.5 -71.597656 5.582031 -71.71875 6.03125 -71.75 C 6.488281 -71.789062 8.363281 -71.8125 11.65625 -71.8125 L 18.0625 -71.8125 L 18.15625 -70.96875 C 18.15625 -70.34375 18.15625 -68.800781 18.15625 -66.34375 L 18.0625 -62.78125 L 18.484375 -64.25 C 18.972656 -66 19.914062 -67.554688 21.3125 -68.921875 C 22.707031 -70.285156 24.28125 -71.144531 26.03125 -71.5 C 26.800781 -71.707031 30.757812 -71.8125 37.90625 -71.8125 L 48.609375 -71.8125 L 48.609375 -35.0625 C 48.609375 -10.5625 48.535156 2 48.390625 2.625 C 48.046875 4.238281 47.296875 5.726562 46.140625 7.09375 C 44.984375 8.457031 43.707031 9.382812 42.3125 9.875 C 41.613281 10.082031 39.300781 10.1875 35.375 10.1875 L 29.390625 10.28125 L 29.390625 -1.578125 L 32.234375 -1.6875 C 34.191406 -1.75 35.378906 -1.882812 35.796875 -2.09375 C 36.285156 -2.375 36.671875 -2.757812 36.953125 -3.25 C 37.097656 -3.675781 37.203125 -5.0625 37.265625 -7.40625 C 37.335938 -9.75 37.375 -17.078125 37.375 -29.390625 L 37.375 -59.21875 L 27.828125 -59.21875 C 21.523438 -59.21875 18.335938 -59.109375 18.265625 -58.890625 C 18.191406 -58.679688 18.15625 -51.191406 18.15625 -36.421875 C 18.15625 -24.460938 18.101562 -17.273438 18 -14.859375 C 17.894531 -12.441406 17.597656 -10.039062 17.109375 -7.65625 C 16.273438 -3.601562 14.859375 -0.0390625 12.859375 3.03125 C 10.867188 6.113281 8.398438 8.394531 5.453125 9.875 C 4.679688 10.289062 4.265625 10.5 4.203125 10.5 C 4.054688 10.5 3.984375 7.628906 3.984375 1.890625 C 4.054688 -2.234375 4.109375 -4.71875 4.140625 -5.5625 C 4.179688 -6.40625 4.304688 -6.929688 4.515625 -7.140625 C 5.359375 -8.328125 5.988281 -9.9375 6.40625 -11.96875 C 6.820312 -13.300781 7.066406 -15.628906 7.140625 -18.953125 C 7.210938 -22.273438 7.25 -30.65625 7.25 -44.09375 C 7.175781 -56.832031 7.117188 -64.335938 7.078125 -66.609375 C 7.046875 -68.890625 6.925781 -70.164062 6.71875 -70.4375 C 6.507812 -70.863281 6.195312 -71.179688 5.78125 -71.390625 Z M 21.84375 -57.734375 L 32.328125 -57.734375 L 32.328125 -54.375 L 35.796875 -54.375 L 35.796875 -45.25 L 32.328125 -45.25 L 32.328125 -40.203125 L 36.640625 -40.203125 L 36.640625 -31.1875 L 27.921875 -31.1875 L 19.109375 -31.28125 L 19.109375 -35.6875 L 19.21875 -40.109375 L 21.203125 -40.109375 L 23.3125 -40.203125 L 23.3125 -45.25 L 20.359375 -45.25 L 20.359375 -54.375 L 23.3125 -54.375 L 23.3125 -55.21875 C 23.3125 -56.132812 23.03125 -56.835938 22.46875 -57.328125 Z M 19.84375 -28.03125 C 19.914062 -28.101562 20.960938 -28.140625 22.984375 -28.140625 L 25.9375 -28.140625 L 26.03125 -26.984375 C 26.03125 -26.140625 26.03125 -25.507812 26.03125 -25.09375 L 26.140625 -24.25 L 26.34375 -24.78125 C 26.976562 -26.039062 27.960938 -26.984375 29.296875 -27.609375 C 29.921875 -27.890625 31.144531 -28.066406 32.96875 -28.140625 L 35.6875 -28.140625 L 35.796875 -15.859375 L 35.796875 -3.46875 L 19.625 -3.46875 L 19.625 -15.75 C 19.625 -23.863281 19.695312 -27.957031 19.84375 -28.03125 Z M 29.390625 -15.53125 L 29.390625 -19.3125 L 25.9375 -19.3125 L 25.9375 -11.765625 L 29.390625 -11.765625 Z M 29.390625 -15.53125 "/></g></g></g><g fill="#ffffff" fill-opacity="1"><g transform="translate(469.459163, 467.261036)"><g><path d="M 14.28125 -74.75 C 14.414062 -74.820312 15.078125 -74.820312 16.265625 -74.75 C 17.597656 -74.75 20.050781 -74.75 23.625 -74.75 C 27.257812 -74.75 29.113281 -74.710938 29.1875 -74.640625 C 29.257812 -74.640625 29.273438 -73.957031 29.234375 -72.59375 C 29.203125 -71.226562 29.148438 -70.128906 29.078125 -69.296875 C 28.796875 -67.191406 28.625 -65.859375 28.5625 -65.296875 C 28.5625 -65.222656 28.5625 -65.082031 28.5625 -64.875 L 28.5625 -64.78125 C 28.5625 -64.707031 28.734375 -64.753906 29.078125 -64.921875 C 29.429688 -65.097656 29.867188 -65.328125 30.390625 -65.609375 C 30.921875 -65.890625 31.359375 -66.101562 31.703125 -66.25 C 34.921875 -68.207031 37.054688 -70.832031 38.109375 -74.125 L 38.3125 -74.859375 L 45.03125 -74.859375 C 49.507812 -74.785156 51.75 -74.75 51.75 -74.75 C 51.96875 -74.601562 51.796875 -73.691406 51.234375 -72.015625 C 51.234375 -71.734375 51.300781 -71.59375 51.4375 -71.59375 C 51.582031 -71.53125 55.921875 -71.5 64.453125 -71.5 L 77.265625 -71.5 L 77.265625 -71.171875 C 77.265625 -70.335938 77.09375 -68.800781 76.75 -66.5625 C 76.257812 -64.039062 75.695312 -62.007812 75.0625 -60.46875 C 74.851562 -59.90625 74.710938 -59.59375 74.640625 -59.53125 L 76.109375 -59.3125 C 76.804688 -59.3125 78.382812 -59.3125 80.84375 -59.3125 C 84.96875 -59.382812 87.171875 -59.382812 87.453125 -59.3125 L 87.984375 -59.21875 L 87.984375 -46.828125 C 88.046875 -38.640625 88.046875 -34.4375 87.984375 -34.21875 L 87.984375 -34.015625 L 65.828125 -34.015625 L 65.9375 -33.171875 C 66.144531 -32.335938 66.492188 -31.007812 66.984375 -29.1875 L 67.1875 -28.34375 L 70.03125 -28.34375 C 71.707031 -28.34375 72.929688 -28.34375 73.703125 -28.34375 L 74.640625 -28.34375 L 74.75 -28.03125 C 75.101562 -26.351562 75.382812 -24.535156 75.59375 -22.578125 C 75.59375 -22.359375 75.625 -22.25 75.6875 -22.25 C 75.757812 -22.25 76.054688 -22.6875 76.578125 -23.5625 C 77.109375 -24.4375 77.476562 -25.117188 77.6875 -25.609375 C 78.945312 -28.066406 78.84375 -30.132812 77.375 -31.8125 L 77.15625 -32.125 L 89.34375 -32.125 L 89.34375 -31.5 C 89.34375 -29.257812 89.023438 -26.945312 88.390625 -24.5625 C 87.203125 -20.15625 84.929688 -16.484375 81.578125 -13.546875 C 81.503906 -13.472656 81.222656 -13.257812 80.734375 -12.90625 L 80.515625 -12.59375 L 81.46875 -11.546875 C 83.707031 -8.890625 86.332031 -6.929688 89.34375 -5.671875 L 90.390625 -5.140625 L 90.390625 8.5 L 90.1875 8.40625 C 88.15625 7.90625 86.4375 7.378906 85.03125 6.828125 C 82.375 5.703125 79.925781 4.265625 77.6875 2.515625 C 75.445312 0.765625 73.769531 -1.050781 72.65625 -2.9375 C 71.320312 -5.320312 70.335938 -7.25 69.703125 -8.71875 L 69.390625 -9.453125 L 69.296875 -3.890625 C 69.296875 -0.878906 69.273438 0.867188 69.234375 1.359375 C 69.203125 1.847656 69.082031 2.476562 68.875 3.25 C 68.382812 4.71875 67.367188 6.066406 65.828125 7.296875 C 64.285156 8.523438 62.5 9.414062 60.46875 9.96875 C 59.976562 10.113281 59.523438 10.253906 59.109375 10.390625 C 57.359375 10.878906 54.875 11.226562 51.65625 11.4375 C 50.738281 11.507812 48.789062 11.546875 45.8125 11.546875 C 42.84375 11.546875 41.21875 11.507812 40.9375 11.4375 C 40.875 11.375 40.859375 9.644531 40.890625 6.25 C 40.921875 2.851562 40.921875 1.117188 40.890625 1.046875 C 40.859375 0.972656 40.597656 1.007812 40.109375 1.15625 C 38.210938 1.644531 36.113281 2.132812 33.8125 2.625 C 29.675781 3.320312 27.398438 3.601562 26.984375 3.46875 C 26.835938 3.394531 26.765625 1.851562 26.765625 -1.15625 L 26.875 -5.78125 L 28.140625 -5.875 C 34.085938 -6.363281 39.859375 -7.765625 45.453125 -10.078125 C 48.046875 -11.054688 50.460938 -12.210938 52.703125 -13.546875 C 53.265625 -13.890625 53.789062 -14.203125 54.28125 -14.484375 C 55.113281 -14.910156 55.582031 -15.191406 55.6875 -15.328125 C 55.800781 -15.460938 55.820312 -15.773438 55.75 -16.265625 C 55.601562 -16.972656 55.476562 -17.328125 55.375 -17.328125 C 55.269531 -17.328125 54.90625 -17.148438 54.28125 -16.796875 C 49.445312 -14.066406 42.585938 -11.789062 33.703125 -9.96875 C 30.203125 -9.195312 28.171875 -8.921875 27.609375 -9.140625 C 27.535156 -9.203125 27.5 -10.738281 27.5 -13.75 C 27.5 -16.757812 27.515625 -18.300781 27.546875 -18.375 C 27.585938 -18.445312 27.957031 -18.515625 28.65625 -18.578125 C 30.195312 -18.722656 31.492188 -18.863281 32.546875 -19 C 33.453125 -19.144531 33.941406 -19.21875 34.015625 -19.21875 C 36.179688 -19.5625 38.398438 -20.046875 40.671875 -20.671875 C 42.953125 -21.304688 44.722656 -21.90625 45.984375 -22.46875 C 46.054688 -22.46875 46.507812 -22.640625 47.34375 -22.984375 C 49.03125 -23.691406 50.429688 -24.394531 51.546875 -25.09375 C 51.617188 -25.164062 51.757812 -25.253906 51.96875 -25.359375 C 52.175781 -25.460938 52.347656 -25.515625 52.484375 -25.515625 C 52.910156 -25.796875 53.125 -25.96875 53.125 -26.03125 C 53.125 -26.101562 53.125 -26.382812 53.125 -26.875 C 53.125 -27.363281 53.125 -27.625 53.125 -27.65625 C 53.125 -27.695312 52.804688 -27.578125 52.171875 -27.296875 C 49.929688 -26.109375 46.363281 -24.847656 41.46875 -23.515625 C 40 -23.023438 38.566406 -22.640625 37.171875 -22.359375 C 34.648438 -21.867188 32.09375 -21.554688 29.5 -21.421875 L 28.140625 -21.3125 L 28.140625 -31.390625 L 30.453125 -31.28125 C 33.597656 -31.21875 36.601562 -31.460938 39.46875 -32.015625 C 41.988281 -32.503906 43.878906 -32.992188 45.140625 -33.484375 C 45.773438 -33.835938 45.878906 -34.015625 45.453125 -34.015625 L 29.5 -34.015625 L 29.5 -51.015625 L 28.140625 -51.015625 L 28.140625 -54.171875 C 28.140625 -56.273438 28.140625 -57.429688 28.140625 -57.640625 C 28.140625 -57.703125 28.101562 -58.207031 28.03125 -59.15625 C 27.957031 -60.101562 27.890625 -60.644531 27.828125 -60.78125 C 27.753906 -60.925781 27.71875 -60.976562 27.71875 -60.9375 C 27.71875 -60.90625 27.71875 -60.785156 27.71875 -60.578125 C 27.507812 -59.171875 27.085938 -57.457031 26.453125 -55.4375 C 25.960938 -53.96875 25.4375 -52.492188 24.875 -51.015625 C 24.382812 -49.753906 24.140625 -49.125 24.140625 -49.125 C 24.210938 -48.988281 24.351562 -48.675781 24.5625 -48.1875 L 24.875 -47.5625 L 24.875 -18.15625 L 24.984375 11.125 L 10.1875 11.125 L 10.1875 -30.234375 L 8.71875 -29.1875 C 5.988281 -27.082031 4.410156 -26.03125 3.984375 -26.03125 C 3.984375 -26.03125 3.984375 -29.078125 3.984375 -35.171875 L 3.984375 -44.40625 L 4.9375 -45.25 C 7.664062 -47.976562 9.765625 -50.847656 11.234375 -53.859375 C 12.210938 -55.890625 13.140625 -58.441406 14.015625 -61.515625 C 14.890625 -64.597656 15.46875 -67.4375 15.75 -70.03125 C 15.957031 -71.988281 15.921875 -73.210938 15.640625 -73.703125 C 15.296875 -74.328125 14.84375 -74.640625 14.28125 -74.640625 Z M 60.78125 -60.46875 C 61.269531 -61.3125 61.515625 -61.75 61.515625 -61.78125 C 61.515625 -61.8125 58.859375 -61.828125 53.546875 -61.828125 L 45.5625 -61.828125 L 44.625 -60.890625 C 43.988281 -60.191406 43.425781 -59.597656 42.9375 -59.109375 L 42.203125 -58.375 L 43.046875 -58.375 L 43.046875 -56.6875 C 43.046875 -55.632812 43.046875 -54.757812 43.046875 -54.0625 L 43.046875 -53.015625 L 43.25 -53.75 C 43.53125 -54.726562 44.035156 -55.671875 44.765625 -56.578125 C 45.503906 -57.492188 46.332031 -58.160156 47.25 -58.578125 C 48.007812 -58.929688 49.648438 -59.144531 52.171875 -59.21875 C 52.597656 -59.21875 53.367188 -59.21875 54.484375 -59.21875 L 60.15625 -59.21875 Z M 48.078125 -49.875 C 45.140625 -49.9375 43.632812 -49.96875 43.5625 -49.96875 C 43.289062 -49.96875 43.117188 -49.9375 43.046875 -49.875 C 43.046875 -49.800781 43.046875 -48.609375 43.046875 -46.296875 L 43.046875 -43.046875 L 47.65625 -43.046875 C 50.664062 -43.046875 52.207031 -43.046875 52.28125 -43.046875 C 52.351562 -43.117188 52.351562 -43.851562 52.28125 -45.25 C 52.207031 -46.507812 52.171875 -47.628906 52.171875 -48.609375 L 52.171875 -49.875 Z M 70.03125 -49.875 C 67.15625 -49.875 65.679688 -49.890625 65.609375 -49.921875 C 65.546875 -49.953125 65.40625 -49.96875 65.1875 -49.96875 L 64.78125 -49.875 L 64.875 -46.40625 L 64.875 -43.046875 L 69.5 -42.9375 L 74.125 -42.9375 L 74.125 -43.671875 C 74.1875 -44.160156 74.1875 -45.351562 74.125 -47.25 L 74.125 -49.875 Z M 55.328125 -4.203125 C 55.328125 -4.691406 55.289062 -4.9375 55.21875 -4.9375 C 55.144531 -4.9375 54.898438 -4.757812 54.484375 -4.40625 C 53.578125 -3.707031 52.390625 -3.078125 50.921875 -2.515625 C 47.210938 -1.046875 44.238281 -0.03125 42 0.53125 C 41.570312 0.664062 41.394531 0.769531 41.46875 0.84375 C 41.675781 0.976562 42.757812 1.046875 44.71875 1.046875 C 46.675781 1.046875 48.707031 0.835938 50.8125 0.421875 C 52.425781 0.140625 53.613281 -0.382812 54.375 -1.15625 C 55.007812 -1.78125 55.328125 -2.796875 55.328125 -4.203125 Z M 55.328125 -4.203125 "/></g></g></g><g clip-path="url(#f967ae9cfc)"><path fill="#ffbf3f" d="M 141.296875 723.964844 L 608.707031 723.964844 L 608.707031 708.679688 L 542.945312 708.679688 L 542.945312 693.886719 L 608.59375 693.886719 L 593.472656 678.765625 L 156.441406 678.765625 L 141.296875 693.886719 L 206.945312 693.886719 L 206.945312 708.679688 L 141.296875 708.679688 Z M 64.175781 0.0390625 L 646.941406 0.0390625 L 646.941406 25.164062 L 653.113281 25.164062 L 653.113281 0.0390625 L 672.675781 0.0390625 L 672.675781 25.164062 L 678.84375 25.164062 L 678.84375 0.0390625 L 698.40625 0.0390625 L 698.40625 25.164062 L 704.574219 25.164062 L 704.574219 0.0390625 L 724.160156 0.0390625 L 724.160156 25.164062 L 730.328125 25.164062 L 730.328125 0.0390625 L 749.890625 0.0390625 L 749.890625 749.929688 L 622.355469 749.929688 L 622.355469 693.628906 L 595.714844 666.988281 L 154.246094 666.988281 L 127.578125 693.628906 L 127.578125 749.929688 L 0 749.929688 L 0 66.832031 L 62.28125 66.832031 L 62.28125 0.0390625 Z M 3.691406 49.5625 L 46.953125 49.5625 L 46.953125 3.707031 Z M 48.726562 53.136719 L 50.527344 53.136719 L 50.527344 0.0390625 L 0 0.0390625 L 0 53.136719 Z M 141.296875 736.820312 L 141.296875 748.035156 L 608.707031 748.035156 L 608.707031 736.820312 Z M 158.917969 3.824219 L 158.917969 28.949219 L 746.128906 28.949219 L 746.128906 746.144531 L 626.144531 746.144531 L 626.144531 692.0625 L 597.28125 663.203125 L 152.632812 663.203125 L 123.863281 692.0625 L 123.863281 746.144531 L 3.785156 746.144531 L 3.785156 70.617188 L 66.070312 70.617188 L 66.070312 3.824219 Z M 335.71875 694.402344 L 341.746094 697.882812 L 341.746094 704.894531 L 335.71875 708.378906 L 329.6875 704.894531 L 329.6875 697.882812 Z M 519.128906 686.710938 L 531.820312 694.027344 L 531.820312 708.679688 L 519.128906 716.019531 L 506.441406 708.679688 L 506.441406 694.144531 L 519.128906 686.828125 Z M 395.5 695.757812 L 400.359375 698.5625 L 400.359375 704.171875 L 395.5 706.976562 L 390.636719 704.171875 L 390.636719 698.5625 Z M 486.246094 689.121094 L 496.859375 695.242188 L 496.859375 707.488281 L 486.246094 713.613281 L 475.660156 707.488281 L 475.660156 695.242188 Z M 458.695312 691.128906 L 467.550781 696.246094 L 467.550781 706.484375 L 458.695312 711.578125 L 449.835938 706.484375 L 449.835938 696.246094 Z M 434.949219 692.859375 L 442.289062 697.113281 L 442.289062 705.597656 L 434.949219 709.847656 L 427.679688 705.597656 L 427.679688 697.113281 L 435.042969 692.859375 Z M 414.101562 694.402344 L 420.132812 697.882812 L 420.132812 704.894531 L 414.101562 708.378906 L 408.050781 704.894531 L 408.050781 697.882812 Z M 230.667969 686.710938 L 243.355469 694.027344 L 243.355469 708.679688 L 230.667969 716.019531 L 217.976562 708.679688 L 217.976562 694.144531 L 230.667969 686.828125 Z M 374.910156 695.757812 L 379.746094 698.5625 L 379.746094 704.171875 L 374.910156 706.976562 L 370.050781 704.171875 L 370.050781 698.5625 Z M 354.296875 695.757812 L 359.160156 698.5625 L 359.160156 704.171875 L 354.296875 706.976562 L 349.4375 704.171875 L 349.4375 698.5625 Z M 263.550781 689.121094 L 274.160156 695.242188 L 274.160156 707.488281 L 263.550781 713.613281 L 252.9375 707.488281 L 252.9375 695.242188 Z M 291.125 691.128906 L 299.984375 696.246094 L 299.984375 706.484375 L 291.125 711.578125 L 282.269531 706.484375 L 282.269531 696.246094 Z M 314.871094 692.859375 L 322.210938 697.113281 L 322.210938 705.597656 L 314.871094 709.847656 L 307.507812 705.597656 L 307.507812 697.113281 Z M 314.871094 692.859375 " fill-opacity="1" fill-rule="evenodd"/></g><g clip-path="url(#55050edee2)"><path stroke-linecap="butt" transform="matrix(0.74996, 0, 0, 0.74996, 0.00000265, 0.039622)" fill="none" stroke-linejoin="miter" d="M -0.00000353352 -0.000746076 L -0.00000353352 1000.000019 L 1000.000762 1000.000019 L 1000.000762 -0.000746076 L -0.00000353352 -0.000746076 " stroke="#ffbf3f" stroke-width="18.00095" stroke-opacity="1" stroke-miterlimit="4"/></g><g clip-path="url(#5c58bb9092)"><path fill="#ffbf3f" d="M 141.3125 719.816406 L 608.898438 719.816406 L 608.898438 750 L 141.3125 750 Z M 141.3125 719.816406 " fill-opacity="1" fill-rule="nonzero"/></g><g clip-path="url(#eb22775021)"><path stroke-linecap="butt" transform="matrix(0.74996, 0, 0, 0.74996, 141.369634, 719.817825)" fill="none" stroke-linejoin="miter" d="M 0.00194622 -0.00189166 L 623.264051 -0.00189166 L 623.264051 40.23461 L 0.00194622 40.23461 Z M 0.00194622 -0.00189166 " stroke="#ffbf3f" stroke-width="18.00095" stroke-opacity="1" stroke-miterlimit="4"/></g><g clip-path="url(#876c45ebf1)"><path fill="#ffbf3f" d="M 322.546875 680.984375 L 424.722656 680.984375 L 424.722656 750 L 322.546875 750 Z M 322.546875 680.984375 " fill-opacity="1" fill-rule="nonzero"/></g><g clip-path="url(#ff7c8938a5)"><path stroke-linecap="butt" transform="matrix(0.74996, 0, 0, 0.74996, 322.548328, 680.983163)" fill="none" stroke-linejoin="miter" d="M -0.00193708 0.00161633 L 136.213582 0.00161633 L 136.213582 92.016887 L -0.00193708 92.016887 Z M -0.00193708 0.00161633 " stroke="#ffbf3f" stroke-width="18.00095" stroke-opacity="1" stroke-miterlimit="4"/></g><g clip-path="url(#24d3f15def)"><path fill="#ffbf3f" d="M 64.59375 0 L 532.183594 0 L 532.183594 28.726562 L 64.59375 28.726562 Z M 64.59375 0 " fill-opacity="1" fill-rule="nonzero"/></g><g clip-path="url(#67a37f9a5a)"><path stroke-linecap="butt" transform="matrix(0.74996, 0, 0, 0.74996, 64.632993, 0.00002)" fill="none" stroke-linejoin="miter" d="M -0.000240813 -0.0000266681 L 623.319099 -0.0000266681 L 623.319099 38.298869 L -0.000240813 38.298869 Z M -0.000240813 -0.0000266681 " stroke="#ffbf3f" stroke-width="18.00095" stroke-opacity="1" stroke-miterlimit="4"/></g><g fill="#ffffff" fill-opacity="1"><g transform="translate(330.987213, 730.216428)"><g><path d="M 3.640625 -42.234375 C 3.554688 -42.273438 3.617188 -42.316406 3.828125 -42.359375 C 4.035156 -42.398438 4.648438 -42.421875 5.671875 -42.421875 C 6.703125 -42.421875 8.179688 -42.421875 10.109375 -42.421875 L 16.875 -42.421875 L 16.875 4.765625 L 4.578125 4.765625 L 4.578125 -41.296875 L 4.265625 -41.671875 C 4.140625 -41.921875 3.929688 -42.109375 3.640625 -42.234375 Z M 18.578125 -42.421875 L 23.71875 -42.421875 C 25.101562 -42.421875 26.242188 -42.421875 27.140625 -42.421875 C 28.035156 -42.421875 28.710938 -42.398438 29.171875 -42.359375 C 31.054688 -42.234375 32.800781 -41.65625 34.40625 -40.625 C 36.019531 -39.601562 37.332031 -38.316406 38.34375 -36.765625 C 39.84375 -34.460938 40.550781 -31.992188 40.46875 -29.359375 C 40.425781 -28.359375 40.300781 -27.503906 40.09375 -26.796875 C 39.59375 -25.285156 38.710938 -23.960938 37.453125 -22.828125 C 36.203125 -21.703125 34.78125 -21.035156 33.1875 -20.828125 C 32.519531 -20.703125 32.164062 -20.617188 32.125 -20.578125 C 32.125 -20.492188 32.3125 -20.453125 32.6875 -20.453125 C 34.070312 -20.453125 35.304688 -20.203125 36.390625 -19.703125 C 37.484375 -19.203125 38.414062 -18.519531 39.1875 -17.65625 C 39.957031 -16.800781 40.582031 -15.804688 41.0625 -14.671875 C 41.550781 -13.546875 41.859375 -12.335938 41.984375 -11.046875 C 42.191406 -8.492188 41.726562 -6.109375 40.59375 -3.890625 C 39.71875 -2.003906 38.492188 -0.394531 36.921875 0.9375 C 35.359375 2.28125 33.613281 3.285156 31.6875 3.953125 C 31.1875 4.160156 30.707031 4.316406 30.25 4.421875 C 29.789062 4.523438 29.367188 4.597656 28.984375 4.640625 C 28.566406 4.679688 27.921875 4.703125 27.046875 4.703125 C 26.171875 4.703125 25.019531 4.703125 23.59375 4.703125 L 18.578125 4.765625 L 18.578125 -3.890625 L 21.65625 -3.890625 C 22.488281 -3.890625 23.164062 -3.898438 23.6875 -3.921875 C 24.207031 -3.941406 24.613281 -3.972656 24.90625 -4.015625 C 25.375 -4.054688 25.921875 -4.222656 26.546875 -4.515625 C 26.921875 -4.765625 27.304688 -5.109375 27.703125 -5.546875 C 28.097656 -5.992188 28.378906 -6.425781 28.546875 -6.84375 C 28.960938 -7.71875 29.148438 -8.738281 29.109375 -9.90625 C 29.066406 -11.082031 28.835938 -12.085938 28.421875 -12.921875 C 28.210938 -13.296875 27.910156 -13.671875 27.515625 -14.046875 C 27.117188 -14.429688 26.753906 -14.707031 26.421875 -14.875 C 25.835938 -15.207031 25.3125 -15.394531 24.84375 -15.4375 C 24.59375 -15.476562 24.207031 -15.5 23.6875 -15.5 C 23.164062 -15.5 22.488281 -15.5 21.65625 -15.5 L 18.578125 -15.5 L 18.578125 -24.71875 L 21.078125 -24.71875 C 21.878906 -24.71875 22.53125 -24.71875 23.03125 -24.71875 C 23.53125 -24.71875 23.882812 -24.738281 24.09375 -24.78125 C 25.351562 -25.070312 26.328125 -25.71875 27.015625 -26.71875 C 27.703125 -27.726562 27.941406 -28.882812 27.734375 -30.1875 C 27.523438 -31.144531 27.203125 -31.882812 26.765625 -32.40625 C 26.328125 -32.925781 25.8125 -33.3125 25.21875 -33.5625 C 24.632812 -33.820312 23.988281 -33.972656 23.28125 -34.015625 C 22.570312 -34.054688 21.816406 -34.078125 21.015625 -34.078125 L 18.578125 -34.078125 Z M 18.578125 -42.421875 "/></g></g></g><g fill="#ffffff" fill-opacity="1"><g transform="translate(375.478049, 730.216428)"><g><path d="M 20.640625 -42.921875 C 22.648438 -42.921875 24.59375 -42.679688 26.46875 -42.203125 C 28.351562 -41.722656 30.019531 -40.96875 31.46875 -39.9375 C 32.914062 -38.914062 34.066406 -37.597656 34.921875 -35.984375 C 35.773438 -34.378906 36.203125 -32.46875 36.203125 -30.25 C 36.203125 -27.738281 35.601562 -25.632812 34.40625 -23.9375 C 33.21875 -22.238281 31.769531 -21.097656 30.0625 -20.515625 C 30.519531 -20.390625 31.050781 -20.203125 31.65625 -19.953125 C 32.257812 -19.703125 32.875 -19.378906 33.5 -18.984375 C 34.132812 -18.585938 34.734375 -18.125 35.296875 -17.59375 C 35.859375 -17.070312 36.328125 -16.5 36.703125 -15.875 C 37.546875 -14.582031 38.039062 -13.003906 38.1875 -11.140625 C 38.332031 -9.273438 38.113281 -7.398438 37.53125 -5.515625 C 36.894531 -3.597656 35.976562 -1.957031 34.78125 -0.59375 C 33.59375 0.757812 32.210938 1.851562 30.640625 2.6875 C 29.078125 3.53125 27.382812 4.148438 25.5625 4.546875 C 23.75 4.941406 21.898438 5.140625 20.015625 5.140625 C 17.878906 5.140625 15.859375 4.890625 13.953125 4.390625 C 12.054688 3.890625 10.4375 3.140625 9.09375 2.140625 C 8.21875 1.460938 7.410156 0.664062 6.671875 -0.25 C 5.941406 -1.164062 5.316406 -2.15625 4.796875 -3.21875 C 4.273438 -4.289062 3.859375 -5.378906 3.546875 -6.484375 C 3.234375 -7.597656 3.078125 -8.65625 3.078125 -9.65625 L 15.25 -9.65625 C 15.25 -8.820312 15.425781 -8.09375 15.78125 -7.46875 C 16.132812 -6.84375 16.601562 -6.304688 17.1875 -5.859375 C 17.78125 -5.421875 18.441406 -5.085938 19.171875 -4.859375 C 19.898438 -4.628906 20.617188 -4.515625 21.328125 -4.515625 C 22.878906 -4.515625 24.144531 -4.984375 25.125 -5.921875 C 26.113281 -6.867188 26.609375 -8.15625 26.609375 -9.78125 C 26.609375 -13.300781 24.242188 -15.0625 19.515625 -15.0625 L 15.25 -15.0625 L 15.25 -23.15625 L 19.515625 -23.15625 C 21.523438 -23.15625 23.0625 -23.632812 24.125 -24.59375 C 25.195312 -25.5625 25.734375 -26.941406 25.734375 -28.734375 C 25.734375 -30.078125 25.382812 -31.15625 24.6875 -31.96875 C 24 -32.78125 22.835938 -33.1875 21.203125 -33.1875 C 19.367188 -33.1875 17.988281 -32.6875 17.0625 -31.6875 C 16.144531 -30.6875 15.519531 -29.304688 15.1875 -27.546875 L 3.953125 -27.546875 C 4.078125 -28.628906 4.265625 -29.90625 4.515625 -31.375 C 4.765625 -32.84375 5.179688 -34.179688 5.765625 -35.390625 C 6.441406 -36.773438 7.332031 -37.9375 8.4375 -38.875 C 9.550781 -39.8125 10.765625 -40.582031 12.078125 -41.1875 C 13.398438 -41.800781 14.800781 -42.242188 16.28125 -42.515625 C 17.769531 -42.785156 19.222656 -42.921875 20.640625 -42.921875 Z M 20.640625 -42.921875 "/></g></g></g></svg>