<svg xmlns="http://www.w3.org/2000/svg" xmlns:xlink="http://www.w3.org/1999/xlink" width="1000" zoomAndPan="magnify" viewBox="0 0 750 749.999995" height="1000" preserveAspectRatio="xMidYMid meet" version="1.0"><defs><g/><clipPath id="981f4551d1"><path d="M 0.898438 0.941406 L 749.058594 0.941406 L 749.058594 749.101562 L 0.898438 749.101562 Z M 0.898438 0.941406 " clip-rule="nonzero"/></clipPath><clipPath id="006e4819f1"><path d="M 0 0.0390625 L 749.960938 0.0390625 L 749.960938 750 L 0 750 Z M 0 0.0390625 " clip-rule="nonzero"/></clipPath><clipPath id="9295acf8db"><path d="M 141.3125 719.816406 L 608.859375 719.816406 L 608.859375 750 L 141.3125 750 Z M 141.3125 719.816406 " clip-rule="nonzero"/></clipPath><clipPath id="8b565485bf"><path d="M 141.371094 719.816406 L 608.535156 719.816406 L 608.535156 749.816406 L 141.371094 749.816406 Z M 141.371094 719.816406 " clip-rule="nonzero"/></clipPath><clipPath id="69bf519930"><path d="M 322.546875 680.984375 L 424.710938 680.984375 L 424.710938 750 L 322.546875 750 Z M 322.546875 680.984375 " clip-rule="nonzero"/></clipPath><clipPath id="f091aed081"><path d="M 322.546875 680.984375 L 424.539062 680.984375 L 424.539062 749.980469 L 322.546875 749.980469 Z M 322.546875 680.984375 " clip-rule="nonzero"/></clipPath><clipPath id="7e3335aa50"><path d="M 64.59375 0 L 532.144531 0 L 532.144531 28.726562 L 64.59375 28.726562 Z M 64.59375 0 " clip-rule="nonzero"/></clipPath><clipPath id="54ea3a22a3"><path d="M 64.632812 0 L 531.820312 0 L 531.820312 28.5 L 64.632812 28.5 Z M 64.632812 0 " clip-rule="nonzero"/></clipPath></defs><rect x="-75" width="900" fill="#ffffff" y="-74.999999" height="899.999994" fill-opacity="1"/><rect x="-75" width="900" fill="#000000" y="-74.999999" height="899.999994" fill-opacity="1"/><g clip-path="url(#981f4551d1)"><path fill="#ffbf3f" d="M 141.296875 723.964844 L 608.707031 723.964844 L 608.707031 708.679688 L 542.945312 708.679688 L 542.945312 693.886719 L 608.59375 693.886719 L 593.472656 678.765625 L 156.441406 678.765625 L 141.296875 693.886719 L 206.945312 693.886719 L 206.945312 708.679688 L 141.296875 708.679688 Z M 64.175781 0.0390625 L 646.941406 0.0390625 L 646.941406 25.164062 L 653.113281 25.164062 L 653.113281 0.0390625 L 672.675781 0.0390625 L 672.675781 25.164062 L 678.84375 25.164062 L 678.84375 0.0390625 L 698.40625 0.0390625 L 698.40625 25.164062 L 704.574219 25.164062 L 704.574219 0.0390625 L 724.160156 0.0390625 L 724.160156 25.164062 L 730.328125 25.164062 L 730.328125 0.0390625 L 749.890625 0.0390625 L 749.890625 749.929688 L 622.355469 749.929688 L 622.355469 693.628906 L 595.714844 666.988281 L 154.246094 666.988281 L 127.578125 693.628906 L 127.578125 749.929688 L 0 749.929688 L 0 66.832031 L 62.28125 66.832031 L 62.28125 0.0390625 Z M 3.691406 49.5625 L 46.953125 49.5625 L 46.953125 3.707031 Z M 48.726562 53.136719 L 50.527344 53.136719 L 50.527344 0.0390625 L 0 0.0390625 L 0 53.136719 Z M 141.296875 736.820312 L 141.296875 748.035156 L 608.707031 748.035156 L 608.707031 736.820312 Z M 158.917969 3.824219 L 158.917969 28.949219 L 746.128906 28.949219 L 746.128906 746.144531 L 626.144531 746.144531 L 626.144531 692.0625 L 597.28125 663.203125 L 152.632812 663.203125 L 123.863281 692.0625 L 123.863281 746.144531 L 3.785156 746.144531 L 3.785156 70.617188 L 66.070312 70.617188 L 66.070312 3.824219 Z M 335.71875 694.402344 L 341.746094 697.882812 L 341.746094 704.894531 L 335.71875 708.378906 L 329.6875 704.894531 L 329.6875 697.882812 Z M 519.128906 686.710938 L 531.820312 694.027344 L 531.820312 708.679688 L 519.128906 716.019531 L 506.441406 708.679688 L 506.441406 694.144531 L 519.128906 686.828125 Z M 395.5 695.757812 L 400.359375 698.5625 L 400.359375 704.171875 L 395.5 706.976562 L 390.636719 704.171875 L 390.636719 698.5625 Z M 486.246094 689.121094 L 496.859375 695.242188 L 496.859375 707.488281 L 486.246094 713.613281 L 475.660156 707.488281 L 475.660156 695.242188 Z M 458.695312 691.128906 L 467.550781 696.246094 L 467.550781 706.484375 L 458.695312 711.578125 L 449.835938 706.484375 L 449.835938 696.246094 Z M 434.949219 692.859375 L 442.289062 697.113281 L 442.289062 705.597656 L 434.949219 709.847656 L 427.679688 705.597656 L 427.679688 697.113281 L 435.042969 692.859375 Z M 414.101562 694.402344 L 420.132812 697.882812 L 420.132812 704.894531 L 414.101562 708.378906 L 408.050781 704.894531 L 408.050781 697.882812 Z M 230.667969 686.710938 L 243.355469 694.027344 L 243.355469 708.679688 L 230.667969 716.019531 L 217.976562 708.679688 L 217.976562 694.144531 L 230.667969 686.828125 Z M 374.910156 695.757812 L 379.746094 698.5625 L 379.746094 704.171875 L 374.910156 706.976562 L 370.050781 704.171875 L 370.050781 698.5625 Z M 354.296875 695.757812 L 359.160156 698.5625 L 359.160156 704.171875 L 354.296875 706.976562 L 349.4375 704.171875 L 349.4375 698.5625 Z M 263.550781 689.121094 L 274.160156 695.242188 L 274.160156 707.488281 L 263.550781 713.613281 L 252.9375 707.488281 L 252.9375 695.242188 Z M 291.125 691.128906 L 299.984375 696.246094 L 299.984375 706.484375 L 291.125 711.578125 L 282.269531 706.484375 L 282.269531 696.246094 Z M 314.871094 692.859375 L 322.210938 697.113281 L 322.210938 705.597656 L 314.871094 709.847656 L 307.507812 705.597656 L 307.507812 697.113281 Z M 314.871094 692.859375 " fill-opacity="1" fill-rule="evenodd"/></g><g clip-path="url(#006e4819f1)"><path stroke-linecap="butt" transform="matrix(0.74996, 0, 0, 0.74996, 0.00000265, 0.0396294)" fill="none" stroke-linejoin="miter" d="M -0.00000353352 -0.000755871 L -0.00000353352 1000.00001 L 1000.000762 1000.00001 L 1000.000762 -0.000755871 L -0.00000353352 -0.000755871 " stroke="#ffbf3f" stroke-width="18.00095" stroke-opacity="1" stroke-miterlimit="4"/></g><g clip-path="url(#9295acf8db)"><path fill="#ffbf3f" d="M 141.3125 719.816406 L 608.898438 719.816406 L 608.898438 750 L 141.3125 750 Z M 141.3125 719.816406 " fill-opacity="1" fill-rule="nonzero"/></g><g clip-path="url(#8b565485bf)"><path stroke-linecap="butt" transform="matrix(0.74996, 0, 0, 0.74996, 141.369634, 719.817753)" fill="none" stroke-linejoin="miter" d="M 0.00194622 -0.00179566 L 623.264051 -0.00179566 L 623.264051 40.234706 L 0.00194622 40.234706 Z M 0.00194622 -0.00179566 " stroke="#ffbf3f" stroke-width="18.00095" stroke-opacity="1" stroke-miterlimit="4"/></g><g clip-path="url(#69bf519930)"><path fill="#ffbf3f" d="M 322.546875 680.984375 L 424.722656 680.984375 L 424.722656 750 L 322.546875 750 Z M 322.546875 680.984375 " fill-opacity="1" fill-rule="nonzero"/></g><g clip-path="url(#f091aed081)"><path stroke-linecap="butt" transform="matrix(0.74996, 0, 0, 0.74996, 322.548328, 680.983115)" fill="none" stroke-linejoin="miter" d="M -0.00193708 0.00168034 L 136.213582 0.00168034 L 136.213582 92.016951 L -0.00193708 92.016951 Z M -0.00193708 0.00168034 " stroke="#ffbf3f" stroke-width="18.00095" stroke-opacity="1" stroke-miterlimit="4"/></g><g clip-path="url(#7e3335aa50)"><path fill="#ffbf3f" d="M 64.59375 0 L 532.183594 0 L 532.183594 28.726562 L 64.59375 28.726562 Z M 64.59375 0 " fill-opacity="1" fill-rule="nonzero"/></g><g clip-path="url(#54ea3a22a3)"><path stroke-linecap="butt" transform="matrix(0.74996, 0, 0, 0.74996, 64.632993, 0.00002)" fill="none" stroke-linejoin="miter" d="M -0.000240813 -0.0000266681 L 623.319099 -0.0000266681 L 623.319099 38.298869 L -0.000240813 38.298869 Z M -0.000240813 -0.0000266681 " stroke="#ffbf3f" stroke-width="18.00095" stroke-opacity="1" stroke-miterlimit="4"/></g><g fill="#ffffff" fill-opacity="1"><g transform="translate(329.78702, 730.216356)"><g><path d="M 24.90625 -42.796875 L 25.921875 -42.796875 C 27.960938 -42.796875 29.945312 -42.507812 31.875 -41.9375 C 33.800781 -41.375 35.554688 -40.550781 37.140625 -39.46875 C 38.734375 -38.382812 40.113281 -37.046875 41.28125 -35.453125 C 42.457031 -33.859375 43.316406 -32.039062 43.859375 -30 C 44.023438 -29.28125 44.148438 -28.679688 44.234375 -28.203125 C 44.316406 -27.722656 44.359375 -27.335938 44.359375 -27.046875 L 44.359375 -26.671875 L 31.9375 -26.671875 L 31.6875 -27.296875 C 31.4375 -28.128906 31.050781 -28.984375 30.53125 -29.859375 C 30.007812 -30.742188 29.453125 -31.375 28.859375 -31.75 C 27.984375 -32.5 26.789062 -32.957031 25.28125 -33.125 L 24.90625 -33.1875 Z M 22.09375 -42.734375 C 22.175781 -42.773438 22.425781 -42.796875 22.84375 -42.796875 L 23.28125 -42.796875 L 23.28125 -33.390625 L 22.65625 -33.125 C 21.4375 -32.664062 20.347656 -31.816406 19.390625 -30.578125 C 18.429688 -29.347656 17.65625 -27.796875 17.0625 -25.921875 C 16.726562 -24.867188 16.5 -23.660156 16.375 -22.296875 C 16.25 -20.941406 16.226562 -19.472656 16.3125 -17.890625 C 16.351562 -16.878906 16.457031 -15.722656 16.625 -14.421875 C 16.789062 -13.128906 17.0625 -11.863281 17.4375 -10.625 C 17.820312 -9.394531 18.335938 -8.265625 18.984375 -7.234375 C 19.628906 -6.210938 20.472656 -5.453125 21.515625 -4.953125 C 21.734375 -4.867188 21.957031 -4.796875 22.1875 -4.734375 C 22.414062 -4.671875 22.632812 -4.597656 22.84375 -4.515625 L 23.40625 -4.390625 L 23.40625 5.140625 L 22.40625 5.078125 C 16.71875 4.742188 12.257812 2.976562 9.03125 -0.21875 C 5.8125 -3.414062 3.828125 -7.710938 3.078125 -13.109375 C 3.035156 -13.535156 2.992188 -14.0625 2.953125 -14.6875 C 2.910156 -15.3125 2.890625 -16.082031 2.890625 -17 C 2.804688 -18.882812 2.804688 -20.304688 2.890625 -21.265625 C 3.429688 -27.046875 5.332031 -31.828125 8.59375 -35.609375 C 11.851562 -39.398438 16.351562 -41.773438 22.09375 -42.734375 Z M 31.75 -10.671875 L 31.9375 -11.109375 L 38.34375 -11.109375 C 42.5625 -11.191406 44.671875 -11.171875 44.671875 -11.046875 C 44.671875 -10.960938 44.609375 -10.5 44.484375 -9.65625 C 44.066406 -7.320312 43.320312 -5.242188 42.25 -3.421875 C 41.1875 -1.597656 39.859375 -0.0625 38.265625 1.1875 C 36.679688 2.445312 34.875 3.410156 32.84375 4.078125 C 30.820312 4.742188 28.640625 5.097656 26.296875 5.140625 L 24.90625 5.203125 L 24.90625 -4.203125 L 25.40625 -4.265625 C 27.039062 -4.472656 28.359375 -5.039062 29.359375 -5.96875 C 30.492188 -7.132812 31.289062 -8.703125 31.75 -10.671875 Z M 31.75 -10.671875 "/></g></g></g><g fill="#ffffff" fill-opacity="1"><g transform="translate(376.662414, 730.216356)"><g><path d="M 20.078125 -42.359375 C 20.117188 -42.398438 21.644531 -42.421875 24.65625 -42.421875 L 29.171875 -42.421875 L 29.171875 4.765625 L 16.9375 4.765625 L 16.9375 -30.375 L 11.734375 -30.375 L 11.734375 -33.578125 C 11.734375 -36.128906 11.753906 -37.507812 11.796875 -37.71875 L 11.796875 -38.71875 L 12.609375 -38.84375 C 14.367188 -39.050781 16.066406 -39.613281 17.703125 -40.53125 C 18.078125 -40.78125 18.554688 -41.113281 19.140625 -41.53125 C 19.722656 -41.957031 20.035156 -42.234375 20.078125 -42.359375 Z M 20.078125 -42.359375 "/></g></g></g><g fill="#ffffff" fill-opacity="1"><g transform="translate(233.19275, 284.979139)"><g><path d="M 50.078125 -73.90625 C 50.566406 -73.976562 55.394531 -74.015625 64.5625 -74.015625 C 69.25 -73.941406 75.515625 -73.90625 83.359375 -73.90625 L 88.5 -73.90625 L 88.5 -60.46875 L 88.1875 -60.46875 C 88.113281 -60.46875 87.691406 -60.429688 86.921875 -60.359375 C 86.640625 -60.359375 85 -60.328125 82 -60.265625 C 79.40625 -60.265625 77.515625 -60.226562 76.328125 -60.15625 L 74.75 -60.046875 L 74.75 -64.453125 L 42.9375 -64.453125 L 42.9375 -63.9375 C 43.007812 -63.582031 43.007812 -62.878906 42.9375 -61.828125 L 42.9375 -60.46875 L 29.296875 -60.46875 L 29.296875 -61.09375 C 29.296875 -61.445312 29.222656 -63.441406 29.078125 -67.078125 C 29.078125 -70.648438 29.039062 -72.578125 28.96875 -72.859375 C 28.695312 -73.273438 28.347656 -73.585938 27.921875 -73.796875 L 43.046875 -73.796875 L 43.046875 -68.140625 L 43.25 -68.875 C 43.601562 -69.78125 44.195312 -70.65625 45.03125 -71.5 C 46.289062 -72.757812 47.972656 -73.5625 50.078125 -73.90625 Z M 13.75 -71.921875 C 16.195312 -71.921875 19.273438 -71.921875 22.984375 -71.921875 L 25.9375 -71.921875 L 26.03125 -70.65625 C 26.03125 -69.75 26.03125 -67.613281 26.03125 -64.25 L 25.9375 -59.109375 L 7.03125 -59.109375 L 7.03125 -64.359375 C 7.03125 -67.921875 6.992188 -69.84375 6.921875 -70.125 C 6.648438 -70.820312 6.160156 -71.3125 5.453125 -71.59375 L 7.34375 -71.8125 C 8.1875 -71.8125 10.039062 -71.847656 12.90625 -71.921875 Z M 57.328125 -63.09375 C 62.359375 -63.164062 65.015625 -63.164062 65.296875 -63.09375 L 65.71875 -63.09375 L 65.71875 -59.625 L 66.875 -59.53125 C 70.238281 -59.382812 72.828125 -59.414062 74.640625 -59.625 C 75.410156 -59.625 76.789062 -59.625 78.78125 -59.625 C 80.78125 -59.625 81.921875 -59.625 82.203125 -59.625 C 82.765625 -59.488281 83.988281 -59.421875 85.875 -59.421875 L 87.234375 -59.421875 L 87.234375 -55.015625 C 87.171875 -52.140625 87.085938 -50.703125 86.984375 -50.703125 C 86.878906 -50.703125 83.328125 -50.738281 76.328125 -50.8125 L 65.828125 -50.8125 L 65.828125 -49.03125 L 76.21875 -49.03125 L 86.609375 -49.125 L 86.609375 -37.6875 C 86.609375 -31.382812 86.585938 -27.742188 86.546875 -26.765625 C 86.515625 -25.785156 86.328125 -24.945312 85.984375 -24.25 C 85.140625 -22.5 83.773438 -21.132812 81.890625 -20.15625 C 81.117188 -19.875 80.4375 -19.710938 79.84375 -19.671875 C 79.25 -19.640625 76.957031 -19.59375 72.96875 -19.53125 L 65.828125 -19.53125 L 65.828125 -17.109375 L 87.984375 -17.109375 C 88.117188 -17.109375 88.1875 -15.535156 88.1875 -12.390625 L 88.1875 -7.765625 L 65.515625 -7.765625 L 65.609375 -6.09375 L 65.609375 -4.296875 L 78 -4.296875 L 90.390625 -4.203125 L 90.390625 9.234375 L 87.03125 9.140625 C 84.925781 9.140625 83.523438 9.101562 82.828125 9.03125 C 82.410156 9.03125 79.085938 8.992188 72.859375 8.921875 C 60.679688 8.785156 53.75 8.695312 52.0625 8.65625 C 50.382812 8.625 47.273438 8.570312 42.734375 8.5 C 35.035156 8.4375 30.585938 8.296875 29.390625 8.078125 C 25.679688 7.304688 22.742188 5.382812 20.578125 2.3125 C 20.160156 1.75 19.914062 1.46875 19.84375 1.46875 C 19.769531 1.46875 19.664062 1.609375 19.53125 1.890625 C 19.039062 2.515625 18.25 3.316406 17.15625 4.296875 C 16.070312 5.285156 15.078125 6.054688 14.171875 6.609375 C 12.773438 7.523438 11.203125 8.332031 9.453125 9.03125 C 6.578125 10.082031 4.828125 10.609375 4.203125 10.609375 L 3.984375 10.609375 L 3.984375 5.671875 C 4.128906 -1.890625 4.269531 -5.671875 4.40625 -5.671875 C 4.476562 -5.742188 4.828125 -5.953125 5.453125 -6.296875 C 8.671875 -7.835938 10.664062 -9.832031 11.4375 -12.28125 C 11.863281 -13.613281 12.21875 -15.75 12.5 -18.6875 C 12.707031 -20.082031 12.789062 -22.53125 12.75 -26.03125 C 12.71875 -29.53125 12.632812 -31.910156 12.5 -33.171875 C 12.425781 -33.597656 12.351562 -34.300781 12.28125 -35.28125 L 12.28125 -36.953125 L 10.078125 -36.84375 C 8.960938 -36.78125 7.804688 -36.765625 6.609375 -36.796875 C 5.421875 -36.828125 4.789062 -36.84375 4.71875 -36.84375 C 4.65625 -36.914062 4.625 -39.15625 4.625 -43.5625 L 4.625 -50.1875 L 25.609375 -50.1875 L 25.609375 -35.59375 C 25.609375 -25.863281 25.578125 -20.539062 25.515625 -19.625 C 25.367188 -18.507812 25.367188 -17.460938 25.515625 -16.484375 C 26.003906 -13.191406 26.738281 -10.53125 27.71875 -8.5 C 28.0625 -7.800781 28.375 -7.296875 28.65625 -6.984375 C 28.9375 -6.671875 29.460938 -6.269531 30.234375 -5.78125 C 31.359375 -5.144531 32.335938 -4.722656 33.171875 -4.515625 L 34.125 -4.296875 L 51.859375 -4.296875 L 51.859375 -7.765625 L 30.03125 -7.765625 C 29.882812 -7.765625 29.8125 -9.375 29.8125 -12.59375 L 29.8125 -17.328125 L 31.28125 -17.21875 C 32.195312 -17.21875 35.875 -17.179688 42.3125 -17.109375 L 51.859375 -17.109375 L 51.859375 -19.53125 L 31.28125 -19.53125 L 31.28125 -47.34375 L 30.96875 -47.765625 C 30.832031 -48.117188 30.484375 -48.503906 29.921875 -48.921875 C 29.847656 -48.992188 29.914062 -49.03125 30.125 -49.03125 C 30.34375 -49.03125 30.710938 -49.03125 31.234375 -49.03125 C 31.753906 -49.03125 32.488281 -49.03125 33.4375 -49.03125 C 34.382812 -49.03125 35.554688 -49.03125 36.953125 -49.03125 L 44.203125 -49.03125 L 44.203125 -47.25 C 44.203125 -46.125 44.234375 -45.421875 44.296875 -45.140625 L 44.40625 -44.9375 C 45.175781 -46.125 46.015625 -47.03125 46.921875 -47.65625 C 48.328125 -48.707031 49.726562 -49.234375 51.125 -49.234375 L 51.859375 -49.234375 L 51.859375 -50.8125 L 30.546875 -50.8125 L 30.546875 -55.109375 L 30.65625 -59.53125 L 39.578125 -59.625 C 46.085938 -59.625 49.65625 -59.625 50.28125 -59.625 L 51.859375 -59.625 L 51.859375 -60.46875 C 51.785156 -61.03125 51.679688 -61.453125 51.546875 -61.734375 C 51.128906 -62.359375 50.601562 -62.773438 49.96875 -62.984375 C 49.832031 -62.984375 52.285156 -63.019531 57.328125 -63.09375 Z M 73.390625 -35.484375 L 73.390625 -40.84375 L 72.125 -40.84375 C 71 -40.84375 69.738281 -40.84375 68.34375 -40.84375 L 65.828125 -40.84375 L 65.828125 -37.90625 L 70.65625 -37.90625 L 70.65625 -35.484375 C 70.726562 -33.941406 70.726562 -32.820312 70.65625 -32.125 L 70.65625 -31.1875 L 65.828125 -31.1875 L 65.828125 -28.234375 L 68.65625 -28.234375 C 70.476562 -28.304688 71.492188 -28.378906 71.703125 -28.453125 C 72.335938 -28.585938 72.828125 -28.972656 73.171875 -29.609375 L 73.390625 -30.125 Z M 51.96875 -39.375 L 51.96875 -40.734375 L 44.296875 -40.734375 L 44.296875 -40.421875 C 44.234375 -40.273438 44.203125 -38.382812 44.203125 -34.75 C 44.203125 -31.113281 44.234375 -29.050781 44.296875 -28.5625 L 44.296875 -28.34375 L 51.859375 -28.34375 L 51.859375 -29.296875 C 51.929688 -29.847656 51.96875 -30.300781 51.96875 -30.65625 L 52.078125 -31.078125 L 46.71875 -31.078125 L 46.71875 -37.90625 L 51.96875 -37.90625 Z M 51.96875 -39.375 "/></g></g></g><g fill="#ffffff" fill-opacity="1"><g transform="translate(327.677205, 284.979139)"><g><path d="M 56.59375 -74.328125 L 71.703125 -74.328125 L 71.8125 -70.96875 C 71.945312 -68.863281 72.015625 -66.832031 72.015625 -64.875 L 72.015625 -62.15625 L 88.5 -62.15625 L 88.390625 -30.234375 L 88.390625 1.6875 L 87.765625 2.828125 C 87.140625 4.515625 86.160156 5.929688 84.828125 7.078125 C 83.492188 8.234375 81.953125 8.988281 80.203125 9.34375 C 79.578125 9.476562 77.304688 9.546875 73.390625 9.546875 L 67.40625 9.546875 L 67.40625 -3.046875 L 69.703125 -3.15625 C 71.242188 -3.15625 72.296875 -3.289062 72.859375 -3.5625 C 73.910156 -4.195312 74.539062 -5.003906 74.75 -5.984375 C 74.882812 -6.398438 74.953125 -13.785156 74.953125 -28.140625 L 74.859375 -49.65625 L 73.484375 -49.765625 L 72.015625 -49.875 L 71.921875 -41.265625 C 71.847656 -35.378906 71.738281 -31.457031 71.59375 -29.5 C 70.550781 -18.789062 68.3125 -9.9375 64.875 -2.9375 C 62.351562 2.03125 58.785156 6.300781 54.171875 9.875 L 52.171875 11.4375 L 52.078125 3.15625 L 52.078125 -5.046875 L 53.125 -7.140625 C 57.394531 -14.703125 59.457031 -26.984375 59.3125 -43.984375 L 59.3125 -49.65625 L 56.59375 -49.765625 L 53.859375 -49.875 L 53.859375 -62.15625 L 59.3125 -62.15625 L 59.421875 -63.828125 C 59.421875 -65.085938 59.382812 -66.554688 59.3125 -68.234375 C 59.25 -69.847656 59.109375 -70.914062 58.890625 -71.4375 C 58.679688 -71.96875 58.226562 -72.617188 57.53125 -73.390625 Z M 44.71875 -72.328125 C 48.988281 -72.472656 51.300781 -72.546875 51.65625 -72.546875 C 51.789062 -72.546875 51.875 -72.316406 51.90625 -71.859375 C 51.945312 -71.398438 51.96875 -69.914062 51.96875 -67.40625 L 51.96875 -62.15625 L 47.25 -62.15625 C 43.8125 -62.007812 41.359375 -61.898438 39.890625 -61.828125 L 37.375 -61.734375 L 37.375 -58.578125 L 52.078125 -58.578125 L 52.078125 -49.03125 L 37.375 -49.03125 L 37.375 -47.34375 L 44.625 -47.34375 L 51.96875 -47.25 L 51.96875 -31.59375 L 52.078125 -15.859375 L 37.171875 -15.859375 L 37.171875 -13.4375 L 51.015625 -13.4375 L 51.234375 -12.59375 C 51.304688 -11.894531 51.34375 -10.285156 51.34375 -7.765625 L 51.34375 -3.78125 L 37.171875 -3.78125 L 37.171875 -2.625 C 37.171875 -1.925781 37.203125 -1.578125 37.265625 -1.578125 C 37.410156 -1.578125 39.40625 -1.578125 43.25 -1.578125 C 47.03125 -1.503906 49.34375 -1.46875 50.1875 -1.46875 L 51.125 -1.46875 L 51.125 9.546875 L 5.875 9.546875 L 5.875 -1.359375 L 6.40625 -1.46875 C 6.6875 -1.539062 9.273438 -1.539062 14.171875 -1.46875 C 19.066406 -1.46875 21.898438 -1.503906 22.671875 -1.578125 L 23.625 -1.6875 L 23.625 -3.78125 L 7.25 -3.78125 L 7.25 -13.4375 L 23.625 -13.4375 L 23.625 -15.859375 L 7.984375 -15.859375 L 7.984375 -30.96875 L 7.875 -46.09375 L 7.34375 -46.609375 C 7 -46.890625 6.84375 -47.097656 6.875 -47.234375 C 6.90625 -47.378906 7.0625 -47.414062 7.34375 -47.34375 C 7.550781 -47.28125 10.316406 -47.28125 15.640625 -47.34375 L 23.40625 -47.34375 L 23.40625 -49.03125 L 14.90625 -49.03125 L 6.40625 -49.125 L 6.40625 -58.578125 L 23.40625 -58.578125 L 23.40625 -59.953125 C 23.40625 -60.785156 23.40625 -61.203125 23.40625 -61.203125 C 23.269531 -61.273438 22.007812 -61.273438 19.625 -61.203125 C 18.375 -61.203125 15.753906 -61.132812 11.765625 -61 L 7.34375 -60.78125 L 7.34375 -70.96875 L 8.921875 -71.078125 C 9.617188 -71.078125 14.765625 -71.25 24.359375 -71.59375 C 34.578125 -72.019531 41.363281 -72.265625 44.71875 -72.328125 Z M 24.359375 -36.421875 L 24.359375 -37.90625 L 19.953125 -37.90625 L 19.953125 -34.75 L 24.46875 -34.75 Z M 40.3125 -36.421875 L 40.3125 -37.90625 L 36.21875 -37.90625 L 36.21875 -34.75 L 40.3125 -34.75 Z M 24.359375 -28.140625 L 22.984375 -28.140625 C 22.003906 -28.140625 21.238281 -28.101562 20.6875 -28.03125 L 19.953125 -28.03125 L 19.953125 -26.34375 C 19.953125 -25.507812 20.054688 -25.039062 20.265625 -24.9375 C 20.472656 -24.832031 21.242188 -24.8125 22.578125 -24.875 L 24.46875 -24.984375 L 24.46875 -25.515625 C 24.46875 -25.796875 24.429688 -26.320312 24.359375 -27.09375 Z M 40.203125 -26.34375 L 40.203125 -28.03125 L 38.953125 -28.140625 C 38.035156 -28.140625 37.367188 -28.101562 36.953125 -28.03125 L 36.21875 -28.03125 L 36.21875 -26.34375 C 36.21875 -25.363281 36.320312 -24.84375 36.53125 -24.78125 C 36.601562 -24.78125 37.269531 -24.78125 38.53125 -24.78125 L 40.203125 -24.78125 Z M 40.203125 -26.34375 "/></g></g></g><g fill="#ffffff" fill-opacity="1"><g transform="translate(422.266642, 284.979139)"><g><path d="M 85.5625 -73.484375 C 85.632812 -73.484375 85.945312 -73.484375 86.5 -73.484375 L 87.234375 -73.484375 L 87.34375 -67.71875 L 87.34375 -61.828125 L 86.71875 -61.828125 C 86.363281 -61.765625 85.207031 -61.695312 83.25 -61.625 C 82.414062 -61.625 80.28125 -61.554688 76.84375 -61.421875 C 76.84375 -61.421875 74.046875 -61.3125 68.453125 -61.09375 C 63.972656 -60.957031 61.554688 -60.890625 61.203125 -60.890625 C 60.992188 -60.816406 60.59375 -60.78125 60 -60.78125 C 59.40625 -60.78125 58.863281 -60.765625 58.375 -60.734375 C 57.882812 -60.703125 57.5 -60.6875 57.21875 -60.6875 L 55.4375 -60.578125 L 55.4375 -51.96875 L 60.578125 -51.96875 C 63.929688 -51.96875 65.625 -52 65.65625 -52.0625 C 65.695312 -52.132812 65.695312 -52.835938 65.65625 -54.171875 C 65.625 -55.503906 65.539062 -56.3125 65.40625 -56.59375 C 65.332031 -56.863281 65.15625 -57.117188 64.875 -57.359375 C 64.59375 -57.609375 64.347656 -57.734375 64.140625 -57.734375 L 63.9375 -57.734375 L 64.25 -57.84375 C 64.382812 -57.914062 67.289062 -57.953125 72.96875 -57.953125 L 81.46875 -57.953125 L 81.578125 -56.796875 C 81.640625 -56.097656 81.707031 -55.082031 81.78125 -53.75 L 81.78125 -51.96875 L 82.3125 -51.96875 C 82.445312 -51.96875 83.492188 -51.96875 85.453125 -51.96875 L 88.1875 -51.859375 L 88.1875 -46.828125 C 88.1875 -43.390625 88.1875 -41.640625 88.1875 -41.578125 C 88.113281 -41.503906 82.65625 -41.46875 71.8125 -41.46875 L 55.4375 -41.46875 L 55.4375 -28.03125 L 54.0625 -28.03125 C 54.0625 -28.03125 53.082031 -28.03125 51.125 -28.03125 C 49.164062 -28.03125 47.414062 -28.03125 45.875 -28.03125 L 39.265625 -28.03125 L 39.265625 -41.046875 L 30.96875 -41.15625 C 25.226562 -41.15625 21.660156 -41.191406 20.265625 -41.265625 C 18.367188 -41.328125 16.410156 -41.394531 14.390625 -41.46875 C 13.679688 -41.46875 12.609375 -41.46875 11.171875 -41.46875 C 9.742188 -41.46875 8.925781 -41.46875 8.71875 -41.46875 L 6.40625 -41.578125 L 6.40625 -46.828125 L 6.296875 -51.96875 L 11.34375 -51.96875 C 14.695312 -51.894531 16.410156 -51.894531 16.484375 -51.96875 C 16.554688 -52.039062 16.59375 -52.492188 16.59375 -53.328125 C 16.59375 -54.171875 16.554688 -54.734375 16.484375 -55.015625 C 16.273438 -55.921875 15.851562 -56.582031 15.21875 -57 C 15.082031 -57.070312 15.117188 -57.109375 15.328125 -57.109375 C 15.679688 -57.179688 18.445312 -57.179688 23.625 -57.109375 L 32.328125 -57.109375 L 32.328125 -54.0625 C 32.328125 -52.945312 32.328125 -52.316406 32.328125 -52.171875 L 32.4375 -51.859375 L 35.796875 -51.96875 C 38.109375 -51.96875 39.265625 -51.96875 39.265625 -51.96875 C 39.265625 -51.96875 39.265625 -53.296875 39.265625 -55.953125 C 39.265625 -58.617188 39.265625 -59.984375 39.265625 -60.046875 C 38.984375 -60.253906 34.644531 -60.113281 26.25 -59.625 C 21.769531 -59.414062 16.660156 -59.242188 10.921875 -59.109375 C 9.515625 -59.035156 8.742188 -58.960938 8.609375 -58.890625 L 7.984375 -58.890625 L 7.984375 -70.546875 L 8.40625 -70.546875 C 8.75 -70.617188 9.585938 -70.691406 10.921875 -70.765625 C 11.972656 -70.765625 12.878906 -70.765625 13.640625 -70.765625 C 14.972656 -70.828125 16.550781 -70.859375 18.375 -70.859375 C 19.425781 -70.929688 20.648438 -71.003906 22.046875 -71.078125 C 23.304688 -71.140625 24.914062 -71.207031 26.875 -71.28125 C 30.507812 -71.425781 33.097656 -71.53125 34.640625 -71.59375 C 35.765625 -71.664062 36.867188 -71.703125 37.953125 -71.703125 C 39.035156 -71.703125 39.960938 -71.71875 40.734375 -71.75 C 41.503906 -71.789062 43.394531 -71.847656 46.40625 -71.921875 C 49.34375 -71.984375 51.195312 -72.050781 51.96875 -72.125 C 52.664062 -72.195312 53.960938 -72.265625 55.859375 -72.328125 C 57.535156 -72.398438 59.003906 -72.472656 60.265625 -72.546875 C 62.710938 -72.617188 65.476562 -72.6875 68.5625 -72.75 C 69.113281 -72.75 70.300781 -72.785156 72.125 -72.859375 C 74.925781 -72.992188 78.320312 -73.132812 82.3125 -73.28125 C 84.34375 -73.351562 85.425781 -73.421875 85.5625 -73.484375 Z M 21.109375 -39.578125 L 27.921875 -39.578125 C 32.546875 -39.578125 34.890625 -39.539062 34.953125 -39.46875 C 34.953125 -39.46875 34.921875 -39.191406 34.859375 -38.640625 C 34.648438 -36.117188 33.703125 -33.84375 32.015625 -31.8125 C 30.546875 -30.0625 28.519531 -28.554688 25.9375 -27.296875 L 24.359375 -26.453125 L 25.609375 -26.453125 L 25.71875 -22.578125 L 25.828125 -19.21875 L 25.828125 -19.3125 C 26.171875 -20.925781 26.898438 -22.34375 28.015625 -23.5625 C 29.140625 -24.789062 30.40625 -25.648438 31.8125 -26.140625 C 32.644531 -26.347656 33.8125 -26.46875 35.3125 -26.5 C 36.820312 -26.539062 42.515625 -26.5625 52.390625 -26.5625 C 64.640625 -26.5625 70.78125 -26.59375 70.8125 -26.65625 C 70.84375 -26.726562 70.828125 -26.765625 70.765625 -26.765625 C 70.691406 -26.765625 70.550781 -26.816406 70.34375 -26.921875 C 70.132812 -27.035156 69.867188 -27.160156 69.546875 -27.296875 C 69.234375 -27.429688 68.898438 -27.601562 68.546875 -27.8125 C 68.203125 -28.03125 67.867188 -28.207031 67.546875 -28.34375 C 67.234375 -28.488281 66.972656 -28.628906 66.765625 -28.765625 C 62.984375 -31.140625 60.675781 -34.320312 59.84375 -38.3125 C 59.695312 -38.875 59.625 -39.226562 59.625 -39.375 L 59.625 -39.578125 L 66.984375 -39.578125 L 74.328125 -39.46875 L 74.328125 -38.84375 C 74.398438 -38.425781 74.503906 -38.039062 74.640625 -37.6875 C 75.335938 -36.144531 78 -34.988281 82.625 -34.21875 C 84.582031 -33.945312 86.503906 -33.8125 88.390625 -33.8125 L 89.859375 -33.8125 L 89.859375 -23.09375 L 84.203125 -23.09375 L 84.203125 -10.28125 C 84.203125 -1.601562 84.164062 2.90625 84.09375 3.25 C 83.675781 5.425781 82.414062 7.28125 80.3125 8.8125 C 79.257812 9.582031 78.035156 10.070312 76.640625 10.28125 C 76.148438 10.351562 65.019531 10.390625 43.25 10.390625 L 10.609375 10.390625 L 10.609375 -6.515625 L 10.5 -23.203125 L 9.96875 -23.203125 C 9.476562 -23.128906 8.535156 -23.09375 7.140625 -23.09375 L 4.71875 -23.09375 L 4.71875 -28.34375 C 4.71875 -31.914062 4.753906 -33.703125 4.828125 -33.703125 C 4.828125 -33.703125 5.144531 -33.703125 5.78125 -33.703125 C 8.4375 -33.773438 10.640625 -33.914062 12.390625 -34.125 C 12.597656 -34.1875 12.804688 -34.234375 13.015625 -34.265625 C 13.222656 -34.304688 13.394531 -34.328125 13.53125 -34.328125 C 13.675781 -34.328125 13.75 -34.363281 13.75 -34.4375 C 14.382812 -34.507812 15.296875 -34.679688 16.484375 -34.953125 C 17.953125 -35.304688 19.109375 -35.90625 19.953125 -36.75 C 20.578125 -37.375 20.925781 -38.070312 21 -38.84375 Z M 39.78125 -16.0625 L 32.75 -16.171875 C 28.132812 -16.171875 25.789062 -16.132812 25.71875 -16.0625 C 25.644531 -15.988281 25.609375 -13.414062 25.609375 -8.34375 C 25.609375 -3.269531 25.644531 -0.695312 25.71875 -0.625 C 25.789062 -0.5625 28.132812 -0.53125 32.75 -0.53125 L 39.78125 -0.53125 L 39.78125 -3.984375 L 34.125 -4.09375 L 28.34375 -4.09375 L 28.234375 -4.40625 C 28.234375 -4.550781 28.25 -5.9375 28.28125 -8.5625 C 28.320312 -11.1875 28.34375 -12.53125 28.34375 -12.59375 C 28.414062 -12.59375 30.34375 -12.59375 34.125 -12.59375 C 37.894531 -12.59375 39.796875 -12.628906 39.828125 -12.703125 C 39.867188 -12.773438 39.890625 -13.335938 39.890625 -14.390625 Z M 69.5 -16.0625 C 69.425781 -16.0625 66.90625 -16.097656 61.9375 -16.171875 C 56.96875 -16.171875 54.460938 -16.132812 54.421875 -16.0625 C 54.390625 -15.988281 54.375 -15.394531 54.375 -14.28125 L 54.484375 -12.703125 L 60.359375 -12.59375 L 66.25 -12.59375 L 66.25 -3.984375 L 60.359375 -4.09375 L 54.484375 -4.09375 L 54.484375 -3.46875 C 54.484375 -3.46875 54.484375 -3.222656 54.484375 -2.734375 C 54.484375 -2.242188 54.484375 -1.894531 54.484375 -1.6875 C 54.410156 -1.125 54.375 -0.84375 54.375 -0.84375 C 54.375 -0.84375 54.375 -0.738281 54.375 -0.53125 C 54.445312 -0.53125 54.972656 -0.507812 55.953125 -0.46875 C 56.929688 -0.4375 58.050781 -0.421875 59.3125 -0.421875 C 60.570312 -0.421875 61.78125 -0.4375 62.9375 -0.46875 C 64.09375 -0.507812 64.773438 -0.53125 64.984375 -0.53125 C 66.734375 -0.59375 67.890625 -0.90625 68.453125 -1.46875 C 69.078125 -2.03125 69.425781 -2.695312 69.5 -3.46875 C 69.570312 -3.75 69.585938 -5.898438 69.546875 -9.921875 C 69.515625 -13.941406 69.5 -15.988281 69.5 -16.0625 Z M 69.5 -16.0625 "/></g></g></g><g fill="#ffffff" fill-opacity="1"><g transform="translate(316.496941, 406.472718)"><g><path d="M 35.59375 -53.125 L 37.484375 -53.015625 C 41.679688 -52.804688 45.441406 -51.929688 48.765625 -50.390625 C 52.085938 -48.847656 54.921875 -46.78125 57.265625 -44.1875 C 59.609375 -41.601562 61.425781 -38.597656 62.71875 -35.171875 C 64.019531 -31.742188 64.773438 -28 64.984375 -23.9375 C 65.265625 -17.425781 64.109375 -11.507812 61.515625 -6.1875 C 57.878906 1.15625 51.894531 5.769531 43.5625 7.65625 C 41.039062 8.363281 38.734375 8.71875 36.640625 8.71875 L 35.796875 8.71875 L 35.6875 5.5625 C 35.757812 4.445312 35.796875 3.3125 35.796875 2.15625 C 35.796875 1 35.796875 -0.242188 35.796875 -1.578125 C 35.796875 -4.234375 35.867188 -5.5625 36.015625 -5.5625 C 37.128906 -5.5625 38.421875 -6.085938 39.890625 -7.140625 C 42.554688 -8.679688 44.269531 -12.039062 45.03125 -17.21875 C 45.101562 -17.78125 45.15625 -18.5 45.1875 -19.375 C 45.226562 -20.25 45.210938 -21.28125 45.140625 -22.46875 C 45.066406 -23.726562 44.992188 -24.773438 44.921875 -25.609375 C 44.859375 -26.453125 44.757812 -27.15625 44.625 -27.71875 C 44.195312 -30.300781 43.40625 -32.554688 42.25 -34.484375 C 41.101562 -36.410156 39.09375 -37.617188 36.21875 -38.109375 L 35.59375 -38.21875 Z M 29.1875 -52.90625 C 29.53125 -52.976562 29.929688 -53.015625 30.390625 -53.015625 C 30.847656 -53.015625 31.359375 -53.050781 31.921875 -53.125 L 33.28125 -53.125 L 33.28125 -46.71875 C 33.28125 -44.6875 33.28125 -43.039062 33.28125 -41.78125 C 33.28125 -40.519531 33.242188 -39.644531 33.171875 -39.15625 L 33.171875 -38.21875 L 32.015625 -37.90625 C 28.734375 -37.34375 26.492188 -35.238281 25.296875 -31.59375 C 24.742188 -29.988281 24.394531 -28.148438 24.25 -26.078125 C 24.113281 -24.015625 24.113281 -21.757812 24.25 -19.3125 C 24.394531 -17.988281 24.570312 -16.644531 24.78125 -15.28125 C 24.988281 -13.914062 25.367188 -12.617188 25.921875 -11.390625 C 26.484375 -10.160156 27.21875 -9.109375 28.125 -8.234375 C 29.039062 -7.359375 30.234375 -6.710938 31.703125 -6.296875 L 33.0625 -5.984375 L 33.171875 1.265625 L 33.171875 8.5 L 31.1875 8.5 C 25.582031 8.5 20.503906 6.960938 15.953125 3.890625 C 9.441406 -0.523438 5.628906 -7.738281 4.515625 -17.75 C 3.535156 -25.863281 4.796875 -33 8.296875 -39.15625 C 10.390625 -42.9375 13.289062 -46.050781 17 -48.5 C 20.71875 -50.945312 24.78125 -52.414062 29.1875 -52.90625 Z M 29.1875 -52.90625 "/></g></g></g><g fill="#ffffff" fill-opacity="1"><g transform="translate(385.785538, 406.472718)"><g><path d="M 45.140625 -53.4375 L 46.1875 -53.4375 L 46.09375 -44.625 L 46.09375 -33.8125 L 44.40625 -33.90625 C 40.769531 -34.113281 37.65625 -33.554688 35.0625 -32.234375 C 33.59375 -31.460938 32.28125 -30.097656 31.125 -28.140625 C 29.96875 -26.179688 29.179688 -23.90625 28.765625 -21.3125 C 28.554688 -20.257812 28.453125 -15.113281 28.453125 -5.875 L 28.453125 7.984375 L 7.34375 7.984375 L 7.34375 -21.3125 C 7.34375 -31.175781 7.328125 -38.488281 7.296875 -43.25 C 7.265625 -48.007812 7.175781 -50.460938 7.03125 -50.609375 C 6.6875 -51.367188 6.195312 -51.890625 5.5625 -52.171875 C 5.488281 -52.242188 5.523438 -52.316406 5.671875 -52.390625 C 6.015625 -52.453125 7.113281 -52.484375 8.96875 -52.484375 C 10.832031 -52.484375 13.441406 -52.484375 16.796875 -52.484375 L 28.453125 -52.484375 L 28.453125 -42.203125 L 29.1875 -43.671875 C 30.519531 -46.816406 32.671875 -49.226562 35.640625 -50.90625 C 38.617188 -52.59375 41.785156 -53.4375 45.140625 -53.4375 Z M 45.140625 -53.4375 "/></g></g></g><g fill="#ffffff" fill-opacity="1"><g transform="translate(185.839784, 527.966297)"><g><path d="M 6.828125 -70.96875 C 6.828125 -70.96875 20.367188 -70.96875 47.453125 -70.96875 L 88.078125 -70.96875 L 88.078125 -57.328125 L 73.171875 -57.328125 L 58.265625 -57.21875 L 58.265625 -40 L 85.875 -40 L 85.875 -26.453125 L 72.125 -26.453125 C 62.957031 -26.453125 58.375 -26.414062 58.375 -26.34375 C 58.375 -26.34375 58.375 -26.148438 58.375 -25.765625 C 58.375 -25.390625 58.375 -24.867188 58.375 -24.203125 C 58.375 -23.535156 58.375 -22.796875 58.375 -21.984375 C 58.375 -21.179688 58.351562 -20.238281 58.3125 -19.15625 C 58.28125 -18.070312 58.265625 -17.039062 58.265625 -16.0625 L 58.265625 -5.875 L 90.28125 -5.875 L 90.28125 7.765625 L 4.296875 7.765625 L 4.296875 -5.875 L 15.21875 -5.875 L 15.21875 -26.140625 C 15.21875 -26.835938 15.21875 -27.851562 15.21875 -29.1875 C 15.21875 -38.21875 15.179688 -43.5 15.109375 -45.03125 C 15.046875 -46.570312 14.769531 -47.484375 14.28125 -47.765625 C 14.207031 -47.765625 14.171875 -47.800781 14.171875 -47.875 C 13.816406 -48.007812 13.851562 -48.113281 14.28125 -48.1875 C 14.5625 -48.1875 15.015625 -48.1875 15.640625 -48.1875 C 20.265625 -48.1875 24.535156 -48.1875 28.453125 -48.1875 L 30.125 -48.1875 L 30.125 -5.875 L 43.15625 -5.875 L 43.15625 -57.21875 L 24.875 -57.328125 L 6.71875 -57.328125 L 6.71875 -64.140625 C 6.789062 -67.847656 6.828125 -70.125 6.828125 -70.96875 Z M 6.828125 -70.96875 "/></g></g></g><g fill="#ffffff" fill-opacity="1"><g transform="translate(280.429222, 527.966297)"><g><path d="M 22.78125 -74.640625 C 22.425781 -74.785156 22.25 -74.859375 22.25 -74.859375 C 22.25 -74.859375 24.597656 -74.859375 29.296875 -74.859375 L 36.53125 -74.859375 L 36.53125 -71.390625 C 36.53125 -68.796875 36.53125 -66.691406 36.53125 -65.078125 C 36.53125 -63.472656 36.566406 -60.75 36.640625 -56.90625 L 36.640625 -51.65625 L 37.375 -51.65625 C 37.863281 -51.71875 38.457031 -51.71875 39.15625 -51.65625 L 40.3125 -51.65625 L 40.3125 -38.421875 L 20.46875 -38.421875 L 20.46875 -36.53125 C 20.46875 -35.207031 20.503906 -34.191406 20.578125 -33.484375 C 20.578125 -32.648438 20.578125 -32.128906 20.578125 -31.921875 L 20.578125 -31.390625 L 23.9375 -31.390625 C 27.570312 -31.390625 30.582031 -31.390625 32.96875 -31.390625 L 38.734375 -31.390625 L 38.734375 -12.8125 C 38.671875 -0.414062 38.640625 6.617188 38.640625 8.296875 L 38.53125 10.8125 L 24.78125 10.8125 L 24.671875 -3.671875 L 24.671875 -18.0625 L 20.46875 -18.0625 L 20.46875 -16.90625 C 20.332031 -15.363281 20.085938 -13.648438 19.734375 -11.765625 C 18.898438 -6.859375 17.148438 -2.410156 14.484375 1.578125 C 12.878906 3.890625 10.570312 6.195312 7.5625 8.5 C 6.644531 9.195312 5.941406 9.757812 5.453125 10.1875 C 4.828125 10.675781 4.476562 10.988281 4.40625 11.125 C 4.195312 11.269531 4.09375 11.164062 4.09375 10.8125 C 4.019531 10.320312 3.984375 7.28125 3.984375 1.6875 L 3.984375 -7.875 L 4.515625 -8.71875 C 5.910156 -11.09375 6.820312 -13.820312 7.25 -16.90625 C 7.3125 -17.675781 7.34375 -23.097656 7.34375 -33.171875 C 7.34375 -47.453125 7.3125 -58.617188 7.25 -66.671875 C 7.175781 -68.972656 7.066406 -70.265625 6.921875 -70.546875 C 6.648438 -71.109375 6.09375 -71.597656 5.25 -72.015625 L 4.515625 -72.328125 L 12.59375 -72.234375 L 20.578125 -72.234375 L 20.578125 -51.65625 L 24.5625 -51.65625 L 24.5625 -72.96875 L 24.359375 -73.28125 C 24.078125 -73.90625 23.550781 -74.359375 22.78125 -74.640625 Z M 40.734375 -70.96875 C 40.804688 -71.039062 43.394531 -71.078125 48.5 -71.078125 C 53.613281 -71.078125 56.273438 -71.039062 56.484375 -70.96875 L 56.796875 -70.96875 L 56.796875 -67.71875 L 56.90625 -62.78125 C 56.96875 -62.851562 57.109375 -63.164062 57.328125 -63.71875 C 57.742188 -65.46875 58.617188 -66.972656 59.953125 -68.234375 C 60.578125 -68.867188 61.3125 -69.429688 62.15625 -69.921875 C 63.476562 -70.484375 65.015625 -70.832031 66.765625 -70.96875 C 67.460938 -71.039062 71.488281 -71.078125 78.84375 -71.078125 L 89.765625 -71.078125 L 89.765625 -57.84375 L 73.390625 -57.84375 C 62.398438 -57.769531 56.90625 -57.734375 56.90625 -57.734375 C 56.90625 -57.734375 56.882812 -57.15625 56.84375 -56 C 56.8125 -54.851562 56.796875 -53.613281 56.796875 -52.28125 C 56.796875 -50.945312 56.796875 -49.6875 56.796875 -48.5 L 56.90625 -47.875 L 89.03125 -47.875 L 89.03125 -39.6875 C 89.09375 -33.53125 89.054688 -29.851562 88.921875 -28.65625 C 88.503906 -22.570312 86.753906 -16.867188 83.671875 -11.546875 C 83.253906 -10.921875 83.007812 -10.570312 82.9375 -10.5 C 82.519531 -9.59375 81.992188 -8.71875 81.359375 -7.875 C 81.078125 -7.519531 80.972656 -7.34375 81.046875 -7.34375 C 81.191406 -7.34375 81.488281 -7.238281 81.9375 -7.03125 C 82.394531 -6.820312 83.179688 -6.472656 84.296875 -5.984375 C 85.628906 -5.421875 87.453125 -4.753906 89.765625 -3.984375 L 90.5 -3.671875 L 90.5 3.671875 C 90.5 8.640625 90.460938 11.125 90.390625 11.125 C 90.316406 11.050781 89.722656 10.804688 88.609375 10.390625 C 83.078125 8.503906 77.6875 5.914062 72.4375 2.625 C 71.664062 2.132812 71.242188 1.925781 71.171875 2 C 70.898438 2.207031 70.691406 2.378906 70.546875 2.515625 C 68.515625 3.984375 67.359375 4.71875 67.078125 4.71875 C 67.015625 4.71875 66.960938 4.769531 66.921875 4.875 C 66.890625 4.988281 66.101562 5.460938 64.5625 6.296875 C 62.8125 7.273438 60.957031 8.222656 59 9.140625 C 56.757812 10.046875 55.5 10.566406 55.21875 10.703125 C 54.164062 11.054688 53.625 11.210938 53.59375 11.171875 C 53.5625 11.140625 53.546875 8.816406 53.546875 4.203125 L 53.546875 -2.828125 L 53.96875 -2.9375 C 55.78125 -3.425781 57.25 -3.988281 58.375 -4.625 C 58.65625 -4.832031 58.8125 -4.9375 58.84375 -4.9375 C 58.875 -4.9375 58.957031 -4.953125 59.09375 -4.984375 C 59.238281 -5.023438 59.363281 -5.097656 59.46875 -5.203125 C 59.570312 -5.304688 59.726562 -5.425781 59.9375 -5.5625 C 60.15625 -5.707031 60.332031 -5.832031 60.46875 -5.9375 C 60.613281 -6.039062 60.769531 -6.144531 60.9375 -6.25 C 61.113281 -6.351562 61.21875 -6.457031 61.25 -6.5625 C 61.289062 -6.664062 61.3125 -6.71875 61.3125 -6.71875 C 61.3125 -6.789062 61.207031 -7 61 -7.34375 C 60.507812 -8.113281 59.804688 -9.300781 58.890625 -10.90625 C 57.984375 -12.519531 57.351562 -13.710938 57 -14.484375 L 56.90625 -14.484375 C 56.34375 -10.492188 55.570312 -7.378906 54.59375 -5.140625 C 53.957031 -3.671875 52.851562 -1.90625 51.28125 0.15625 C 49.707031 2.21875 48.082031 3.984375 46.40625 5.453125 C 42.550781 8.890625 40.59375 10.640625 40.53125 10.703125 C 40.53125 10.773438 40.492188 10.847656 40.421875 10.921875 L 40.203125 9.34375 C 40.203125 8.4375 40.203125 5.882812 40.203125 1.6875 L 40.3125 -7.765625 L 40.9375 -9.65625 C 41.425781 -11.125 41.707031 -12 41.78125 -12.28125 C 41.988281 -12.914062 42.128906 -13.300781 42.203125 -13.4375 C 42.484375 -14.414062 42.726562 -15.601562 42.9375 -17 C 43.144531 -18.332031 43.25 -27.257812 43.25 -43.78125 C 43.25 -59.738281 43.179688 -67.890625 43.046875 -68.234375 C 42.691406 -69.429688 42.023438 -70.273438 41.046875 -70.765625 Z M 75.484375 -34.328125 L 66.25 -34.328125 C 60.082031 -34.328125 56.984375 -34.304688 56.953125 -34.265625 C 56.921875 -34.234375 56.882812 -33.816406 56.84375 -33.015625 C 56.8125 -32.210938 56.828125 -31.773438 56.890625 -31.703125 C 56.960938 -31.628906 58.503906 -31.59375 61.515625 -31.59375 L 66.140625 -31.59375 L 66.25 -29.8125 C 66.25 -28.695312 66.28125 -27.960938 66.34375 -27.609375 C 66.769531 -24.953125 67.578125 -22.429688 68.765625 -20.046875 C 69.816406 -17.597656 70.445312 -16.375 70.65625 -16.375 C 70.65625 -16.375 70.898438 -16.757812 71.390625 -17.53125 C 74.117188 -22.15625 75.484375 -27.085938 75.484375 -32.328125 Z M 75.484375 -34.328125 "/></g></g></g><g fill="#ffffff" fill-opacity="1"><g transform="translate(374.913676, 527.966297)"><g><path d="M 11.34375 -73.703125 C 11.0625 -73.765625 11.128906 -73.796875 11.546875 -73.796875 C 12.109375 -73.867188 14.664062 -73.90625 19.21875 -73.90625 L 27.71875 -73.90625 L 27.71875 -61 L 32.96875 -61 L 32.96875 -47.34375 L 27.71875 -47.34375 L 27.71875 -40.734375 C 27.71875 -36.253906 27.820312 -34.015625 28.03125 -34.015625 C 28.3125 -34.015625 29.1875 -34.15625 30.65625 -34.4375 C 32.195312 -34.78125 33 -34.921875 33.0625 -34.859375 C 33.132812 -34.785156 33.171875 -32.703125 33.171875 -28.609375 C 33.171875 -24.515625 33.132812 -22.429688 33.0625 -22.359375 C 33 -22.285156 32.09375 -22.113281 30.34375 -21.84375 L 27.71875 -21.515625 L 27.71875 -10.5 C 27.71875 -3.289062 27.644531 0.695312 27.5 1.46875 C 27.289062 2.9375 26.660156 4.332031 25.609375 5.65625 C 24.566406 6.988281 23.34375 8.007812 21.9375 8.71875 C 21.164062 9.207031 19.972656 9.519531 18.359375 9.65625 C 16.753906 9.800781 12.769531 10.082031 6.40625 10.5 L 4.296875 10.609375 L 4.296875 3.5625 C 4.296875 -1.125 4.367188 -3.46875 4.515625 -3.46875 C 4.585938 -3.46875 5.632812 -3.570312 7.65625 -3.78125 C 9.40625 -3.914062 10.539062 -4.070312 11.0625 -4.25 C 11.59375 -4.425781 12.035156 -4.796875 12.390625 -5.359375 C 12.597656 -5.566406 12.71875 -5.984375 12.75 -6.609375 C 12.789062 -7.242188 12.8125 -9.238281 12.8125 -12.59375 C 12.738281 -17.007812 12.597656 -19.21875 12.390625 -19.21875 C 12.242188 -19.144531 11.859375 -19.070312 11.234375 -19 C 8.359375 -18.65625 6.429688 -18.34375 5.453125 -18.0625 L 5.046875 -17.953125 L 5.046875 -30.546875 L 5.78125 -30.65625 C 5.988281 -30.65625 7.242188 -30.832031 9.546875 -31.1875 L 12.8125 -31.59375 L 12.8125 -47.34375 L 4.828125 -47.34375 L 4.828125 -61 L 12.8125 -61 L 12.8125 -66.5625 C 12.8125 -69.289062 12.789062 -70.914062 12.75 -71.4375 C 12.71875 -71.96875 12.597656 -72.40625 12.390625 -72.75 C 12.109375 -73.101562 11.757812 -73.421875 11.34375 -73.703125 Z M 86.609375 -72.546875 C 87.023438 -72.617188 87.550781 -72.65625 88.1875 -72.65625 L 88.921875 -72.75 L 88.921875 -66.140625 C 88.921875 -61.867188 88.882812 -59.734375 88.8125 -59.734375 C 88.394531 -59.734375 84.828125 -59.5625 78.109375 -59.21875 C 69.148438 -58.789062 62.46875 -58.4375 58.0625 -58.15625 C 50.914062 -57.8125 45.523438 -57.535156 41.890625 -57.328125 C 37.546875 -57.109375 35.320312 -57.035156 35.21875 -57.109375 C 35.113281 -57.179688 35.0625 -59.316406 35.0625 -63.515625 L 35.0625 -69.921875 L 36.015625 -69.921875 C 36.503906 -69.992188 39.019531 -70.132812 43.5625 -70.34375 C 48.8125 -70.625 52 -70.796875 53.125 -70.859375 C 59.488281 -71.140625 66.695312 -71.492188 74.75 -71.921875 C 81.957031 -72.265625 85.910156 -72.472656 86.609375 -72.546875 Z M 70.96875 -56.265625 L 85.25 -56.265625 L 85.25 -47.03125 L 88.921875 -47.03125 L 88.921875 -30.234375 L 86.828125 -30.234375 L 86.828125 -25.515625 C 86.753906 -23.203125 86.679688 -21.78125 86.609375 -21.25 C 86.535156 -20.726562 86.363281 -20.050781 86.09375 -19.21875 C 84.6875 -14.945312 82.164062 -11.023438 78.53125 -7.453125 C 77.269531 -6.054688 76.640625 -5.320312 76.640625 -5.25 C 76.847656 -5.039062 78.4375 -4.742188 81.40625 -4.359375 C 84.382812 -3.972656 86.75 -3.707031 88.5 -3.5625 L 90.5 -3.46875 L 90.5 3.359375 C 90.5 7.910156 90.460938 10.21875 90.390625 10.28125 C 89.972656 10.425781 86.71875 10.007812 80.625 9.03125 C 73.5625 7.84375 67.613281 6.128906 62.78125 3.890625 C 61.382812 3.253906 60.648438 2.9375 60.578125 2.9375 C 60.503906 2.9375 59.734375 3.253906 58.265625 3.890625 C 53.367188 5.984375 48.503906 7.519531 43.671875 8.5 C 38.984375 9.414062 35.34375 9.875 32.75 9.875 L 32.015625 9.875 L 32.015625 -3.5625 L 34.75 -3.78125 C 38.738281 -4.125 42.484375 -4.789062 45.984375 -5.78125 L 46.921875 -6.09375 L 45.25 -7.875 C 42.65625 -10.601562 40.765625 -13.4375 39.578125 -16.375 C 39.085938 -17.425781 38.664062 -18.128906 38.3125 -18.484375 L 37.6875 -19.109375 L 52.171875 -19.109375 L 52.59375 -18.375 C 52.875 -17.882812 53.488281 -17.148438 54.4375 -16.171875 C 55.382812 -15.191406 56.207031 -14.421875 56.90625 -13.859375 C 57.675781 -13.296875 58.515625 -12.769531 59.421875 -12.28125 L 60.78125 -11.34375 L 61.828125 -11.96875 C 63.648438 -13.019531 65.472656 -14.347656 67.296875 -15.953125 C 69.117188 -17.566406 70.410156 -18.96875 71.171875 -20.15625 C 71.171875 -20.226562 70.941406 -20.28125 70.484375 -20.3125 C 70.035156 -20.34375 69.179688 -20.375 67.921875 -20.40625 C 66.660156 -20.445312 64.910156 -20.46875 62.671875 -20.46875 C 60.429688 -20.46875 57.53125 -20.429688 53.96875 -20.359375 L 36.75 -20.359375 L 36.640625 -24.984375 L 36.640625 -29.703125 L 35.484375 -29.609375 L 34.328125 -29.5 L 34.328125 -47.03125 L 38.84375 -47.03125 L 38.84375 -50.390625 C 38.769531 -52.210938 38.660156 -53.367188 38.515625 -53.859375 C 38.378906 -54.347656 38.035156 -54.765625 37.484375 -55.109375 L 36.953125 -55.53125 L 51.34375 -55.53125 L 51.34375 -47.03125 L 55.640625 -47.03125 L 55.75 -47.5625 C 55.820312 -47.976562 55.820312 -49.128906 55.75 -51.015625 C 55.675781 -52.910156 55.570312 -53.960938 55.4375 -54.171875 C 55.289062 -54.378906 55.046875 -54.660156 54.703125 -55.015625 C 54.273438 -55.359375 54.203125 -55.53125 54.484375 -55.53125 C 54.691406 -55.601562 56.894531 -55.601562 61.09375 -55.53125 C 62.082031 -55.53125 63.132812 -55.53125 64.25 -55.53125 C 65.375 -55.53125 66.25 -55.53125 66.875 -55.53125 C 67.5 -55.53125 67.847656 -55.53125 67.921875 -55.53125 L 68.34375 -55.53125 L 68.34375 -47.03125 L 72.859375 -47.03125 L 72.859375 -50.5 C 72.859375 -52.457031 72.785156 -53.710938 72.640625 -54.265625 C 72.503906 -54.828125 72.191406 -55.320312 71.703125 -55.75 Z M 76.109375 -34.4375 L 76.109375 -36.84375 L 47.34375 -36.84375 L 47.34375 -32.125 L 76.109375 -32.125 Z M 76.109375 -34.4375 "/></g></g></g><g fill="#ffffff" fill-opacity="1"><g transform="translate(469.503114, 527.966297)"><g><path d="M 13.125 -73.703125 C 12.976562 -73.765625 13.148438 -73.796875 13.640625 -73.796875 C 14.484375 -73.867188 16.550781 -73.90625 19.84375 -73.90625 L 26.984375 -73.90625 L 26.984375 -63.515625 L 30.125 -63.625 C 32.300781 -63.625 33.53125 -63.625 33.8125 -63.625 L 34.328125 -63.625 L 34.21875 -58.265625 C 34.21875 -54.273438 34.21875 -52.035156 34.21875 -51.546875 L 34.125 -50.28125 L 26.984375 -50.28125 L 26.984375 -47.34375 L 29.8125 -47.34375 C 31.707031 -47.34375 32.828125 -47.3125 33.171875 -47.25 L 33.90625 -47.140625 L 33.8125 -28.234375 L 33.703125 -9.234375 L 28.234375 -9.234375 L 28.234375 -27.5 C 28.234375 -36.675781 28.21875 -42.066406 28.1875 -43.671875 C 28.15625 -45.285156 28.035156 -46.195312 27.828125 -46.40625 C 27.472656 -46.894531 27.257812 -47 27.1875 -46.71875 C 26.976562 -46.082031 26.910156 -36.492188 26.984375 -17.953125 L 26.984375 10.921875 L 14.390625 10.921875 L 14.390625 -50.28125 L 4.828125 -50.28125 L 4.828125 -63.625 L 14.390625 -63.625 L 14.390625 -67.921875 C 14.390625 -70.796875 14.28125 -72.441406 14.0625 -72.859375 C 13.78125 -73.273438 13.46875 -73.554688 13.125 -73.703125 Z M 42.9375 -73.90625 L 43.78125 -73.796875 C 44.34375 -73.734375 46.863281 -73.703125 51.34375 -73.703125 L 57.953125 -73.703125 L 57.953125 -69.5 L 66.453125 -69.5 L 66.453125 -70.234375 C 66.453125 -71.847656 65.894531 -72.96875 64.78125 -73.59375 L 66.140625 -73.796875 C 66.421875 -73.796875 66.734375 -73.796875 67.078125 -73.796875 C 69.109375 -73.734375 71.703125 -73.703125 74.859375 -73.703125 L 79.78125 -73.703125 L 79.78125 -69.5 L 88.921875 -69.5 L 88.921875 -58.578125 L 80 -58.578125 L 79.890625 -58.0625 C 79.816406 -57.632812 79.78125 -57.144531 79.78125 -56.59375 L 79.78125 -55.640625 L 66.453125 -55.640625 L 66.453125 -57.109375 L 66.34375 -58.46875 L 58.0625 -58.46875 L 58.0625 -57.109375 L 57.953125 -55.640625 L 44.71875 -55.640625 L 44.625 -57.109375 L 44.625 -58.46875 L 40.203125 -58.578125 L 35.796875 -58.578125 L 35.796875 -59.3125 C 35.796875 -59.664062 35.796875 -61.257812 35.796875 -64.09375 C 35.796875 -66.925781 35.796875 -68.519531 35.796875 -68.875 L 35.796875 -69.5 L 44.71875 -69.5 L 44.71875 -70.65625 C 44.71875 -71.988281 44.332031 -72.929688 43.5625 -73.484375 Z M 54.796875 -54.703125 C 58.785156 -54.765625 60.816406 -54.832031 60.890625 -54.90625 C 60.890625 -54.90625 60.890625 -54.519531 60.890625 -53.75 C 60.890625 -52.976562 60.90625 -51.890625 60.9375 -50.484375 C 60.976562 -49.085938 61 -47.625 61 -46.09375 L 61 -37.265625 L 36.640625 -37.265625 L 36.640625 -54.703125 L 45.984375 -54.703125 L 46.09375 -52.8125 L 46.09375 -50.8125 L 46.1875 -51.65625 C 46.40625 -52.070312 46.757812 -52.578125 47.25 -53.171875 C 47.738281 -53.765625 48.117188 -54.203125 48.390625 -54.484375 C 48.742188 -54.628906 50.878906 -54.703125 54.796875 -54.703125 Z M 51.75 -46.1875 L 51.75 -48.078125 L 45.984375 -48.078125 L 45.984375 -44.40625 L 51.75 -44.40625 Z M 76.328125 -54.703125 C 77.023438 -54.765625 78.804688 -54.796875 81.671875 -54.796875 C 82.378906 -54.796875 83.132812 -54.78125 83.9375 -54.75 C 84.738281 -54.71875 85.421875 -54.703125 85.984375 -54.703125 C 86.546875 -54.703125 86.859375 -54.703125 86.921875 -54.703125 L 87.765625 -54.703125 L 87.765625 -37.265625 L 75.484375 -37.265625 L 63.203125 -37.375 L 63.203125 -45.765625 L 63.09375 -54.28125 L 62.578125 -54.59375 C 62.429688 -54.664062 62.5 -54.703125 62.78125 -54.703125 C 63.195312 -54.703125 64.703125 -54.703125 67.296875 -54.703125 L 72.4375 -54.703125 L 72.4375 -50.609375 L 72.859375 -51.75 C 73.554688 -53.570312 74.710938 -54.554688 76.328125 -54.703125 Z M 78.640625 -46.1875 L 78.53125 -48.078125 L 72.4375 -48.078125 L 72.4375 -44.40625 L 78.640625 -44.40625 Z M 4.625 -47.34375 L 8.8125 -47.25 L 13.125 -47.25 L 13.125 -29.078125 C 13.125 -20.117188 13.101562 -14.742188 13.0625 -12.953125 C 13.03125 -11.171875 12.875 -9.757812 12.59375 -8.71875 C 11.539062 -2.625 9.09375 1.785156 5.25 4.515625 L 4.09375 5.25 L 4.09375 -9.765625 L 4.625 -10.28125 C 5.320312 -11.195312 5.8125 -12.632812 6.09375 -14.59375 C 6.226562 -15.570312 6.296875 -20.925781 6.296875 -30.65625 C 6.296875 -30.9375 6.296875 -31.390625 6.296875 -32.015625 C 6.296875 -39.015625 6.257812 -43.125 6.1875 -44.34375 C 6.125 -45.570312 5.847656 -46.398438 5.359375 -46.828125 C 5.285156 -46.890625 5.210938 -46.921875 5.140625 -46.921875 Z M 57.53125 -36.53125 C 57.53125 -36.53125 60.15625 -36.566406 65.40625 -36.640625 L 74.015625 -36.75 L 74.125 -34.953125 L 74.125 -33.28125 L 81.359375 -33.171875 L 88.71875 -33.171875 L 88.71875 -23.71875 L 74.015625 -23.71875 L 74.125 -22.578125 L 74.125 -21.515625 L 80.84375 -21.421875 L 87.5625 -21.421875 L 87.5625 -12.90625 L 80.84375 -12.8125 L 74.125 -12.8125 L 74.125 -10.5 L 80.84375 -10.5 L 87.65625 -10.390625 L 87.5625 -6.296875 L 87.5625 -2.09375 L 74.015625 -2.09375 L 74.125 -0.84375 L 74.125 0.53125 L 82.203125 0.625 L 90.390625 0.734375 L 90.28125 5.359375 C 90.28125 8.503906 90.25 10.113281 90.1875 10.1875 C 90.113281 10.25 74.398438 10.25 43.046875 10.1875 L 37.375 10.1875 L 37.375 -1.78125 C 37.375 -9.757812 37.304688 -13.75 37.171875 -13.75 C 37.023438 -13.75 36.640625 -13.644531 36.015625 -13.4375 L 35.0625 -13.125 L 35.0625 -25.9375 L 36.328125 -26.453125 C 39.335938 -28.066406 41.050781 -30.9375 41.46875 -35.0625 L 41.578125 -36.328125 L 54.375 -36.328125 L 54.171875 -34.75 L 54.0625 -33.171875 L 60.046875 -33.171875 L 59.953125 -33.90625 C 59.878906 -34.539062 59.613281 -35.101562 59.15625 -35.59375 C 58.695312 -36.082031 58.15625 -36.394531 57.53125 -36.53125 Z M 60.265625 -22.578125 L 60.265625 -23.71875 L 55.4375 -23.71875 C 52.28125 -23.71875 50.671875 -23.6875 50.609375 -23.625 C 50.460938 -23.550781 50.390625 -23.164062 50.390625 -22.46875 L 50.390625 -21.421875 L 60.265625 -21.421875 Z M 60.265625 -11.65625 L 60.265625 -12.90625 L 50.390625 -12.90625 L 50.390625 -10.390625 L 60.265625 -10.390625 Z M 60.265625 -0.84375 L 60.265625 -2.09375 L 50.390625 -2.09375 L 50.390625 0.625 L 60.265625 0.625 Z M 60.265625 -0.84375 "/></g></g></g></svg>