<svg xmlns="http://www.w3.org/2000/svg" xmlns:xlink="http://www.w3.org/1999/xlink" width="1000" zoomAndPan="magnify" viewBox="0 0 750 749.999995" height="1000" preserveAspectRatio="xMidYMid meet" version="1.0"><defs><g/><clipPath id="30b6dfce20"><path d="M 0.898438 0.941406 L 749.058594 0.941406 L 749.058594 749.101562 L 0.898438 749.101562 Z M 0.898438 0.941406 " clip-rule="nonzero"/></clipPath><clipPath id="f27f8106dc"><path d="M 0 0.0390625 L 749.960938 0.0390625 L 749.960938 750 L 0 750 Z M 0 0.0390625 " clip-rule="nonzero"/></clipPath><clipPath id="7ef9424019"><path d="M 141.3125 719.816406 L 608.859375 719.816406 L 608.859375 750 L 141.3125 750 Z M 141.3125 719.816406 " clip-rule="nonzero"/></clipPath><clipPath id="b2552e5157"><path d="M 141.371094 719.816406 L 608.535156 719.816406 L 608.535156 749.816406 L 141.371094 749.816406 Z M 141.371094 719.816406 " clip-rule="nonzero"/></clipPath><clipPath id="b45623ccf6"><path d="M 322.546875 680.984375 L 424.710938 680.984375 L 424.710938 750 L 322.546875 750 Z M 322.546875 680.984375 " clip-rule="nonzero"/></clipPath><clipPath id="ca21344ac0"><path d="M 322.546875 680.984375 L 424.539062 680.984375 L 424.539062 749.980469 L 322.546875 749.980469 Z M 322.546875 680.984375 " clip-rule="nonzero"/></clipPath><clipPath id="dcef94333b"><path d="M 64.59375 0 L 532.144531 0 L 532.144531 28.726562 L 64.59375 28.726562 Z M 64.59375 0 " clip-rule="nonzero"/></clipPath><clipPath id="830f66e8ee"><path d="M 64.632812 0 L 531.820312 0 L 531.820312 28.5 L 64.632812 28.5 Z M 64.632812 0 " clip-rule="nonzero"/></clipPath></defs><rect x="-75" width="900" fill="#ffffff" y="-74.999999" height="899.999994" fill-opacity="1"/><rect x="-75" width="900" fill="#000000" y="-74.999999" height="899.999994" fill-opacity="1"/><g clip-path="url(#30b6dfce20)"><path fill="#ffbf3f" d="M 141.296875 723.964844 L 608.707031 723.964844 L 608.707031 708.679688 L 542.945312 708.679688 L 542.945312 693.886719 L 608.59375 693.886719 L 593.472656 678.765625 L 156.441406 678.765625 L 141.296875 693.886719 L 206.945312 693.886719 L 206.945312 708.679688 L 141.296875 708.679688 Z M 64.175781 0.0390625 L 646.941406 0.0390625 L 646.941406 25.164062 L 653.113281 25.164062 L 653.113281 0.0390625 L 672.675781 0.0390625 L 672.675781 25.164062 L 678.84375 25.164062 L 678.84375 0.0390625 L 698.40625 0.0390625 L 698.40625 25.164062 L 704.574219 25.164062 L 704.574219 0.0390625 L 724.160156 0.0390625 L 724.160156 25.164062 L 730.328125 25.164062 L 730.328125 0.0390625 L 749.890625 0.0390625 L 749.890625 749.929688 L 622.355469 749.929688 L 622.355469 693.628906 L 595.714844 666.988281 L 154.246094 666.988281 L 127.578125 693.628906 L 127.578125 749.929688 L 0 749.929688 L 0 66.832031 L 62.28125 66.832031 L 62.28125 0.0390625 Z M 3.691406 49.5625 L 46.953125 49.5625 L 46.953125 3.707031 Z M 48.726562 53.136719 L 50.527344 53.136719 L 50.527344 0.0390625 L 0 0.0390625 L 0 53.136719 Z M 141.296875 736.820312 L 141.296875 748.035156 L 608.707031 748.035156 L 608.707031 736.820312 Z M 158.917969 3.824219 L 158.917969 28.949219 L 746.128906 28.949219 L 746.128906 746.144531 L 626.144531 746.144531 L 626.144531 692.0625 L 597.28125 663.203125 L 152.632812 663.203125 L 123.863281 692.0625 L 123.863281 746.144531 L 3.785156 746.144531 L 3.785156 70.617188 L 66.070312 70.617188 L 66.070312 3.824219 Z M 335.71875 694.402344 L 341.746094 697.882812 L 341.746094 704.894531 L 335.71875 708.378906 L 329.6875 704.894531 L 329.6875 697.882812 Z M 519.128906 686.710938 L 531.820312 694.027344 L 531.820312 708.679688 L 519.128906 716.019531 L 506.441406 708.679688 L 506.441406 694.144531 L 519.128906 686.828125 Z M 395.5 695.757812 L 400.359375 698.5625 L 400.359375 704.171875 L 395.5 706.976562 L 390.636719 704.171875 L 390.636719 698.5625 Z M 486.246094 689.121094 L 496.859375 695.242188 L 496.859375 707.488281 L 486.246094 713.613281 L 475.660156 707.488281 L 475.660156 695.242188 Z M 458.695312 691.128906 L 467.550781 696.246094 L 467.550781 706.484375 L 458.695312 711.578125 L 449.835938 706.484375 L 449.835938 696.246094 Z M 434.949219 692.859375 L 442.289062 697.113281 L 442.289062 705.597656 L 434.949219 709.847656 L 427.679688 705.597656 L 427.679688 697.113281 L 435.042969 692.859375 Z M 414.101562 694.402344 L 420.132812 697.882812 L 420.132812 704.894531 L 414.101562 708.378906 L 408.050781 704.894531 L 408.050781 697.882812 Z M 230.667969 686.710938 L 243.355469 694.027344 L 243.355469 708.679688 L 230.667969 716.019531 L 217.976562 708.679688 L 217.976562 694.144531 L 230.667969 686.828125 Z M 374.910156 695.757812 L 379.746094 698.5625 L 379.746094 704.171875 L 374.910156 706.976562 L 370.050781 704.171875 L 370.050781 698.5625 Z M 354.296875 695.757812 L 359.160156 698.5625 L 359.160156 704.171875 L 354.296875 706.976562 L 349.4375 704.171875 L 349.4375 698.5625 Z M 263.550781 689.121094 L 274.160156 695.242188 L 274.160156 707.488281 L 263.550781 713.613281 L 252.9375 707.488281 L 252.9375 695.242188 Z M 291.125 691.128906 L 299.984375 696.246094 L 299.984375 706.484375 L 291.125 711.578125 L 282.269531 706.484375 L 282.269531 696.246094 Z M 314.871094 692.859375 L 322.210938 697.113281 L 322.210938 705.597656 L 314.871094 709.847656 L 307.507812 705.597656 L 307.507812 697.113281 Z M 314.871094 692.859375 " fill-opacity="1" fill-rule="evenodd"/></g><g clip-path="url(#f27f8106dc)"><path stroke-linecap="butt" transform="matrix(0.74996, 0, 0, 0.74996, 0.00000265, 0.0396294)" fill="none" stroke-linejoin="miter" d="M -0.00000353352 -0.000755871 L -0.00000353352 1000.00001 L 1000.000762 1000.00001 L 1000.000762 -0.000755871 L -0.00000353352 -0.000755871 " stroke="#ffbf3f" stroke-width="18.00095" stroke-opacity="1" stroke-miterlimit="4"/></g><g clip-path="url(#7ef9424019)"><path fill="#ffbf3f" d="M 141.3125 719.816406 L 608.898438 719.816406 L 608.898438 750 L 141.3125 750 Z M 141.3125 719.816406 " fill-opacity="1" fill-rule="nonzero"/></g><g clip-path="url(#b2552e5157)"><path stroke-linecap="butt" transform="matrix(0.74996, 0, 0, 0.74996, 141.369634, 719.817873)" fill="none" stroke-linejoin="miter" d="M 0.00194622 -0.00195566 L 623.264051 -0.00195566 L 623.264051 40.234546 L 0.00194622 40.234546 Z M 0.00194622 -0.00195566 " stroke="#ffbf3f" stroke-width="18.00095" stroke-opacity="1" stroke-miterlimit="4"/></g><g clip-path="url(#b45623ccf6)"><path fill="#ffbf3f" d="M 322.546875 680.984375 L 424.722656 680.984375 L 424.722656 750 L 322.546875 750 Z M 322.546875 680.984375 " fill-opacity="1" fill-rule="nonzero"/></g><g clip-path="url(#ca21344ac0)"><path stroke-linecap="butt" transform="matrix(0.74996, 0, 0, 0.74996, 322.548328, 680.983115)" fill="none" stroke-linejoin="miter" d="M -0.00193708 0.00168034 L 136.213582 0.00168034 L 136.213582 92.016951 L -0.00193708 92.016951 Z M -0.00193708 0.00168034 " stroke="#ffbf3f" stroke-width="18.00095" stroke-opacity="1" stroke-miterlimit="4"/></g><g clip-path="url(#dcef94333b)"><path fill="#ffbf3f" d="M 64.59375 0 L 532.183594 0 L 532.183594 28.726562 L 64.59375 28.726562 Z M 64.59375 0 " fill-opacity="1" fill-rule="nonzero"/></g><g clip-path="url(#830f66e8ee)"><path stroke-linecap="butt" transform="matrix(0.74996, 0, 0, 0.74996, 64.632993, 0.00002)" fill="none" stroke-linejoin="miter" d="M -0.000240813 -0.0000266681 L 623.319099 -0.0000266681 L 623.319099 38.298869 L -0.000240813 38.298869 Z M -0.000240813 -0.0000266681 " stroke="#ffbf3f" stroke-width="18.00095" stroke-opacity="1" stroke-miterlimit="4"/></g><g fill="#ffffff" fill-opacity="1"><g transform="translate(329.78702, 730.216356)"><g><path d="M 24.90625 -42.796875 L 25.921875 -42.796875 C 27.960938 -42.796875 29.945312 -42.507812 31.875 -41.9375 C 33.800781 -41.375 35.554688 -40.550781 37.140625 -39.46875 C 38.734375 -38.382812 40.113281 -37.046875 41.28125 -35.453125 C 42.457031 -33.859375 43.316406 -32.039062 43.859375 -30 C 44.023438 -29.28125 44.148438 -28.679688 44.234375 -28.203125 C 44.316406 -27.722656 44.359375 -27.335938 44.359375 -27.046875 L 44.359375 -26.671875 L 31.9375 -26.671875 L 31.6875 -27.296875 C 31.4375 -28.128906 31.050781 -28.984375 30.53125 -29.859375 C 30.007812 -30.742188 29.453125 -31.375 28.859375 -31.75 C 27.984375 -32.5 26.789062 -32.957031 25.28125 -33.125 L 24.90625 -33.1875 Z M 22.09375 -42.734375 C 22.175781 -42.773438 22.425781 -42.796875 22.84375 -42.796875 L 23.28125 -42.796875 L 23.28125 -33.390625 L 22.65625 -33.125 C 21.4375 -32.664062 20.347656 -31.816406 19.390625 -30.578125 C 18.429688 -29.347656 17.65625 -27.796875 17.0625 -25.921875 C 16.726562 -24.867188 16.5 -23.660156 16.375 -22.296875 C 16.25 -20.941406 16.226562 -19.472656 16.3125 -17.890625 C 16.351562 -16.878906 16.457031 -15.722656 16.625 -14.421875 C 16.789062 -13.128906 17.0625 -11.863281 17.4375 -10.625 C 17.820312 -9.394531 18.335938 -8.265625 18.984375 -7.234375 C 19.628906 -6.210938 20.472656 -5.453125 21.515625 -4.953125 C 21.734375 -4.867188 21.957031 -4.796875 22.1875 -4.734375 C 22.414062 -4.671875 22.632812 -4.597656 22.84375 -4.515625 L 23.40625 -4.390625 L 23.40625 5.140625 L 22.40625 5.078125 C 16.71875 4.742188 12.257812 2.976562 9.03125 -0.21875 C 5.8125 -3.414062 3.828125 -7.710938 3.078125 -13.109375 C 3.035156 -13.535156 2.992188 -14.0625 2.953125 -14.6875 C 2.910156 -15.3125 2.890625 -16.082031 2.890625 -17 C 2.804688 -18.882812 2.804688 -20.304688 2.890625 -21.265625 C 3.429688 -27.046875 5.332031 -31.828125 8.59375 -35.609375 C 11.851562 -39.398438 16.351562 -41.773438 22.09375 -42.734375 Z M 31.75 -10.671875 L 31.9375 -11.109375 L 38.34375 -11.109375 C 42.5625 -11.191406 44.671875 -11.171875 44.671875 -11.046875 C 44.671875 -10.960938 44.609375 -10.5 44.484375 -9.65625 C 44.066406 -7.320312 43.320312 -5.242188 42.25 -3.421875 C 41.1875 -1.597656 39.859375 -0.0625 38.265625 1.1875 C 36.679688 2.445312 34.875 3.410156 32.84375 4.078125 C 30.820312 4.742188 28.640625 5.097656 26.296875 5.140625 L 24.90625 5.203125 L 24.90625 -4.203125 L 25.40625 -4.265625 C 27.039062 -4.472656 28.359375 -5.039062 29.359375 -5.96875 C 30.492188 -7.132812 31.289062 -8.703125 31.75 -10.671875 Z M 31.75 -10.671875 "/></g></g></g><g fill="#ffffff" fill-opacity="1"><g transform="translate(376.662414, 730.216356)"><g><path d="M 20.828125 -42.796875 C 24.890625 -42.796875 28.289062 -41.863281 31.03125 -40 C 33.769531 -38.132812 35.597656 -35.21875 36.515625 -31.25 C 36.554688 -30.914062 36.585938 -30.503906 36.609375 -30.015625 C 36.628906 -29.535156 36.640625 -28.960938 36.640625 -28.296875 C 36.640625 -27.253906 36.484375 -26.226562 36.171875 -25.21875 C 35.859375 -24.21875 35.453125 -23.265625 34.953125 -22.359375 C 34.453125 -21.460938 33.882812 -20.617188 33.25 -19.828125 C 32.625 -19.035156 31.976562 -18.328125 31.3125 -17.703125 C 29.96875 -16.484375 28.910156 -15.519531 28.140625 -14.8125 C 27.367188 -14.101562 26.773438 -13.578125 26.359375 -13.234375 C 23.554688 -10.804688 21.796875 -9.238281 21.078125 -8.53125 C 19.953125 -7.488281 19.097656 -6.359375 18.515625 -5.140625 L 18.328125 -4.828125 L 28.109375 -4.828125 C 34.390625 -4.828125 37.53125 -4.785156 37.53125 -4.703125 C 37.488281 -4.367188 37.445312 -3.972656 37.40625 -3.515625 C 37.320312 -3.140625 37.242188 -2.65625 37.171875 -2.0625 C 37.109375 -1.476562 37.015625 -0.789062 36.890625 0 C 36.679688 1.550781 36.523438 2.710938 36.421875 3.484375 C 36.316406 4.253906 36.265625 4.660156 36.265625 4.703125 C 36.265625 4.742188 30.867188 4.765625 20.078125 4.765625 L 3.828125 4.765625 L 3.828125 1.875 C 3.828125 0.125 3.929688 -1.332031 4.140625 -2.5 C 4.347656 -3.675781 4.679688 -4.734375 5.140625 -5.671875 C 5.597656 -6.617188 6.210938 -7.519531 6.984375 -8.375 C 7.765625 -9.226562 8.722656 -10.222656 9.859375 -11.359375 C 11.859375 -13.367188 13.925781 -15.3125 16.0625 -17.1875 C 17.53125 -18.53125 18.804688 -19.710938 19.890625 -20.734375 C 20.972656 -21.765625 21.851562 -22.632812 22.53125 -23.34375 C 23.195312 -24.050781 23.75 -24.695312 24.1875 -25.28125 C 24.625 -25.875 24.945312 -26.378906 25.15625 -26.796875 C 25.414062 -27.335938 25.546875 -28.035156 25.546875 -28.890625 C 25.546875 -29.753906 25.4375 -30.457031 25.21875 -31 C 24.175781 -32.925781 22.546875 -33.890625 20.328125 -33.890625 C 19.617188 -33.890625 18.945312 -33.769531 18.3125 -33.53125 C 17.6875 -33.300781 17.164062 -32.957031 16.75 -32.5 C 15.664062 -31.457031 15.0625 -29.867188 14.9375 -27.734375 L 14.875 -26.796875 L 14.4375 -26.734375 L 3.515625 -26.734375 L 3.578125 -27.484375 C 3.785156 -29.910156 4.347656 -32.070312 5.265625 -33.96875 C 6.191406 -35.875 7.40625 -37.472656 8.90625 -38.765625 C 10.414062 -40.066406 12.179688 -41.0625 14.203125 -41.75 C 16.234375 -42.445312 18.441406 -42.796875 20.828125 -42.796875 Z M 20.828125 -42.796875 "/></g></g></g><g fill="#ffffff" fill-opacity="1"><g transform="translate(156.771016, 284.998769)"><g><path d="M 6.921875 -66.984375 L 6.921875 -72.546875 L 87.453125 -72.546875 L 87.453125 -61.3125 L 54.90625 -61.3125 L 54.703125 -60.78125 C 54.628906 -60.4375 54.59375 -60.085938 54.59375 -59.734375 L 54.59375 -59.21875 L 88.1875 -59.21875 L 88.1875 -37.578125 L 75.0625 -37.578125 L 75.0625 -50.28125 L 54.59375 -50.28125 L 54.59375 -36.328125 L 41.046875 -36.328125 L 41.046875 -42.9375 C 41.117188 -47.207031 41.117188 -49.550781 41.046875 -49.96875 L 40.9375 -50.28125 L 21.109375 -50.28125 L 21.109375 -37.578125 L 20.046875 -37.578125 C 19.628906 -37.578125 17.285156 -37.578125 13.015625 -37.578125 L 7.140625 -37.484375 L 7.140625 -47.34375 C 7.140625 -52.800781 7.101562 -55.984375 7.03125 -56.890625 C 6.957031 -57.804688 6.609375 -58.441406 5.984375 -58.796875 L 5.453125 -59.21875 L 21.109375 -59.21875 L 21.109375 -54.28125 L 21.3125 -55.015625 C 22.007812 -56.484375 23.195312 -57.632812 24.875 -58.46875 L 26.25 -59.109375 L 33.59375 -59.21875 L 40.9375 -59.21875 L 40.9375 -59.734375 C 41.007812 -60.148438 41.007812 -60.535156 40.9375 -60.890625 L 40.9375 -61.3125 L 6.921875 -61.3125 Z M 24.78125 -46.828125 L 24.78125 -49.34375 L 38.734375 -49.34375 L 38.734375 -44.296875 L 24.78125 -44.296875 Z M 58.578125 -49.234375 C 59.984375 -49.304688 63.867188 -49.304688 70.234375 -49.234375 L 72.015625 -49.234375 L 72.015625 -44.296875 L 57.328125 -44.296875 L 57.328125 -49.125 Z M 24.78125 -39.78125 L 24.78125 -42.203125 L 38.734375 -42.203125 L 38.734375 -37.375 L 24.78125 -37.375 Z M 57.328125 -39.78125 L 57.328125 -42.203125 L 72.015625 -42.203125 L 72.015625 -37.375 L 57.328125 -37.375 Z M 7.984375 -34.640625 L 24.140625 -34.640625 L 24.140625 -27.71875 L 24.5625 -28.765625 C 25.257812 -31.078125 26.695312 -32.789062 28.875 -33.90625 L 30.125 -34.546875 L 57.734375 -34.640625 L 85.25 -34.640625 L 85.25 -21.9375 C 85.25 -13.46875 85.144531 -8.847656 84.9375 -8.078125 C 84.300781 -6.117188 82.9375 -4.648438 80.84375 -3.671875 L 79.78125 -3.15625 L 66.984375 -3.15625 L 54.171875 -3.046875 L 54.28125 -2.625 C 54.5625 -1.644531 55.191406 -0.910156 56.171875 -0.421875 C 56.722656 -0.140625 57.628906 -0.0664062 58.890625 -0.203125 C 71.003906 -1.046875 80.488281 -1.609375 87.34375 -1.890625 L 90.078125 -2 L 90.078125 8.609375 L 86.296875 8.8125 C 74.253906 9.164062 64.210938 9.34375 56.171875 9.34375 L 46.921875 9.453125 L 45.765625 8.921875 C 44.160156 8.296875 42.867188 7.382812 41.890625 6.1875 C 41.472656 5.695312 41.050781 5 40.625 4.09375 L 40 2.734375 L 39.890625 -0.109375 L 39.78125 -3.046875 L 9.765625 -3.046875 L 9.765625 -17.953125 C 9.765625 -27.960938 9.675781 -33.125 9.5 -33.4375 C 9.320312 -33.75 9.0625 -34.007812 8.71875 -34.21875 Z M 39.78125 -23.71875 L 39.890625 -25.296875 L 24.140625 -25.296875 L 24.140625 -11.96875 L 39.6875 -11.96875 L 39.78125 -12.5 C 39.851562 -12.914062 39.890625 -13.4375 39.890625 -14.0625 L 39.890625 -14.90625 L 26.140625 -14.90625 L 26.140625 -22.046875 L 32.96875 -22.15625 L 39.78125 -22.15625 Z M 71.078125 -25.296875 L 54.28125 -25.296875 L 54.28125 -22.15625 L 61.421875 -22.15625 L 68.453125 -22.046875 L 68.453125 -14.90625 L 54.171875 -14.90625 L 54.171875 -11.96875 L 61.421875 -11.96875 C 66.242188 -11.96875 68.832031 -12.035156 69.1875 -12.171875 C 69.957031 -12.660156 70.515625 -13.289062 70.859375 -14.0625 C 71.003906 -14.414062 71.078125 -16.34375 71.078125 -19.84375 Z M 71.078125 -25.296875 "/></g></g></g><g fill="#ffffff" fill-opacity="1"><g transform="translate(251.25547, 284.998769)"><g><path d="M 4.09375 -65.609375 L 4.09375 -72.125 L 33.90625 -72.125 L 33.90625 -59.21875 L 26.5625 -59.21875 L 26.5625 -41.46875 L 29.8125 -41.46875 L 32.96875 -41.359375 L 32.96875 -35.171875 L 33.0625 -28.96875 L 26.5625 -28.96875 L 26.5625 -9.546875 L 27.828125 -9.65625 C 31.316406 -10.007812 33.097656 -10.113281 33.171875 -9.96875 C 33.242188 -9.96875 33.28125 -7.867188 33.28125 -3.671875 L 33.390625 2.625 L 32.65625 2.734375 C 32.019531 2.734375 28.625 3.007812 22.46875 3.5625 C 15.394531 4.125 10.984375 4.476562 9.234375 4.625 C 6.503906 4.90625 4.96875 5.046875 4.625 5.046875 L 4.09375 5.046875 L 4.09375 -7.65625 L 4.515625 -7.765625 C 4.722656 -7.835938 5.769531 -7.941406 7.65625 -8.078125 C 9.550781 -8.222656 10.707031 -8.332031 11.125 -8.40625 L 11.65625 -8.5 L 11.65625 -28.96875 L 4.09375 -28.96875 L 4.09375 -41.46875 L 11.65625 -41.46875 L 11.65625 -59.21875 L 4.09375 -59.21875 Z M 38.21875 -71.28125 C 38.28125 -71.351562 46.328125 -71.351562 62.359375 -71.28125 L 86.5 -71.28125 L 86.5 -57.734375 L 38.21875 -57.734375 L 38.21875 -63.40625 C 38.21875 -67.46875 38.21875 -69.675781 38.21875 -70.03125 C 38.144531 -70.726562 38.144531 -71.144531 38.21875 -71.28125 Z M 37.375 -36.109375 L 37.375 -42.9375 L 87.5625 -42.9375 L 87.5625 -29.390625 L 82.828125 -29.296875 L 78 -29.296875 L 78 -10.921875 L 78.421875 -10.078125 C 78.984375 -9.097656 79.859375 -8.46875 81.046875 -8.1875 C 81.253906 -8.113281 82.707031 -8.269531 85.40625 -8.65625 C 88.101562 -9.039062 89.660156 -9.335938 90.078125 -9.546875 L 90.28125 -8.921875 C 90.28125 -8.222656 90.28125 -5.316406 90.28125 -0.203125 C 90.28125 3.015625 90.25 4.625 90.1875 4.625 C 90.113281 4.625 88.992188 4.765625 86.828125 5.046875 C 79.960938 5.671875 75.898438 6.015625 74.640625 6.078125 C 73.378906 6.148438 72.257812 6.050781 71.28125 5.78125 C 68.757812 5.007812 66.90625 3.46875 65.71875 1.15625 C 65.15625 0.03125 64.835938 -1.15625 64.765625 -2.40625 C 64.703125 -3.664062 64.671875 -8.039062 64.671875 -15.53125 L 64.671875 -29.390625 L 62.15625 -29.296875 L 59.53125 -29.296875 L 59.421875 -23.625 C 59.421875 -20.050781 59.257812 -17.300781 58.9375 -15.375 C 58.625 -13.457031 58.117188 -11.515625 57.421875 -9.546875 C 53.921875 -0.585938 47.097656 5.320312 36.953125 8.1875 C 36.742188 8.257812 36.5 8.3125 36.21875 8.34375 C 35.9375 8.382812 35.722656 8.4375 35.578125 8.5 C 35.441406 8.570312 35.375 8.609375 35.375 8.609375 C 35.3125 8.609375 35.257812 8.503906 35.21875 8.296875 C 35.1875 8.085938 35.148438 7.648438 35.109375 6.984375 C 35.078125 6.316406 35.0625 5.457031 35.0625 4.40625 C 35.0625 3.351562 35.0625 1.988281 35.0625 0.3125 C 35.0625 -5.28125 35.148438 -8.078125 35.328125 -8.078125 C 35.503906 -8.078125 35.976562 -8.253906 36.75 -8.609375 C 40.519531 -10.429688 43.109375 -13.753906 44.515625 -18.578125 C 45.078125 -20.679688 45.359375 -23.238281 45.359375 -26.25 L 45.359375 -29.390625 L 37.375 -29.390625 Z M 37.375 -36.109375 "/></g></g></g><g fill="#ffffff" fill-opacity="1"><g transform="translate(345.844908, 284.998769)"><g><path d="M 32.96875 -65.828125 L 34.859375 -70.765625 L 44.296875 -70.765625 C 50.597656 -70.898438 53.75 -70.863281 53.75 -70.65625 C 53.75 -70.65625 53.578125 -70.0625 53.234375 -68.875 C 52.671875 -67.257812 52.160156 -65.859375 51.703125 -64.671875 C 51.242188 -63.484375 50.878906 -62.429688 50.609375 -61.515625 C 50.117188 -60.191406 49.695312 -59.144531 49.34375 -58.375 C 49.269531 -58.226562 49.144531 -57.910156 48.96875 -57.421875 C 48.800781 -56.929688 48.609375 -56.390625 48.390625 -55.796875 C 48.179688 -55.203125 47.972656 -54.570312 47.765625 -53.90625 C 47.554688 -53.238281 47.347656 -52.695312 47.140625 -52.28125 C 46.992188 -51.789062 46.742188 -51.054688 46.390625 -50.078125 C 46.046875 -49.097656 45.59375 -47.835938 45.03125 -46.296875 C 45.03125 -46.296875 44.296875 -44.265625 42.828125 -40.203125 C 41.222656 -36.078125 40.382812 -33.835938 40.3125 -33.484375 C 39.957031 -32.710938 39.601562 -31.785156 39.25 -30.703125 C 38.90625 -29.617188 38.488281 -28.378906 38 -26.984375 C 37.507812 -25.648438 37.125 -24.546875 36.84375 -23.671875 C 36.5625 -22.796875 36.351562 -22.113281 36.21875 -21.625 C 36.007812 -21.132812 35.640625 -20.132812 35.109375 -18.625 C 34.585938 -17.125 33.992188 -15.394531 33.328125 -13.4375 C 32.660156 -11.476562 31.957031 -9.394531 31.21875 -7.1875 C 30.488281 -4.988281 29.828125 -2.957031 29.234375 -1.09375 C 28.640625 0.757812 28.148438 2.3125 27.765625 3.5625 C 27.378906 4.820312 27.1875 5.523438 27.1875 5.671875 C 27.1875 5.742188 27.082031 6.09375 26.875 6.71875 L 26.453125 7.765625 L 16.59375 7.765625 C 10.007812 7.765625 6.71875 7.726562 6.71875 7.65625 C 6.851562 7.3125 7.03125 6.859375 7.25 6.296875 C 7.382812 5.878906 7.554688 5.335938 7.765625 4.671875 C 7.972656 4.003906 8.253906 3.179688 8.609375 2.203125 C 8.816406 1.578125 9.0625 0.894531 9.34375 0.15625 C 9.625 -0.570312 9.867188 -1.25 10.078125 -1.875 C 10.285156 -2.507812 10.457031 -3.054688 10.59375 -3.515625 C 10.738281 -3.972656 10.8125 -4.203125 10.8125 -4.203125 C 11.9375 -7.703125 13.300781 -11.722656 14.90625 -16.265625 C 16.519531 -20.816406 18.335938 -25.960938 20.359375 -31.703125 C 22.179688 -36.742188 24.019531 -41.75 25.875 -46.71875 C 27.726562 -51.6875 29.601562 -56.691406 31.5 -61.734375 C 31.84375 -62.847656 32.132812 -63.738281 32.375 -64.40625 C 32.625 -65.070312 32.820312 -65.546875 32.96875 -65.828125 Z M 32.96875 -65.828125 "/></g></g></g><g fill="#ffffff" fill-opacity="1"><g transform="translate(404.110315, 284.998769)"><g><path d="M 62.046875 -74.953125 L 75.28125 -74.953125 L 75.28125 -73.171875 C 75.28125 -72.054688 75.242188 -71.320312 75.171875 -70.96875 C 75.171875 -70.894531 75.132812 -70.789062 75.0625 -70.65625 L 74.953125 -70.234375 L 74.953125 -69.921875 L 89.96875 -69.921875 L 89.96875 -58.578125 L 70.765625 -58.578125 L 70.546875 -58.15625 C 70.203125 -57.664062 69.851562 -57.175781 69.5 -56.6875 C 68.726562 -55.851562 68.238281 -55.296875 68.03125 -55.015625 C 67.882812 -54.867188 67.847656 -54.796875 67.921875 -54.796875 C 67.921875 -54.734375 71.492188 -54.703125 78.640625 -54.703125 L 89.453125 -54.703125 L 89.453125 -44.515625 L 88.71875 -43.15625 C 87.945312 -41.539062 87.207031 -40.3125 86.5 -39.46875 C 85.800781 -38.632812 84.679688 -37.550781 83.140625 -36.21875 C 83.078125 -36.082031 83.007812 -35.976562 82.9375 -35.90625 C 82.863281 -35.832031 82.828125 -35.796875 82.828125 -35.796875 C 82.898438 -35.796875 84.160156 -35.796875 86.609375 -35.796875 L 90.390625 -35.796875 L 90.390625 -24.5625 L 82.828125 -24.5625 L 82.828125 -19.21875 C 82.828125 -16.34375 82.789062 -14.535156 82.71875 -13.796875 C 82.65625 -13.066406 82.484375 -12.316406 82.203125 -11.546875 C 81.578125 -9.660156 80.421875 -8.085938 78.734375 -6.828125 C 77.828125 -6.128906 76.742188 -5.640625 75.484375 -5.359375 L 74.640625 -5.046875 L 61.203125 -5.046875 L 61.203125 -9.453125 C 61.203125 -12.523438 61.238281 -14.414062 61.3125 -15.125 L 61.3125 -16.171875 L 64.875 -16.171875 C 67.257812 -16.171875 68.59375 -16.238281 68.875 -16.375 C 69.5 -16.726562 69.914062 -17.21875 70.125 -17.84375 C 70.332031 -18.125 70.4375 -19.316406 70.4375 -21.421875 L 70.4375 -24.5625 L 65.296875 -24.5625 C 61.867188 -24.5625 60.15625 -24.597656 60.15625 -24.671875 C 60.082031 -24.742188 60.082031 -26.597656 60.15625 -30.234375 L 60.15625 -35.796875 L 65.09375 -35.796875 C 68.382812 -35.796875 70.03125 -35.832031 70.03125 -35.90625 C 70.03125 -35.90625 70.03125 -35.9375 70.03125 -36 C 70.03125 -36.070312 70.03125 -36.160156 70.03125 -36.265625 C 70.03125 -36.367188 70.007812 -36.488281 69.96875 -36.625 C 69.9375 -36.769531 69.921875 -36.945312 69.921875 -37.15625 C 69.921875 -37.375 69.882812 -37.585938 69.8125 -37.796875 C 69.8125 -38.984375 69.8125 -39.59375 69.8125 -39.625 C 69.8125 -39.664062 70.09375 -39.753906 70.65625 -39.890625 C 72.75 -40.378906 74.5 -41.535156 75.90625 -43.359375 C 76.1875 -43.566406 76.253906 -43.707031 76.109375 -43.78125 C 75.972656 -43.851562 73.453125 -43.890625 68.546875 -43.890625 C 63.648438 -43.890625 61.164062 -43.90625 61.09375 -43.9375 C 61.03125 -43.96875 61.015625 -45.117188 61.046875 -47.390625 C 61.078125 -49.671875 61.078125 -50.828125 61.046875 -50.859375 C 61.015625 -50.898438 60.679688 -50.832031 60.046875 -50.65625 C 59.421875 -50.476562 59.070312 -50.425781 59 -50.5 C 59 -50.5 59 -51.40625 59 -53.21875 C 59 -55.039062 59.035156 -56.195312 59.109375 -56.6875 C 59.179688 -57.175781 59.179688 -57.5625 59.109375 -57.84375 C 59.035156 -58.257812 59 -59.414062 59 -61.3125 L 59 -64.25 L 59.53125 -64.5625 C 60.507812 -65.125 61.347656 -65.929688 62.046875 -66.984375 C 63.097656 -68.585938 63.625 -70.195312 63.625 -71.8125 C 63.625 -72.300781 63.519531 -72.753906 63.3125 -73.171875 C 63.164062 -73.523438 62.921875 -73.910156 62.578125 -74.328125 Z M 34.125 -74.859375 L 37.171875 -74.859375 C 39.410156 -74.785156 41.925781 -74.75 44.71875 -74.75 L 49.34375 -74.75 L 49.34375 -67.1875 L 57.640625 -67.1875 L 57.640625 -64.453125 C 57.703125 -64.109375 57.734375 -63.566406 57.734375 -62.828125 C 57.734375 -62.097656 57.734375 -61.347656 57.734375 -60.578125 C 57.734375 -59.804688 57.734375 -59.175781 57.734375 -58.6875 L 57.734375 -55.53125 L 43.25 -55.53125 L 43.25 -52.8125 C 43.25 -50.988281 43.285156 -50.078125 43.359375 -50.078125 C 43.359375 -50.003906 45.84375 -49.96875 50.8125 -49.96875 L 58.15625 -49.96875 L 58.15625 -31.703125 C 58.09375 -19.453125 58.023438 -13.1875 57.953125 -12.90625 C 57.671875 -11.300781 57.144531 -9.90625 56.375 -8.71875 C 55.320312 -7.3125 54.0625 -6.296875 52.59375 -5.671875 C 51.820312 -5.390625 51.085938 -5.210938 50.390625 -5.140625 C 49.691406 -5.078125 48.046875 -5.046875 45.453125 -5.046875 C 42.441406 -5.046875 40.9375 -5.078125 40.9375 -5.140625 C 40.875 -5.210938 40.875 -6.578125 40.9375 -9.234375 C 40.9375 -9.722656 40.9375 -10.265625 40.9375 -10.859375 C 40.9375 -11.460938 40.9375 -11.988281 40.9375 -12.4375 C 40.9375 -12.894531 40.9375 -13.296875 40.9375 -13.640625 C 40.9375 -13.992188 40.9375 -14.242188 40.9375 -14.390625 C 40.9375 -15.296875 40.867188 -15.800781 40.734375 -15.90625 C 40.597656 -16.007812 40.5625 -16.078125 40.625 -16.109375 C 40.695312 -16.148438 41.328125 -16.203125 42.515625 -16.265625 C 44.335938 -16.265625 45.53125 -16.546875 46.09375 -17.109375 C 46.507812 -17.535156 46.734375 -18.023438 46.765625 -18.578125 C 46.804688 -19.140625 46.828125 -21.625 46.828125 -26.03125 C 46.828125 -27.71875 46.828125 -29.800781 46.828125 -32.28125 C 46.828125 -34.769531 46.828125 -36.148438 46.828125 -36.421875 L 46.828125 -38.84375 L 43.046875 -38.84375 L 43.046875 -36.953125 C 43.046875 -35.691406 43.007812 -34.675781 42.9375 -33.90625 C 42.726562 -31.53125 42.550781 -29.78125 42.40625 -28.65625 C 42.0625 -26.28125 41.503906 -23.726562 40.734375 -21 C 39.117188 -15.1875 36.597656 -10.601562 33.171875 -7.25 C 32.191406 -6.269531 31.285156 -5.460938 30.453125 -4.828125 L 29.8125 -4.40625 L 30.125 -4.203125 C 30.757812 -3.921875 31.460938 -3.707031 32.234375 -3.5625 C 32.722656 -3.5 35.347656 -3.429688 40.109375 -3.359375 C 43.609375 -3.359375 52.773438 -3.359375 67.609375 -3.359375 C 82.441406 -3.359375 89.96875 -3.394531 90.1875 -3.46875 L 90.390625 -3.46875 L 90.390625 9.765625 L 88.5 9.765625 C 87.3125 9.765625 86.4375 9.765625 85.875 9.765625 C 85.25 9.835938 79.773438 9.875 69.453125 9.875 C 59.128906 9.875 51.0625 9.835938 45.25 9.765625 C 37.550781 9.691406 32.96875 9.632812 31.5 9.59375 C 30.03125 9.5625 28.875 9.476562 28.03125 9.34375 C 26.28125 8.925781 24.582031 8.191406 22.9375 7.140625 C 21.289062 6.085938 20.015625 4.863281 19.109375 3.46875 C 18.828125 3.039062 18.648438 2.898438 18.578125 3.046875 C 18.515625 3.179688 18.0625 3.6875 17.21875 4.5625 C 16.375 5.4375 15.707031 6.050781 15.21875 6.40625 C 12.84375 8.289062 10.570312 9.617188 8.40625 10.390625 C 6.164062 11.304688 4.765625 11.765625 4.203125 11.765625 C 4.128906 11.765625 4.09375 8.925781 4.09375 3.25 L 4.09375 -5.25 L 4.625 -5.453125 C 6.09375 -5.941406 7.367188 -6.660156 8.453125 -7.609375 C 9.535156 -8.554688 10.285156 -9.832031 10.703125 -11.4375 C 10.847656 -12.070312 11.0625 -13.300781 11.34375 -15.125 C 11.476562 -15.820312 11.617188 -17.359375 11.765625 -19.734375 C 11.828125 -21.066406 11.859375 -23.832031 11.859375 -28.03125 C 11.796875 -33 11.726562 -35.625 11.65625 -35.90625 C 11.582031 -35.976562 10.582031 -36.015625 8.65625 -36.015625 C 6.738281 -36.015625 5.640625 -36.015625 5.359375 -36.015625 L 4.828125 -36.015625 L 4.828125 -49.34375 L 24.671875 -49.34375 L 24.5625 -32.125 C 24.5625 -20.15625 24.53125 -13.859375 24.46875 -13.234375 C 24.46875 -12.253906 24.535156 -11.429688 24.671875 -10.765625 C 24.804688 -10.097656 24.945312 -9.554688 25.09375 -9.140625 C 25.375 -8.296875 25.898438 -7.453125 26.671875 -6.609375 L 27.296875 -5.984375 L 27.296875 -17.953125 L 28.140625 -19.84375 C 28.910156 -21.445312 29.46875 -22.738281 29.8125 -23.71875 C 30.164062 -24.707031 30.460938 -25.707031 30.703125 -26.71875 C 30.953125 -27.726562 31.179688 -29.144531 31.390625 -30.96875 C 31.804688 -34.113281 32.015625 -38.875 32.015625 -45.25 C 31.953125 -49.3125 31.953125 -52.078125 32.015625 -53.546875 L 32.015625 -55.640625 L 27.71875 -55.640625 L 27.71875 -67.1875 L 36.015625 -67.1875 L 36.015625 -69.921875 C 36.015625 -71.671875 35.976562 -72.648438 35.90625 -72.859375 C 35.695312 -73.554688 35.207031 -74.148438 34.4375 -74.640625 Z M 5.78125 -70.4375 L 25.09375 -70.4375 L 25.09375 -57.640625 L 21.84375 -57.640625 C 20.363281 -57.566406 17.941406 -57.546875 14.578125 -57.578125 C 11.222656 -57.617188 9.164062 -57.640625 8.40625 -57.640625 L 7.5625 -57.640625 L 7.5625 -63.09375 C 7.5625 -66.664062 7.523438 -68.59375 7.453125 -68.875 C 7.316406 -69.5 6.929688 -69.953125 6.296875 -70.234375 Z M 5.78125 -70.4375 "/></g></g></g><g fill="#ffffff" fill-opacity="1"><g transform="translate(498.594769, 284.998769)"><g><path d="M 21.625 -74.53125 C 21.625 -74.601562 21.988281 -74.640625 22.71875 -74.640625 C 23.457031 -74.640625 24.472656 -74.640625 25.765625 -74.640625 C 27.066406 -74.640625 28.488281 -74.640625 30.03125 -74.640625 L 38.421875 -74.640625 L 38.421875 -61.421875 L 56.6875 -61.421875 L 56.59375 -54.484375 L 56.59375 -47.453125 L 54.90625 -47.34375 L 53.125 -47.34375 L 53.125 -42.9375 L 38.84375 -42.9375 L 39.578125 -42.3125 L 40.3125 -41.578125 L 55.015625 -41.578125 L 55.015625 -34.859375 L 46.296875 -34.859375 C 40.554688 -34.785156 36.601562 -34.785156 34.4375 -34.859375 C 32.894531 -34.921875 31.945312 -34.96875 31.59375 -35 C 31.25 -35.039062 30.757812 -35.203125 30.125 -35.484375 C 29.007812 -36.046875 28.097656 -36.832031 27.390625 -37.84375 C 26.691406 -38.863281 26.273438 -39.96875 26.140625 -41.15625 L 26.03125 -42.203125 L 21.109375 -42.203125 L 21.109375 -49.34375 L 23.515625 -49.34375 C 25.265625 -49.34375 26.175781 -49.445312 26.25 -49.65625 C 26.382812 -50.21875 26.171875 -50.78125 25.609375 -51.34375 L 25.203125 -51.859375 L 31.921875 -51.859375 C 36.398438 -51.859375 38.640625 -51.753906 38.640625 -51.546875 C 38.640625 -51.472656 38.640625 -51.085938 38.640625 -50.390625 L 38.640625 -49.453125 L 41.671875 -49.453125 L 44.71875 -49.34375 L 44.71875 -52.59375 L 19.953125 -52.59375 L 19.953125 -33.390625 L 57.53125 -33.390625 L 57.53125 -25.515625 L 20.046875 -25.515625 L 19.84375 -19.734375 C 19.769531 -15.179688 19.421875 -11.40625 18.796875 -8.40625 C 18.023438 -4.195312 16.519531 -0.429688 14.28125 2.890625 C 12.039062 6.210938 9.453125 8.710938 6.515625 10.390625 C 5.460938 10.953125 4.757812 11.269531 4.40625 11.34375 C 4.332031 11.40625 4.265625 11.332031 4.203125 11.125 C 4.128906 10.632812 4.09375 7.835938 4.09375 2.734375 L 4.09375 -6.09375 L 4.625 -6.921875 C 6.019531 -9.160156 6.894531 -11.894531 7.25 -15.125 C 7.382812 -16.375 7.453125 -24.175781 7.453125 -38.53125 C 7.378906 -49.238281 7.328125 -55.519531 7.296875 -57.375 C 7.265625 -59.226562 7.140625 -60.257812 6.921875 -60.46875 C 6.648438 -60.75 6.335938 -60.992188 5.984375 -61.203125 C 5.847656 -61.273438 5.914062 -61.3125 6.1875 -61.3125 C 6.820312 -61.382812 9.691406 -61.421875 14.796875 -61.421875 L 24.046875 -61.421875 L 24.046875 -66.453125 C 24.046875 -69.816406 23.972656 -71.671875 23.828125 -72.015625 C 23.546875 -73.140625 23.054688 -73.84375 22.359375 -74.125 C 22.015625 -74.257812 21.769531 -74.394531 21.625 -74.53125 Z M 58.796875 -74.328125 C 58.367188 -74.460938 58.15625 -74.566406 58.15625 -74.640625 C 58.15625 -74.710938 58.296875 -74.710938 58.578125 -74.640625 C 58.859375 -74.566406 61.554688 -74.53125 66.671875 -74.53125 L 74.21875 -74.53125 L 74.21875 -54.375 L 89.859375 -54.375 L 89.859375 -41.46875 L 74.015625 -41.46875 L 74.125 -38.640625 C 74.1875 -36.609375 74.320312 -34.75 74.53125 -33.0625 C 75.164062 -29.289062 75.585938 -27.265625 75.796875 -26.984375 C 75.867188 -26.835938 76.046875 -27.34375 76.328125 -28.5 C 76.609375 -29.65625 76.867188 -30.953125 77.109375 -32.390625 C 77.359375 -33.828125 77.515625 -34.925781 77.578125 -35.6875 C 77.648438 -36.601562 77.722656 -37.34375 77.796875 -37.90625 L 77.890625 -38.734375 L 89.234375 -38.734375 L 89.125 -36.53125 C 88.707031 -28.757812 86.820312 -21.625 83.46875 -15.125 L 82.09375 -12.28125 L 83.046875 -11.34375 C 84.648438 -9.445312 86.570312 -7.726562 88.8125 -6.1875 L 90.59375 -5.140625 L 90.5 2.734375 C 90.5 7.910156 90.394531 10.5 90.1875 10.5 C 89.96875 10.5 89.125 10.179688 87.65625 9.546875 C 86.1875 8.921875 85.066406 8.398438 84.296875 7.984375 C 81.148438 6.160156 78.144531 3.78125 75.28125 0.84375 C 74.851562 0.414062 74.460938 0.03125 74.109375 -0.3125 C 73.765625 -0.664062 73.503906 -0.910156 73.328125 -1.046875 C 73.148438 -1.191406 73.03125 -1.265625 72.96875 -1.265625 C 72.894531 -1.046875 72.050781 -0.273438 70.4375 1.046875 C 67.007812 3.921875 63.648438 6.195312 60.359375 7.875 L 58.375 8.921875 L 58.375 -7.984375 L 60.6875 -9.140625 C 62.925781 -10.179688 64.78125 -11.332031 66.25 -12.59375 C 66.25 -12.59375 66.109375 -13.050781 65.828125 -13.96875 C 62.953125 -20.40625 61.410156 -28.347656 61.203125 -37.796875 L 61.09375 -41.46875 L 57.953125 -41.46875 L 57.953125 -54.375 L 61.09375 -54.375 L 61.09375 -62.671875 C 61.09375 -68.203125 60.988281 -71.285156 60.78125 -71.921875 C 60.4375 -73.109375 59.773438 -73.910156 58.796875 -74.328125 Z M 40.3125 -67.078125 L 40.3125 -71.171875 L 56.59375 -71.171875 L 56.59375 -63.09375 L 40.3125 -63.09375 Z M 76.953125 -68.34375 C 76.816406 -68.414062 76.882812 -68.453125 77.15625 -68.453125 C 77.644531 -68.523438 79.640625 -68.59375 83.140625 -68.65625 L 89.765625 -68.65625 L 89.765625 -64.453125 C 89.765625 -61.796875 89.765625 -60.15625 89.765625 -59.53125 L 89.65625 -58.46875 L 77.890625 -58.46875 L 77.890625 -62.890625 C 77.890625 -65.191406 77.835938 -66.625 77.734375 -67.1875 C 77.628906 -67.75 77.367188 -68.132812 76.953125 -68.34375 Z M 21.109375 -23.203125 C 20.753906 -23.546875 20.628906 -23.734375 20.734375 -23.765625 C 20.835938 -23.804688 22.882812 -23.789062 26.875 -23.71875 L 32.96875 -23.71875 L 32.96875 -19.421875 L 33.28125 -20.15625 C 33.84375 -21.488281 34.859375 -22.503906 36.328125 -23.203125 L 37.484375 -23.625 L 46.828125 -23.71875 L 56.265625 -23.71875 L 56.375 -23.3125 C 56.445312 -22.882812 56.445312 -21.867188 56.375 -20.265625 C 56.375 -19.566406 56.375 -16.734375 56.375 -11.765625 L 56.375 -5.875 L 21.84375 -5.875 L 21.734375 -7.03125 C 21.660156 -7.875 21.625 -10.640625 21.625 -15.328125 L 21.625 -22.671875 Z M 45.359375 -14.59375 L 45.359375 -17.109375 L 32.96875 -17.109375 L 32.96875 -12.171875 L 45.359375 -12.171875 Z M 41.671875 -4.40625 C 42.023438 -4.476562 44.195312 -4.515625 48.1875 -4.515625 L 54.28125 -4.515625 L 54.28125 0.625 L 55.640625 0.625 L 57.109375 0.734375 L 57.21875 5.046875 L 57.21875 9.453125 L 18.15625 9.453125 L 18.15625 0.84375 L 20.6875 0.734375 L 23.203125 0.734375 L 23.3125 -0.9375 C 23.3125 -2.132812 23.171875 -2.925781 22.890625 -3.3125 C 22.609375 -3.695312 22.289062 -3.957031 21.9375 -4.09375 C 21.800781 -4.164062 21.90625 -4.234375 22.25 -4.296875 C 22.738281 -4.367188 24.628906 -4.40625 27.921875 -4.40625 L 34.328125 -4.40625 L 34.4375 -1.890625 L 34.4375 0.734375 L 42.40625 0.734375 L 42.40625 -0.9375 C 42.40625 -2.625 42.09375 -3.675781 41.46875 -4.09375 C 41.332031 -4.226562 41.28125 -4.3125 41.3125 -4.34375 C 41.34375 -4.382812 41.460938 -4.40625 41.671875 -4.40625 Z M 41.671875 -4.40625 "/></g></g></g><g fill="#ffffff" fill-opacity="1"><g transform="translate(316.500855, 406.492348)"><g><path d="M 35.59375 -53.125 L 37.484375 -53.015625 C 41.679688 -52.804688 45.441406 -51.929688 48.765625 -50.390625 C 52.085938 -48.847656 54.921875 -46.78125 57.265625 -44.1875 C 59.609375 -41.601562 61.425781 -38.597656 62.71875 -35.171875 C 64.019531 -31.742188 64.773438 -28 64.984375 -23.9375 C 65.265625 -17.425781 64.109375 -11.507812 61.515625 -6.1875 C 57.878906 1.15625 51.894531 5.769531 43.5625 7.65625 C 41.039062 8.363281 38.734375 8.71875 36.640625 8.71875 L 35.796875 8.71875 L 35.6875 5.5625 C 35.757812 4.445312 35.796875 3.3125 35.796875 2.15625 C 35.796875 1 35.796875 -0.242188 35.796875 -1.578125 C 35.796875 -4.234375 35.867188 -5.5625 36.015625 -5.5625 C 37.128906 -5.5625 38.421875 -6.085938 39.890625 -7.140625 C 42.554688 -8.679688 44.269531 -12.039062 45.03125 -17.21875 C 45.101562 -17.78125 45.15625 -18.5 45.1875 -19.375 C 45.226562 -20.25 45.210938 -21.28125 45.140625 -22.46875 C 45.066406 -23.726562 44.992188 -24.773438 44.921875 -25.609375 C 44.859375 -26.453125 44.757812 -27.15625 44.625 -27.71875 C 44.195312 -30.300781 43.40625 -32.554688 42.25 -34.484375 C 41.101562 -36.410156 39.09375 -37.617188 36.21875 -38.109375 L 35.59375 -38.21875 Z M 29.1875 -52.90625 C 29.53125 -52.976562 29.929688 -53.015625 30.390625 -53.015625 C 30.847656 -53.015625 31.359375 -53.050781 31.921875 -53.125 L 33.28125 -53.125 L 33.28125 -46.71875 C 33.28125 -44.6875 33.28125 -43.039062 33.28125 -41.78125 C 33.28125 -40.519531 33.242188 -39.644531 33.171875 -39.15625 L 33.171875 -38.21875 L 32.015625 -37.90625 C 28.734375 -37.34375 26.492188 -35.238281 25.296875 -31.59375 C 24.742188 -29.988281 24.394531 -28.148438 24.25 -26.078125 C 24.113281 -24.015625 24.113281 -21.757812 24.25 -19.3125 C 24.394531 -17.988281 24.570312 -16.644531 24.78125 -15.28125 C 24.988281 -13.914062 25.367188 -12.617188 25.921875 -11.390625 C 26.484375 -10.160156 27.21875 -9.109375 28.125 -8.234375 C 29.039062 -7.359375 30.234375 -6.710938 31.703125 -6.296875 L 33.0625 -5.984375 L 33.171875 1.265625 L 33.171875 8.5 L 31.1875 8.5 C 25.582031 8.5 20.503906 6.960938 15.953125 3.890625 C 9.441406 -0.523438 5.628906 -7.738281 4.515625 -17.75 C 3.535156 -25.863281 4.796875 -33 8.296875 -39.15625 C 10.390625 -42.9375 13.289062 -46.050781 17 -48.5 C 20.71875 -50.945312 24.78125 -52.414062 29.1875 -52.90625 Z M 29.1875 -52.90625 "/></g></g></g><g fill="#ffffff" fill-opacity="1"><g transform="translate(385.789452, 406.492348)"><g><path d="M 45.140625 -53.4375 L 46.1875 -53.4375 L 46.09375 -44.625 L 46.09375 -33.8125 L 44.40625 -33.90625 C 40.769531 -34.113281 37.65625 -33.554688 35.0625 -32.234375 C 33.59375 -31.460938 32.28125 -30.097656 31.125 -28.140625 C 29.96875 -26.179688 29.179688 -23.90625 28.765625 -21.3125 C 28.554688 -20.257812 28.453125 -15.113281 28.453125 -5.875 L 28.453125 7.984375 L 7.34375 7.984375 L 7.34375 -21.3125 C 7.34375 -31.175781 7.328125 -38.488281 7.296875 -43.25 C 7.265625 -48.007812 7.175781 -50.460938 7.03125 -50.609375 C 6.6875 -51.367188 6.195312 -51.890625 5.5625 -52.171875 C 5.488281 -52.242188 5.523438 -52.316406 5.671875 -52.390625 C 6.015625 -52.453125 7.113281 -52.484375 8.96875 -52.484375 C 10.832031 -52.484375 13.441406 -52.484375 16.796875 -52.484375 L 28.453125 -52.484375 L 28.453125 -42.203125 L 29.1875 -43.671875 C 30.519531 -46.816406 32.671875 -49.226562 35.640625 -50.90625 C 38.617188 -52.59375 41.785156 -53.4375 45.140625 -53.4375 Z M 45.140625 -53.4375 "/></g></g></g><g fill="#ffffff" fill-opacity="1"><g transform="translate(186.007752, 527.985927)"><g><path d="M 8.296875 -72.546875 C 7.867188 -72.617188 10.457031 -72.65625 16.0625 -72.65625 L 24.46875 -72.65625 L 24.46875 -64.984375 L 24.78125 -66.03125 C 25.332031 -67.570312 26.273438 -68.921875 27.609375 -70.078125 C 28.941406 -71.234375 30.410156 -72.019531 32.015625 -72.4375 C 32.785156 -72.582031 42.550781 -72.65625 61.3125 -72.65625 L 89.546875 -72.65625 L 89.546875 -60.46875 L 60.578125 -60.46875 L 60.578125 -56.265625 L 85.671875 -56.265625 L 85.671875 -17.109375 L 65.1875 -17.109375 L 65.1875 -9.34375 C 65.1875 -4.9375 65.148438 -2.207031 65.078125 -1.15625 C 65.015625 -0.101562 64.703125 1.015625 64.140625 2.203125 C 63.515625 3.535156 62.585938 4.742188 61.359375 5.828125 C 60.140625 6.910156 58.863281 7.695312 57.53125 8.1875 C 56.269531 8.601562 52.945312 9.023438 47.5625 9.453125 C 44.550781 9.585938 42.972656 9.65625 42.828125 9.65625 C 42.546875 9.65625 42.441406 7.414062 42.515625 2.9375 L 42.515625 -3.890625 L 44.203125 -4.09375 C 44.410156 -4.164062 44.863281 -4.253906 45.5625 -4.359375 C 46.257812 -4.460938 46.75 -4.550781 47.03125 -4.625 C 48.289062 -4.6875 49.128906 -5.175781 49.546875 -6.09375 C 49.828125 -6.4375 49.96875 -8.359375 49.96875 -11.859375 L 49.96875 -17.109375 L 28.65625 -17.109375 L 28.5625 -35.796875 C 28.5625 -48.253906 28.453125 -54.660156 28.234375 -55.015625 C 28.023438 -55.359375 27.710938 -55.640625 27.296875 -55.859375 C 27.015625 -55.992188 27.082031 -56.097656 27.5 -56.171875 C 28.132812 -56.234375 30.898438 -56.265625 35.796875 -56.265625 L 44.71875 -56.265625 L 44.71875 -60.46875 L 24.46875 -60.46875 L 24.46875 -39.15625 C 24.46875 -24.945312 24.359375 -17.179688 24.140625 -15.859375 C 23.160156 -8.921875 20.363281 -3.109375 15.75 1.578125 C 14.5625 2.691406 13.421875 3.632812 12.328125 4.40625 C 11.242188 5.175781 8.988281 6.578125 5.5625 8.609375 L 4.09375 9.546875 L 4.09375 -9.03125 L 5.25 -10.5 C 7.695312 -13.644531 9.238281 -16.863281 9.875 -20.15625 C 10.144531 -21.132812 10.28125 -29.78125 10.28125 -46.09375 C 10.28125 -62.320312 10.175781 -70.578125 9.96875 -70.859375 C 9.550781 -71.703125 8.992188 -72.265625 8.296875 -72.546875 Z M 70.765625 -36.953125 L 70.765625 -44.828125 L 56.6875 -44.828125 C 47.382812 -44.828125 42.675781 -44.753906 42.5625 -44.609375 C 42.457031 -44.472656 42.40625 -41.851562 42.40625 -36.75 L 42.515625 -29.1875 L 70.765625 -29.1875 Z M 46.296875 -37.265625 L 46.296875 -41.578125 L 66.453125 -41.578125 L 66.453125 -32.859375 L 46.296875 -32.859375 Z M 33.59375 -15.640625 C 33.738281 -15.710938 35.800781 -15.710938 39.78125 -15.640625 L 45.765625 -15.640625 L 45.765625 -14.703125 C 45.765625 -12.597656 45.140625 -10.113281 43.890625 -7.25 C 42.484375 -4.238281 40.273438 -1.523438 37.265625 0.890625 C 34.253906 3.304688 30.6875 5.210938 26.5625 6.609375 C 25.019531 7.171875 24.210938 7.453125 24.140625 7.453125 C 24.078125 7.453125 24.046875 5.175781 24.046875 0.625 L 24.046875 -6.1875 L 25.203125 -6.609375 C 27.015625 -7.378906 28.691406 -8.550781 30.234375 -10.125 C 31.773438 -11.707031 32.789062 -13.265625 33.28125 -14.796875 C 33.414062 -15.285156 33.519531 -15.566406 33.59375 -15.640625 Z M 66.765625 -15.640625 L 82.09375 -15.640625 L 82.203125 -14.390625 C 82.335938 -12.566406 83.070312 -10.988281 84.40625 -9.65625 C 85.53125 -8.539062 87.035156 -7.769531 88.921875 -7.34375 L 90.59375 -6.828125 L 90.59375 0 C 90.59375 4.476562 90.5625 6.71875 90.5 6.71875 C 90.144531 6.71875 89.128906 6.523438 87.453125 6.140625 C 85.773438 5.753906 84.617188 5.421875 83.984375 5.140625 C 78.941406 3.535156 75.195312 1.15625 72.75 -2 C 70.789062 -4.582031 69.5 -7.800781 68.875 -11.65625 C 68.59375 -12.976562 68.363281 -13.832031 68.1875 -14.21875 C 68.007812 -14.601562 67.75 -14.90625 67.40625 -15.125 Z M 66.765625 -15.640625 "/></g></g></g><g fill="#ffffff" fill-opacity="1"><g transform="translate(280.492206, 527.985927)"><g><path d="M 73.484375 -74.125 C 73.691406 -74.1875 73.832031 -74.21875 73.90625 -74.21875 C 74.050781 -74.15625 76.675781 -74.125 81.78125 -74.125 L 89.34375 -74.125 L 89.34375 -36.75 C 89.34375 -16.59375 89.320312 -5.128906 89.28125 -2.359375 C 89.25 0.398438 89.09375 2.164062 88.8125 2.9375 C 88.257812 4.6875 87.226562 6.207031 85.71875 7.5 C 84.21875 8.800781 82.554688 9.625 80.734375 9.96875 C 79.265625 10.25 76.007812 10.460938 70.96875 10.609375 C 69.707031 10.671875 68.867188 10.738281 68.453125 10.8125 C 67.816406 10.882812 66.609375 10.953125 64.828125 11.015625 C 63.046875 11.085938 62.132812 11.101562 62.09375 11.0625 C 62.0625 11.03125 62.007812 8.707031 61.9375 4.09375 L 61.9375 -2.734375 L 62.25 -2.734375 C 62.53125 -2.734375 64.210938 -2.800781 67.296875 -2.9375 C 69.816406 -3.082031 71.351562 -3.207031 71.90625 -3.3125 C 72.46875 -3.414062 72.925781 -3.570312 73.28125 -3.78125 C 73.769531 -4.125 74.117188 -4.546875 74.328125 -5.046875 L 74.53125 -5.5625 L 74.53125 -39.15625 C 74.53125 -61.550781 74.5 -72.851562 74.4375 -73.0625 C 74.082031 -73.695312 73.734375 -74.015625 73.390625 -74.015625 Z M 15.328125 -73.0625 L 46.40625 -73.0625 L 46.40625 -72.328125 C 46.257812 -70.722656 46.328125 -69.429688 46.609375 -68.453125 C 46.753906 -68.097656 46.828125 -67.882812 46.828125 -67.8125 C 47.378906 -64.101562 49.160156 -61.269531 52.171875 -59.3125 C 52.878906 -58.75 53.40625 -58.4375 53.75 -58.375 L 54.171875 -58.0625 L 54.171875 -51.546875 C 54.097656 -47.203125 54.023438 -45.015625 53.953125 -44.984375 C 53.890625 -44.953125 53.71875 -44.9375 53.4375 -44.9375 L 53.015625 -45.03125 L 53.015625 -17.84375 L 20.890625 -17.84375 L 20.890625 -16.796875 C 20.890625 -16.023438 20.941406 -15.617188 21.046875 -15.578125 C 21.148438 -15.546875 22.394531 -15.53125 24.78125 -15.53125 L 28.34375 -15.53125 L 28.34375 -9.765625 L 28.5625 -10.28125 C 28.90625 -11.539062 29.566406 -12.660156 30.546875 -13.640625 C 31.390625 -14.410156 32.367188 -14.9375 33.484375 -15.21875 C 33.910156 -15.363281 35.3125 -15.46875 37.6875 -15.53125 C 40.34375 -15.601562 43.664062 -15.601562 47.65625 -15.53125 L 54.0625 -15.53125 L 54.0625 9.765625 L 53.640625 9.875 C 53.429688 9.875 47.585938 9.875 36.109375 9.875 C 24.628906 9.875 18.332031 9.875 17.21875 9.875 L 16.90625 9.875 L 16.90625 4.515625 L 16.796875 -0.84375 L 16.171875 0.109375 C 15.398438 1.648438 14.488281 3.082031 13.4375 4.40625 C 13.082031 4.96875 12.429688 5.71875 11.484375 6.65625 C 10.546875 7.601562 9.832031 8.253906 9.34375 8.609375 C 7.457031 9.941406 6.128906 10.710938 5.359375 10.921875 L 5.046875 10.921875 L 5.046875 -6.921875 L 5.5625 -7.34375 C 6.46875 -7.90625 7.164062 -8.921875 7.65625 -10.390625 C 8.15625 -11.722656 8.578125 -13.300781 8.921875 -15.125 C 9.203125 -16.59375 9.359375 -18.476562 9.390625 -20.78125 C 9.429688 -23.09375 9.453125 -30.300781 9.453125 -42.40625 L 9.453125 -44.40625 L 9.140625 -44.296875 C 7.941406 -43.953125 7.03125 -43.78125 6.40625 -43.78125 L 6.1875 -43.78125 L 6.1875 -57.421875 L 6.828125 -57.53125 C 7.523438 -57.8125 8.363281 -58.265625 9.34375 -58.890625 C 11.164062 -60.085938 12.566406 -61.695312 13.546875 -63.71875 C 14.171875 -65.125 14.660156 -66.597656 15.015625 -68.140625 C 15.222656 -69.398438 15.328125 -70.726562 15.328125 -72.125 Z M 36.109375 -63.9375 L 31.1875 -63.9375 C 28.03125 -63.9375 26.382812 -63.898438 26.25 -63.828125 C 26.039062 -63.828125 25.9375 -63.722656 25.9375 -63.515625 C 25.9375 -62.890625 25.550781 -61.59375 24.78125 -59.625 C 24.570312 -59.132812 24.46875 -58.875 24.46875 -58.84375 C 24.46875 -58.8125 26.617188 -58.796875 30.921875 -58.796875 C 35.222656 -58.796875 37.375 -58.8125 37.375 -58.84375 C 37.375 -58.875 37.304688 -59.101562 37.171875 -59.53125 C 36.742188 -60.644531 36.425781 -61.765625 36.21875 -62.890625 Z M 42.515625 -51.34375 C 42.234375 -51.832031 42.0625 -52.078125 42 -52.078125 L 41.671875 -51.34375 C 41.609375 -51.0625 41.539062 -50.78125 41.46875 -50.5 L 41.265625 -49.875 L 30.03125 -49.96875 L 18.796875 -49.96875 L 18.484375 -49.65625 C 18.265625 -49.445312 17.984375 -49.164062 17.640625 -48.8125 L 16.90625 -48.296875 L 21.203125 -48.296875 L 21.203125 -45.5625 C 21.203125 -45.070312 21.203125 -44.613281 21.203125 -44.1875 C 21.203125 -43.769531 21.203125 -43.457031 21.203125 -43.25 C 21.203125 -43.039062 21.238281 -42.972656 21.3125 -43.046875 C 21.382812 -43.117188 21.453125 -43.289062 21.515625 -43.5625 C 21.734375 -44.332031 22.191406 -45.066406 22.890625 -45.765625 C 23.796875 -46.679688 24.390625 -47.140625 24.671875 -47.140625 C 24.742188 -47.140625 24.882812 -47.175781 25.09375 -47.25 C 25.507812 -47.519531 26.140625 -47.726562 26.984375 -47.875 C 27.191406 -47.945312 28.3125 -47.984375 30.34375 -47.984375 C 32.507812 -47.984375 34.015625 -48.015625 34.859375 -48.078125 C 35.691406 -48.148438 36.984375 -48.1875 38.734375 -48.1875 C 40.484375 -48.1875 41.375 -48.148438 41.40625 -48.078125 C 41.445312 -48.015625 42.203125 -47.984375 43.671875 -47.984375 C 45.140625 -47.984375 45.910156 -48.015625 45.984375 -48.078125 C 46.054688 -48.078125 45.878906 -48.21875 45.453125 -48.5 C 44.265625 -49.476562 43.285156 -50.425781 42.515625 -51.34375 Z M 40.421875 -33.171875 L 40.421875 -39.375 L 21.203125 -39.375 L 21.203125 -36.75 L 37.578125 -36.75 L 37.578125 -29.390625 L 21.3125 -29.390625 L 21.3125 -27.1875 L 40.421875 -27.1875 Z M 41.671875 -2.734375 L 41.671875 -5.984375 L 35.171875 -5.984375 C 30.765625 -5.984375 28.539062 -5.945312 28.5 -5.875 C 28.46875 -5.8125 28.453125 -4.765625 28.453125 -2.734375 L 28.453125 0.3125 L 32.75 0.421875 C 35.625 0.421875 37.832031 0.421875 39.375 0.421875 L 41.671875 0.421875 Z M 61.828125 -69.703125 C 66.734375 -69.703125 69.253906 -69.703125 69.390625 -69.703125 C 69.535156 -69.703125 69.675781 -69.703125 69.8125 -69.703125 L 70.125 -69.609375 L 70.125 -8.71875 L 56.375 -8.71875 L 56.375 -32.328125 C 56.375 -55.429688 56.269531 -67.226562 56.0625 -67.71875 C 55.851562 -68.414062 55.429688 -68.941406 54.796875 -69.296875 C 54.585938 -69.429688 54.484375 -69.515625 54.484375 -69.546875 C 54.484375 -69.585938 56.929688 -69.640625 61.828125 -69.703125 Z M 61.828125 -69.703125 "/></g></g></g><g fill="#ffffff" fill-opacity="1"><g transform="translate(374.976661, 527.985927)"><g><path d="M 17.109375 -74.125 C 17.035156 -74.125 17.050781 -74.140625 17.15625 -74.171875 C 17.269531 -74.203125 17.445312 -74.21875 17.6875 -74.21875 C 17.9375 -74.21875 18.253906 -74.234375 18.640625 -74.265625 C 19.023438 -74.304688 19.53125 -74.328125 20.15625 -74.328125 C 20.789062 -74.328125 21.472656 -74.328125 22.203125 -74.328125 C 22.941406 -74.328125 23.867188 -74.328125 24.984375 -74.328125 L 33.28125 -74.328125 L 33.171875 -72.4375 C 32.609375 -63.34375 30.960938 -55.851562 28.234375 -49.96875 C 27.890625 -48.851562 27.820312 -48.296875 28.03125 -48.296875 C 28.238281 -48.296875 28.359375 -47.050781 28.390625 -44.5625 C 28.429688 -42.082031 28.414062 -33.492188 28.34375 -18.796875 L 28.34375 10.8125 L 20.578125 10.921875 L 12.90625 10.921875 L 12.90625 -8.71875 C 12.90625 -21.800781 12.875 -28.34375 12.8125 -28.34375 C 12.664062 -28.34375 12.5625 -28.304688 12.5 -28.234375 C 12.28125 -27.890625 11.035156 -26.875 8.765625 -25.1875 C 6.492188 -23.507812 5.21875 -22.671875 4.9375 -22.671875 C 4.863281 -22.671875 4.828125 -25.890625 4.828125 -32.328125 L 4.828125 -42.09375 L 5.453125 -42.515625 C 5.878906 -42.796875 6.789062 -43.671875 8.1875 -45.140625 C 11.894531 -48.992188 14.765625 -53.929688 16.796875 -59.953125 C 17.703125 -62.398438 18.347656 -64.914062 18.734375 -67.5 C 19.117188 -70.09375 19.101562 -71.738281 18.6875 -72.4375 C 18.40625 -73.132812 17.878906 -73.695312 17.109375 -74.125 Z M 40 -74.015625 C 39.789062 -74.148438 39.859375 -74.21875 40.203125 -74.21875 C 40.765625 -74.289062 43.25 -74.328125 47.65625 -74.328125 L 55.953125 -74.328125 L 55.859375 -73.90625 C 55.785156 -73.625 55.710938 -72.992188 55.640625 -72.015625 C 55.566406 -71.179688 55.425781 -70.0625 55.21875 -68.65625 L 54.90625 -66.5625 L 89.65625 -66.5625 L 89.65625 -59.734375 L 89.546875 -53.015625 L 76.328125 -52.90625 L 63.09375 -52.90625 L 63.09375 -42.9375 L 64.5625 -42.9375 C 65.476562 -42.9375 69.398438 -42.9375 76.328125 -42.9375 L 86.71875 -42.9375 L 86.71875 -28.96875 L 63.09375 -28.96875 L 63.09375 -20.46875 L 87.140625 -20.46875 L 87.140625 -14.390625 C 87.140625 -10.398438 87.101562 -8.085938 87.03125 -7.453125 L 86.828125 -6.609375 L 63.09375 -6.609375 L 63.09375 11.125 L 47.875 11.125 L 47.765625 -17.953125 L 47.765625 -47.03125 L 46.40625 -45.359375 C 45.632812 -44.234375 44.425781 -42.847656 42.78125 -41.203125 C 41.132812 -39.554688 39.679688 -38.242188 38.421875 -37.265625 C 36.390625 -35.660156 34.394531 -34.296875 32.4375 -33.171875 L 31.390625 -32.65625 L 31.390625 -50.390625 L 33.171875 -52.28125 C 36.742188 -55.914062 39.332031 -60.742188 40.9375 -66.765625 C 41.707031 -69.640625 41.988281 -71.425781 41.78125 -72.125 C 41.4375 -72.96875 40.84375 -73.597656 40 -74.015625 Z M 40 -74.015625 "/></g></g></g><g fill="#ffffff" fill-opacity="1"><g transform="translate(469.461115, 527.985927)"><g><path d="M 12.078125 -72.328125 L 28.65625 -72.328125 L 28.65625 -64.25 L 28.96875 -65.1875 C 29.53125 -66.875 30.492188 -68.328125 31.859375 -69.546875 C 33.222656 -70.773438 34.742188 -71.597656 36.421875 -72.015625 C 37.128906 -72.222656 44.832031 -72.328125 59.53125 -72.328125 L 81.578125 -72.328125 L 81.578125 -58.265625 C 81.578125 -48.890625 81.503906 -43.742188 81.359375 -42.828125 C 81.078125 -41.015625 80.273438 -39.441406 78.953125 -38.109375 C 77.828125 -36.984375 76.492188 -36.25 74.953125 -35.90625 C 74.253906 -35.695312 63.863281 -35.59375 43.78125 -35.59375 L 13.640625 -35.59375 L 13.640625 -52.90625 C 13.640625 -53.332031 13.640625 -53.960938 13.640625 -54.796875 C 13.640625 -62.984375 13.601562 -67.773438 13.53125 -69.171875 C 13.46875 -70.578125 13.191406 -71.457031 12.703125 -71.8125 C 12.628906 -71.8125 12.59375 -71.8125 12.59375 -71.8125 Z M 66.25 -58.796875 L 28.65625 -58.796875 L 28.5625 -54.28125 C 28.5625 -50.425781 28.59375 -48.429688 28.65625 -48.296875 C 28.726562 -48.222656 34.660156 -48.203125 46.453125 -48.234375 C 58.242188 -48.273438 64.242188 -48.328125 64.453125 -48.390625 C 65.085938 -48.671875 65.613281 -49.234375 66.03125 -50.078125 C 66.175781 -50.359375 66.25 -51.898438 66.25 -54.703125 Z M 6.1875 -30.96875 C 5.914062 -31.113281 8.367188 -31.1875 13.546875 -31.1875 L 21.421875 -31.1875 L 21.421875 -24.78125 L 21.734375 -25.609375 C 22.296875 -26.941406 23.171875 -28.097656 24.359375 -29.078125 C 25.546875 -30.054688 26.875 -30.6875 28.34375 -30.96875 C 29.039062 -31.113281 32.191406 -31.1875 37.796875 -31.1875 L 46.09375 -31.1875 L 46.09375 9.140625 L 7.65625 9.140625 L 7.65625 -9.34375 C 7.726562 -21.664062 7.726562 -28.101562 7.65625 -28.65625 C 7.519531 -29.851562 7.03125 -30.625 6.1875 -30.96875 Z M 32.859375 -10.8125 L 32.859375 -17.84375 L 21.421875 -17.84375 L 21.421875 -3.78125 L 32.859375 -3.78125 Z M 48.71875 -30.859375 C 48.570312 -30.929688 48.640625 -31.003906 48.921875 -31.078125 C 49.335938 -31.148438 51.613281 -31.1875 55.75 -31.1875 L 63.3125 -31.1875 L 63.3125 -23.3125 L 63.625 -24.46875 C 63.96875 -25.507812 64.628906 -26.570312 65.609375 -27.65625 C 66.585938 -28.75 67.570312 -29.570312 68.5625 -30.125 C 69.46875 -30.550781 70.410156 -30.816406 71.390625 -30.921875 C 72.367188 -31.023438 75.203125 -31.113281 79.890625 -31.1875 L 88.921875 -31.1875 L 88.921875 9.140625 L 49.875 9.140625 L 49.875 -10.28125 C 49.875 -11.125 49.875 -12.316406 49.875 -13.859375 C 49.800781 -22.117188 49.726562 -26.945312 49.65625 -28.34375 C 49.582031 -29.75 49.335938 -30.554688 48.921875 -30.765625 C 48.847656 -30.828125 48.78125 -30.859375 48.71875 -30.859375 Z M 74.953125 -10.8125 L 74.953125 -17.84375 L 63.3125 -17.84375 L 63.3125 -3.78125 L 74.953125 -3.78125 Z M 74.953125 -10.8125 "/></g></g></g></svg>