<svg xmlns="http://www.w3.org/2000/svg" xmlns:xlink="http://www.w3.org/1999/xlink" width="1000" zoomAndPan="magnify" viewBox="0 0 750 749.999995" height="1000" preserveAspectRatio="xMidYMid meet" version="1.0"><defs><g/><clipPath id="2076f03898"><path d="M 0.898438 0.941406 L 749.058594 0.941406 L 749.058594 749.101562 L 0.898438 749.101562 Z M 0.898438 0.941406 " clip-rule="nonzero"/></clipPath><clipPath id="4815db33cf"><path d="M 0 0.0390625 L 749.960938 0.0390625 L 749.960938 750 L 0 750 Z M 0 0.0390625 " clip-rule="nonzero"/></clipPath><clipPath id="be9ea1f0e8"><path d="M 141.3125 719.816406 L 608.859375 719.816406 L 608.859375 750 L 141.3125 750 Z M 141.3125 719.816406 " clip-rule="nonzero"/></clipPath><clipPath id="85b6b0fc36"><path d="M 141.371094 719.816406 L 608.535156 719.816406 L 608.535156 749.816406 L 141.371094 749.816406 Z M 141.371094 719.816406 " clip-rule="nonzero"/></clipPath><clipPath id="3bde6ed695"><path d="M 322.546875 680.984375 L 424.710938 680.984375 L 424.710938 750 L 322.546875 750 Z M 322.546875 680.984375 " clip-rule="nonzero"/></clipPath><clipPath id="4a5311da20"><path d="M 322.546875 680.984375 L 424.539062 680.984375 L 424.539062 749.980469 L 322.546875 749.980469 Z M 322.546875 680.984375 " clip-rule="nonzero"/></clipPath><clipPath id="b348d18e7e"><path d="M 64.59375 0 L 532.144531 0 L 532.144531 28.726562 L 64.59375 28.726562 Z M 64.59375 0 " clip-rule="nonzero"/></clipPath><clipPath id="a4acdf936f"><path d="M 64.632812 0 L 531.820312 0 L 531.820312 28.5 L 64.632812 28.5 Z M 64.632812 0 " clip-rule="nonzero"/></clipPath></defs><rect x="-75" width="900" fill="#ffffff" y="-74.999999" height="899.999994" fill-opacity="1"/><rect x="-75" width="900" fill="#000000" y="-74.999999" height="899.999994" fill-opacity="1"/><g fill="#ffffff" fill-opacity="1"><g transform="translate(329.78702, 730.216356)"><g><path d="M 24.90625 -42.796875 L 25.921875 -42.796875 C 27.960938 -42.796875 29.945312 -42.507812 31.875 -41.9375 C 33.800781 -41.375 35.554688 -40.550781 37.140625 -39.46875 C 38.734375 -38.382812 40.113281 -37.046875 41.28125 -35.453125 C 42.457031 -33.859375 43.316406 -32.039062 43.859375 -30 C 44.023438 -29.28125 44.148438 -28.679688 44.234375 -28.203125 C 44.316406 -27.722656 44.359375 -27.335938 44.359375 -27.046875 L 44.359375 -26.671875 L 31.9375 -26.671875 L 31.6875 -27.296875 C 31.4375 -28.128906 31.050781 -28.984375 30.53125 -29.859375 C 30.007812 -30.742188 29.453125 -31.375 28.859375 -31.75 C 27.984375 -32.5 26.789062 -32.957031 25.28125 -33.125 L 24.90625 -33.1875 Z M 22.09375 -42.734375 C 22.175781 -42.773438 22.425781 -42.796875 22.84375 -42.796875 L 23.28125 -42.796875 L 23.28125 -33.390625 L 22.65625 -33.125 C 21.4375 -32.664062 20.347656 -31.816406 19.390625 -30.578125 C 18.429688 -29.347656 17.65625 -27.796875 17.0625 -25.921875 C 16.726562 -24.867188 16.5 -23.660156 16.375 -22.296875 C 16.25 -20.941406 16.226562 -19.472656 16.3125 -17.890625 C 16.351562 -16.878906 16.457031 -15.722656 16.625 -14.421875 C 16.789062 -13.128906 17.0625 -11.863281 17.4375 -10.625 C 17.820312 -9.394531 18.335938 -8.265625 18.984375 -7.234375 C 19.628906 -6.210938 20.472656 -5.453125 21.515625 -4.953125 C 21.734375 -4.867188 21.957031 -4.796875 22.1875 -4.734375 C 22.414062 -4.671875 22.632812 -4.597656 22.84375 -4.515625 L 23.40625 -4.390625 L 23.40625 5.140625 L 22.40625 5.078125 C 16.71875 4.742188 12.257812 2.976562 9.03125 -0.21875 C 5.8125 -3.414062 3.828125 -7.710938 3.078125 -13.109375 C 3.035156 -13.535156 2.992188 -14.0625 2.953125 -14.6875 C 2.910156 -15.3125 2.890625 -16.082031 2.890625 -17 C 2.804688 -18.882812 2.804688 -20.304688 2.890625 -21.265625 C 3.429688 -27.046875 5.332031 -31.828125 8.59375 -35.609375 C 11.851562 -39.398438 16.351562 -41.773438 22.09375 -42.734375 Z M 31.75 -10.671875 L 31.9375 -11.109375 L 38.34375 -11.109375 C 42.5625 -11.191406 44.671875 -11.171875 44.671875 -11.046875 C 44.671875 -10.960938 44.609375 -10.5 44.484375 -9.65625 C 44.066406 -7.320312 43.320312 -5.242188 42.25 -3.421875 C 41.1875 -1.597656 39.859375 -0.0625 38.265625 1.1875 C 36.679688 2.445312 34.875 3.410156 32.84375 4.078125 C 30.820312 4.742188 28.640625 5.097656 26.296875 5.140625 L 24.90625 5.203125 L 24.90625 -4.203125 L 25.40625 -4.265625 C 27.039062 -4.472656 28.359375 -5.039062 29.359375 -5.96875 C 30.492188 -7.132812 31.289062 -8.703125 31.75 -10.671875 Z M 31.75 -10.671875 "/></g></g></g><g fill="#ffffff" fill-opacity="1"><g transform="translate(376.662414, 730.216356)"><g><path d="M 20.640625 -42.921875 C 22.648438 -42.921875 24.59375 -42.679688 26.46875 -42.203125 C 28.351562 -41.722656 30.019531 -40.96875 31.46875 -39.9375 C 32.914062 -38.914062 34.066406 -37.597656 34.921875 -35.984375 C 35.773438 -34.378906 36.203125 -32.46875 36.203125 -30.25 C 36.203125 -27.738281 35.601562 -25.632812 34.40625 -23.9375 C 33.21875 -22.238281 31.769531 -21.097656 30.0625 -20.515625 C 30.519531 -20.390625 31.050781 -20.203125 31.65625 -19.953125 C 32.257812 -19.703125 32.875 -19.378906 33.5 -18.984375 C 34.132812 -18.585938 34.734375 -18.125 35.296875 -17.59375 C 35.859375 -17.070312 36.328125 -16.5 36.703125 -15.875 C 37.546875 -14.582031 38.039062 -13.003906 38.1875 -11.140625 C 38.332031 -9.273438 38.113281 -7.398438 37.53125 -5.515625 C 36.894531 -3.597656 35.976562 -1.957031 34.78125 -0.59375 C 33.59375 0.757812 32.210938 1.851562 30.640625 2.6875 C 29.078125 3.53125 27.382812 4.148438 25.5625 4.546875 C 23.75 4.941406 21.898438 5.140625 20.015625 5.140625 C 17.878906 5.140625 15.859375 4.890625 13.953125 4.390625 C 12.054688 3.890625 10.4375 3.140625 9.09375 2.140625 C 8.21875 1.460938 7.410156 0.664062 6.671875 -0.25 C 5.941406 -1.164062 5.316406 -2.15625 4.796875 -3.21875 C 4.273438 -4.289062 3.859375 -5.378906 3.546875 -6.484375 C 3.234375 -7.597656 3.078125 -8.65625 3.078125 -9.65625 L 15.25 -9.65625 C 15.25 -8.820312 15.425781 -8.09375 15.78125 -7.46875 C 16.132812 -6.84375 16.601562 -6.304688 17.1875 -5.859375 C 17.78125 -5.421875 18.441406 -5.085938 19.171875 -4.859375 C 19.898438 -4.628906 20.617188 -4.515625 21.328125 -4.515625 C 22.878906 -4.515625 24.144531 -4.984375 25.125 -5.921875 C 26.113281 -6.867188 26.609375 -8.15625 26.609375 -9.78125 C 26.609375 -13.300781 24.242188 -15.0625 19.515625 -15.0625 L 15.25 -15.0625 L 15.25 -23.15625 L 19.515625 -23.15625 C 21.523438 -23.15625 23.0625 -23.632812 24.125 -24.59375 C 25.195312 -25.5625 25.734375 -26.941406 25.734375 -28.734375 C 25.734375 -30.078125 25.382812 -31.15625 24.6875 -31.96875 C 24 -32.78125 22.835938 -33.1875 21.203125 -33.1875 C 19.367188 -33.1875 17.988281 -32.6875 17.0625 -31.6875 C 16.144531 -30.6875 15.519531 -29.304688 15.1875 -27.546875 L 3.953125 -27.546875 C 4.078125 -28.628906 4.265625 -29.90625 4.515625 -31.375 C 4.765625 -32.84375 5.179688 -34.179688 5.765625 -35.390625 C 6.441406 -36.773438 7.332031 -37.9375 8.4375 -38.875 C 9.550781 -39.8125 10.765625 -40.582031 12.078125 -41.1875 C 13.398438 -41.800781 14.800781 -42.242188 16.28125 -42.515625 C 17.769531 -42.785156 19.222656 -42.921875 20.640625 -42.921875 Z M 20.640625 -42.921875 "/></g></g></g><g fill="#ffffff" fill-opacity="1"><g transform="translate(233.189838, 285.018807)"><g><path d="M 14.796875 -73.703125 L 30.859375 -73.703125 L 30.03125 -72.234375 C 29.675781 -71.597656 28.394531 -69.109375 26.1875 -64.765625 C 23.988281 -60.429688 22.851562 -58.125 22.78125 -57.84375 C 22.707031 -57.84375 23.019531 -57.820312 23.71875 -57.78125 C 24.425781 -57.75 25.351562 -57.734375 26.5 -57.734375 C 27.65625 -57.734375 28.898438 -57.734375 30.234375 -57.734375 L 37.796875 -57.734375 L 37.796875 -62.25 C 37.796875 -64.769531 37.722656 -66.328125 37.578125 -66.921875 C 37.441406 -67.515625 37.09375 -67.988281 36.53125 -68.34375 L 35.90625 -68.875 L 53.125 -68.875 L 53.125 -69.921875 C 53.125 -71.523438 52.53125 -72.710938 51.34375 -73.484375 C 51.125 -73.628906 51.226562 -73.703125 51.65625 -73.703125 C 52.144531 -73.703125 54.554688 -73.703125 58.890625 -73.703125 L 66.765625 -73.703125 L 66.765625 -68.875 L 87.453125 -68.875 L 87.34375 -43.984375 L 87.34375 -19.21875 L 37.796875 -19.21875 L 37.796875 -38.21875 C 37.796875 -41.78125 37.796875 -45.015625 37.796875 -47.921875 C 37.796875 -50.828125 37.773438 -53.082031 37.734375 -54.6875 C 37.703125 -56.300781 37.6875 -57.109375 37.6875 -57.109375 C 37.476562 -56.828125 35.9375 -54.164062 33.0625 -49.125 C 27.75 -39.675781 24.390625 -33.695312 22.984375 -31.1875 C 21.097656 -27.894531 20.15625 -26.175781 20.15625 -26.03125 L 19.734375 -25.296875 L 27.296875 -25.296875 L 27.296875 -29.296875 C 27.296875 -31.390625 27.222656 -32.71875 27.078125 -33.28125 C 26.941406 -33.84375 26.664062 -34.265625 26.25 -34.546875 C 26.039062 -34.679688 26.109375 -34.75 26.453125 -34.75 C 26.804688 -34.820312 28.242188 -34.859375 30.765625 -34.859375 L 35.796875 -34.859375 L 35.796875 -15.4375 L 46.09375 -15.4375 L 46.09375 9.65625 L 37.265625 9.65625 L 37.265625 -1.890625 C 37.265625 -9.660156 37.234375 -13.71875 37.171875 -14.0625 C 37.023438 -14.28125 36.828125 -14.523438 36.578125 -14.796875 C 36.335938 -15.078125 36.113281 -15.21875 35.90625 -15.21875 C 35.832031 -15.21875 35.796875 -14.941406 35.796875 -14.390625 L 35.796875 -13.546875 L 6.296875 -13.546875 L 6.296875 -19.53125 L 6.1875 -25.515625 L 7.34375 -27.296875 C 11.195312 -33.378906 13.125 -36.5625 13.125 -36.84375 C 13.125 -36.988281 11.96875 -37.023438 9.65625 -36.953125 L 5.984375 -36.953125 L 5.984375 -49.125 L 11.34375 -59.734375 C 14.132812 -65.398438 15.738281 -68.789062 16.15625 -69.90625 C 16.582031 -71.03125 16.65625 -71.910156 16.375 -72.546875 C 16.09375 -72.890625 15.78125 -73.171875 15.4375 -73.390625 Z M 75.6875 -43.46875 L 75.6875 -57.84375 L 62.46875 -57.84375 C 53.71875 -57.84375 49.304688 -57.773438 49.234375 -57.640625 C 49.160156 -57.359375 49.125 -52.753906 49.125 -43.828125 C 49.125 -34.910156 49.160156 -30.238281 49.234375 -29.8125 L 49.34375 -29.1875 L 75.6875 -29.1875 Z M 23.828125 -55.53125 C 23.828125 -55.75 23.738281 -56.015625 23.5625 -56.328125 C 23.394531 -56.640625 23.203125 -56.9375 22.984375 -57.21875 C 22.710938 -57.425781 22.398438 -57.179688 22.046875 -56.484375 C 21.765625 -56.066406 21.203125 -55.015625 20.359375 -53.328125 C 18.960938 -50.523438 18.265625 -49.085938 18.265625 -49.015625 C 18.265625 -48.953125 18.582031 -48.921875 19.21875 -48.921875 L 20.15625 -48.921875 L 22.046875 -51.96875 C 23.234375 -54 23.828125 -55.1875 23.828125 -55.53125 Z M 55.328125 -56.796875 L 62.578125 -56.796875 L 62.578125 -54.796875 L 68.34375 -54.796875 L 74.015625 -54.703125 L 74.015625 -50.921875 C 74.015625 -48.328125 73.875 -46.472656 73.59375 -45.359375 C 73.03125 -43.328125 72.222656 -41.503906 71.171875 -39.890625 C 70.828125 -39.328125 70.65625 -39.015625 70.65625 -38.953125 C 70.789062 -38.878906 71.347656 -38.773438 72.328125 -38.640625 L 73.90625 -38.21875 L 73.90625 -34.21875 C 73.976562 -31.5625 73.910156 -30.234375 73.703125 -30.234375 C 72.722656 -30.234375 70.9375 -30.6875 68.34375 -31.59375 C 67.226562 -31.945312 66.25 -32.332031 65.40625 -32.75 L 63.828125 -33.390625 L 62.671875 -32.96875 C 59.453125 -31.425781 55.882812 -30.476562 51.96875 -30.125 L 50.703125 -30.03125 L 50.703125 -38.109375 L 52.078125 -38.21875 C 54.660156 -38.5 55.953125 -38.707031 55.953125 -38.84375 C 55.953125 -38.84375 55.601562 -39.4375 54.90625 -40.625 C 54.132812 -41.675781 53.675781 -42.304688 53.53125 -42.515625 C 53.394531 -42.722656 52.941406 -42.6875 52.171875 -42.40625 C 51.335938 -42.132812 50.847656 -42 50.703125 -42 C 50.566406 -42 50.5 -43.222656 50.5 -45.671875 L 50.5 -49.34375 L 51.4375 -49.96875 C 52.769531 -50.8125 53.75 -51.828125 54.375 -53.015625 C 55.007812 -54.273438 55.328125 -55.359375 55.328125 -56.265625 Z M 66.03125 -47.03125 C 66.03125 -47.175781 65.875 -47.265625 65.5625 -47.296875 C 65.25 -47.328125 64.320312 -47.34375 62.78125 -47.34375 L 59.734375 -47.34375 L 59.109375 -46.828125 C 58.828125 -46.472656 58.6875 -46.257812 58.6875 -46.1875 C 58.6875 -45.90625 59.347656 -45.203125 60.671875 -44.078125 C 62.003906 -42.960938 62.8125 -42.40625 63.09375 -42.40625 C 63.375 -42.40625 63.929688 -43.050781 64.765625 -44.34375 C 65.609375 -45.644531 66.03125 -46.539062 66.03125 -47.03125 Z M 48.296875 -16.375 L 60.15625 -16.375 L 60.15625 -9.65625 L 60.265625 -2.9375 L 60.78125 -2.3125 C 61.414062 -1.394531 62.363281 -0.9375 63.625 -0.9375 C 64.664062 -0.9375 68.09375 -1.289062 73.90625 -2 C 73.976562 -2 74.050781 -1.820312 74.125 -1.46875 C 74.125 -0.976562 74.125 0.835938 74.125 3.984375 C 74.125 8.046875 74.125 10.113281 74.125 10.1875 C 74.050781 10.25 71.25 10.316406 65.71875 10.390625 C 60.1875 10.390625 56.929688 10.320312 55.953125 10.1875 C 52.109375 9.414062 49.726562 7.175781 48.8125 3.46875 C 48.601562 2.550781 48.460938 -0.984375 48.390625 -7.140625 Z M 63.3125 -10.1875 L 63.3125 -16.375 L 72.859375 -16.375 L 72.859375 -3.984375 L 63.3125 -3.984375 Z M 75.90625 -15.75 L 75.484375 -16.171875 L 86.1875 -16.171875 L 86.1875 -3.046875 L 89.859375 -3.046875 L 89.859375 9.453125 L 76.640625 9.453125 L 76.53125 -2.828125 L 76.53125 -15.328125 Z M 5.140625 -12.171875 C 4.929688 -12.316406 5.019531 -12.40625 5.40625 -12.4375 C 5.789062 -12.476562 7.242188 -12.5 9.765625 -12.5 L 14.90625 -12.5 L 14.90625 9.65625 L 6.40625 9.65625 L 6.40625 -0.3125 C 6.40625 -7.03125 6.300781 -10.632812 6.09375 -11.125 C 5.882812 -11.613281 5.566406 -11.960938 5.140625 -12.171875 Z M 15.859375 -12.5 L 24.78125 -12.5 L 24.78125 9.65625 L 16.59375 9.65625 L 16.59375 -0.9375 C 16.59375 -6.1875 16.570312 -9.285156 16.53125 -10.234375 C 16.5 -11.179688 16.410156 -11.796875 16.265625 -12.078125 Z M 25.203125 -12.5 L 34.4375 -12.5 L 34.4375 -1.46875 L 34.328125 9.546875 L 30.65625 9.546875 L 26.875 9.65625 L 26.875 0 C 26.875 -6.582031 26.835938 -10.082031 26.765625 -10.5 C 26.628906 -10.988281 26.316406 -11.441406 25.828125 -11.859375 Z M 25.203125 -12.5 "/></g></g></g><g fill="#ffffff" fill-opacity="1"><g transform="translate(327.674293, 285.018807)"><g><path d="M 37.578125 -74.53125 L 55.640625 -74.53125 L 55.640625 -69.703125 L 89.65625 -69.703125 L 89.65625 -69.296875 C 89.726562 -69.015625 89.765625 -66.984375 89.765625 -63.203125 L 89.765625 -57.421875 L 4.828125 -57.421875 L 4.828125 -69.703125 L 21.9375 -69.703125 C 33.34375 -69.703125 39.082031 -69.738281 39.15625 -69.8125 C 39.15625 -69.8125 39.15625 -70.351562 39.15625 -71.4375 C 39.15625 -72.519531 39.085938 -73.171875 38.953125 -73.390625 C 38.742188 -73.734375 38.425781 -74.046875 38 -74.328125 Z M 13.234375 -55.328125 C 13.160156 -55.328125 13.242188 -55.328125 13.484375 -55.328125 C 13.734375 -55.328125 14.171875 -55.34375 14.796875 -55.375 C 15.429688 -55.414062 16.269531 -55.4375 17.3125 -55.4375 C 18.363281 -55.4375 19.695312 -55.4375 21.3125 -55.4375 L 29.5 -55.328125 L 29.5 -53.4375 C 29.5 -52.175781 29.429688 -51.265625 29.296875 -50.703125 C 29.148438 -50.148438 29.113281 -49.835938 29.1875 -49.765625 L 29.390625 -49.96875 C 29.742188 -51.375 30.476562 -52.632812 31.59375 -53.75 C 32.300781 -54.382812 33.070312 -54.835938 33.90625 -55.109375 L 34.75 -55.328125 L 57.328125 -55.4375 L 79.890625 -55.4375 L 79.890625 -33.28125 L 14.484375 -33.28125 L 14.484375 -43.359375 C 14.484375 -43.773438 14.484375 -44.332031 14.484375 -45.03125 C 14.484375 -49.582031 14.46875 -52.273438 14.4375 -53.109375 C 14.40625 -53.953125 14.210938 -54.484375 13.859375 -54.703125 C 13.859375 -54.765625 13.859375 -54.796875 13.859375 -54.796875 C 13.578125 -55.078125 13.367188 -55.253906 13.234375 -55.328125 Z M 64.984375 -46.1875 L 47.34375 -46.1875 C 35.519531 -46.1875 29.585938 -46.171875 29.546875 -46.140625 C 29.515625 -46.109375 29.5 -45.953125 29.5 -45.671875 C 29.5 -45.390625 29.5 -44.796875 29.5 -43.890625 L 29.5 -42.40625 L 40.625 -42.40625 C 46.789062 -42.40625 52.707031 -42.40625 58.375 -42.40625 C 62.78125 -42.40625 65 -42.441406 65.03125 -42.515625 C 65.070312 -42.585938 65.09375 -43.21875 65.09375 -44.40625 Z M 17.640625 -30.546875 C 25.128906 -30.617188 29.992188 -30.65625 32.234375 -30.65625 C 33.628906 -30.582031 43.144531 -30.546875 60.78125 -30.546875 L 86.828125 -30.546875 L 86.828125 -15.21875 C 86.828125 -5 86.789062 0.421875 86.71875 1.046875 C 86.4375 3.640625 85.457031 5.8125 83.78125 7.5625 C 82.445312 8.882812 80.867188 9.789062 79.046875 10.28125 C 78.210938 10.5625 77.335938 10.71875 76.421875 10.75 C 75.515625 10.789062 73.101562 10.8125 69.1875 10.8125 L 62.046875 10.8125 L 62.046875 6.71875 L 61.828125 6.71875 C 61.617188 6.644531 55.707031 6.609375 44.09375 6.609375 L 26.671875 6.609375 L 26.671875 -4.09375 C 26.597656 -11.300781 26.523438 -15.007812 26.453125 -15.21875 C 26.378906 -15.5 26.273438 -15.710938 26.140625 -15.859375 C 25.859375 -16.347656 25.472656 -16.695312 24.984375 -16.90625 L 25.09375 -16.90625 C 25.71875 -16.90625 28.09375 -16.90625 32.21875 -16.90625 C 36.351562 -16.90625 38.492188 -16.90625 38.640625 -16.90625 L 38.953125 -16.90625 L 38.953125 -12.5 L 39.375 -13.234375 C 40 -14.554688 41.007812 -15.601562 42.40625 -16.375 C 42.90625 -16.582031 43.46875 -16.757812 44.09375 -16.90625 C 44.300781 -16.90625 48.21875 -16.90625 55.84375 -16.90625 C 63.476562 -16.90625 67.578125 -16.90625 68.140625 -16.90625 L 68.453125 -16.90625 L 68.34375 -9.140625 L 68.34375 -1.15625 L 68.765625 -1.265625 C 70.097656 -1.472656 71.039062 -2.132812 71.59375 -3.25 L 71.921875 -3.890625 L 71.921875 -11.34375 L 72.015625 -18.796875 L 23.515625 -18.796875 L 23.515625 -17.421875 C 23.515625 -12.316406 23.515625 -7.28125 23.515625 -2.3125 L 23.515625 11.4375 L 7.875 11.4375 L 7.875 -8.40625 C 7.945312 -21.625 7.910156 -28.410156 7.765625 -28.765625 C 7.554688 -29.390625 7.066406 -29.914062 6.296875 -30.34375 L 5.78125 -30.546875 Z M 54.703125 -7.25 C 54.421875 -7.25 51.617188 -7.25 46.296875 -7.25 L 38.953125 -7.34375 L 38.953125 -3.15625 L 55.859375 -3.15625 L 55.859375 -7.25 Z M 54.703125 -7.25 "/></g></g></g><g fill="#ffffff" fill-opacity="1"><g transform="translate(422.158747, 285.018807)"><g><path d="M 44.09375 -74.640625 L 52.28125 -74.640625 L 60.46875 -74.53125 L 60.46875 -72.015625 L 60.578125 -69.5 L 90.28125 -69.5 L 90.28125 -57.421875 L 23.3125 -57.421875 L 23.3125 -36.953125 C 23.3125 -23.304688 23.238281 -15.816406 23.09375 -14.484375 C 22.675781 -10.148438 21.3125 -5.953125 19 -1.890625 C 16.6875 2.171875 13.78125 5.460938 10.28125 7.984375 C 9.519531 8.609375 8.367188 9.410156 6.828125 10.390625 C 5.285156 11.367188 4.441406 11.859375 4.296875 11.859375 C 4.160156 11.859375 4.09375 8.957031 4.09375 3.15625 L 4.09375 -5.453125 L 4.828125 -6.609375 C 6.085938 -8.503906 7.171875 -10.640625 8.078125 -13.015625 C 8.359375 -13.929688 8.640625 -14.984375 8.921875 -16.171875 C 9.128906 -17.148438 9.25 -18.8125 9.28125 -21.15625 C 9.320312 -23.5 9.34375 -30.550781 9.34375 -42.3125 C 9.34375 -58.550781 9.238281 -66.878906 9.03125 -67.296875 C 8.613281 -68.273438 7.84375 -68.941406 6.71875 -69.296875 C 6.507812 -69.359375 6.6875 -69.390625 7.25 -69.390625 C 8.082031 -69.460938 10.566406 -69.5 14.703125 -69.5 L 23.3125 -69.5 L 23.3125 -64.671875 L 23.515625 -60.46875 C 23.515625 -60.46875 23.515625 -60.570312 23.515625 -60.78125 C 23.929688 -62.320312 24.679688 -63.753906 25.765625 -65.078125 C 26.859375 -66.410156 28.140625 -67.460938 29.609375 -68.234375 C 30.796875 -68.796875 31.914062 -69.144531 32.96875 -69.28125 C 34.019531 -69.425781 36.222656 -69.5 39.578125 -69.5 L 45.25 -69.5 L 45.359375 -71.171875 C 45.421875 -72.648438 45.140625 -73.664062 44.515625 -74.21875 Z M 30.34375 -56.265625 L 46.71875 -56.265625 L 46.71875 -51.96875 L 66.875 -51.96875 L 66.875 -53.015625 C 66.875 -54.203125 66.488281 -55.078125 65.71875 -55.640625 L 65.09375 -56.265625 L 81.15625 -56.265625 L 81.15625 -51.96875 L 85.453125 -51.859375 L 89.65625 -51.859375 L 89.65625 -41.359375 L 81.265625 -41.359375 L 81.15625 -37.796875 C 81.15625 -35.347656 81.015625 -33.769531 80.734375 -33.0625 C 80.097656 -31.457031 78.90625 -30.164062 77.15625 -29.1875 L 76.015625 -28.65625 L 54.0625 -28.5625 L 32.125 -28.5625 L 32.125 -41.359375 L 25.515625 -41.359375 L 25.515625 -51.96875 L 32.328125 -51.96875 L 32.328125 -52.703125 C 32.328125 -53.960938 31.945312 -54.90625 31.1875 -55.53125 Z M 66.875 -41.359375 L 46.71875 -41.359375 L 46.71875 -40 C 46.71875 -39.019531 46.820312 -38.53125 47.03125 -38.53125 C 47.175781 -38.382812 49.957031 -38.328125 55.375 -38.359375 C 60.800781 -38.398438 63.757812 -38.457031 64.25 -38.53125 C 64.945312 -38.601562 65.554688 -38.882812 66.078125 -39.375 C 66.609375 -39.863281 66.875 -40.382812 66.875 -40.9375 Z M 25.609375 -21.421875 L 25.609375 -26.453125 L 85.03125 -26.453125 L 85.03125 -21.734375 C 85.03125 -19.078125 84.976562 -17.253906 84.875 -16.265625 C 84.769531 -15.285156 84.4375 -14.203125 83.875 -13.015625 C 82.96875 -11.265625 81.78125 -9.515625 80.3125 -7.765625 C 78.84375 -6.015625 77.410156 -4.613281 76.015625 -3.5625 C 75.585938 -3.289062 75.375 -3.117188 75.375 -3.046875 C 75.375 -2.972656 75.96875 -2.882812 77.15625 -2.78125 C 78.351562 -2.675781 79.789062 -2.535156 81.46875 -2.359375 C 83.144531 -2.179688 84.578125 -2.0625 85.765625 -2 C 87.734375 -1.789062 88.992188 -1.6875 89.546875 -1.6875 L 90.28125 -1.578125 L 90.28125 11.015625 L 89.125 10.8125 C 88.21875 10.738281 87.34375 10.671875 86.5 10.609375 C 78.3125 10.046875 69.597656 8.644531 60.359375 6.40625 L 56.0625 5.359375 L 54.484375 5.875 C 45.734375 8.46875 35.203125 10.179688 22.890625 11.015625 L 21.109375 11.234375 L 21.109375 4.625 L 21.203125 -1.890625 L 25.203125 -2.09375 C 29.328125 -2.3125 33.175781 -2.664062 36.75 -3.15625 L 38.53125 -3.359375 L 37.375 -4.203125 C 36.675781 -4.765625 35.765625 -5.585938 34.640625 -6.671875 C 33.523438 -7.753906 32.753906 -8.609375 32.328125 -9.234375 C 31.773438 -10.003906 31.164062 -10.984375 30.5 -12.171875 C 29.832031 -13.367188 29.5 -14.070312 29.5 -14.28125 C 29.5 -14.28125 32.019531 -14.28125 37.0625 -14.28125 L 44.515625 -14.28125 L 45.5625 -13.4375 C 47.875 -11.332031 50.921875 -9.546875 54.703125 -8.078125 L 56.0625 -7.5625 L 57.421875 -8.1875 C 61.128906 -9.726562 64.210938 -11.6875 66.671875 -14.0625 C 67.929688 -15.257812 68.5625 -15.910156 68.5625 -16.015625 C 68.5625 -16.117188 61.421875 -16.171875 47.140625 -16.171875 L 25.609375 -16.171875 Z M 25.609375 -21.421875 "/></g></g></g><g fill="#ffffff" fill-opacity="1"><g transform="translate(128.476623, 406.512385)"><g><path d="M 12.28125 -66.984375 C 12.695312 -69.503906 12.90625 -70.796875 12.90625 -70.859375 C 12.90625 -71.003906 21.0625 -71.078125 37.375 -71.078125 L 59.84375 -71.078125 L 59.21875 -67.40625 C 58.863281 -65.164062 58.5625 -63.363281 58.3125 -62 C 58.070312 -60.632812 57.878906 -59.707031 57.734375 -59.21875 L 57.21875 -55.640625 L 44.09375 -55.640625 C 33.945312 -55.640625 28.800781 -55.570312 28.65625 -55.4375 C 28.59375 -55.363281 28.453125 -54.675781 28.234375 -53.375 C 28.023438 -52.082031 27.796875 -50.628906 27.546875 -49.015625 C 27.304688 -47.410156 27.097656 -45.890625 26.921875 -44.453125 C 26.753906 -43.023438 26.671875 -42.132812 26.671875 -41.78125 C 26.671875 -41.644531 26.984375 -41.820312 27.609375 -42.3125 C 29.429688 -43.988281 32.234375 -45.109375 36.015625 -45.671875 C 36.785156 -45.878906 37.765625 -45.984375 38.953125 -45.984375 C 42.453125 -45.984375 45.707031 -45.578125 48.71875 -44.765625 C 51.726562 -43.960938 54.488281 -42.234375 57 -39.578125 C 60.851562 -35.660156 63.128906 -30.128906 63.828125 -22.984375 C 63.898438 -22.222656 63.953125 -21.367188 63.984375 -20.421875 C 64.023438 -19.472656 64.007812 -18.441406 63.9375 -17.328125 C 63.726562 -12.910156 62.851562 -9.070312 61.3125 -5.8125 C 59.769531 -2.5625 57.703125 0.144531 55.109375 2.3125 C 52.523438 4.476562 49.5 6.085938 46.03125 7.140625 C 42.570312 8.191406 38.773438 8.71875 34.640625 8.71875 C 31.003906 8.71875 27.539062 8.28125 24.25 7.40625 C 20.957031 6.53125 18 5.179688 15.375 3.359375 C 12.75 1.535156 10.5625 -0.753906 8.8125 -3.515625 C 7.0625 -6.273438 5.875 -9.515625 5.25 -13.234375 L 5.140625 -13.75 L 25.515625 -13.640625 L 25.71875 -12.8125 C 26.28125 -10.707031 27.414062 -9.0625 29.125 -7.875 C 30.84375 -6.6875 32.820312 -6.09375 35.0625 -6.09375 C 36.53125 -6.09375 37.945312 -6.316406 39.3125 -6.765625 C 40.675781 -7.222656 41.816406 -8.082031 42.734375 -9.34375 C 44.410156 -11.375 45.25 -14.59375 45.25 -19 C 45.25 -23.550781 44.515625 -26.664062 43.046875 -28.34375 C 41.859375 -29.53125 40.597656 -30.316406 39.265625 -30.703125 C 37.929688 -31.085938 36.460938 -31.28125 34.859375 -31.28125 C 33.453125 -31.28125 32.15625 -31.125 30.96875 -30.8125 C 29.78125 -30.5 28.800781 -29.992188 28.03125 -29.296875 C 26.90625 -28.171875 26.097656 -26.835938 25.609375 -25.296875 L 25.40625 -23.828125 L 24.359375 -24.046875 C 24.148438 -24.046875 23.660156 -24.097656 22.890625 -24.203125 C 22.117188 -24.304688 21.523438 -24.394531 21.109375 -24.46875 C 18.515625 -24.738281 16.113281 -25.015625 13.90625 -25.296875 C 11.707031 -25.578125 9.660156 -25.789062 7.765625 -25.9375 C 6.992188 -26.070312 6.609375 -26.175781 6.609375 -26.25 C 6.609375 -26.875 6.675781 -27.742188 6.8125 -28.859375 C 6.957031 -29.984375 7.117188 -31.140625 7.296875 -32.328125 C 7.472656 -33.523438 7.644531 -34.664062 7.8125 -35.75 C 7.988281 -36.832031 8.148438 -37.6875 8.296875 -38.3125 C 8.921875 -43.144531 9.566406 -47.921875 10.234375 -52.640625 C 10.898438 -57.367188 11.582031 -62.148438 12.28125 -66.984375 Z M 12.28125 -66.984375 "/></g></g></g><g fill="#ffffff" fill-opacity="1"><g transform="translate(196.715394, 406.512385)"><g><path d="M 33.171875 -71.390625 C 34.921875 -71.390625 36.53125 -71.335938 38 -71.234375 C 39.46875 -71.128906 40.898438 -70.914062 42.296875 -70.59375 C 43.703125 -70.28125 45.085938 -69.828125 46.453125 -69.234375 C 47.816406 -68.640625 49.234375 -67.816406 50.703125 -66.765625 C 51.054688 -66.554688 51.53125 -66.207031 52.125 -65.71875 C 52.71875 -65.226562 53.296875 -64.703125 53.859375 -64.140625 C 54.421875 -63.585938 54.960938 -63.03125 55.484375 -62.46875 C 56.003906 -61.90625 56.375 -61.445312 56.59375 -61.09375 C 60.363281 -55.914062 62.707031 -49.128906 63.625 -40.734375 C 63.6875 -39.753906 63.734375 -38.546875 63.765625 -37.109375 C 63.804688 -35.671875 63.828125 -34.046875 63.828125 -32.234375 C 63.828125 -30.410156 63.804688 -28.675781 63.765625 -27.03125 C 63.734375 -25.382812 63.6875 -24.109375 63.625 -23.203125 C 63.0625 -18.796875 62.0625 -14.664062 60.625 -10.8125 C 59.1875 -6.96875 57.222656 -3.625 54.734375 -0.78125 C 52.253906 2.050781 49.226562 4.289062 45.65625 5.9375 C 42.09375 7.582031 37.894531 8.40625 33.0625 8.40625 C 26.90625 8.40625 21.625 6.738281 17.21875 3.40625 C 12.8125 0.0820312 9.554688 -4.445312 7.453125 -10.1875 C 6.679688 -12.28125 6.050781 -14.625 5.5625 -17.21875 C 5.070312 -19.8125 4.703125 -22.503906 4.453125 -25.296875 C 4.210938 -28.097656 4.125 -30.953125 4.1875 -33.859375 C 4.257812 -36.765625 4.507812 -39.582031 4.9375 -42.3125 C 5.5 -46.300781 6.476562 -50.0625 7.875 -53.59375 C 9.269531 -57.125 11.101562 -60.203125 13.375 -62.828125 C 15.65625 -65.453125 18.441406 -67.535156 21.734375 -69.078125 C 25.023438 -70.617188 28.835938 -71.390625 33.171875 -71.390625 Z M 37.171875 -56.0625 C 36.398438 -56.414062 35.628906 -56.625 34.859375 -56.6875 C 28.554688 -57.113281 25.265625 -50.046875 24.984375 -35.484375 C 24.910156 -33.523438 24.910156 -31.425781 24.984375 -29.1875 C 25.054688 -26.945312 25.195312 -24.8125 25.40625 -22.78125 C 25.820312 -18.71875 26.347656 -15.460938 26.984375 -13.015625 C 27.546875 -11.191406 28.296875 -9.546875 29.234375 -8.078125 C 30.179688 -6.609375 31.671875 -5.875 33.703125 -5.875 C 34.609375 -5.875 35.476562 -6.03125 36.3125 -6.34375 C 37.15625 -6.664062 37.859375 -7.140625 38.421875 -7.765625 C 39.472656 -8.816406 40.3125 -10.375 40.9375 -12.4375 C 41.570312 -14.5 42.046875 -16.738281 42.359375 -19.15625 C 42.671875 -21.570312 42.863281 -23.953125 42.9375 -26.296875 C 43.007812 -28.640625 43.046875 -30.582031 43.046875 -32.125 C 43.046875 -33.664062 43.007812 -35.640625 42.9375 -38.046875 C 42.863281 -40.460938 42.632812 -42.894531 42.25 -45.34375 C 41.863281 -47.800781 41.269531 -50.039062 40.46875 -52.0625 C 39.664062 -54.09375 38.566406 -55.425781 37.171875 -56.0625 Z M 37.171875 -56.0625 "/></g></g></g><g fill="#ffffff" fill-opacity="1"><g transform="translate(264.954166, 406.512385)"><g><path d="M 29.921875 -52.8125 C 30.410156 -52.875 30.863281 -52.90625 31.28125 -52.90625 C 31.707031 -52.90625 32.09375 -52.941406 32.4375 -53.015625 L 33.390625 -53.015625 L 33.390625 -45.5625 L 33.28125 -38.3125 L 32.328125 -38.21875 C 30.796875 -37.789062 29.554688 -37.050781 28.609375 -36 C 27.660156 -34.957031 26.921875 -33.785156 26.390625 -32.484375 C 25.867188 -31.191406 25.519531 -29.8125 25.34375 -28.34375 C 25.175781 -26.875 25.054688 -25.441406 24.984375 -24.046875 C 24.847656 -17.671875 25.375 -13.050781 26.5625 -10.1875 C 27.050781 -8.925781 27.875 -7.910156 29.03125 -7.140625 C 30.1875 -6.367188 31.460938 -5.984375 32.859375 -5.984375 L 33.390625 -5.984375 L 33.390625 8.40625 L 32.328125 8.40625 C 30.515625 8.40625 28.414062 8.101562 26.03125 7.5 C 23.65625 6.90625 21.519531 6.222656 19.625 5.453125 C 16.0625 3.847656 13.226562 1.875 11.125 -0.46875 C 9.03125 -2.8125 7.382812 -5.835938 6.1875 -9.546875 C 4.789062 -13.753906 4.160156 -18.476562 4.296875 -23.71875 C 4.441406 -27.644531 5.144531 -31.25 6.40625 -34.53125 C 7.664062 -37.820312 9.394531 -40.726562 11.59375 -43.25 C 13.800781 -45.769531 16.441406 -47.832031 19.515625 -49.4375 C 22.597656 -51.050781 26.066406 -52.175781 29.921875 -52.8125 Z M 35.796875 -53.015625 L 37.6875 -52.90625 C 40.976562 -52.695312 43.988281 -52 46.71875 -50.8125 C 49.445312 -49.625 51.828125 -48.03125 53.859375 -46.03125 C 55.890625 -44.039062 57.566406 -41.710938 58.890625 -39.046875 C 60.222656 -36.390625 61.132812 -33.488281 61.625 -30.34375 L 61.625 -29.703125 L 41.671875 -29.703125 L 41.265625 -31.703125 C 40.910156 -33.941406 40.398438 -35.550781 39.734375 -36.53125 C 39.066406 -37.507812 38.070312 -38.070312 36.75 -38.21875 L 35.796875 -38.3125 Z M 41.046875 -13.015625 L 41.671875 -14.703125 L 61.3125 -14.703125 L 61.203125 -13.75 C 60.921875 -11.019531 60.113281 -8.34375 58.78125 -5.71875 C 57.457031 -3.09375 55.851562 -0.765625 53.96875 1.265625 C 49.695312 5.523438 44.164062 7.867188 37.375 8.296875 L 36.109375 8.296875 L 36.109375 -5.875 L 36.84375 -6.40625 C 38.53125 -7.382812 39.929688 -9.585938 41.046875 -13.015625 Z M 41.046875 -13.015625 "/></g></g></g><g fill="#ffffff" fill-opacity="1"><g transform="translate(329.203602, 406.512385)"><g><path d="M 39.46875 -53.015625 C 41.007812 -53.222656 42.878906 -53.289062 45.078125 -53.21875 C 47.285156 -53.15625 49.054688 -52.945312 50.390625 -52.59375 C 53.816406 -51.6875 56.617188 -49.660156 58.796875 -46.515625 C 59.078125 -45.953125 59.25 -45.671875 59.3125 -45.671875 C 59.382812 -45.671875 59.84375 -46.085938 60.6875 -46.921875 C 64.113281 -50.210938 68.273438 -52.242188 73.171875 -53.015625 C 76.535156 -53.503906 79.753906 -53.328125 82.828125 -52.484375 C 85.910156 -51.648438 88.394531 -50.285156 90.28125 -48.390625 C 92.945312 -45.734375 94.875 -41.742188 96.0625 -36.421875 C 96.195312 -35.441406 96.300781 -27.847656 96.375 -13.640625 L 96.484375 7.984375 L 75.375 7.984375 L 75.375 -32.859375 L 74.859375 -34.125 C 74.296875 -35.875 73.347656 -36.890625 72.015625 -37.171875 C 69.566406 -37.929688 67.503906 -37.894531 65.828125 -37.0625 C 64.421875 -36.363281 63.226562 -34.539062 62.25 -31.59375 L 61.828125 -30.34375 L 61.828125 -11.34375 L 61.734375 7.984375 L 40.53125 7.984375 L 40.53125 -33.59375 L 40.203125 -34.640625 C 39.503906 -36.460938 37.929688 -37.515625 35.484375 -37.796875 C 33.453125 -37.929688 31.773438 -37.367188 30.453125 -36.109375 C 29.328125 -34.921875 28.519531 -33.347656 28.03125 -31.390625 C 27.957031 -31.035156 27.882812 -30.613281 27.8125 -30.125 C 27.75 -29.632812 27.71875 -28.9375 27.71875 -28.03125 C 27.644531 -27.125 27.609375 -25.269531 27.609375 -22.46875 C 27.609375 -19.664062 27.609375 -15.882812 27.609375 -11.125 L 27.609375 7.984375 L 6.71875 7.984375 L 6.71875 -27.71875 C 6.71875 -33.875 6.71875 -38.648438 6.71875 -42.046875 C 6.71875 -45.441406 6.679688 -47.664062 6.609375 -48.71875 C 6.472656 -50.738281 6.195312 -51.859375 5.78125 -52.078125 C 5.707031 -52.140625 5.632812 -52.171875 5.5625 -52.171875 C 5.351562 -52.316406 5.457031 -52.421875 5.875 -52.484375 L 27.609375 -52.484375 L 27.609375 -45.359375 L 28.34375 -46.40625 C 30.863281 -50.113281 34.570312 -52.316406 39.46875 -53.015625 Z M 39.46875 -53.015625 "/></g></g></g><g fill="#ffffff" fill-opacity="1"><g transform="translate(432.50659, 406.512385)"><g><path d="M 9.96875 -73.703125 C 9.757812 -73.765625 9.65625 -73.8125 9.65625 -73.84375 C 9.65625 -73.882812 12.597656 -73.90625 18.484375 -73.90625 L 27.1875 -73.90625 L 27.1875 -42.09375 C 27.1875 -20.882812 27.222656 -10.28125 27.296875 -10.28125 C 27.503906 -10.21875 28.164062 -10.203125 29.28125 -10.234375 C 30.40625 -10.265625 31.285156 -10.316406 31.921875 -10.390625 C 32.410156 -10.460938 32.757812 -10.515625 32.96875 -10.546875 C 33.175781 -10.585938 33.332031 -10.609375 33.4375 -10.609375 C 33.539062 -10.609375 33.609375 -10.609375 33.640625 -10.609375 C 33.679688 -10.609375 33.703125 -10.570312 33.703125 -10.5 C 33.628906 -10.351562 33.59375 -8.007812 33.59375 -3.46875 L 33.59375 3.46875 L 32.546875 3.5625 C 27.859375 3.78125 25.054688 3.921875 24.140625 3.984375 C 18.546875 4.546875 15.1875 4.863281 14.0625 4.9375 C 12.382812 5.144531 10.8125 5.316406 9.34375 5.453125 C 9.207031 5.453125 8.960938 5.46875 8.609375 5.5 C 8.253906 5.539062 7.847656 5.578125 7.390625 5.609375 C 6.941406 5.648438 6.539062 5.707031 6.1875 5.78125 C 4.65625 5.84375 3.867188 5.875 3.828125 5.875 C 3.796875 5.875 3.78125 3.566406 3.78125 -1.046875 L 3.78125 -7.984375 L 4.515625 -8.078125 C 5.140625 -8.148438 6.015625 -8.257812 7.140625 -8.40625 C 8.535156 -8.46875 9.582031 -8.535156 10.28125 -8.609375 L 11.4375 -8.71875 L 11.4375 -40.3125 C 11.4375 -61.3125 11.367188 -71.984375 11.234375 -72.328125 C 11.023438 -73.035156 10.601562 -73.492188 9.96875 -73.703125 Z M 62.890625 -73.796875 C 62.890625 -73.796875 63.046875 -73.8125 63.359375 -73.84375 C 63.671875 -73.882812 64.125 -73.90625 64.71875 -73.90625 C 65.3125 -73.90625 66.007812 -73.90625 66.8125 -73.90625 C 67.625 -73.90625 68.535156 -73.90625 69.546875 -73.90625 C 70.566406 -73.90625 71.671875 -73.90625 72.859375 -73.90625 L 82.828125 -73.90625 L 82.9375 -73.390625 C 83.007812 -73.035156 83.046875 -70.671875 83.046875 -66.296875 C 83.046875 -61.921875 83.007812 -59.140625 82.9375 -57.953125 C 82.582031 -49.203125 81.640625 -41.78125 80.109375 -35.6875 C 79.128906 -31.351562 78.039062 -27.859375 76.84375 -25.203125 C 76.144531 -23.585938 75.796875 -22.710938 75.796875 -22.578125 C 75.796875 -22.429688 76.21875 -21.625 77.0625 -20.15625 C 78.457031 -17.78125 80.238281 -15.503906 82.40625 -13.328125 C 84.644531 -11.023438 87.128906 -9.242188 89.859375 -7.984375 L 90.8125 -7.5625 L 90.8125 1.6875 C 90.8125 7.769531 90.773438 10.8125 90.703125 10.8125 C 90.492188 10.8125 89.128906 10.253906 86.609375 9.140625 C 83.953125 7.878906 81.75 6.757812 80 5.78125 C 76.78125 3.882812 73.976562 1.710938 71.59375 -0.734375 C 69.425781 -2.835938 67.609375 -4.972656 66.140625 -7.140625 C 66.003906 -7.210938 65.582031 -6.894531 64.875 -6.1875 C 62.632812 -3.8125 60.363281 -1.710938 58.0625 0.109375 C 54.976562 2.347656 51.617188 4.34375 47.984375 6.09375 C 47.910156 6.15625 47 6.609375 45.25 7.453125 C 44.0625 8.015625 42.132812 8.710938 39.46875 9.546875 C 38.488281 9.828125 37.6875 10.070312 37.0625 10.28125 C 36.144531 10.5 35.648438 10.609375 35.578125 10.609375 C 35.515625 10.609375 35.484375 8.015625 35.484375 2.828125 L 35.484375 -5.046875 L 36.421875 -5.5625 C 37.679688 -6.125 38.976562 -6.820312 40.3125 -7.65625 C 42.132812 -8.78125 43.328125 -9.585938 43.890625 -10.078125 C 45.492188 -11.335938 46.503906 -12.144531 46.921875 -12.5 C 47.203125 -12.707031 47.445312 -12.914062 47.65625 -13.125 C 49.40625 -14.382812 51.15625 -16.03125 52.90625 -18.0625 C 53.75 -18.96875 54.59375 -20.015625 55.4375 -21.203125 C 57.394531 -24.003906 59.175781 -27.085938 60.78125 -30.453125 C 62.320312 -33.941406 63.492188 -37.488281 64.296875 -41.09375 C 65.109375 -44.707031 65.6875 -49.207031 66.03125 -54.59375 C 66.238281 -57.8125 66.34375 -61.253906 66.34375 -64.921875 C 66.34375 -68.597656 66.238281 -70.753906 66.03125 -71.390625 C 65.820312 -71.804688 65.472656 -72.242188 64.984375 -72.703125 C 64.492188 -73.160156 64.003906 -73.457031 63.515625 -73.59375 C 63.160156 -73.664062 62.953125 -73.734375 62.890625 -73.796875 Z M 36.953125 -66.5625 L 53.96875 -66.5625 L 53.96875 -31.28125 L 46.828125 -31.1875 C 41.992188 -31.1875 39.472656 -31.21875 39.265625 -31.28125 L 39.046875 -31.28125 L 39.046875 -64.5625 L 38.734375 -65.09375 C 38.453125 -65.65625 38 -66.070312 37.375 -66.34375 Z M 36.953125 -66.5625 "/></g></g></g><g fill="#ffffff" fill-opacity="1"><g transform="translate(526.991022, 406.512385)"><g><path d="M 34.953125 -72.96875 C 34.742188 -73.03125 34.78125 -73.0625 35.0625 -73.0625 C 35.476562 -73.0625 38.3125 -73.0625 43.5625 -73.0625 L 52.59375 -73.0625 L 52.59375 -38.53125 C 52.59375 -15.289062 52.59375 -3.632812 52.59375 -3.5625 C 52.664062 -3.5 58.894531 -3.46875 71.28125 -3.46875 C 83.664062 -3.46875 89.894531 -3.445312 89.96875 -3.40625 C 90.039062 -3.375 90.078125 -1.15625 90.078125 3.25 C 90.078125 7.664062 90.078125 9.941406 90.078125 10.078125 C 90.003906 10.148438 75.726562 10.1875 47.25 10.1875 L 4.515625 10.1875 L 4.515625 -3.46875 L 20.46875 -3.46875 C 31.039062 -3.46875 36.378906 -3.484375 36.484375 -3.515625 C 36.585938 -3.546875 36.601562 -14.691406 36.53125 -36.953125 C 36.53125 -59.210938 36.492188 -70.515625 36.421875 -70.859375 C 36.285156 -71.628906 36.039062 -72.191406 35.6875 -72.546875 C 35.476562 -72.679688 35.234375 -72.820312 34.953125 -72.96875 Z M 55.53125 -38.953125 C 55.53125 -43.429688 55.582031 -45.703125 55.6875 -45.765625 C 55.800781 -45.835938 60.960938 -45.875 71.171875 -45.875 L 86.5 -45.875 L 86.5 -32.234375 L 55.53125 -32.234375 Z M 55.53125 -38.953125 "/></g></g></g><g fill="#ffffff" fill-opacity="1"><g transform="translate(186.000926, 528.005964)"><g><path d="M 15.328125 -74.4375 C 15.398438 -74.4375 18.09375 -74.4375 23.40625 -74.4375 L 31.390625 -74.4375 L 31.28125 -71.703125 C 31.21875 -65.117188 30.378906 -59.378906 28.765625 -54.484375 C 28.203125 -52.734375 27.363281 -50.492188 26.25 -47.765625 C 26.3125 -47.628906 26.484375 -47.5625 26.765625 -47.5625 L 27.5 -47.5625 L 27.5 11.34375 L 12.171875 11.34375 L 12.171875 -28.234375 L 11.4375 -27.5 C 10.601562 -26.800781 9.273438 -25.835938 7.453125 -24.609375 C 5.628906 -23.390625 4.613281 -22.78125 4.40625 -22.78125 C 4.332031 -22.78125 4.296875 -25.960938 4.296875 -32.328125 L 4.296875 -41.78125 L 5.046875 -42.40625 C 6.515625 -43.601562 8.035156 -45.285156 9.609375 -47.453125 C 11.179688 -49.617188 12.457031 -51.820312 13.4375 -54.0625 C 14.625 -56.582031 15.65625 -59.539062 16.53125 -62.9375 C 17.40625 -66.332031 17.84375 -68.867188 17.84375 -70.546875 C 17.84375 -71.878906 17.285156 -72.894531 16.171875 -73.59375 C 15.890625 -73.800781 15.675781 -73.972656 15.53125 -74.109375 C 15.394531 -74.253906 15.328125 -74.363281 15.328125 -74.4375 Z M 85.359375 -71.703125 C 86.265625 -71.847656 86.800781 -71.898438 86.96875 -71.859375 C 87.144531 -71.828125 87.269531 -71.707031 87.34375 -71.5 C 87.414062 -71.144531 87.453125 -68.796875 87.453125 -64.453125 L 87.453125 -57.84375 L 86.5 -57.84375 C 85.664062 -57.707031 82.867188 -57.535156 78.109375 -57.328125 C 73.765625 -57.109375 70.753906 -56.929688 69.078125 -56.796875 L 67.5 -56.6875 L 67.5 -38.53125 L 89.65625 -38.53125 L 89.65625 -24.46875 L 67.5 -24.46875 L 67.5 -5.359375 L 88.1875 -5.359375 L 88.1875 8.71875 L 32.234375 8.71875 L 32.234375 -5.359375 L 51.859375 -5.359375 L 51.859375 -24.46875 L 30.546875 -24.46875 L 30.546875 -38.53125 L 51.859375 -38.53125 L 51.859375 -56.0625 L 50.5 -55.953125 C 49.863281 -55.890625 47.007812 -55.734375 41.9375 -55.484375 C 36.863281 -55.234375 34.117188 -55.109375 33.703125 -55.109375 C 33.554688 -55.109375 33.46875 -55.40625 33.4375 -56 C 33.40625 -56.601562 33.390625 -58.582031 33.390625 -61.9375 L 33.390625 -68.875 L 34.125 -68.875 C 34.539062 -68.875 38.804688 -69.082031 46.921875 -69.5 C 48.535156 -69.632812 50.617188 -69.769531 53.171875 -69.90625 C 55.722656 -70.050781 57.734375 -70.175781 59.203125 -70.28125 C 60.679688 -70.382812 61.664062 -70.4375 62.15625 -70.4375 C 64.25 -70.582031 68.515625 -70.828125 74.953125 -71.171875 C 76.566406 -71.242188 78.195312 -71.332031 79.84375 -71.4375 C 81.488281 -71.539062 82.816406 -71.609375 83.828125 -71.640625 C 84.847656 -71.679688 85.359375 -71.703125 85.359375 -71.703125 Z M 85.359375 -71.703125 "/></g></g></g><g fill="#ffffff" fill-opacity="1"><g transform="translate(280.485381, 528.005964)"><g><path d="M 5.359375 -36.75 L 5.359375 -42.9375 L 90.1875 -42.9375 L 90.1875 -30.453125 L 5.359375 -30.453125 Z M 5.359375 -36.75 "/></g></g></g><g fill="#ffffff" fill-opacity="1"><g transform="translate(374.969835, 528.005964)"><g><path d="M 53.640625 -73.796875 C 53.367188 -73.941406 53.441406 -74.050781 53.859375 -74.125 C 54.347656 -74.125 56.304688 -74.125 59.734375 -74.125 L 66.453125 -74.125 L 66.5625 -72.96875 C 66.632812 -72.332031 66.632812 -70.722656 66.5625 -68.140625 L 66.453125 -64.453125 L 69.8125 -64.453125 L 69.8125 -68.453125 C 69.8125 -70.691406 69.773438 -72.003906 69.703125 -72.390625 C 69.640625 -72.773438 69.289062 -73.210938 68.65625 -73.703125 C 68.375 -73.835938 68.410156 -73.90625 68.765625 -73.90625 C 69.328125 -73.90625 71.53125 -73.90625 75.375 -73.90625 L 82.9375 -73.90625 L 82.9375 -64.453125 L 85.875 -64.453125 C 87.832031 -64.453125 88.882812 -64.347656 89.03125 -64.140625 C 89.03125 -64.078125 89.03125 -62.257812 89.03125 -58.6875 C 89.03125 -55.113281 89.03125 -53.117188 89.03125 -52.703125 C 88.957031 -52.628906 87.765625 -52.59375 85.453125 -52.59375 L 81.890625 -52.59375 L 81.78125 -51.96875 C 81.707031 -51.476562 81.671875 -50.078125 81.671875 -47.765625 L 81.671875 -44.203125 L 85.359375 -44.09375 L 89.03125 -43.984375 L 89.03125 -32.015625 L 85.453125 -31.921875 L 81.890625 -31.921875 L 81.78125 -30.453125 C 81.707031 -29.609375 81.671875 -28.378906 81.671875 -26.765625 L 81.671875 -24.671875 L 85.25 -24.671875 C 87.625 -24.671875 88.847656 -24.566406 88.921875 -24.359375 C 89.054688 -24.148438 89.125 -22.082031 89.125 -18.15625 L 89.234375 -12.390625 L 85.453125 -12.28125 L 81.671875 -12.28125 L 81.671875 -8.296875 C 81.671875 -5.628906 81.722656 -4.207031 81.828125 -4.03125 C 81.941406 -3.863281 83.222656 -3.78125 85.671875 -3.78125 C 88.046875 -3.851562 89.476562 -3.851562 89.96875 -3.78125 L 90.59375 -3.671875 L 90.59375 9.453125 L 52.078125 9.453125 L 51.96875 -12.90625 L 51.96875 -35.171875 L 50.8125 -34.21875 L 49.765625 -33.28125 L 49.765625 -41.78125 L 49.65625 -50.390625 L 50.5 -51.234375 C 51.820312 -52.773438 52.90625 -55.1875 53.75 -58.46875 C 54.59375 -61.757812 55.046875 -65.398438 55.109375 -69.390625 C 55.109375 -70.722656 55.09375 -71.53125 55.0625 -71.8125 C 55.03125 -72.09375 54.875 -72.441406 54.59375 -72.859375 C 54.3125 -73.273438 53.992188 -73.585938 53.640625 -73.796875 Z M 69.703125 -48.390625 L 69.703125 -52.59375 L 63.828125 -52.59375 L 63.09375 -50.8125 C 62.601562 -49.6875 62.359375 -49.085938 62.359375 -49.015625 C 62.359375 -48.953125 62.707031 -48.921875 63.40625 -48.921875 L 64.453125 -48.921875 L 64.453125 -44.09375 L 69.703125 -44.09375 Z M 69.703125 -28.34375 L 69.703125 -31.921875 L 64.453125 -31.921875 L 64.453125 -24.671875 L 65.09375 -24.671875 C 65.4375 -24.671875 66.34375 -24.671875 67.8125 -24.671875 L 69.703125 -24.78125 Z M 69.703125 -8.078125 L 69.703125 -12.390625 L 64.453125 -12.390625 L 64.453125 -3.890625 L 65.609375 -3.890625 C 67.359375 -3.890625 68.234375 -3.890625 68.234375 -3.890625 L 69.703125 -3.890625 Z M 5.78125 -71.390625 C 5.5 -71.597656 5.582031 -71.71875 6.03125 -71.75 C 6.488281 -71.789062 8.363281 -71.8125 11.65625 -71.8125 L 18.0625 -71.8125 L 18.15625 -70.96875 C 18.15625 -70.34375 18.15625 -68.800781 18.15625 -66.34375 L 18.0625 -62.78125 L 18.484375 -64.25 C 18.972656 -66 19.914062 -67.554688 21.3125 -68.921875 C 22.707031 -70.285156 24.28125 -71.144531 26.03125 -71.5 C 26.800781 -71.707031 30.757812 -71.8125 37.90625 -71.8125 L 48.609375 -71.8125 L 48.609375 -35.0625 C 48.609375 -10.5625 48.535156 2 48.390625 2.625 C 48.046875 4.238281 47.296875 5.726562 46.140625 7.09375 C 44.984375 8.457031 43.707031 9.382812 42.3125 9.875 C 41.613281 10.082031 39.300781 10.1875 35.375 10.1875 L 29.390625 10.28125 L 29.390625 -1.578125 L 32.234375 -1.6875 C 34.191406 -1.75 35.378906 -1.882812 35.796875 -2.09375 C 36.285156 -2.375 36.671875 -2.757812 36.953125 -3.25 C 37.097656 -3.675781 37.203125 -5.0625 37.265625 -7.40625 C 37.335938 -9.75 37.375 -17.078125 37.375 -29.390625 L 37.375 -59.21875 L 27.828125 -59.21875 C 21.523438 -59.21875 18.335938 -59.109375 18.265625 -58.890625 C 18.191406 -58.679688 18.15625 -51.191406 18.15625 -36.421875 C 18.15625 -24.460938 18.101562 -17.273438 18 -14.859375 C 17.894531 -12.441406 17.597656 -10.039062 17.109375 -7.65625 C 16.273438 -3.601562 14.859375 -0.0390625 12.859375 3.03125 C 10.867188 6.113281 8.398438 8.394531 5.453125 9.875 C 4.679688 10.289062 4.265625 10.5 4.203125 10.5 C 4.054688 10.5 3.984375 7.628906 3.984375 1.890625 C 4.054688 -2.234375 4.109375 -4.71875 4.140625 -5.5625 C 4.179688 -6.40625 4.304688 -6.929688 4.515625 -7.140625 C 5.359375 -8.328125 5.988281 -9.9375 6.40625 -11.96875 C 6.820312 -13.300781 7.066406 -15.628906 7.140625 -18.953125 C 7.210938 -22.273438 7.25 -30.65625 7.25 -44.09375 C 7.175781 -56.832031 7.117188 -64.335938 7.078125 -66.609375 C 7.046875 -68.890625 6.925781 -70.164062 6.71875 -70.4375 C 6.507812 -70.863281 6.195312 -71.179688 5.78125 -71.390625 Z M 21.84375 -57.734375 L 32.328125 -57.734375 L 32.328125 -54.375 L 35.796875 -54.375 L 35.796875 -45.25 L 32.328125 -45.25 L 32.328125 -40.203125 L 36.640625 -40.203125 L 36.640625 -31.1875 L 27.921875 -31.1875 L 19.109375 -31.28125 L 19.109375 -35.6875 L 19.21875 -40.109375 L 21.203125 -40.109375 L 23.3125 -40.203125 L 23.3125 -45.25 L 20.359375 -45.25 L 20.359375 -54.375 L 23.3125 -54.375 L 23.3125 -55.21875 C 23.3125 -56.132812 23.03125 -56.835938 22.46875 -57.328125 Z M 19.84375 -28.03125 C 19.914062 -28.101562 20.960938 -28.140625 22.984375 -28.140625 L 25.9375 -28.140625 L 26.03125 -26.984375 C 26.03125 -26.140625 26.03125 -25.507812 26.03125 -25.09375 L 26.140625 -24.25 L 26.34375 -24.78125 C 26.976562 -26.039062 27.960938 -26.984375 29.296875 -27.609375 C 29.921875 -27.890625 31.144531 -28.066406 32.96875 -28.140625 L 35.6875 -28.140625 L 35.796875 -15.859375 L 35.796875 -3.46875 L 19.625 -3.46875 L 19.625 -15.75 C 19.625 -23.863281 19.695312 -27.957031 19.84375 -28.03125 Z M 29.390625 -15.53125 L 29.390625 -19.3125 L 25.9375 -19.3125 L 25.9375 -11.765625 L 29.390625 -11.765625 Z M 29.390625 -15.53125 "/></g></g></g><g fill="#ffffff" fill-opacity="1"><g transform="translate(469.45429, 528.005964)"><g><path d="M 14.28125 -74.75 C 14.414062 -74.820312 15.078125 -74.820312 16.265625 -74.75 C 17.597656 -74.75 20.050781 -74.75 23.625 -74.75 C 27.257812 -74.75 29.113281 -74.710938 29.1875 -74.640625 C 29.257812 -74.640625 29.273438 -73.957031 29.234375 -72.59375 C 29.203125 -71.226562 29.148438 -70.128906 29.078125 -69.296875 C 28.796875 -67.191406 28.625 -65.859375 28.5625 -65.296875 C 28.5625 -65.222656 28.5625 -65.082031 28.5625 -64.875 L 28.5625 -64.78125 C 28.5625 -64.707031 28.734375 -64.753906 29.078125 -64.921875 C 29.429688 -65.097656 29.867188 -65.328125 30.390625 -65.609375 C 30.921875 -65.890625 31.359375 -66.101562 31.703125 -66.25 C 34.921875 -68.207031 37.054688 -70.832031 38.109375 -74.125 L 38.3125 -74.859375 L 45.03125 -74.859375 C 49.507812 -74.785156 51.75 -74.75 51.75 -74.75 C 51.96875 -74.601562 51.796875 -73.691406 51.234375 -72.015625 C 51.234375 -71.734375 51.300781 -71.59375 51.4375 -71.59375 C 51.582031 -71.53125 55.921875 -71.5 64.453125 -71.5 L 77.265625 -71.5 L 77.265625 -71.171875 C 77.265625 -70.335938 77.09375 -68.800781 76.75 -66.5625 C 76.257812 -64.039062 75.695312 -62.007812 75.0625 -60.46875 C 74.851562 -59.90625 74.710938 -59.59375 74.640625 -59.53125 L 76.109375 -59.3125 C 76.804688 -59.3125 78.382812 -59.3125 80.84375 -59.3125 C 84.96875 -59.382812 87.171875 -59.382812 87.453125 -59.3125 L 87.984375 -59.21875 L 87.984375 -46.828125 C 88.046875 -38.640625 88.046875 -34.4375 87.984375 -34.21875 L 87.984375 -34.015625 L 65.828125 -34.015625 L 65.9375 -33.171875 C 66.144531 -32.335938 66.492188 -31.007812 66.984375 -29.1875 L 67.1875 -28.34375 L 70.03125 -28.34375 C 71.707031 -28.34375 72.929688 -28.34375 73.703125 -28.34375 L 74.640625 -28.34375 L 74.75 -28.03125 C 75.101562 -26.351562 75.382812 -24.535156 75.59375 -22.578125 C 75.59375 -22.359375 75.625 -22.25 75.6875 -22.25 C 75.757812 -22.25 76.054688 -22.6875 76.578125 -23.5625 C 77.109375 -24.4375 77.476562 -25.117188 77.6875 -25.609375 C 78.945312 -28.066406 78.84375 -30.132812 77.375 -31.8125 L 77.15625 -32.125 L 89.34375 -32.125 L 89.34375 -31.5 C 89.34375 -29.257812 89.023438 -26.945312 88.390625 -24.5625 C 87.203125 -20.15625 84.929688 -16.484375 81.578125 -13.546875 C 81.503906 -13.472656 81.222656 -13.257812 80.734375 -12.90625 L 80.515625 -12.59375 L 81.46875 -11.546875 C 83.707031 -8.890625 86.332031 -6.929688 89.34375 -5.671875 L 90.390625 -5.140625 L 90.390625 8.5 L 90.1875 8.40625 C 88.15625 7.90625 86.4375 7.378906 85.03125 6.828125 C 82.375 5.703125 79.925781 4.265625 77.6875 2.515625 C 75.445312 0.765625 73.769531 -1.050781 72.65625 -2.9375 C 71.320312 -5.320312 70.335938 -7.25 69.703125 -8.71875 L 69.390625 -9.453125 L 69.296875 -3.890625 C 69.296875 -0.878906 69.273438 0.867188 69.234375 1.359375 C 69.203125 1.847656 69.082031 2.476562 68.875 3.25 C 68.382812 4.71875 67.367188 6.066406 65.828125 7.296875 C 64.285156 8.523438 62.5 9.414062 60.46875 9.96875 C 59.976562 10.113281 59.523438 10.253906 59.109375 10.390625 C 57.359375 10.878906 54.875 11.226562 51.65625 11.4375 C 50.738281 11.507812 48.789062 11.546875 45.8125 11.546875 C 42.84375 11.546875 41.21875 11.507812 40.9375 11.4375 C 40.875 11.375 40.859375 9.644531 40.890625 6.25 C 40.921875 2.851562 40.921875 1.117188 40.890625 1.046875 C 40.859375 0.972656 40.597656 1.007812 40.109375 1.15625 C 38.210938 1.644531 36.113281 2.132812 33.8125 2.625 C 29.675781 3.320312 27.398438 3.601562 26.984375 3.46875 C 26.835938 3.394531 26.765625 1.851562 26.765625 -1.15625 L 26.875 -5.78125 L 28.140625 -5.875 C 34.085938 -6.363281 39.859375 -7.765625 45.453125 -10.078125 C 48.046875 -11.054688 50.460938 -12.210938 52.703125 -13.546875 C 53.265625 -13.890625 53.789062 -14.203125 54.28125 -14.484375 C 55.113281 -14.910156 55.582031 -15.191406 55.6875 -15.328125 C 55.800781 -15.460938 55.820312 -15.773438 55.75 -16.265625 C 55.601562 -16.972656 55.476562 -17.328125 55.375 -17.328125 C 55.269531 -17.328125 54.90625 -17.148438 54.28125 -16.796875 C 49.445312 -14.066406 42.585938 -11.789062 33.703125 -9.96875 C 30.203125 -9.195312 28.171875 -8.921875 27.609375 -9.140625 C 27.535156 -9.203125 27.5 -10.738281 27.5 -13.75 C 27.5 -16.757812 27.515625 -18.300781 27.546875 -18.375 C 27.585938 -18.445312 27.957031 -18.515625 28.65625 -18.578125 C 30.195312 -18.722656 31.492188 -18.863281 32.546875 -19 C 33.453125 -19.144531 33.941406 -19.21875 34.015625 -19.21875 C 36.179688 -19.5625 38.398438 -20.046875 40.671875 -20.671875 C 42.953125 -21.304688 44.722656 -21.90625 45.984375 -22.46875 C 46.054688 -22.46875 46.507812 -22.640625 47.34375 -22.984375 C 49.03125 -23.691406 50.429688 -24.394531 51.546875 -25.09375 C 51.617188 -25.164062 51.757812 -25.253906 51.96875 -25.359375 C 52.175781 -25.460938 52.347656 -25.515625 52.484375 -25.515625 C 52.910156 -25.796875 53.125 -25.96875 53.125 -26.03125 C 53.125 -26.101562 53.125 -26.382812 53.125 -26.875 C 53.125 -27.363281 53.125 -27.625 53.125 -27.65625 C 53.125 -27.695312 52.804688 -27.578125 52.171875 -27.296875 C 49.929688 -26.109375 46.363281 -24.847656 41.46875 -23.515625 C 40 -23.023438 38.566406 -22.640625 37.171875 -22.359375 C 34.648438 -21.867188 32.09375 -21.554688 29.5 -21.421875 L 28.140625 -21.3125 L 28.140625 -31.390625 L 30.453125 -31.28125 C 33.597656 -31.21875 36.601562 -31.460938 39.46875 -32.015625 C 41.988281 -32.503906 43.878906 -32.992188 45.140625 -33.484375 C 45.773438 -33.835938 45.878906 -34.015625 45.453125 -34.015625 L 29.5 -34.015625 L 29.5 -51.015625 L 28.140625 -51.015625 L 28.140625 -54.171875 C 28.140625 -56.273438 28.140625 -57.429688 28.140625 -57.640625 C 28.140625 -57.703125 28.101562 -58.207031 28.03125 -59.15625 C 27.957031 -60.101562 27.890625 -60.644531 27.828125 -60.78125 C 27.753906 -60.925781 27.71875 -60.976562 27.71875 -60.9375 C 27.71875 -60.90625 27.71875 -60.785156 27.71875 -60.578125 C 27.507812 -59.171875 27.085938 -57.457031 26.453125 -55.4375 C 25.960938 -53.96875 25.4375 -52.492188 24.875 -51.015625 C 24.382812 -49.753906 24.140625 -49.125 24.140625 -49.125 C 24.210938 -48.988281 24.351562 -48.675781 24.5625 -48.1875 L 24.875 -47.5625 L 24.875 -18.15625 L 24.984375 11.125 L 10.1875 11.125 L 10.1875 -30.234375 L 8.71875 -29.1875 C 5.988281 -27.082031 4.410156 -26.03125 3.984375 -26.03125 C 3.984375 -26.03125 3.984375 -29.078125 3.984375 -35.171875 L 3.984375 -44.40625 L 4.9375 -45.25 C 7.664062 -47.976562 9.765625 -50.847656 11.234375 -53.859375 C 12.210938 -55.890625 13.140625 -58.441406 14.015625 -61.515625 C 14.890625 -64.597656 15.46875 -67.4375 15.75 -70.03125 C 15.957031 -71.988281 15.921875 -73.210938 15.640625 -73.703125 C 15.296875 -74.328125 14.84375 -74.640625 14.28125 -74.640625 Z M 60.78125 -60.46875 C 61.269531 -61.3125 61.515625 -61.75 61.515625 -61.78125 C 61.515625 -61.8125 58.859375 -61.828125 53.546875 -61.828125 L 45.5625 -61.828125 L 44.625 -60.890625 C 43.988281 -60.191406 43.425781 -59.597656 42.9375 -59.109375 L 42.203125 -58.375 L 43.046875 -58.375 L 43.046875 -56.6875 C 43.046875 -55.632812 43.046875 -54.757812 43.046875 -54.0625 L 43.046875 -53.015625 L 43.25 -53.75 C 43.53125 -54.726562 44.035156 -55.671875 44.765625 -56.578125 C 45.503906 -57.492188 46.332031 -58.160156 47.25 -58.578125 C 48.007812 -58.929688 49.648438 -59.144531 52.171875 -59.21875 C 52.597656 -59.21875 53.367188 -59.21875 54.484375 -59.21875 L 60.15625 -59.21875 Z M 48.078125 -49.875 C 45.140625 -49.9375 43.632812 -49.96875 43.5625 -49.96875 C 43.289062 -49.96875 43.117188 -49.9375 43.046875 -49.875 C 43.046875 -49.800781 43.046875 -48.609375 43.046875 -46.296875 L 43.046875 -43.046875 L 47.65625 -43.046875 C 50.664062 -43.046875 52.207031 -43.046875 52.28125 -43.046875 C 52.351562 -43.117188 52.351562 -43.851562 52.28125 -45.25 C 52.207031 -46.507812 52.171875 -47.628906 52.171875 -48.609375 L 52.171875 -49.875 Z M 70.03125 -49.875 C 67.15625 -49.875 65.679688 -49.890625 65.609375 -49.921875 C 65.546875 -49.953125 65.40625 -49.96875 65.1875 -49.96875 L 64.78125 -49.875 L 64.875 -46.40625 L 64.875 -43.046875 L 69.5 -42.9375 L 74.125 -42.9375 L 74.125 -43.671875 C 74.1875 -44.160156 74.1875 -45.351562 74.125 -47.25 L 74.125 -49.875 Z M 55.328125 -4.203125 C 55.328125 -4.691406 55.289062 -4.9375 55.21875 -4.9375 C 55.144531 -4.9375 54.898438 -4.757812 54.484375 -4.40625 C 53.578125 -3.707031 52.390625 -3.078125 50.921875 -2.515625 C 47.210938 -1.046875 44.238281 -0.03125 42 0.53125 C 41.570312 0.664062 41.394531 0.769531 41.46875 0.84375 C 41.675781 0.976562 42.757812 1.046875 44.71875 1.046875 C 46.675781 1.046875 48.707031 0.835938 50.8125 0.421875 C 52.425781 0.140625 53.613281 -0.382812 54.375 -1.15625 C 55.007812 -1.78125 55.328125 -2.796875 55.328125 -4.203125 Z M 55.328125 -4.203125 "/></g></g></g><g clip-path="url(#2076f03898)"><path fill="#ffbf3f" d="M 141.296875 723.964844 L 608.707031 723.964844 L 608.707031 708.679688 L 542.945312 708.679688 L 542.945312 693.886719 L 608.59375 693.886719 L 593.472656 678.765625 L 156.441406 678.765625 L 141.296875 693.886719 L 206.945312 693.886719 L 206.945312 708.679688 L 141.296875 708.679688 Z M 64.175781 0.0390625 L 646.941406 0.0390625 L 646.941406 25.164062 L 653.113281 25.164062 L 653.113281 0.0390625 L 672.675781 0.0390625 L 672.675781 25.164062 L 678.84375 25.164062 L 678.84375 0.0390625 L 698.40625 0.0390625 L 698.40625 25.164062 L 704.574219 25.164062 L 704.574219 0.0390625 L 724.160156 0.0390625 L 724.160156 25.164062 L 730.328125 25.164062 L 730.328125 0.0390625 L 749.890625 0.0390625 L 749.890625 749.929688 L 622.355469 749.929688 L 622.355469 693.628906 L 595.714844 666.988281 L 154.246094 666.988281 L 127.578125 693.628906 L 127.578125 749.929688 L 0 749.929688 L 0 66.832031 L 62.28125 66.832031 L 62.28125 0.0390625 Z M 3.691406 49.5625 L 46.953125 49.5625 L 46.953125 3.707031 Z M 48.726562 53.136719 L 50.527344 53.136719 L 50.527344 0.0390625 L 0 0.0390625 L 0 53.136719 Z M 141.296875 736.820312 L 141.296875 748.035156 L 608.707031 748.035156 L 608.707031 736.820312 Z M 158.917969 3.824219 L 158.917969 28.949219 L 746.128906 28.949219 L 746.128906 746.144531 L 626.144531 746.144531 L 626.144531 692.0625 L 597.28125 663.203125 L 152.632812 663.203125 L 123.863281 692.0625 L 123.863281 746.144531 L 3.785156 746.144531 L 3.785156 70.617188 L 66.070312 70.617188 L 66.070312 3.824219 Z M 335.71875 694.402344 L 341.746094 697.882812 L 341.746094 704.894531 L 335.71875 708.378906 L 329.6875 704.894531 L 329.6875 697.882812 Z M 519.128906 686.710938 L 531.820312 694.027344 L 531.820312 708.679688 L 519.128906 716.019531 L 506.441406 708.679688 L 506.441406 694.144531 L 519.128906 686.828125 Z M 395.5 695.757812 L 400.359375 698.5625 L 400.359375 704.171875 L 395.5 706.976562 L 390.636719 704.171875 L 390.636719 698.5625 Z M 486.246094 689.121094 L 496.859375 695.242188 L 496.859375 707.488281 L 486.246094 713.613281 L 475.660156 707.488281 L 475.660156 695.242188 Z M 458.695312 691.128906 L 467.550781 696.246094 L 467.550781 706.484375 L 458.695312 711.578125 L 449.835938 706.484375 L 449.835938 696.246094 Z M 434.949219 692.859375 L 442.289062 697.113281 L 442.289062 705.597656 L 434.949219 709.847656 L 427.679688 705.597656 L 427.679688 697.113281 L 435.042969 692.859375 Z M 414.101562 694.402344 L 420.132812 697.882812 L 420.132812 704.894531 L 414.101562 708.378906 L 408.050781 704.894531 L 408.050781 697.882812 Z M 230.667969 686.710938 L 243.355469 694.027344 L 243.355469 708.679688 L 230.667969 716.019531 L 217.976562 708.679688 L 217.976562 694.144531 L 230.667969 686.828125 Z M 374.910156 695.757812 L 379.746094 698.5625 L 379.746094 704.171875 L 374.910156 706.976562 L 370.050781 704.171875 L 370.050781 698.5625 Z M 354.296875 695.757812 L 359.160156 698.5625 L 359.160156 704.171875 L 354.296875 706.976562 L 349.4375 704.171875 L 349.4375 698.5625 Z M 263.550781 689.121094 L 274.160156 695.242188 L 274.160156 707.488281 L 263.550781 713.613281 L 252.9375 707.488281 L 252.9375 695.242188 Z M 291.125 691.128906 L 299.984375 696.246094 L 299.984375 706.484375 L 291.125 711.578125 L 282.269531 706.484375 L 282.269531 696.246094 Z M 314.871094 692.859375 L 322.210938 697.113281 L 322.210938 705.597656 L 314.871094 709.847656 L 307.507812 705.597656 L 307.507812 697.113281 Z M 314.871094 692.859375 " fill-opacity="1" fill-rule="evenodd"/></g><g clip-path="url(#4815db33cf)"><path stroke-linecap="butt" transform="matrix(0.74996, 0, 0, 0.74996, 0.00000265, 0.0396294)" fill="none" stroke-linejoin="miter" d="M -0.00000353352 -0.000755871 L -0.00000353352 1000.00001 L 1000.000762 1000.00001 L 1000.000762 -0.000755871 L -0.00000353352 -0.000755871 " stroke="#ffbf3f" stroke-width="18.00095" stroke-opacity="1" stroke-miterlimit="4"/></g><g clip-path="url(#be9ea1f0e8)"><path fill="#ffbf3f" d="M 141.3125 719.816406 L 608.898438 719.816406 L 608.898438 750 L 141.3125 750 Z M 141.3125 719.816406 " fill-opacity="1" fill-rule="nonzero"/></g><g clip-path="url(#85b6b0fc36)"><path stroke-linecap="butt" transform="matrix(0.74996, 0, 0, 0.74996, 141.369634, 719.817873)" fill="none" stroke-linejoin="miter" d="M 0.00194622 -0.00195566 L 623.264051 -0.00195566 L 623.264051 40.234546 L 0.00194622 40.234546 Z M 0.00194622 -0.00195566 " stroke="#ffbf3f" stroke-width="18.00095" stroke-opacity="1" stroke-miterlimit="4"/></g><g clip-path="url(#3bde6ed695)"><path fill="#ffbf3f" d="M 322.546875 680.984375 L 424.722656 680.984375 L 424.722656 750 L 322.546875 750 Z M 322.546875 680.984375 " fill-opacity="1" fill-rule="nonzero"/></g><g clip-path="url(#4a5311da20)"><path stroke-linecap="butt" transform="matrix(0.74996, 0, 0, 0.74996, 322.548328, 680.983115)" fill="none" stroke-linejoin="miter" d="M -0.00193708 0.00168034 L 136.213582 0.00168034 L 136.213582 92.016951 L -0.00193708 92.016951 Z M -0.00193708 0.00168034 " stroke="#ffbf3f" stroke-width="18.00095" stroke-opacity="1" stroke-miterlimit="4"/></g><g clip-path="url(#b348d18e7e)"><path fill="#ffbf3f" d="M 64.59375 0 L 532.183594 0 L 532.183594 28.726562 L 64.59375 28.726562 Z M 64.59375 0 " fill-opacity="1" fill-rule="nonzero"/></g><g clip-path="url(#a4acdf936f)"><path stroke-linecap="butt" transform="matrix(0.74996, 0, 0, 0.74996, 64.632993, 0.00002)" fill="none" stroke-linejoin="miter" d="M -0.000240813 -0.0000266681 L 623.319099 -0.0000266681 L 623.319099 38.298869 L -0.000240813 38.298869 Z M -0.000240813 -0.0000266681 " stroke="#ffbf3f" stroke-width="18.00095" stroke-opacity="1" stroke-miterlimit="4"/></g><g fill="#ffffff" fill-opacity="1"><g transform="translate(329.78702, 730.216356)"><g><path d="M 24.90625 -42.796875 L 25.921875 -42.796875 C 27.960938 -42.796875 29.945312 -42.507812 31.875 -41.9375 C 33.800781 -41.375 35.554688 -40.550781 37.140625 -39.46875 C 38.734375 -38.382812 40.113281 -37.046875 41.28125 -35.453125 C 42.457031 -33.859375 43.316406 -32.039062 43.859375 -30 C 44.023438 -29.28125 44.148438 -28.679688 44.234375 -28.203125 C 44.316406 -27.722656 44.359375 -27.335938 44.359375 -27.046875 L 44.359375 -26.671875 L 31.9375 -26.671875 L 31.6875 -27.296875 C 31.4375 -28.128906 31.050781 -28.984375 30.53125 -29.859375 C 30.007812 -30.742188 29.453125 -31.375 28.859375 -31.75 C 27.984375 -32.5 26.789062 -32.957031 25.28125 -33.125 L 24.90625 -33.1875 Z M 22.09375 -42.734375 C 22.175781 -42.773438 22.425781 -42.796875 22.84375 -42.796875 L 23.28125 -42.796875 L 23.28125 -33.390625 L 22.65625 -33.125 C 21.4375 -32.664062 20.347656 -31.816406 19.390625 -30.578125 C 18.429688 -29.347656 17.65625 -27.796875 17.0625 -25.921875 C 16.726562 -24.867188 16.5 -23.660156 16.375 -22.296875 C 16.25 -20.941406 16.226562 -19.472656 16.3125 -17.890625 C 16.351562 -16.878906 16.457031 -15.722656 16.625 -14.421875 C 16.789062 -13.128906 17.0625 -11.863281 17.4375 -10.625 C 17.820312 -9.394531 18.335938 -8.265625 18.984375 -7.234375 C 19.628906 -6.210938 20.472656 -5.453125 21.515625 -4.953125 C 21.734375 -4.867188 21.957031 -4.796875 22.1875 -4.734375 C 22.414062 -4.671875 22.632812 -4.597656 22.84375 -4.515625 L 23.40625 -4.390625 L 23.40625 5.140625 L 22.40625 5.078125 C 16.71875 4.742188 12.257812 2.976562 9.03125 -0.21875 C 5.8125 -3.414062 3.828125 -7.710938 3.078125 -13.109375 C 3.035156 -13.535156 2.992188 -14.0625 2.953125 -14.6875 C 2.910156 -15.3125 2.890625 -16.082031 2.890625 -17 C 2.804688 -18.882812 2.804688 -20.304688 2.890625 -21.265625 C 3.429688 -27.046875 5.332031 -31.828125 8.59375 -35.609375 C 11.851562 -39.398438 16.351562 -41.773438 22.09375 -42.734375 Z M 31.75 -10.671875 L 31.9375 -11.109375 L 38.34375 -11.109375 C 42.5625 -11.191406 44.671875 -11.171875 44.671875 -11.046875 C 44.671875 -10.960938 44.609375 -10.5 44.484375 -9.65625 C 44.066406 -7.320312 43.320312 -5.242188 42.25 -3.421875 C 41.1875 -1.597656 39.859375 -0.0625 38.265625 1.1875 C 36.679688 2.445312 34.875 3.410156 32.84375 4.078125 C 30.820312 4.742188 28.640625 5.097656 26.296875 5.140625 L 24.90625 5.203125 L 24.90625 -4.203125 L 25.40625 -4.265625 C 27.039062 -4.472656 28.359375 -5.039062 29.359375 -5.96875 C 30.492188 -7.132812 31.289062 -8.703125 31.75 -10.671875 Z M 31.75 -10.671875 "/></g></g></g><g fill="#ffffff" fill-opacity="1"><g transform="translate(376.662414, 730.216356)"><g><path d="M 20.640625 -42.921875 C 22.648438 -42.921875 24.59375 -42.679688 26.46875 -42.203125 C 28.351562 -41.722656 30.019531 -40.96875 31.46875 -39.9375 C 32.914062 -38.914062 34.066406 -37.597656 34.921875 -35.984375 C 35.773438 -34.378906 36.203125 -32.46875 36.203125 -30.25 C 36.203125 -27.738281 35.601562 -25.632812 34.40625 -23.9375 C 33.21875 -22.238281 31.769531 -21.097656 30.0625 -20.515625 C 30.519531 -20.390625 31.050781 -20.203125 31.65625 -19.953125 C 32.257812 -19.703125 32.875 -19.378906 33.5 -18.984375 C 34.132812 -18.585938 34.734375 -18.125 35.296875 -17.59375 C 35.859375 -17.070312 36.328125 -16.5 36.703125 -15.875 C 37.546875 -14.582031 38.039062 -13.003906 38.1875 -11.140625 C 38.332031 -9.273438 38.113281 -7.398438 37.53125 -5.515625 C 36.894531 -3.597656 35.976562 -1.957031 34.78125 -0.59375 C 33.59375 0.757812 32.210938 1.851562 30.640625 2.6875 C 29.078125 3.53125 27.382812 4.148438 25.5625 4.546875 C 23.75 4.941406 21.898438 5.140625 20.015625 5.140625 C 17.878906 5.140625 15.859375 4.890625 13.953125 4.390625 C 12.054688 3.890625 10.4375 3.140625 9.09375 2.140625 C 8.21875 1.460938 7.410156 0.664062 6.671875 -0.25 C 5.941406 -1.164062 5.316406 -2.15625 4.796875 -3.21875 C 4.273438 -4.289062 3.859375 -5.378906 3.546875 -6.484375 C 3.234375 -7.597656 3.078125 -8.65625 3.078125 -9.65625 L 15.25 -9.65625 C 15.25 -8.820312 15.425781 -8.09375 15.78125 -7.46875 C 16.132812 -6.84375 16.601562 -6.304688 17.1875 -5.859375 C 17.78125 -5.421875 18.441406 -5.085938 19.171875 -4.859375 C 19.898438 -4.628906 20.617188 -4.515625 21.328125 -4.515625 C 22.878906 -4.515625 24.144531 -4.984375 25.125 -5.921875 C 26.113281 -6.867188 26.609375 -8.15625 26.609375 -9.78125 C 26.609375 -13.300781 24.242188 -15.0625 19.515625 -15.0625 L 15.25 -15.0625 L 15.25 -23.15625 L 19.515625 -23.15625 C 21.523438 -23.15625 23.0625 -23.632812 24.125 -24.59375 C 25.195312 -25.5625 25.734375 -26.941406 25.734375 -28.734375 C 25.734375 -30.078125 25.382812 -31.15625 24.6875 -31.96875 C 24 -32.78125 22.835938 -33.1875 21.203125 -33.1875 C 19.367188 -33.1875 17.988281 -32.6875 17.0625 -31.6875 C 16.144531 -30.6875 15.519531 -29.304688 15.1875 -27.546875 L 3.953125 -27.546875 C 4.078125 -28.628906 4.265625 -29.90625 4.515625 -31.375 C 4.765625 -32.84375 5.179688 -34.179688 5.765625 -35.390625 C 6.441406 -36.773438 7.332031 -37.9375 8.4375 -38.875 C 9.550781 -39.8125 10.765625 -40.582031 12.078125 -41.1875 C 13.398438 -41.800781 14.800781 -42.242188 16.28125 -42.515625 C 17.769531 -42.785156 19.222656 -42.921875 20.640625 -42.921875 Z M 20.640625 -42.921875 "/></g></g></g></svg>